<?xml version="1.0" encoding="utf-8"?>
<!-- Generator: Adobe Illustrator 25.4.1, SVG Export Plug-In . SVG Version: 6.00 Build 0)  -->
<svg version="1.1" id="Layer_1" xmlns="http://www.w3.org/2000/svg" xmlns:xlink="http://www.w3.org/1999/xlink" x="0px" y="0px"
	 viewBox="0 0 512 512" style="enable-background:new 0 0 512 512;" xml:space="preserve">
<path d="M274.6,95.8l0.5,0.2l0.5-0.2v0.4L468.9,175c4.2,1.7,8.8-1.4,8.8-5.9v-82c0-2.6-1.5-4.9-3.9-5.9L289.8,3.8
	c-5.6-2.4-12-1.8-17.1,1.4L27.3,160.9c-1.9,1.2-3,3.2-3,5.4v58.4c0,4.9,5.3,8,9.5,5.6L274.6,96.4V95.8z"/>
<path d="M273.3,279.4l0.5,0.2l0.5-0.2v0.3l190.8,62.8c5.5,1.8,11.3-2.3,11.3-8.1v-61.6c0-3.6-2.2-6.7-5.5-8L283.2,193
	c-5.6-2.1-11.9-1.8-17.2,0.9L27.7,315.8c-2.9,1.5-4.7,4.4-4.7,7.6V379c0,6.2,6.4,10.4,12.1,7.8l238.2-107.1V279.4z"/>
<path d="M24.3,475.2v30.1c0,3.7,3,6.7,6.7,6.7h249.9H471c3.7,0,6.7-3,6.7-6.7v-69c0-3-2-5.7-5-6.5l-197.3-51.4
	c-1.3-0.3-2.7-0.3-4,0.2L28.6,469C26,470,24.3,472.4,24.3,475.2z"/>
<polygon points="274.6,95.8 274.6,96.4 275.1,96 "/>
<polygon points="275.6,95.8 275.1,96 275.6,96.2 "/>
</svg>
