<?xml version="1.0" encoding="utf-8"?>
<!-- Generator: Adobe Illustrator 26.0.1, SVG Export Plug-In . SVG Version: 6.00 Build 0)  -->
<svg version="1.1" id="Layer_1" xmlns="http://www.w3.org/2000/svg" xmlns:xlink="http://www.w3.org/1999/xlink" x="0px" y="0px"
	 viewBox="0 0 448 512" style="enable-background:new 0 0 448 512;" xml:space="preserve">
<path d="M400,32H48C21.5,32,0,53.5,0,80v352c0,26.5,21.5,48,48,48h352c26.5,0,48-21.5,48-48V80C448,53.5,426.5,32,400,32z
	 M316.5,215.8L207.3,404.4c-1.7,2.9-4.8,4.7-8.1,4.7c-2.8,0-5.5-1.3-7.3-3.6c-1.8-2.3-2.5-5.2-1.8-8l28.6-120.7c0.4-1.7,0-3.4-1-4.7
	c-1-1.3-2.6-2.1-4.3-2.1h-73.7c-2.8,0-5.3-1.1-7.1-3.2c-1.8-2-2.7-4.7-2.3-7.4l19.9-148.9c0.6-4.6,4.6-8.1,9.3-8.1h89.3
	c2.9,0,5.6,1.4,7.4,3.7c1.8,2.3,2.4,5.2,1.7,8l-26.4,80.4c-0.5,1.6-0.2,3.5,0.8,4.9c1.1,1.5,2.7,2.3,4.5,2.3h71.6
	c3.4,0,6.4,1.8,8.1,4.7C318.2,209.4,318.2,212.9,316.5,215.8z"/>
</svg>
