<?xml version="1.0" encoding="utf-8"?>
<!-- Generator: Adobe Illustrator 26.0.1, SVG Export Plug-In . SVG Version: 6.00 Build 0)  -->
<svg version="1.1" id="Layer_1" xmlns="http://www.w3.org/2000/svg" xmlns:xlink="http://www.w3.org/1999/xlink" x="0px" y="0px"
	 viewBox="0 0 558 512" style="enable-background:new 0 0 558 512;" xml:space="preserve">
<path d="M235.4,409.2c0.4,0.9-0.6,1.9-1.5,1.6c-21.3-5.4-43.5-22-58.4-52.7c-0.9-1.9-3.6-1.8-4.3,0.2
	c-17.4,50.1-10.9,101.3,23.8,143.8c2.3,2.9-0.9,7-4.3,5.4C11.4,420.4,48,324.7,105.1,221.7l126.6,98.5
	C223.3,348.3,225.4,377.6,235.4,409.2z M543,440.8l-93.9-73.1c10.2-57.7-2.2-124.9-53.4-185.6c-2-2.3-5.7-1.2-6.2,1.8
	c-5.1,35.9-28.5,78.2-47.6,100.4l-4.9-3.8C341,234.6,319.2,92.4,194.2,3c-2.3-1.8-5.6,0-5.5,2.9c1,44.6-15.3,88.2-36.7,130.7
	L39,48.7c-5.2-4.1-12.7-3.1-16.8,2.1L7.5,69.7C3.4,75,4.4,82.5,9.6,86.6l119.3,92.8l0,0l125.3,97.5c0,0,0,0,0-0.1l26.3,20.5v0.1
	L434,416.8v-0.1l79.5,61.8c5.3,4.1,12.8,3.2,16.8-2.1l14.7-18.9C549.2,452.4,548.2,444.9,543,440.8z M352.4,414.1
	c2,20.7-4.8,48.4-27,90.5c-1.3,2.5,0.8,5.5,3.6,5.1c29.5-4.2,58-23.2,80.2-51.4L352.4,414.1z"/>
</svg>
