<?xml version="1.0" encoding="utf-8"?>
<!-- Generator: Adobe Illustrator 26.0.1, SVG Export Plug-In . SVG Version: 6.00 Build 0)  -->
<svg version="1.1" xmlns="http://www.w3.org/2000/svg" xmlns:xlink="http://www.w3.org/1999/xlink" x="0px" y="0px"
	 viewBox="0 0 512 512" style="enable-background:new 0 0 512 512;" xml:space="preserve">
<style type="text/css">
	.st0{display:none;}
	.st1{display:inline;opacity:0.51;}
	.st2{fill:none;}
	.st3{fill:#FFFFFF;}
	.st4{display:inline;}
	.st5{display:inline;fill:#FFFFFF;}
</style>
<g id="Layer_2" class="st0">
	<path class="st1" d="M353.3,345.7l-89.7,155c-4.4,7.6-12.4,12-20.8,12c-15.3,0-26.9-14.3-23.3-29.5l46.1-194.5H146.9
		c-14.5,0-25.7-12.8-23.8-27.2l11.5-86.2L353.3,345.7z M507,343.9L401.9,262l37.7-65.1c9.3-15.9-2.2-36-20.7-36H303.5l42.6-129.8
		c4-15.2-7.5-30.2-23.2-30.2h-144c-12,0-22.2,8.9-23.8,20.8l-5.8,43.4L72.9,5.6c-5.2-4-12.7-3.1-16.8,2.1L41.4,26.6
		c-4.1,5.2-3.1,12.8,2.1,16.8l98.5,76.7v0.1l235.6,183.5l0,0l84.5,65.9l4.6,3.6l0,0l10.8,8.5c5.2,4.1,12.8,3.1,16.8-2.1l14.8-18.9
		C513.2,355.5,512.2,347.9,507,343.9z"/>
</g>
<g id="Layer_1">
	<polygon class="st2" points="407.3,191.8 303.5,191.8 374.6,248.1 	"/>
	<polyline class="st2" points="169.2,182.1 158.9,255.5 261.9,255.5 	"/>
	<polyline class="st2" points="301.2,286.6 299.2,294.8 265.8,436.1 337.3,315.2 	"/>
	<polygon class="st2" points="275.7,149.9 314.3,32.2 188.7,32.2 180.4,94.3 270.5,165.7 	"/>
	<path d="M265.8,436.1l33.4-141.3l1.9-8.2l-39.3-31.1h-103l10.3-73.4l-29.1-23L126,260.4c-1.9,14.4,9.3,27.1,23.7,27.1h118.4
		l-46,194c-3.6,15.2,8,29.4,23.2,29.4c8.3,0,16.4-4.4,20.7-12l96.4-163.8l-25.3-20L265.8,436.1z"/>
	<line class="st3" x1="337.3" y1="315.2" x2="362.6" y2="335.3"/>
	<polygon points="308.5,255.5 261.9,255.5 301.2,286.6 	"/>
	<line x1="399.9" y1="268.1" x2="374.6" y2="248.1"/>
	<line x1="303.5" y1="191.8" x2="270.5" y2="165.7"/>
	<g>
		<path d="M188.7,32.2h125.6l-38.6,117.7l-5.2,15.8l33,26.1h103.8l-32.6,56.3l25.3,20l41.9-72.3c9.3-15.9-2.2-35.9-20.6-35.9H306
			l42.5-129.5c4-15.2-7.5-30.1-23.1-30.1H181.7c-12,0-22.1,8.9-23.7,20.7l-6.7,50.2l29.1,23.1L188.7,32.2z"/>
		<line x1="270.5" y1="165.7" x2="180.4" y2="94.3"/>
		<line x1="374.6" y1="248.1" x2="303.5" y2="191.8"/>
		<path d="M151.3,71.2l-85.9-68c-2.3-1.7-5.2-2.1-7.7-1.2c-1.4,0.5-2.6,1.4-3.5,2.6l-9.9,12.6c-2.7,3.5-2.1,8.5,1.4,11.2
			l442.5,350.4c3.4,2.8,8.5,2.1,11.2-1.4l8.6-11l1.3-1.6c2.7-3.5,2.1-8.5-1.4-11.2l-108-85.5"/>
	</g>
</g>
<g id="Layer_1_copy_2" class="st0">
	<path class="st4" d="M395.9,275.1l45.9-79.3c9.3-15.9-2.2-35.9-20.6-35.9H306l42.5-129.5c4-15.2-7.5-30.1-23.1-30.1H181.7
		c-12,0-22.1,8.9-23.7,20.7l-7.7,57.6l29.5,20.3l8.9-66.7h125.6l-38.6,117.7l-13.8,41.9h145.3l-37.5,64.8L395.9,275.1z M142.3,143.4
		l-16.3,117c-1.9,14.4,9.3,27.1,23.7,27.1h118.4l-46,194c-3.6,15.2,8,29.4,23.2,29.4c8.3,0,16.4-4.4,20.7-12l108.6-184.5l-25-20.5
		l-84,142l33.4-141.3l9.3-39.3H158.9l12.8-91L142.3,143.4z"/>
	<path class="st5" d="M508.5,369.2c-0.9-7.4-4.7-14-10.5-18.6L55.5,0.3l-0.2-0.2C43.1-9.3,25.6-7.1,16.1,5L6.3,17.6l-0.1,0.1
		C-3.2,29.9-1,47.4,11,56.9l442.3,350.3c5,4,11,6.1,17.3,6.1c1.1,0,2.1-0.1,3.2-0.2c7.5-0.8,14.4-4.7,19-10.6l9.9-12.6l0.1-0.1
		C507.4,383.9,509.4,376.6,508.5,369.2z"/>
	<path id="Layer_1_00000034803000575118752950000009411979900757233576_" class="st4" d="M509.3,364.8l-9.9,12.6
		c-2.7,3.5-7.8,4.2-11.2,1.4L45.7,28.4c-3.5-2.7-4.1-7.7-1.4-11.2l9.9-12.6c2.7-3.5,7.7-4.1,11.2-1.4l442.5,350.4
		C511.4,356.3,512,361.3,509.3,364.8z"/>
</g>
</svg>
