<?xml version="1.0" encoding="utf-8"?>
<!-- Generator: Adobe Illustrator 26.0.1, SVG Export Plug-In . SVG Version: 6.00 Build 0)  -->
<svg version="1.1" id="Layer_1" xmlns="http://www.w3.org/2000/svg" xmlns:xlink="http://www.w3.org/1999/xlink" x="0px" y="0px"
	 viewBox="0 0 640 512" style="enable-background:new 0 0 640 512;" xml:space="preserve">
<path d="M307,269.7l23.4,22.2h7.5c5.7,0,10.4,4.6,10.4,10.4v10c0,5.7-4.6,10.4-10.4,10.4h-7.5L307,344.9c-4.1,3.8-10.4,3.8-14.4,0
	l-23.4-22.2H213l63.9,63.9c4.1,4.1,4.1,10.7,0,14.8l-7.1,7.1c-4.1,4.1-10.7,4.1-14.8,0l-63.8-63.9v56.2l22.2,23.4
	c3.8,4.1,3.8,10.4,0,14.4l-22.2,23.5v7.5c0,5.7-4.6,10.4-10.4,10.4h-10c-5.7,0-10.4-4.6-10.4-10.4v-7.5l-22.2-23.4
	c-3.8-4.1-3.8-10.4,0-14.4l22.2-23.4v-56.2l-63.9,63.9c-4.1,4.1-10.7,4.1-14.8,0l-7-7.1c-4.1-4.1-4.1-10.7,0-14.8l63.8-63.9H83.2
	L59.8,345c-4.1,3.8-10.4,3.8-14.4,0l-23.3-22.3h-8.3c-5.8,0.1-10.5-4.6-10.5-10.4v-10c0-5.7,4.6-10.4,10.4-10.4H22l23.4-22.1
	c4.1-3.8,10.4-3.8,14.4,0L83.2,292h55.3l-63.8-63.9c-4.1-4.1-4.1-10.7,0-14.8l7.1-7.1c4.1-4.1,10.7-4.1,14.8,0l63.9,63.8v-55.4
	l-22.2-23.4c-3.8-4.1-3.8-10.4,0-14.4l22.2-23.4v-8.2c0-5.7,4.6-10.4,10.4-10.4h10c5.7,0,10.4,4.6,10.4,10.4v8.2l22.2,23.4
	c3.8,4.1,3.8,10.4,0,14.4l-22.2,23.5V270l63.8-63.8c4.1-4.1,10.7-4.1,14.8,0l7.1,7.1c4.1,4.1,4.1,10.7,0,14.8L213.2,292h56.1
	l23.4-22.2C296.7,265.9,303,265.9,307,269.7z M584.7,140.5c1.5-0.1,2.9-1.1,3.4-2.5l36.1-90.9c0.6-1.4,0.2-2.7-0.2-3.5
	c-0.5-0.9-1.5-1.7-2.7-2l-95.5-20.7c-1.6-0.4-3.1,0.2-4,1.4c-1,1.3-1.1,3-0.4,4.5l18.2,34l-7.2,0.9c-55.2,7.2-107.9-7.1-163.8-22.1
	l-14.2-3.8c-6-1.6-11.9-3.3-18.1-5c-2.5-0.7-5.1-1.4-7.7-2.2c-33.8-9.7-72-20.8-113.1-22.8c-37.1-1.9-72.3,3.7-107.6,17
	c-33.3,11.9-62.5,29.6-89.4,54c-1.9,1.8-3,4.1-3.1,6.6c-0.1,2.7,0.8,5,2.6,6.8l20,20.4c3.5,3.6,9.3,3.8,13,0.5
	c17.1-15.3,52.3-35,53.8-35.8l0.2-0.1c3.8-2,7.7-3.7,11.5-5.3c5.2-2.2,10.3-4.1,15.4-5.8c70.2-23.5,137.6-3.8,209,17.1l0.4,0.1
	c69.3,20.3,141.1,41.3,217.9,24.2l3.7-0.8l17.9,33.6c0.7,1.3,2,2.2,3.5,2.2L584.7,140.5L584.7,140.5z M584.7,322.5
	c1.5-0.1,2.9-1.1,3.4-2.5l36.1-90.9c0.6-1.4,0.2-2.7-0.2-3.5c-0.5-0.9-1.5-1.7-2.7-2l-95.5-20.7c-1.6-0.4-3.1,0.2-4,1.4
	c-1,1.3-1.1,3-0.4,4.5l18.2,33.9l-7.2,0.9c-52.5,6.8-102.8-5.7-155.7-19.9c7.3,17.2,12.4,35.3,15.2,54
	c86.2,22.3,132.9,17.6,167.3,9.9l3.7-0.8l17.9,33.6c0.7,1.3,2,2.2,3.5,2.2h0.4V322.5z M584.7,504.5c1.5-0.1,2.9-1.1,3.4-2.5
	l36.1-90.9c0.6-1.4,0.2-2.6-0.2-3.5c-0.5-0.9-1.5-1.7-2.7-2l-95.5-20.7c-1.6-0.4-3.1,0.2-4,1.4c-1,1.3-1.1,3-0.4,4.5l18.2,34
	l-7.2,0.9c-53.9,7-105.5-6.5-160-21.1c-7.1,14.9-15.9,29.1-26.2,42.2c67.8,19.9,138,39.5,213.1,22.8l3.7-0.8l17.9,33.6
	c0.7,1.3,2,2.2,3.5,2.2h0.3V504.5z"/>
</svg>
