<?xml version="1.0" encoding="utf-8"?>
<!-- Generator: Adobe Illustrator 26.0.1, SVG Export Plug-In . SVG Version: 6.00 Build 0)  -->
<svg version="1.1" id="Layer_1" xmlns="http://www.w3.org/2000/svg" xmlns:xlink="http://www.w3.org/1999/xlink" x="0px" y="0px"
	 viewBox="0 0 448 512" style="enable-background:new 0 0 448 512;" xml:space="preserve">
<path d="M400,32H48C21.5,32,0,53.5,0,80v352c0,26.5,21.5,48,48,48h352c26.5,0,48-21.5,48-48V80C448,53.5,426.5,32,400,32z M48,448
	c-8.8,0-16-7.2-16-16V80c0-8.8,7.2-16,16-16h352c8.8,0,16,7.2,16,16v352c0,8.8-7.2,16-16,16H48z"/>
<g>
	<path d="M362.4,291.8H85.6c-9.9,0-18,8.1-18,18v75.3c0,9.9,8.1,18,18,18h276.8c9.9,0,18-8.1,18-18v-75.3
		C380.4,299.9,372.3,291.8,362.4,291.8z M177.6,366h-47.7v-23.8h13.3v-13.3h21.2v13.3h13.2V366z M249.2,366h-47.7v-23.8h13.2v-13.3
		h21.2v13.3h13.3V366z M323.4,366h-47.7v-23.8h13.2v-13.3h21.3v13.3h13.2V366z"/>
	<path d="M362.4,114.2H85.6c-9.9,0-18,8.1-18,18v75.3c0,9.9,8.1,18,18,18h276.8c9.9,0,18-8.1,18-18v-75.3
		C380.4,122.3,372.3,114.2,362.4,114.2z M177.6,188.4h-47.7v-23.9h13.3v-13.2h21.2v13.2h13.2V188.4z M249.2,188.4h-47.7v-23.9h13.2
		v-13.2h21.2v13.2h13.3V188.4z M323.4,188.4h-47.7v-23.9h13.2v-13.2h21.3v13.2h13.2V188.4z"/>
</g>
</svg>
