<?xml version="1.0" encoding="utf-8"?>
<!-- Generator: Adobe Illustrator 26.0.1, SVG Export Plug-In . SVG Version: 6.00 Build 0)  -->
<svg version="1.1" id="Layer_1" xmlns="http://www.w3.org/2000/svg" xmlns:xlink="http://www.w3.org/1999/xlink" x="0px" y="0px"
	 viewBox="0 0 520 512" style="enable-background:new 0 0 520 512;" xml:space="preserve">
<path d="M361,345l-89.7,155c-4.4,7.6-12.4,12-20.8,12c-15.3,0-26.9-14.3-23.3-29.5L273.3,288H154.6c-14.5,0-25.7-12.8-23.8-27.2
	l11.5-86.2L361,345z M514.7,343.2l-105.1-81.9l37.7-65.1c9.3-15.9-2.2-36-20.7-36H311.2l42.6-129.8c4-15.2-7.5-30.2-23.2-30.2h-144
	c-12,0-22.2,8.9-23.8,20.8L157,64.4L80.6,4.9c-5.2-4-12.7-3.1-16.8,2.1L49.1,25.9C45,31.1,46,38.7,51.2,42.7l98.5,76.7l0,0.1
	L385.3,303l0,0l84.5,65.9l4.6,3.6c0,0,0,0,0,0l10.8,8.5c5.2,4.1,12.8,3.1,16.8-2.1l14.8-18.9C520.9,354.8,519.9,347.2,514.7,343.2z"
	/>
</svg>
