<?xml version="1.0" encoding="utf-8"?>
<!-- Generator: Adobe Illustrator 26.0.0, SVG Export Plug-In . SVG Version: 6.00 Build 0)  -->
<svg version="1.1" id="Layer_1" xmlns="http://www.w3.org/2000/svg" xmlns:xlink="http://www.w3.org/1999/xlink" x="0px" y="0px"
	 viewBox="0 0 256 512" style="enable-background:new 0 0 256 512;" xml:space="preserve">
<path d="M178.6,391c0,27.9-22.7,50.6-50.6,50.6S77.4,418.9,77.4,391c0-22,14.1-40.8,33.7-47.8V192.4c0-9.3,7.6-16.9,16.9-16.9
	s16.9,7.6,16.9,16.9v150.8C164.5,350.2,178.6,368.9,178.6,391z M128.2,510c-0.1,0-0.2,0-0.2,0h-0.8C61.6,509.5,8.5,455.7,8.9,390.2
	c0.2-42.6,21.4-68.9,33.7-82.7V87.3C42.7,40.2,80.9,2,128,2s85.3,38.3,85.3,85.3v220.3c12.3,13.8,33.7,40.3,33.7,83.4
	c0,31.8-12.4,61.7-35,84.2C189.6,497.6,159.8,510,128.2,510z M127.3,474.2h0.7c0.1,0,0.1,0,0.2,0c22.1,0,43-8.6,58.7-24.3
	c15.8-15.8,24.5-36.7,24.5-58.9c0-32.1-16.8-50.8-26.8-62c-0.9-1-1.8-2-2.5-2.8l-4.4-5.1V87.3c0-27.4-22.3-49.6-49.6-49.6
	c-27.4,0-49.6,22.3-49.6,49.6v233.9l-4.5,5.1c-0.7,0.8-1.4,1.6-2.3,2.5c-10,11.1-26.8,29.7-27,61.6
	C44.4,436.3,81.5,473.8,127.3,474.2z"/>
</svg>
