<?xml version="1.0" encoding="utf-8"?>
<!-- Generator: Adobe Illustrator 26.5.0, SVG Export Plug-In . SVG Version: 6.00 Build 0)  -->
<svg version="1.1" id="Layer_1" xmlns="http://www.w3.org/2000/svg" xmlns:xlink="http://www.w3.org/1999/xlink" x="0px" y="0px"
	 viewBox="0 0 512 512" style="enable-background:new 0 0 512 512;" xml:space="preserve">
<g>
	<path d="M321,298.3l1.7-1.7c52.1,13.8,106.9-0.8,144.9-38.9c37.9-38.7,52.8-91.4,39.8-143.3c-2.2-9.5-9.6-17-19-19.6
		c-9.5-2.6-19.6,0-26.6,7l-63.9,63.8l-44.2-7.4l-7.4-44.2l63.9-63.9c6.9-6.9,9.6-17.1,7-26.5c-2.6-9.5-10.2-16.9-19.8-19.2
		C345.7-8.3,292,6.4,254.1,44.2c-37.9,37.9-52.2,92.7-38.6,143.9l-2.3,2.3l-174-174c-6.2-6.2-16.4-6.2-22.6,0
		c-6.2,6.2-6.2,16.4,0,22.6l174,174l-0.1,0.1l22.6,22.6l0.1-0.1l62.5,62.5l-0.1,0.1l22.7,22.7l0.1-0.1l174.7,174.7
		c3.1,3.1,7.2,4.7,11.3,4.7s8.2-1.6,11.3-4.7c6.2-6.2,6.2-16.4,0-22.6L321,298.3z M235.8,213l15.2-15.2l-2.3-9.2
		c-14.4-43.5-3.6-90.1,28-121.8c22.8-22.6,52.8-34.9,83.8-34.9c6.9,0,13.9,0.6,20.8,1.8L312,103l13.8,83l83.1,13.9l69.3-69.4
		c6.8,38.3-5.3,77-33.1,104.7c-31.8,31.8-78.4,42.6-121.8,28.1l-9.4-3.1l-15.5,15.4L235.8,213z"/>
	<path d="M106.1,467.1c-16.6,16.6-45.5,16.6-62.1,0C26.8,450,26.8,422,44,404.8l146.5-146.5l-22.6-22.6L22.2,381.4
		c-29.6,29.6-29.6,77.9,0,107.5C36.5,504.1,55.6,512,76,512c20.2,0,39.2-7.9,53.6-22.2l146.1-146.1l-22.8-22.8L106.1,467.1z"/>
	<circle cx="80" cy="431.1" r="16"/>
</g>
</svg>
