<?xml version="1.0" encoding="utf-8"?>
<!-- Generator: Adobe Illustrator 26.0.0, SVG Export Plug-In . SVG Version: 6.00 Build 0)  -->
<svg version="1.1" id="Layer_1" xmlns="http://www.w3.org/2000/svg" xmlns:xlink="http://www.w3.org/1999/xlink" x="0px" y="0px"
	 viewBox="0 0 512 512" style="enable-background:new 0 0 512 512;" xml:space="preserve">
<path d="M414.9,39.5c-2.1-6.4-8.6-10.8-15.1-10.8c-6.4,0-12.9,4.3-15.1,10.8c-23.6,75.3-70.9,96.8-70.9,150.5
	c0,47.3,38.7,86,83.9,86s83.9-38.7,83.9-86C483.7,136.2,436.3,116.9,414.9,39.5 M156.7,506.9c-76.1,0-138.1-62-138.1-138.1
	c0-28.4,8.8-55.5,25.4-78.9v-174C44,53.7,94.6,3.1,156.8,3.1s112.8,50.6,112.8,112.8v174c16.4,23.3,25.4,51,25.4,78.9
	C295,444.9,233,506.9,156.7,506.9z M156.8,51.1c-35.7,0-64.8,29.1-64.8,64.8v190.5l-5.3,6.6c-13.1,16.3-20.1,35.6-20.1,55.8
	c0,49.7,40.4,90.1,90.1,90.1c49.8,0,90.3-40.4,90.3-90.1c0-19.9-7.1-39.8-20.1-55.8l-5.3-6.6V115.9
	C221.6,80.2,192.5,51.1,156.8,51.1z M214.1,369.4c0,31.5-25.6,57.1-57.1,57.1s-57.1-25.6-57.1-57.1c0-23,13.5-42.5,33-51.6V127.3
	c0-13.3,10.7-24,24-24s24,10.7,24,24v190.6C200.4,327,213.9,346.5,214.1,369.4z"/>
</svg>
