<?xml version="1.0" encoding="utf-8"?>
<!-- Generator: Adobe Illustrator 25.4.1, SVG Export Plug-In . SVG Version: 6.00 Build 0)  -->
<svg version="1.1" id="Layer_1" xmlns="http://www.w3.org/2000/svg" xmlns:xlink="http://www.w3.org/1999/xlink" x="0px" y="0px"
	 viewBox="0 0 512 512" style="enable-background:new 0 0 512 512;" xml:space="preserve">
<path d="M46.2,494.5l-15.6-15.6c-3.5-3.5-3.5-9.2,0-12.7L469.1,27.7c3.5-3.5,9.2-3.5,12.7,0l15.6,15.6c3.5,3.5,3.5,9.2,0,12.7
	L58.9,494.5C55.4,498,49.7,498,46.2,494.5z M492.2,357.8h-4l-16.4-15.7c-4.6-4.4-11.7-4.4-16.2,0l-16.4,15.6h-30.9l41.1-41.2
	c2.3-2.3,3.5-5.2,3.5-8.4s-1.2-6.1-3.5-8.4l-5.3-5.3c-4.7-4.7-12.1-4.7-16.8,0l-41.1,41.1v-30.2l15.6-16.4c4.4-4.5,4.4-11.7,0-16.3
	l-15.6-16.4v-4.6c0-6.5-5.3-11.8-11.8-11.8h-7.5c-6.5,0-11.8,5.3-11.8,11.8v4.6l-15.6,16.4c-4.4,4.5-4.4,11.7,0,16.3l15.6,16.4v30.4
	l-41.2-41.1c-4.7-4.7-12.1-4.7-16.8,0l-5.3,5.3c-4.7,4.7-4.7,12.1,0,16.8l41.1,41.2h-30.4l-16.4-15.6c-4.5-4.4-11.7-4.4-16.3,0
	l-16.4,15.4h-4.6c-6.5,0-11.8,5.3-11.8,11.8v7.5c0,3.2,1.3,6.3,3.5,8.5c2.3,2.2,5.3,3.4,8.4,3.3h4.6l16.3,15.6
	c4.5,4.4,11.7,4.4,16.3,0l16.4-15.6h30.3l-41.1,41.2c-4.7,4.7-4.7,12.1,0,16.8l5.3,5.3c2.3,2.3,5.2,3.5,8.4,3.5s6.1-1.2,8.4-3.5
	l41.2-41.2v31l-15.6,16.6c-4.4,4.5-4.4,11.7,0,16.3l15.6,16.4v4c0,6.5,5.3,11.8,11.8,11.8h7.5c6.5,0,11.8-5.3,11.8-11.8v-4
	l15.6-16.4c4.4-4.5,4.4-11.7,0-16.3l-15.6-16.4V411l41.1,41.2c2.3,2.3,5.2,3.5,8.4,3.5s6.1-1.2,8.4-3.5l5.3-5.3
	c4.7-4.7,4.7-12.1,0-16.8l-41.2-41.2H439l16.4,15.6c4.5,4.4,11.7,4.4,16.3,0l16.4-15.6h4c6.5,0,11.8-5.3,11.8-11.8v-7.5
	C504,363.1,498.7,357.8,492.2,357.8z M115.8,274.6C56.4,274.6,8,230,8,175.3c0-37.2,21.8-60.2,28.9-67.2c2.6-2.6,6.9-2.6,9.5,0
	c1.3,1.3,2,3,2,4.8v33.7c0,26,21.1,47.2,47.2,47.2s47.2-21.1,47.2-47.2c0-60.6-94.9-54.5-33.2-138.4c2.4-3.3,6.3-3.5,8.9-2.7
	c1.4,0.4,4.5,1.9,4.5,5.7c0,28.3,21.1,46.3,43.4,65.4c28.1,24,57.2,48.9,57.2,98.7C223.6,230,175.2,274.6,115.8,274.6z"/>
</svg>
