<?xml version="1.0" encoding="utf-8"?>
<!-- Generator: Adobe Illustrator 26.0.0, SVG Export Plug-In . SVG Version: 6.00 Build 0)  -->
<svg version="1.1" id="Layer_1" xmlns="http://www.w3.org/2000/svg" xmlns:xlink="http://www.w3.org/1999/xlink" x="0px" y="0px"
	 viewBox="0 0 348 512" style="enable-background:new 0 0 348 512;" xml:space="preserve">
<path d="M183.1,506C107,506,45,444,45,367.9c0-28.4,8.8-55.5,25.4-78.9V115C70.4,52.8,121,2.2,183.2,2.2S296,52.8,296,115v174
	c16.4,23.3,25.4,51,25.4,78.9C321.4,444,259.4,506,183.1,506z M183.2,50.2c-35.7,0-64.8,29.1-64.8,64.8v190.5l-5.3,6.6
	C99.9,328.4,93,347.7,93,367.9c0,49.7,40.4,90.1,90.1,90.1c49.8,0,90.3-40.4,90.3-90.1c0-19.9-7.1-39.8-20.1-55.8l-5.3-6.6V115
	C248,79.3,218.9,50.2,183.2,50.2z M207.3,317V191c0-13.3-10.7-24-24-24s-24,10.7-24,24v125.9c-19.5,9.1-33,28.7-33,51.6
	c0,31.5,25.6,57.1,57.1,57.1c31.5,0,57.1-25.6,57.1-57.1C240.3,345.6,226.8,326.1,207.3,317z"/>
</svg>
