<?xml version="1.0" encoding="utf-8"?>
<!-- Generator: Adobe Illustrator 26.5.0, SVG Export Plug-In . SVG Version: 6.00 Build 0)  -->
<svg version="1.1" id="Layer_1" xmlns="http://www.w3.org/2000/svg" xmlns:xlink="http://www.w3.org/1999/xlink" x="0px" y="0px"
	 viewBox="0 0 512 512" style="enable-background:new 0 0 512 512;" xml:space="preserve">
<polygon points="274.6,95.8 274.6,96.4 275.1,96 "/>
<polygon points="275.6,95.8 275.1,96 275.6,96.2 "/>
<path d="M42.2,247.5c-3.8,0-7.6-1-11.1-3c-6.8-3.9-11-11.3-11-19.1v-55c0-7.6,3.8-14.6,10.3-18.6L261.5,5.2
	c9.4-5.9,20.9-6.8,30.9-2.5l173.2,72.9c8.2,3.4,13.5,11.4,13.5,20.3v77.2c0,7.3-3.6,14.1-9.7,18.3c-6.1,4.1-13.8,4.9-20.6,2.2
	L273.5,122L53,244.7C49.7,246.5,46,247.5,42.2,247.5z M52.2,175.9v32.5L264.6,90.2c4.2-2.4,9.3-2.7,13.8-0.8l168.7,68.8v-55.7
	L280,32.2c0,0-0.1,0-0.1,0c-0.4-0.2-0.9-0.1-1.3,0.2L52.2,175.9z M47.7,178.9L47.7,178.9C47.6,178.9,47.6,178.9,47.7,178.9z
	 M453.3,105.1C453.3,105.1,453.3,105.1,453.3,105.1L453.3,105.1z M44.3,394.8c-4.5,0-9-1.3-13-3.8c-6.9-4.5-11.1-12-11.1-20.3v-52.4
	c0-9,5-17.2,13.1-21.4l224.5-114.8c9-4.6,19.6-5.2,29.1-1.6l177,67.7c9.3,3.7,15.3,12.5,15.3,22.4v58c0,7.7-3.7,14.9-9.9,19.4
	c-6.3,4.5-14.4,5.8-21.7,3.4l-174.3-57.4l-219,98.5C51,394.1,47.6,394.8,44.3,394.8z M41,363.5C41,363.5,41,363.5,41,363.5L41,363.5
	z M52.2,323.3v35.1L267,261.9l5.4-1.1l4.6,0.9l170.2,56v-41.5l-171.6-65.6c-1.1-0.4-2.3-0.3-3.3,0.1L52.2,323.3z M457.6,321.1
	L457.6,321.1L457.6,321.1z M456.9,512H42.5c-12.3,0-22.3-10-22.3-22.3v-28.3c0-9.3,5.6-17.4,14.3-20.8l0.2-0.1l228.6-85.1
	c4.1-1.6,8.6-1.8,13-0.8l0.4,0.1l185.8,48.4c9.9,2.6,16.7,11.5,16.7,21.6v65C479.2,502,469.2,512,456.9,512z M52.2,479.9h394.9
	v-47.8l-175.5-45.7L52.2,468.1V479.9z"/>
</svg>
