<?xml version="1.0" encoding="utf-8"?>
<!-- Generator: Adobe Illustrator 26.0.0, SVG Export Plug-In . SVG Version: 6.00 Build 0)  -->
<svg version="1.1" id="Layer_1" xmlns="http://www.w3.org/2000/svg" xmlns:xlink="http://www.w3.org/1999/xlink" x="0px" y="0px"
	 viewBox="0 0 512 512" style="enable-background:new 0 0 512 512;" xml:space="preserve">
<path d="M415,479H96c-35.3,0-64-28.7-64-64V96c0-35.3,28.7-64,64-64h319c35.3,0,64,28.7,64,64v319C479,450.3,450.3,479,415,479z
	 M96,64c-17.6,0-32,14.4-32,32v319c0,17.6,14.4,32,32,32h319c17.6,0,32-14.4,32-32V96c0-17.6-14.4-32-32-32H96z M385.5,326.1h-259
	c-10.2,0-18.5,8.3-18.5,18.5v37c0,10.2,8.3,18.5,18.5,18.5h259c10.2,0,18.4-8.4,18.5-18.5v-37C404,334.4,395.7,326.1,385.5,326.1z
	 M320.8,376.9c-7.7,0-13.9-6.2-13.9-13.9s6.2-13.9,13.9-13.9s13.9,6.2,13.9,13.9S328.5,376.9,320.8,376.9z M357.7,376.9
	c-7.7,0-13.9-6.2-13.9-13.9s6.2-13.9,13.9-13.9s13.9,6.2,13.9,13.9S365.4,376.9,357.7,376.9z M385.5,219h-259
	c-10.2,0-18.5,8.3-18.5,18.5v37c0,10.2,8.3,18.5,18.5,18.5h259c10.2,0,18.4-8.3,18.5-18.5v-37C404,227.3,395.7,219,385.5,219z
	 M320.8,270c-7.7,0-13.9-6.2-13.9-13.9s6.2-13.9,13.9-13.9s13.9,6.2,13.9,13.9S328.5,270,320.8,270z M357.7,270
	c-7.7,0-13.9-6.2-13.9-13.9s6.2-13.9,13.9-13.9s13.9,6.2,13.9,13.9S365.4,270,357.7,270z M385.5,111.9h-259
	c-10.2,0-18.5,8.3-18.5,18.5v37c0,10.2,8.3,18.5,18.5,18.5h259c10.2,0,18.4-8.3,18.5-18.5v-37C404,120.2,395.7,111.9,385.5,111.9z
	 M320.8,162.9c-7.7,0-13.9-6.2-13.9-13.9s6.2-13.9,13.9-13.9c7.6,0,13.8,6.2,13.9,13.9C334.7,156.7,328.5,162.9,320.8,162.9z
	 M357.7,162.9c-7.7,0-13.9-6.2-13.9-13.9s6.2-13.9,13.9-13.9s13.9,6.2,13.9,13.9S365.4,162.9,357.7,162.9z"/>
</svg>
