<?xml version="1.0" encoding="utf-8"?>
<!-- Generator: Adobe Illustrator 26.0.1, SVG Export Plug-In . SVG Version: 6.00 Build 0)  -->
<svg version="1.1" id="Layer_1" xmlns="http://www.w3.org/2000/svg" xmlns:xlink="http://www.w3.org/1999/xlink" x="0px" y="0px"
	 viewBox="0 0 558 512" style="enable-background:new 0 0 558 512;" xml:space="preserve">
<style type="text/css">
	.st0{display:none;}
	.st1{fill-rule:evenodd;clip-rule:evenodd;}
</style>
<circle class="st0" cx="-237" cy="256" r="248"/>
<path class="st1" d="M188.4,5.9c-0.1-2.9,3.2-4.7,5.5-2.9c132.1,94.5,149,247.9,141.9,284.4c-0.2,1.2,1.2,1.9,2,1.1
	c19.7-20.7,46-66.3,51.4-104.6c0.5-3,4.2-4.1,6.2-1.8c117.7,139.8,30.5,313.7-66.7,327.6c-2.8,0.4-4.9-2.6-3.6-5.1
	c82-155.4-45.9-114.8-51.2-247.2c0-1.1-1.3-1.5-2.1-0.8c-47.5,47.3-54.4,96.4-36.7,152.6c0.4,0.9-0.6,1.9-1.5,1.6
	c-21.3-5.4-43.5-22-58.4-52.6c-0.9-1.9-3.6-1.8-4.3,0.2c-17.4,50.1-10.9,101.3,23.8,143.8c2.3,2.9-0.9,7-4.3,5.4
	C-108.5,362.2,192.9,193,188.4,5.9z"/>
</svg>
