<?xml version="1.0" encoding="utf-8"?>
<!-- Generator: Adobe Illustrator 26.0.1, SVG Export Plug-In . SVG Version: 6.00 Build 0)  -->
<svg version="1.1" id="Layer_1" xmlns="http://www.w3.org/2000/svg" xmlns:xlink="http://www.w3.org/1999/xlink" x="0px" y="0px"
	 viewBox="0 0 448 512" style="enable-background:new 0 0 448 512;" xml:space="preserve">
<path d="M310.2,328.9v13.3h13.2V366h-47.7v-23.8h13.2v-13.3H310.2z M235.9,328.9v13.3h13.3V366h-47.7v-23.8h13.2v-13.3H235.9z
	 M164.4,328.9v13.3h13.2V366h-47.7v-23.8h13.3v-13.3H164.4z M310.2,151.3v13.2h13.2v23.9h-47.7v-23.9h13.2v-13.2H310.2z
	 M235.9,151.3v13.2h13.3v23.9h-47.7v-23.9h13.2v-13.2H235.9z M164.4,151.3v13.2h13.2v23.9h-47.7v-23.9h13.3v-13.2H164.4z M400,32H48
	C21.5,32,0,53.5,0,80v352c0,26.5,21.5,48,48,48h352c26.5,0,48-21.5,48-48V80C448,53.5,426.5,32,400,32z M380.4,132.2v75.3
	c0,9.9-8.1,18-18,18H85.6c-9.9,0-18-8.1-18-18v-75.3c0-9.9,8.1-18,18-18h276.8C372.3,114.2,380.4,122.3,380.4,132.2z M380.4,309.8
	v75.3c0,9.9-8.1,18-18,18H85.6c-9.9,0-18-8.1-18-18v-75.3c0-9.9,8.1-18,18-18h276.8C372.3,291.8,380.4,299.9,380.4,309.8z"/>
</svg>
