<?xml version="1.0" encoding="utf-8"?>
<!-- Generator: Adobe Illustrator 26.5.0, SVG Export Plug-In . SVG Version: 6.00 Build 0)  -->
<svg version="1.1" id="Layer_1" xmlns="http://www.w3.org/2000/svg" xmlns:xlink="http://www.w3.org/1999/xlink" x="0px" y="0px"
	 viewBox="0 0 512 512" style="enable-background:new 0 0 512 512;" xml:space="preserve">
<g>
	<path d="M316.6,282.6l0.7-0.7c15.4,5.6,32.1,8.6,49.5,8.6c80.3,0,145.3-65,145.3-145.3c0-13.9-2-27.3-5.6-40.1
		c-2.8-9.8-14.9-12-22.1-4.8L414.6,170c-2.7,2.7-6.4,4.3-10.3,4.3h-52.1c-8,0-14.5-6.5-14.5-14.5v-52.1c0-3.8,1.5-7.5,4.3-10.3
		l69.7-69.7c7.2-7.2,4.9-19.2-4.8-22.1C394.1,2,380.6,0,366.7,0c-80.3,0-145.3,65-145.3,145.3c0,17.3,3.1,34,8.6,49.5l-0.7,0.7
		L44.9,10.8c-9.4-9.4-24.6-9.4-33.9,0c-9.4,9.4-9.4,24.6,0,33.9l184.6,184.6l0,0l87.2,87.2l0,0l184.8,184.8c4.7,4.7,10.8,7,17,7
		s12.3-2.3,17-7c9.4-9.4,9.4-24.6,0-33.9L316.6,282.6z"/>
	<path d="M18.1,406.8C6.5,418.3,0,434,0,450.4c0,34,27.6,61.6,61.6,61.6c16.3,0,32-6.5,43.6-18.1l143.5-143.5l-87.2-87.2L18.1,406.8
		z M72.6,461.2c-12.1,0-21.8-9.7-21.8-21.8c0-12.1,9.7-21.8,21.8-21.8c12.1,0,21.8,9.7,21.8,21.8C94.4,451.4,84.7,461.2,72.6,461.2z
		"/>
</g>
</svg>
