<?xml version="1.0" encoding="utf-8"?>
<!-- Generator: Adobe Illustrator 26.0.0, SVG Export Plug-In . SVG Version: 6.00 Build 0)  -->
<svg version="1.1" id="Layer_1" xmlns="http://www.w3.org/2000/svg" xmlns:xlink="http://www.w3.org/1999/xlink" x="0px" y="0px"
	 viewBox="0 0 512 512" style="enable-background:new 0 0 512 512;" xml:space="preserve">
<path d="M432,32H80c-26.5,0-48,21.5-48,48v352c0,26.5,21.5,48,48,48h352c26.5,0,48-21.5,48-48V80C480,53.5,458.5,32,432,32z
	 M385.5,400.1h-259c-10.2,0-18.5-8.3-18.5-18.5v-37c0-10.2,8.3-18.5,18.5-18.5h259c10.2,0,18.5,8.3,18.5,18.5v37
	C403.9,391.7,395.7,400.1,385.5,400.1z M357.7,349.1c-7.7,0-13.9,6.2-13.9,13.9c0,7.7,6.2,13.9,13.9,13.9c7.7,0,13.9-6.2,13.9-13.9
	C371.6,355.4,365.4,349.1,357.7,349.1z M320.8,349.1c-7.7,0-13.9,6.2-13.9,13.9c0,7.7,6.2,13.9,13.9,13.9c7.7,0,13.9-6.2,13.9-13.9
	C334.7,355.4,328.4,349.1,320.8,349.1z M385.5,293h-259c-10.2,0-18.5-8.3-18.5-18.5v-37c0-10.2,8.3-18.5,18.5-18.5h259
	c10.2,0,18.5,8.3,18.5,18.5v37C403.9,284.7,395.7,293,385.5,293z M357.7,242.2c-7.7,0-13.9,6.2-13.9,13.9S350,270,357.7,270
	s13.9-6.2,13.9-13.9C371.6,248.4,365.4,242.2,357.7,242.2z M320.8,242.2c-7.7,0-13.9,6.2-13.9,13.9s6.2,13.9,13.9,13.9
	c7.7,0,13.9-6.2,13.9-13.9C334.7,248.4,328.4,242.2,320.8,242.2z M385.5,185.9h-259c-10.2,0-18.5-8.3-18.5-18.5v-37
	c0-10.2,8.3-18.5,18.5-18.5h259c10.2,0,18.5,8.3,18.5,18.5v37C403.9,177.6,395.7,185.9,385.5,185.9z M357.7,135.1
	c-7.7,0-13.9,6.2-13.9,13.9s6.2,13.9,13.9,13.9c7.7,0,13.9-6.2,13.9-13.9S365.4,135.1,357.7,135.1z M320.8,135.1
	c-7.7,0-13.9,6.2-13.9,13.9s6.2,13.9,13.9,13.9c7.7,0,13.9-6.2,13.9-13.9C334.6,141.3,328.4,135.1,320.8,135.1z"/>
</svg>
