<?xml version="1.0" encoding="utf-8"?>
<!-- Generator: Adobe Illustrator 26.0.1, SVG Export Plug-In . SVG Version: 6.00 Build 0)  -->
<svg version="1.1" id="Layer_1" xmlns="http://www.w3.org/2000/svg" xmlns:xlink="http://www.w3.org/1999/xlink" x="0px" y="0px"
	 viewBox="0 0 496 512" style="enable-background:new 0 0 496 512;" xml:space="preserve">
<style type="text/css">
	.st0{display:none;fill:none;stroke:#000000;stroke-width:32;stroke-miterlimit:10;}
</style>
<line class="st0" x1="248" y1="29" x2="248" y2="483"/>
<path d="M492.3,256.6c0-44-15.6-84.8-42.9-111.9l0,0c-25-24.8-59.3-37.8-99.3-37.8c-0.6,0-1.2,0-1.9,0c-26.7,0.3-50.7,7.1-71.4,20.2
	c-3.7,2.3-7.3,4.9-10.8,7.7L266.3,11h-17.5c-44,0-84.8,15.6-111.9,42.9C111.7,79.3,98.6,114.2,99,155.1c0.2,26.5,7,50.6,20.2,71.4
	c2.3,3.7,4.9,7.3,7.7,10.8L3.1,237v17.5c0,44.1,15.7,84.9,42.9,111.9c25,24.8,59.4,37.9,99.4,37.9h1.8c26.7-0.3,50.7-7.1,71.4-20.2
	c3.7-2.3,7.3-4.9,10.8-7.7L229,500.2h17.5c44.1,0,84.9-15.7,111.9-42.9c25.2-25.3,38.3-60.3,37.9-101.2
	c-0.3-26.7-7.1-50.7-20.2-71.4c-2.3-3.7-4.9-7.3-7.7-10.8l123.8,0.4L492.3,256.6L492.3,256.6z"/>
</svg>
