<?xml version="1.0" encoding="utf-8"?>
<!-- Generator: Adobe Illustrator 25.4.1, SVG Export Plug-In . SVG Version: 6.00 Build 0)  -->
<svg version="1.1" id="Layer_1" xmlns="http://www.w3.org/2000/svg" xmlns:xlink="http://www.w3.org/1999/xlink" x="0px" y="0px"
	 viewBox="0 0 512 512" style="enable-background:new 0 0 512 512;" xml:space="preserve">
<path d="M502.6,389.5L378.2,265c-15.6-15.6-36.1-23.4-56.6-23.4c-15.4,0-30.8,4.4-44.1,13.3L192,169.4V96L64,0L0,64l96,128h73.4
	l85.5,85.5c-20.6,31.1-17.2,73.3,10.2,100.7l124.5,124.5c6.2,6.2,14.4,9.4,22.6,9.4s16.4-3.1,22.6-9.4l67.9-67.9
	C515.1,422.2,515.1,402,502.6,389.5L502.6,389.5z M160,158.1v1.9h-48L42.3,67L67,42.3l93,69.7V158.1z M412.1,480L287.7,355.5
	c-9.1-9.1-14.1-21.1-14.1-33.9s5-24.9,14.1-33.9c9.1-9.1,21.1-14.1,33.9-14.1s24.9,5,33.9,14.1L480,412.1L412.1,480z M64,432
	c0,8.8,7.2,16,16,16s16-7.2,16-16s-7.2-16-16-16S64,423.2,64,432z M276.8,66.9C299.5,44.2,329.4,32,360.6,32
	c6.9,0,13.8,0.6,20.7,1.8L312,103.2l13.8,83l83.1,13.8l69.3-69.3c6.7,38.2-5.3,76.8-33.1,104.5c-8.9,8.9-19.1,16-30,21.5l23.6,23.6
	c10.4-6.2,20.2-13.6,29-22.5c37.8-37.8,52.7-91.4,39.7-143.3c-2.3-9.5-9.7-17-19.1-19.6c-9.5-2.6-19.7,0-26.7,7l-63.9,63.9
	l-44.2-7.4l-7.4-44.2L410,50.3c6.9-6.9,9.6-17.1,7-26.5c-2.6-9.5-10.2-16.8-19.7-19.2C345.6-8.3,292,6.5,254.1,44.3
	c-12.9,12.9-22.9,27.9-30.1,44v67.8l22.1,22.1C236.5,137.8,247.7,96,276.8,66.9L276.8,66.9z M107,467.1c-16.6,16.6-45.6,16.6-62.2,0
	c-17.1-17.1-17.1-45.1,0-62.2l146.1-146.1l-22.6-22.6L22.2,382.3c-29.6,29.6-29.6,77.8,0,107.5C36.5,504.1,55.6,512,75.9,512
	s39.4-7.9,53.7-22.3L231.4,388c-6.7-9.2-11.8-19.3-15.5-29.8L107,467.1z"/>
</svg>
