<?xml version="1.0" encoding="utf-8"?>
<!-- Generator: Adobe Illustrator 26.0.1, SVG Export Plug-In . SVG Version: 6.00 Build 0)  -->
<svg version="1.1" id="Layer_1" xmlns="http://www.w3.org/2000/svg" xmlns:xlink="http://www.w3.org/1999/xlink" x="0px" y="0px"
	 viewBox="0 0 512 512" style="enable-background:new 0 0 512 512;" xml:space="preserve">
<path d="M420,160H304.6l42.6-129.8C351.2,15,339.7,0,324,0H180c-12,0-22.2,8.9-23.8,20.8l-32,240c-1.9,14.4,9.3,27.2,23.8,27.2
	h118.7l-46.1,194.5c-3.6,15.2,8,29.5,23.3,29.5c8.3,0,16.4-4.4,20.8-12l176-304C450,180.1,438.5,160,420,160z M264.3,436.9
	l33.5-141.6l9.3-39.4h-150L187,32h125.9l-38.7,118l-13.8,42h145.7L264.3,436.9z"/>
</svg>
