<?xml version="1.0" encoding="utf-8"?>
<!-- Generator: Adobe Illustrator 26.0.0, SVG Export Plug-In . SVG Version: 6.00 Build 0)  -->
<svg version="1.1" id="Layer_1" xmlns="http://www.w3.org/2000/svg" xmlns:xlink="http://www.w3.org/1999/xlink" x="0px" y="0px"
	 viewBox="0 0 512 512" style="enable-background:new 0 0 512 512;" xml:space="preserve">
<path d="M262.2,273.7H25.1c-0.3,0-0.5-0.2-0.5-0.5v-22.8c0-0.3,0.2-0.5,0.5-0.5h237.1c0.3,0,0.5,0.2,0.5,0.5v22.8
	C262.7,273.5,262.5,273.7,262.2,273.7z M238.9,321.4c0,54.5-45.8,98.4-101.1,95.1c-50.9-3-89.4-47.8-89.4-98.8v-19.6
	c0-0.3,0.2-0.5,0.5-0.5h189.5c0.3,0,0.5,0.2,0.5,0.5V321.4z M262.7,226.1h-35.2c-0.3,0-0.5-0.2-0.5-0.5v-82.8
	c0-6.5-5.4-11.9-11.9-11.9s-11.9,5.4-11.9,11.9v82.8c0,0.3-0.2,0.5-0.5,0.5h-118c-0.3,0-0.5-0.2-0.5-0.5v-82.8
	c0-6.5-5.4-11.9-11.9-11.9s-11.9,5.4-11.9,11.9v82.8c0,0.3-0.2,0.5-0.5,0.5H25.1c-13.4,0-24.3,10.9-24.3,24.3v23.3
	c0,13,10.4,23.5,23.3,23.8c0.3,0,0.5,0.2,0.5,0.5v23.3c0,61.5,46.9,111.5,106.7,117.8c0.3,0,0.4,0.2,0.4,0.5v71.7
	c0,0.3,0.2,0.5,0.5,0.5H155c0.3,0,0.5-0.2,0.5-0.5v-71.7c0-0.3,0.2-0.5,0.4-0.5c59.8-6.3,106.7-56.4,106.7-117.8V298
	c0-0.3,0.2-0.5,0.5-0.5c12.9-0.3,23.3-10.8,23.3-23.8v-23.8C286.5,236.8,275.9,226.1,262.7,226.1 M383.6,313.1l24-101.2l6.6-28.2
	H306.9l21.4-160.1h90L390.7,108l-9.9,30H485L383.6,313.1z M494.9,115.1h-82.5l30.5-92.8c2.9-10.9-5.4-21.6-16.6-21.6h-103
	c-8.6,0-15.9,6.4-17,14.9l-22.9,171.6c-1.4,10.3,6.6,19.4,17,19.4h84.9l-33,139c-2.6,10.9,5.7,21.1,16.7,21.1
	c5.9,0,11.7-3.1,14.9-8.6l125.8-217.3C516.3,129.5,508.1,115.1,494.9,115.1"/>
</svg>
