<?xml version="1.0" encoding="utf-8"?>
<!-- Generator: Adobe Illustrator 26.0.1, SVG Export Plug-In . SVG Version: 6.00 Build 0)  -->
<svg version="1.1" id="Layer_1" xmlns="http://www.w3.org/2000/svg" xmlns:xlink="http://www.w3.org/1999/xlink" x="0px" y="0px"
	 viewBox="0 0 512 512" style="enable-background:new 0 0 512 512;" xml:space="preserve">
<path d="M207.5,391c0,27.9-22.7,50.6-50.6,50.6s-50.6-22.7-50.6-50.6c0-22,14.1-40.8,33.7-47.8V124.9c0-9.3,7.6-16.9,16.9-16.9
	s16.9,7.6,16.9,16.9v218.3C193.4,350.2,207.5,368.9,207.5,391z M397.1,267.4c-21.9,0-42.6-8.9-58.5-25S314,205,314,182.6
	c0-28,13-48.5,26.8-70.2c11.1-17.4,22.6-35.5,30.6-61l0.1-0.4c3.9-11.4,15.1-19.4,27.2-19.4c12.2,0,23.4,8,27.3,19.5l0.2,0.8
	c7.3,26.6,19.1,45.5,29.4,62.1c13.1,21.1,25.5,41.1,24.5,68.9c-0.1,22.3-8.8,43.4-24.6,59.5C439.7,258.5,419,267.4,397.1,267.4z
	 M398.6,70.8c-8.9,24.4-20.5,42.5-30.8,58.8c-12.7,19.9-21.8,34.3-21.8,53c0,28.6,23.4,52.8,51.1,52.8s51.1-24.2,51.1-52.8v-0.7
	c0.8-18.1-7.8-31.9-19.6-51C418.9,115.4,407.1,96.5,398.6,70.8z M157.1,510c-0.1,0-0.2,0-0.2,0h-0.8
	c-65.6-0.5-118.7-54.3-118.3-119.8c0.2-42.6,21.4-68.9,33.7-82.7V87.3C71.6,40.2,109.8,2,156.9,2s85.3,38.3,85.3,85.3v220.3
	c12.3,13.8,33.7,40.3,33.7,83.4c0,31.8-12.4,61.7-35,84.2C218.5,497.6,188.7,510,157.1,510z M156.2,474.2h0.7c0.1,0,0.1,0,0.2,0
	c22.1,0,43-8.6,58.7-24.3c15.8-15.8,24.5-36.7,24.5-58.9c0-32.1-16.8-50.8-26.8-62c-0.9-1-1.8-2-2.5-2.8l-4.4-5.1V87.3
	c0-27.4-22.3-49.6-49.6-49.6c-27.4,0-49.6,22.3-49.6,49.6v233.9l-4.5,5.1c-0.7,0.8-1.4,1.6-2.3,2.5c-10,11.1-26.8,29.7-27,61.6
	C73.3,436.3,110.4,473.8,156.2,474.2z"/>
</svg>
