<?xml version="1.0" encoding="utf-8"?>
<!-- Generator: Adobe Illustrator 26.0.1, SVG Export Plug-In . SVG Version: 6.00 Build 0)  -->
<svg version="1.1" id="Layer_1" xmlns="http://www.w3.org/2000/svg" xmlns:xlink="http://www.w3.org/1999/xlink" x="0px" y="0px"
	 viewBox="0 0 496 512" style="enable-background:new 0 0 496 512;" xml:space="preserve">
<style type="text/css">
	.st0{display:none;fill:none;stroke:#000000;stroke-width:32;stroke-miterlimit:10;}
</style>
<line class="st0" x1="248" y1="29" x2="248" y2="483"/>
<path d="M492.3,256.6c0-44-15.6-84.8-42.9-111.9l0,0c-25-24.8-59.3-37.8-99.3-37.8c-0.6,0-1.2,0-1.9,0c-26.7,0.3-50.7,7.1-71.4,20.2
	c-3.7,2.3-7.3,4.9-10.8,7.7L266.3,11h-17.5c-44,0-84.8,15.6-111.9,42.9C111.7,79.3,98.6,114.2,99,155.1c0.2,26.5,7,50.6,20.2,71.4
	c2.3,3.7,4.9,7.3,7.7,10.8L3.1,237v17.5c0,44.1,15.7,84.9,42.9,111.9c25,24.8,59.4,37.9,99.4,37.9h1.8c26.7-0.3,50.7-7.1,71.4-20.2
	c3.7-2.3,7.3-4.9,10.8-7.7l-0.4,123.8h17.5c44.1,0,84.9-15.7,111.9-42.9c25.2-25.3,38.3-60.3,37.9-101.2
	c-0.3-26.7-7.1-50.7-20.2-71.4c-2.3-3.7-4.9-7.3-7.7-10.8l123.8,0.4V256.6z M229.8,272.6l-0.2,51.7c-10.5,17.1-35,44.7-82.7,45.2
	h-1.6c-31,0-56.1-9.3-74.7-27.8C53.5,324.7,42.3,300.1,39,272L229.8,272.6z M231.3,46.9l-0.5,190.8l-51.7-0.1
	c-17.1-10.5-44.7-35-45.2-82.7c-0.3-31.7,9.1-57.4,27.8-76.3C178.6,61.4,203.2,50.2,231.3,46.9z M264.1,464.3l0.5-190.8l51.7,0.2
	c17.1,10.5,44.7,35,45.2,82.7c0.3,31.7-9.1,57.4-27.8,76.3C316.8,449.8,292.2,461,264.1,464.3z M424.8,169.6
	c17.1,16.9,28.2,41.5,31.6,69.6l-190.8-0.5l0.2-51.7c10.5-17.1,35-44.7,82.7-45.2h1.6C381.1,141.8,406.2,151.1,424.8,169.6z"/>
</svg>
