<?xml version="1.0" encoding="utf-8"?>
<!-- Generator: Adobe Illustrator 26.0.1, SVG Export Plug-In . SVG Version: 6.00 Build 0)  -->
<svg version="1.1" id="Layer_1" xmlns="http://www.w3.org/2000/svg" xmlns:xlink="http://www.w3.org/1999/xlink" x="0px" y="0px"
	 viewBox="0 0 640 512" style="enable-background:new 0 0 640 512;" xml:space="preserve">
<path d="M619.3,282c-100.4,49-190.6,22.5-277.9-3.1l-0.4-0.1c-71.3-20.9-138.7-40.6-209-17.1c-5.2,1.7-10.4,3.8-15.4,5.8l-0.1,0.1
	c-3.8,1.6-7.6,3.4-11.3,5.2l-0.2,0.1c-1.5,0.8-36.7,20.5-53.8,35.8c-3.8,3.4-9.5,3.2-13-0.5l-20-20.4l-0.1-0.1
	c-1.7-1.6-2.6-4.1-2.6-6.7v0c0.1-2.6,1.1-4.9,3.1-6.6c26.8-24.3,56-42,89.4-54c30.8-11.6,61.6-17.3,93.7-17.3
	c4.6,0,9.2,0.1,13.9,0.4c41.1,2.1,79.3,13.1,113,22.8c7.7,2.2,16.8,4.9,25.8,7.2l13.5,3.6c45.5,12.3,89.6,24.2,134.2,24.2
	c31.2,0,62.8-5.8,95.4-21.4c4.6-2.2,10.1-0.4,12.5,4l13.5,25.2c1.2,2.3,1.4,4.8,0.6,7.4C623.3,279,621.6,280.9,619.3,282z
	 M341,464.7l0.4,0.1c87.2,25.6,177.4,52.1,277.9,3.1c2.3-1.1,4.1-3.1,4.8-5.5c0.8-2.6,0.6-5.1-0.6-7.4l-13.5-25.2
	c-2.4-4.5-7.8-6.2-12.5-4c-32.6,15.6-64.2,21.4-95.4,21.4c-44.7,0-88.7-11.9-134.2-24.2l-13.5-3.6c-6-1.6-11.9-3.3-18.1-5.1
	l-7.6-2.2c-33.8-9.7-72-20.7-113.1-22.8c-46.1-2.3-89.6,6.8-133,27.8l-4.3,2.1L59,383.3c-0.7-1.3-2-2.2-3.5-2.2h-0.3
	c-1.5,0.1-2.9,1.1-3.4,2.5l-36.1,90.9c-0.4,1.1-0.4,2.4,0.2,3.4l0,0c0.5,1,1.6,1.8,2.7,2l95.5,20.7c1.6,0.4,3.1-0.2,4-1.4
	c1-1.3,1.1-3,0.4-4.5l-18-33.9l4.6-2.3C185,418.8,260.8,441.1,341,464.7z M105.1,94.8c3.8-2,7.7-3.7,11.5-5.3
	c5.2-2.2,10.3-4.1,15.4-5.8c70.2-23.5,137.6-3.8,209,17.1l0.4,0.1c69.3,20.3,141.1,41.3,217.9,24.2l3.7-0.8l17.9,33.6
	c0.7,1.3,2,2.2,3.5,2.2h0.3c1.5-0.1,2.9-1.1,3.4-2.5l36.1-90.9c0.6-1.4,0.2-2.7-0.2-3.5c-0.5-0.9-1.5-1.7-2.7-2l-95.5-20.7
	c-1.6-0.4-3.1,0.2-4,1.4c-1,1.3-1.1,3-0.4,4.5l18.2,34l-7.2,0.9c-55.2,7.2-108-7.1-163.8-22.1l-14.2-3.8c-6-1.6-11.9-3.3-18.1-5.1
	l-7.6-2.2c-33.8-9.7-72-20.7-113.1-22.8c-37.1-1.9-72.3,3.7-107.6,17c-33.3,11.9-62.5,29.6-89.4,54c-1.9,1.8-3,4.1-3.1,6.6
	c-0.1,2.7,0.8,5,2.6,6.8l20,20.4c3.5,3.6,9.3,3.8,13,0.5c17.1-15.3,52.3-35,53.8-35.8L105.1,94.8z"/>
</svg>
