<?xml version="1.0" encoding="utf-8"?>
<!-- Generator: Adobe Illustrator 25.4.1, SVG Export Plug-In . SVG Version: 6.00 Build 0)  -->
<svg version="1.1" id="Layer_1" xmlns="http://www.w3.org/2000/svg" xmlns:xlink="http://www.w3.org/1999/xlink" x="0px" y="0px"
	 viewBox="0 0 384 512" style="enable-background:new 0 0 384 512;" xml:space="preserve">
<path d="M352,128h-48V16c0-8.8-7.2-16-16-16s-16,7.2-16,16v112H112V16c0-8.8-7.2-16-16-16S80,7.2,80,16v112H32
	c-17.7,0-32,14.3-32,32v32c0,17.7,14.3,32,32,32v32c0,82.8,63.4,150.2,144,158.4V512h32v-97.6c80.6-8.2,144-75.6,144-158.4v-32
	c17.7,0,32-14.3,32-32v-32C384,142.3,369.7,128,352,128z M320,256c0,70.7-57.3,128-128,128S64,326.7,64,256v-32h256V256z M352,192
	H32v-32h320V192z"/>
</svg>
