<?xml version="1.0" encoding="utf-8"?>
<!-- Generator: Adobe Illustrator 26.0.0, SVG Export Plug-In . SVG Version: 6.00 Build 0)  -->
<svg version="1.1" id="Layer_1" xmlns="http://www.w3.org/2000/svg" xmlns:xlink="http://www.w3.org/1999/xlink" x="0px" y="0px"
	 viewBox="0 0 512 512" style="enable-background:new 0 0 512 512;" xml:space="preserve">
<path d="M494.8,114.4h-82.5l30.5-92.8C445.7,10.7,437.4,0,426.2,0H323.3c-8.6,0-15.9,6.4-17,14.9l-22.9,171.6
	c-1.4,10.3,6.6,19.4,17,19.4h84.9l-33,139C349.7,355.8,358,366,369,366c6,0,11.7-3.1,14.9-8.6l125.8-217.3
	C516.3,128.7,508.1,114.4,494.8,114.4 M96,154.2c0-13.2-10.7-23.8-23.8-23.8c-13.2,0-23.8,10.7-23.8,23.8v71.5H96V154.2z
	 M274.7,249.5H12.5c-6.6,0-11.9,5.3-11.9,11.9v23.8c0,6.6,5.3,11.9,11.9,11.9h11.9V321c0,56.6,39.9,105.5,95.3,116.8v73.9h47.7
	v-73.9c55.5-11.3,95.3-60.2,95.3-116.8v-23.8h11.9c6.6,0,11.9-5.3,11.9-11.9v-23.8C286.7,254.9,281.3,249.5,274.7,249.5 M239,154.2
	c0-13.2-10.7-23.8-23.8-23.8c-13.2,0-23.8,10.7-23.8,23.8v71.5H239V154.2z"/>
</svg>
