<?xml version="1.0" encoding="utf-8"?>
<!-- Generator: Adobe Illustrator 26.0.1, SVG Export Plug-In . SVG Version: 6.00 Build 0)  -->
<svg version="1.1" id="Layer_1" xmlns="http://www.w3.org/2000/svg" xmlns:xlink="http://www.w3.org/1999/xlink" x="0px" y="0px"
	 viewBox="0 0 552.6 512" style="enable-background:new 0 0 552.6 512;" xml:space="preserve">
<style type="text/css">
	.st0{display:none;fill:none;stroke:#000000;stroke-width:32;stroke-miterlimit:10;}
</style>
<line class="st0" x1="277.4" y1="29" x2="277.4" y2="483"/>
<g>
</g>
<g>
</g>
<g>
</g>
<g>
</g>
<path d="M404.8,436c-5.2,8.7-11.3,16.6-18.5,23.8c-27,27.3-67.8,42.9-111.9,42.9h-17.5l0.4-123.8c-3.5,2.8-7.1,5.3-10.8,7.7
	c-20.7,13.1-44.7,19.9-71.4,20.2h-1.8c-40,0-74.4-13.1-99.4-37.9c-27.3-27-42.9-67.8-42.9-111.9v-17.5l121.8,0.4l45,35l-130.9-0.4
	c3.3,28.1,14.5,52.7,31.6,69.6c18.6,18.4,43.8,27.8,74.7,27.8h1.6c47.7-0.5,72.2-28.1,82.7-45.2l0-5.4l34.8,27.1l-0.3,118.4
	c28.1-3.3,52.7-14.5,69.6-31.6c6.2-6.2,11.3-13.2,15.4-20.9L404.8,436z M544.3,438.1L529.6,457c-4,5.3-11.5,6.2-16.8,2.1l-90.9-70.7
	c0,0,0,0.1,0,0.1l-32.7-25.4c0,0,0-0.1,0-0.1l-96.8-75.3l0,0.1l-61.3-47.7l0.1,0L167,190.1c0,0,0,0.1,0,0.1L126.8,159c0,0,0,0,0-0.1
	L8.8,67.1C3.6,63,2.6,55.5,6.7,50.2l14.7-18.9c4.1-5.2,11.6-6.2,16.8-2.1l96.8,75.3c6.4-18.4,16.3-34.6,29.8-48.1
	c27.1-27.3,67.9-42.9,111.9-42.9h17.5l-0.4,123.8c3.5-2.8,7.1-5.3,10.8-7.7c20.7-13.1,44.7-19.9,71.4-20.2c0.6,0,1.2,0,1.9,0
	c40.1,0,74.4,13.1,99.3,37.8l0,0c27.3,27.1,42.9,67.9,42.9,111.9v17.6l-123.8-0.4c2.8,3.5,5.3,7.1,7.7,10.8
	c7.6,12.1,13.1,25.2,16.4,39.4l121.8,94.8C547.4,425.4,548.4,432.9,544.3,438.1z M259.1,49.4C231,52.7,206.4,63.9,189.5,81
	c-12.5,12.6-20.8,28.2-24.8,46.6l94,73.1L259.1,49.4z M484.2,241.7c-3.3-28.1-14.5-52.7-31.6-69.6c-18.6-18.4-43.8-27.8-74.7-27.8
	h-1.6c-47.7,0.5-72.2,28.1-82.7,45.2l-0.1,38.3l17.2,13.4L484.2,241.7z"/>
</svg>
