<?xml version="1.0" encoding="utf-8"?>
<!-- Generator: Adobe Illustrator 26.0.1, SVG Export Plug-In . SVG Version: 6.00 Build 0)  -->
<svg version="1.1" id="Layer_1" xmlns="http://www.w3.org/2000/svg" xmlns:xlink="http://www.w3.org/1999/xlink" x="0px" y="0px"
	 viewBox="0 0 448 512" style="enable-background:new 0 0 448 512;" xml:space="preserve">
<path d="M99.2,122.2h46.5c5,0,9,4,9,9v46.5c0,5-4,9-9,9H99.2c-5,0-9-4-9-9v-46.5C90.2,126.2,94.2,122.2,99.2,122.2z M99.2,288.2
	h46.5c5,0,9-4,9-9v-46.5c0-5-4-9-9-9H99.2c-5,0-9,4-9,9v46.5C90.2,284.2,94.2,288.2,99.2,288.2z M99.2,389.8h46.5c5,0,9-4,9-9v-46.5
	c0-5-4-9-9-9H99.2c-5,0-9,4-9,9v46.5C90.2,385.8,94.2,389.8,99.2,389.8z M302.2,186.7h46.5c5,0,9-4,9-9v-46.5c0-5-4-9-9-9h-46.5
	c-5,0-9,4-9,9v46.5C293.2,182.7,297.2,186.7,302.2,186.7z M302.2,288.2h46.5c5,0,9-4,9-9v-46.5c0-5-4-9-9-9h-46.5c-5,0-9,4-9,9v46.5
	C293.2,284.2,297.2,288.2,302.2,288.2z M302.2,389.8h46.5c5,0,9-4,9-9v-46.5c0-5-4-9-9-9h-46.5c-5,0-9,4-9,9v46.5
	C293.2,385.8,297.2,389.8,302.2,389.8z M200.8,186.7h46.5c5,0,9-4,9-9v-46.5c0-5-4-9-9-9h-46.5c-5,0-9,4-9,9v46.5
	C191.8,182.7,195.8,186.7,200.8,186.7z M200.8,288.2h46.5c5,0,9-4,9-9v-46.5c0-5-4-9-9-9h-46.5c-5,0-9,4-9,9v46.5
	C191.8,284.2,195.8,288.2,200.8,288.2z M200.8,389.8h46.5c5,0,9-4,9-9v-46.5c0-5-4-9-9-9h-46.5c-5,0-9,4-9,9v46.5
	C191.8,385.8,195.8,389.8,200.8,389.8z M0,88.6v334.9c0,26.5,21.5,48,48,48h352c26.5,0,48-21.5,48-48V88.6c0-26.5-21.5-48-48-48H48
	C21.5,40.6,0,62.1,0,88.6z M388,423.5H60c-6.6,0-12-5.4-12-12V100.6c0-6.6,5.4-12,12-12h328c6.6,0,12,5.4,12,12v310.9
	C400,418,394.6,423.5,388,423.5z"/>
</svg>
