<?xml version="1.0" encoding="utf-8"?>
<svg version="1.1" xmlns="http://www.w3.org/2000/svg" viewBox="0 0 458.7 512">
<style type="text/css">.st0{fill:#ED1C24;}</style>
<path class="st0" fill-rule="evenodd" d="M432.4,400.1c13.8-8,22.4-22.9,22.4-38.9V150.8c0-16.1-8.5-30.9-22.4-38.9L252.2,6.7
	c-14.1-8.2-31.4-8.2-45.5-0.1L26.4,111.8C12.6,119.8,4,134.7,4,150.7v210.3c0,16.1,8.5,30.9,22.4,38.9l180.2,105.2
	c14,8.1,31.4,8.1,45.4,0L432.4,400.1z
	M80,240h120v32H80V240z M260,240h120v32H260V240z
	M200,250h60v12h-60V250z
	M108,218a8,8 0 1,0 16,0a8,8 0 1,0-16,0z M148,218a8,8 0 1,0 16,0a8,8 0 1,0-16,0z
	M108,282a8,8 0 1,0 16,0a8,8 0 1,0-16,0z M148,282a8,8 0 1,0 16,0a8,8 0 1,0-16,0z
	M298,218a8,8 0 1,0 16,0a8,8 0 1,0-16,0z M338,218a8,8 0 1,0 16,0a8,8 0 1,0-16,0z
	M298,282a8,8 0 1,0 16,0a8,8 0 1,0-16,0z M338,282a8,8 0 1,0 16,0a8,8 0 1,0-16,0z"/>
</svg>
