<?xml version="1.0" encoding="utf-8"?>
<svg version="1.1" xmlns="http://www.w3.org/2000/svg" viewBox="0 0 512 512">
<style type="text/css">.st0{fill:#ED1C24;}</style>
<path class="st0" d="M432.4,400.1c13.8-8,22.4-22.9,22.4-38.9V150.8c0-16.1-8.5-30.9-22.4-38.9L252.2,6.7
	c-14.1-8.2-31.4-8.2-45.5-0.1L26.4,111.8C12.6,119.8,4,134.7,4,150.7v210.3c0,16.1,8.5,30.9,22.4,38.9l180.2,105.2
	c14,8.1,31.4,8.1,45.4,0L432.4,400.1z"/>
<g>
  <rect x="100" y="240" width="120" height="32" rx="4" fill="#FFFFFF"/>
  <rect x="292" y="240" width="120" height="32" rx="4" fill="#FFFFFF"/>
  <line x1="220" y1="256" x2="292" y2="256" stroke="#FFFFFF" stroke-width="12" stroke-linecap="round"/>
  <circle cx="140" cy="224" r="8" fill="#FFFFFF"/>
  <circle cx="180" cy="224" r="8" fill="#FFFFFF"/>
  <circle cx="140" cy="288" r="8" fill="#FFFFFF"/>
  <circle cx="180" cy="288" r="8" fill="#FFFFFF"/>
  <circle cx="332" cy="224" r="8" fill="#FFFFFF"/>
  <circle cx="372" cy="224" r="8" fill="#FFFFFF"/>
  <circle cx="332" cy="288" r="8" fill="#FFFFFF"/>
  <circle cx="372" cy="288" r="8" fill="#FFFFFF"/>
</g>
</svg>
