<?xml version="1.0" encoding="utf-8"?>
<!-- Generator: Adobe Illustrator 26.0.1, SVG Export Plug-In . SVG Version: 6.00 Build 0)  -->
<svg version="1.1" id="Layer_5" xmlns="http://www.w3.org/2000/svg" xmlns:xlink="http://www.w3.org/1999/xlink" x="0px" y="0px"
	 viewBox="0 0 458.7 512" style="enable-background:new 0 0 458.7 512;" xml:space="preserve">
<style type="text/css">
	.st0{fill:#ED1C24;}
</style>
<g>
	<path class="st0" d="M228.6,121.3c-14.4,0-35.2,24.6-45.9,70.5h91.9C263.8,145.9,243,121.3,228.6,121.3z"/>
	<path class="st0" d="M111.2,317.7c14.9,27.7,39.4,49.4,68.5,61.1c-10-16.3-17.8-37.1-22.9-61.1H111.2z"/>
	<path class="st0" d="M150.5,254.7c0-12.3,0.7-24.6,2.3-37.7h-52.1c-3.6,12.2-5.5,24.9-5.5,37.7s1.9,25.5,5.5,37.7h52.1
		C151.2,279.9,150.5,267.2,150.5,254.7z"/>
	<path class="st0" d="M111.2,191.6h45.6c5-23.9,12.9-44.8,22.9-61.1C150.6,142.2,126.1,164,111.2,191.6z"/>
	<path class="st0" d="M432.4,111.9L252.2,6.7c-14.1-8.2-31.4-8.2-45.5-0.1L26.4,111.8C12.6,119.8,4,134.7,4,150.7v210.3
		c0,16.1,8.5,30.9,22.4,38.9l180.3,105.2c14,8.1,31.4,8.1,45.4,0l180.4-105.1c13.8-8,22.4-22.9,22.4-38.9V150.8
		C454.8,134.8,446.2,119.9,432.4,111.9z M359.9,355.4l-24.7,6.2c-2.2,0.5-3.3,3-2.3,4.9l13.7,25.2c0.9,1.6,0.3,3.7-1.3,4.6l-16.1,9
		c-1.6,0.9-3.7,0.3-4.6-1.3l-13.7-25.3c-1.1-2-3.7-2.4-5.4-0.7l-18.3,17.7c-2.1,2.1-5.6,0.7-5.8-2.1l-8.9-103.8
		c-0.2-3,3.2-4.8,5.6-3.1l83.2,62.7C363.5,351.1,362.8,354.7,359.9,355.4z M370.6,325.5l-44-33.1h29.9c3.6-12.2,5.5-24.9,5.5-37.7
		s-1.9-25.5-5.5-37.7h-52.1c1.5,12.5,2.3,25.1,2.3,37.7c0,7.3-0.3,14.6-0.8,22l-13-9.8c-3.5-2.6-7.4-4.3-11.5-5.1
		c0.1-2.4,0.1-4.7,0.1-7.1c0-12.7-0.8-25.3-2.4-37.7H178.1c-1.5,12.4-2.4,25-2.4,37.7c0,12.7,0.8,25.3,2.4,37.7h69.7l2.2,25.3h-67.4
		c10.7,45.7,31.5,70.5,45.9,70.5c7.6,0,17-6.9,25.8-20.1l2.4,27.7c0.4,5.4,2.4,10.2,5.3,14.2c-10.8,2.3-21.9,3.5-33.4,3.5
		c-87.6,0-158.7-71.2-158.7-158.7S141,96.1,228.6,96.1s158.7,71.2,158.7,158.7C387.3,280.1,381.3,304.2,370.6,325.5z"/>
	<path class="st0" d="M277.5,130.7c10,16.3,17.8,37.1,22.9,61.1H346C331.2,164,306.6,142.2,277.5,130.7z"/>
</g>
</svg>
