<?xml version="1.0" encoding="utf-8"?>
<!-- Generator: Adobe Illustrator 25.4.1, SVG Export Plug-In . SVG Version: 6.00 Build 0)  -->
<svg version="1.1" id="Layer_1" xmlns="http://www.w3.org/2000/svg" xmlns:xlink="http://www.w3.org/1999/xlink" x="0px" y="0px"
	 viewBox="0 0 500 512" style="enable-background:new 0 0 500 512;" xml:space="preserve">
<style type="text/css">
	.st0{fill:#010101;}
</style>
<g id="Layer_2_00000129886834587032562760000001746928227310017962_">
</g>
<path class="st0" d="M244.7,95.1c-1.4-5.8-2.2-11.9-2.2-18.2c0-41.5,33.7-75.2,75.2-75.2s75.2,33.7,75.2,75.2
	c0,14.7-4.2,28.4-11.5,40c-34.2-14.9-72.6-22.8-112.5-22.8C260.7,94.1,252.7,94.4,244.7,95.1z M476.6,290.8
	c0-91-93-164.7-207.7-164.7c-32.6,0-63.5,6-91,16.6l0,0C138.1,102.9,92.3,97,92.3,97l0,0c-0.4,0-1-0.1-1.5-0.1
	c-5.5,0-9.9,4.4-9.9,9.9c0,1.6,0.3,3,1,4.3l0,0l0.3,0.7c0.1,0.2,0.3,0.4,0.4,0.7l38,63c-23.4,18.9-41.2,42.2-51,68.2H32.9
	c-5.2,0-9.6,4.3-9.6,9.6v98.2c0,5.3,4.3,9.6,9.6,9.6h48c9.7,16.3,22.7,31.2,38.4,44L91.9,464c-2.5,5.4-0.2,11.8,5.2,14.3l70.6,33
	c5.4,2.5,11.8,0.2,14.3-5.2l26.8-57.4c19,4.5,39.1,7,60.1,7c16.4,0,32.3-1.6,47.6-4.4l25.5,54.8c2.5,5.3,8.9,7.6,14.3,5.2l70.6-33
	c5.3-2.5,7.6-8.9,5.2-14.3l-23.7-51C450.2,382.7,476.6,339.2,476.6,290.8z M140.5,264.7c-13.8,0-25-11.2-25-25s11.1-25,25-25
	c13.8,0,25,11.2,25,25C165.4,253.4,154.3,264.7,140.5,264.7z"/>
</svg>
