<?xml version="1.0" encoding="utf-8"?>
<!-- Generator: Adobe Illustrator 26.0.1, SVG Export Plug-In . SVG Version: 6.00 Build 0)  -->
<svg version="1.1" id="Layer_1" xmlns="http://www.w3.org/2000/svg" xmlns:xlink="http://www.w3.org/1999/xlink" x="0px" y="0px"
	 viewBox="0 0 640 512" style="enable-background:new 0 0 640 512;" xml:space="preserve">
<path d="M537.6,226.6c4.1-10.7,6.4-22.4,6.4-34.6c0-53-43-96-96-96c-19.7,0-38.1,6-53.3,16.2C367,64.2,315.3,32,256,32
	c-88.4,0-160,71.6-160,160c0,2.7,0.1,5.4,0.2,8.1C40.2,219.8,0,273.2,0,336c0,79.5,64.5,144,144,144h368c70.7,0,128-57.3,128-128
	C640,290.1,596,238.4,537.6,226.6z M440.7,335.8c-6.4,20.7-17.4,39.5-31.8,55c-2.2,2.4-5.8,3-8.6,1.3l-24.8-14.3
	c-10.5,8.9-22.4,15.8-35.3,20.4v28.6c0,3.3-2.3,6.1-5.5,6.8c-20.3,4.5-42.1,4.8-63.4,0c-3.2-0.7-5.5-3.5-5.5-6.8v-28.6
	c-13-4.5-24.9-11.4-35.3-20.4l-24.8,14.3c-2.8,1.6-6.4,1-8.6-1.3c-14.4-15.6-25.3-34.3-31.8-55c-0.9-3.1,0.3-6.5,3.2-8.1l24.8-14.3
	c-2.5-13.5-2.5-27.3,0-40.8l-24.8-14.3c-2.8-1.6-4.2-5-3.2-8.1c6.4-20.7,17.4-39.5,31.8-55c2.2-2.4,5.8-3,8.6-1.3l24.7,14.3
	c10.5-8.9,22.4-15.8,35.3-20.4v-28.6c0-3.3,2.3-6.1,5.5-6.8c20.3-4.5,42.1-4.8,63.4,0c3.2,0.7,5.5,3.5,5.5,6.8v28.5
	c13,4.5,24.9,11.4,35.3,20.4l24.8-14.3c2.8-1.6,6.4-1,8.6,1.3c14.4,15.6,25.3,34.3,31.8,55c0.9,3.1-0.3,6.5-3.2,8.1l-24.8,14.3
	c2.5,13.5,2.5,27.3,0,40.8l24.8,14.3C440.3,329.3,441.6,332.6,440.7,335.8z M303,246.4c25.7,0,46.5,20.8,46.5,46.5
	s-20.8,46.5-46.5,46.5s-46.5-20.8-46.5-46.5S277.3,246.4,303,246.4z"/>
</svg>
