<?xml version="1.0" encoding="utf-8"?>
<!-- Generator: Adobe Illustrator 26.0.1, SVG Export Plug-In . SVG Version: 6.00 Build 0)  -->
<svg version="1.1" id="Layer_1" xmlns="http://www.w3.org/2000/svg" xmlns:xlink="http://www.w3.org/1999/xlink" x="0px" y="0px"
	 viewBox="0 0 512 512" style="enable-background:new 0 0 512 512;" xml:space="preserve">
<path d="M32.9,190.6v310.6c0,13.2,10.8,10.8,24,10.8h64.9c13.2,0,24,0,24,0V139.5c0-4.5-4.7-7.4-8.7-5.4L36.2,185.2
	C34.2,186.3,32.9,188.3,32.9,190.6z M376.3,110.8V512c0,0,10.8,0,24,0h55.8c13.2,0,24,2.4,24-10.8V69.6c0-4.4-4.5-7.3-8.5-5.5
	l-91.8,41.2C377.7,106.3,376.3,108.4,376.3,110.8z M334.6,4.1L226.8,63.9c-1.9,1.1-3.1,3.1-3.1,5.2v91c0,2.4,1.4,4.5,3.6,5.5
	l32.3,14.4l-76.4,43.3c-1.9,1.1-3,3.1-3,5.2V512c0,0,10.8,0,24,0H263c13.2,0,24,0,24,0V162.5l47.8,24.5c4,2,8.7-0.8,8.7-5.3V9.4
	C343.5,4.8,338.6,1.9,334.6,4.1z"/>
</svg>
