<?xml version="1.0" encoding="utf-8"?>
<!-- Generator: Adobe Illustrator 25.4.1, SVG Export Plug-In . SVG Version: 6.00 Build 0)  -->
<svg version="1.1" id="Layer_1" xmlns="http://www.w3.org/2000/svg" xmlns:xlink="http://www.w3.org/1999/xlink" x="0px" y="0px"
	 viewBox="0 0 448 512" style="enable-background:new 0 0 448 512;" xml:space="preserve">
<path d="M438.8,190.6l-51.2-88.7c-4-6.9-12.8-9.3-19.7-5.3l-76,43.9c-1,0.6-2.4-0.2-2.4-1.4V51.4c0-8-6.4-14.4-14.4-14.4H172.8
	c-8,0-14.4,6.4-14.4,14.4v87.8c0,1.2-1.3,2-2.4,1.4L80,96.7c-6.9-4-15.7-1.6-19.7,5.3L9.2,190.6c-4,6.9-1.6,15.7,5.3,19.7l76,43.9
	c1,0.6,1,2.1,0,2.7l-76,43.9c-6.9,4-9.2,12.8-5.3,19.7l51.2,88.7c4,6.9,12.8,9.2,19.7,5.3l76-43.9c1-0.6,2.4,0.2,2.4,1.4v87.7
	c0,8,6.4,14.4,14.4,14.4h102.4c8,0,14.4-6.4,14.4-14.4V372c0-1.2,1.3-2,2.4-1.4l76,43.9c6.9,4,15.7,1.6,19.7-5.3l51.2-88.7
	c4-6.9,1.6-15.7-5.3-19.7l-76-43.9c-1-0.6-1-2.1,0-2.7l76-43.9C440.4,206.3,442.8,197.5,438.8,190.6z M224.9,63.4
	c17.2,0,31.1,13.9,31.1,31.2c0,12.3-7.2,23-17.6,28c-0.5,0.3-0.9,0.8-0.9,1.4v36c0,0.9-0.7,1.6-1.6,1.6h-21.8
	c-0.9,0-1.6-0.7-1.6-1.6v-35.8c0-0.6-0.4-1.2-0.9-1.4c-10.6-4.9-17.9-15.7-17.9-28.2C193.8,77.3,207.7,63.4,224.9,63.4z
	 M237.5,437.2c0,6.3-5.6,11.4-12.5,11.4s-12.5-5.1-12.5-11.4v-85.8c0-0.7,0.5-1.2,1.2-1.4l21.8-6.4c1-0.3,2,0.4,2,1.4V437.2z
	 M212.6,304v-93.5c0-0.7,0.7-1.4,1.6-1.4H236c0.9,0,1.6,0.6,1.6,1.4v86.2c0,0.6-0.4,1.1-1.1,1.3l-21.8,7.3
	C213.7,305.6,212.6,304.9,212.6,304z M277.3,181.7c0.9,3.6-1.3,7.2-4.8,8s-7.1-1.3-8-4.8c-0.9-3.6,1.3-7.1,4.8-8
	C272.9,176.1,276.4,178.2,277.3,181.7z M331.3,193.3c0,0.9-0.7,1.6-1.6,1.6h-10.3c-0.6,0-1.2,0.3-1.4,0.9c-2,4.3-5.9,7.5-10.6,8.6
	c-1.5,0.3-38.3,5.3-41.2,5.7c-0.1,0-0.2,0-0.4,0c-7.6-0.7-13.9-5.3-17.1-11.6c-0.3-0.5-0.8-0.9-1.4-0.9H202
	c-12,0.2-21.1,8.4-21.1,18c0,6.6,4.6,13.8,13.7,16.8l5.2,1.7c0.8,0.3,1.4,1,1.4,1.9v22.3c0,1.2-1.2,2-2.3,1.7l-12.1-4
	c-18.4-6-30.9-22.2-30.9-40.5c0-17.9,15.6-42.9,46.3-42.9h51.1c0.4,0,0.7-0.1,1-0.3c4.1-3.3,9.4-5.1,15.1-4.6c0.1,0,0.1,0,0.2,0
	l35.5,5.9c8.6,0.7,15,8.3,14.3,16.8c0,0.5-0.1,0.9-0.2,1.3h10.4C330.5,191.7,331.3,192.4,331.3,193.3z M286.7,290.3
	c0,18.2-14.5,30.3-25.5,33.9L200.6,342c-7.5,2.5-9.7,9.1-9.7,11.7c-0.1,5.1,2.8,10,9,12.7c0.7,0.3,1.2,1,1.2,1.8V384
	c0,1.4-1.3,2.3-2.6,1.9l-2.3-0.8c-14.9-4.9-25.4-19.8-24.1-34c0.7-7.2,6.3-21.9,22.7-27.3l59.9-20c5.7-1.9,10.4-6.9,10.4-13.1
	c-0.1-7.9-5.9-13.3-12.7-15.5l-2-0.6c-0.8-0.3-1.4-1-1.4-1.9v-18.4c0-1.4,1.3-2.3,2.6-1.9l7.4,2.4
	C269.8,258.5,286.7,271.1,286.7,290.3z M266.9,415c-0.2,1.6-2.4,1.9-3,0.4c-1.8-4.6-5.8-10.5-14.6-14.4c-0.3-0.1-0.5-0.4-0.5-0.7
	c0-0.4,0-15.5,0-15.5c0-1.6,1.8-2.5,3.1-1.7C264.7,391.4,268.5,403.3,266.9,415z"/>
</svg>
