<?xml version="1.0" encoding="utf-8"?>
<!-- Generator: Adobe Illustrator 26.0.0, SVG Export Plug-In . SVG Version: 6.00 Build 0)  -->
<svg version="1.1" id="Layer_1" xmlns="http://www.w3.org/2000/svg" xmlns:xlink="http://www.w3.org/1999/xlink" x="0px" y="0px"
	 viewBox="0 0 512 512" style="enable-background:new 0 0 512 512;" xml:space="preserve">
<path d="M496.7,128.9l-45.1,27.2v-118c0-4.4-3.6-8-8-8h-53c-4.4,0-8,3.6-8,8v159.5l-41.3,24.9l-0.4-90.1c0-3.1-3.4-4.9-6-3.4
	l-155.1,93.7v-90.3c0-3.1-3.4-5-6-3.4L12.6,226.5c-2.4,1.4-3.9,4-3.9,6.8v54.3v162.9c0,13.2,10.8,24,24,24h446c13.2,0,24-10.8,24-24
	V176.4v-44.1C502.8,129.3,499.4,127.3,496.7,128.9z M136.3,394.5c0,4.4-3.6,8-8,8h-68c-4.4,0-8-3.6-8-8v-68c0-4.4,3.6-8,8-8h68
	c4.4,0,8,3.6,8,8V394.5z M297.9,394.5c0,4.4-3.6,8-8,8h-68c-4.4,0-8-3.6-8-8v-68c0-4.4,3.6-8,8-8h68c4.4,0,8,3.6,8,8V394.5z
	 M459.5,394.5c0,4.4-3.6,8-8,8h-68c-4.4,0-8-3.6-8-8v-68c0-4.4,3.6-8,8-8h68c4.4,0,8,3.6,8,8V394.5z"/>
</svg>
