<?xml version="1.0" encoding="utf-8"?>
<!-- Generator: Adobe Illustrator 26.0.1, SVG Export Plug-In . SVG Version: 6.00 Build 0)  -->
<svg version="1.1" id="Layer_1" xmlns="http://www.w3.org/2000/svg" xmlns:xlink="http://www.w3.org/1999/xlink" x="0px" y="0px"
	 viewBox="0 0 512 512" style="enable-background:new 0 0 512 512;" xml:space="preserve">
<path id="Layer_2_00000029748162839293117600000013484987133028667045_" d="M439.6,92.2H72.4c-8.8,0-16-7.2-16-16v-16
	c0-8.8,7.2-16,16-16h367.2c8.8,0,16,7.2,16,16v16C455.6,85,448.4,92.2,439.6,92.2z M274.4,454.1V188.8c0-7.6,6.1-13.7,13.7-13.7
	h20.6c7.6,0,13.7,6.1,13.7,13.7v265.4c0,7.6-6.1,13.7-13.7,13.7h-20.6C280.5,467.8,274.4,461.7,274.4,454.1z M354.7,454.1V188.8
	c0-7.6,6.1-13.7,13.7-13.7H389c7.6,0,13.7,6.1,13.7,13.7v265.4c0,7.6-6.1,13.7-13.7,13.7h-20.6C360.8,467.8,354.7,461.7,354.7,454.1
	z M113.8,454.1V188.8c0-7.6,6.1-13.7,13.7-13.7h20.6c7.6,0,13.7,6.1,13.7,13.7v265.4c0,7.6-6.1,13.7-13.7,13.7h-20.6
	C120,467.8,113.8,461.7,113.8,454.1z M194.1,454.1V188.8c0-7.6,6.1-13.7,13.7-13.7h20.6c7.6,0,13.7,6.1,13.7,13.7v265.4
	c0,7.6-6.1,13.7-13.7,13.7h-20.6C200.2,467.8,194.1,461.7,194.1,454.1z M424.7,146.9h-333c-4.4,0-8-3.6-8-8v-16c0-4.4,3.6-8,8-8h333
	c4.4,0,8,3.6,8,8v16C432.7,143.3,429.2,146.9,424.7,146.9z"/>
</svg>
