<?xml version="1.0" encoding="utf-8"?>
<!-- Generator: Adobe Illustrator 26.0.1, SVG Export Plug-In . SVG Version: 6.00 Build 0)  -->
<svg version="1.1" id="Layer_1" xmlns="http://www.w3.org/2000/svg" xmlns:xlink="http://www.w3.org/1999/xlink" x="0px" y="0px"
	 viewBox="0 0 512 512" style="enable-background:new 0 0 512 512;" xml:space="preserve">
<path d="M486.6,158.8c-12.6-29.9-30.7-56.7-53.8-79.8C409.7,56,382.9,37.9,353,25.2c-31-13.1-63.8-19.7-97.7-19.7
	c-33.9,0-66.8,6.6-97.7,19.7C127.6,37.9,100.8,56,77.7,79c-23.1,23.1-41.1,49.9-53.8,79.8c-13.1,31-19.7,63.8-19.7,97.7
	c0,33.9,6.6,66.8,19.7,97.7c12.6,29.9,30.7,56.7,53.8,79.8c23.1,23.1,49.9,41.1,79.8,53.8c31,13.1,63.8,19.7,97.7,19.7
	c33.9,0,66.8-6.6,97.7-19.7c29.9-12.6,56.7-30.7,79.8-53.8c23.1-23.1,41.1-49.9,53.8-79.8c13.1-31,19.7-63.8,19.7-97.7
	C506.3,222.6,499.7,189.8,486.6,158.8z M388.6,102.9c17.1,14.9,31.4,32.2,42.6,51.6h-61c-6.9-31.4-16.9-59.5-29.4-82.6
	C358.1,79.9,374.1,90.2,388.6,102.9z M219.8,80.3c17-24.8,30.4-27.4,35.4-27.4c5,0,18.4,2.7,35.4,27.4c9.2,13.4,21.7,36.9,31,74.2
	H188.8C198.1,117.1,210.6,93.7,219.8,80.3z M169.7,71.8c-12.5,23.2-22.5,51.2-29.4,82.6h-61c11.3-19.4,25.5-36.7,42.6-51.6
	C136.5,90.2,152.4,79.8,169.7,71.8z M59.1,311.2c-5-17.7-7.5-36.1-7.5-54.7c0-18.6,2.5-37,7.5-54.7h73.7
	c-2.1,18.9-3.1,36.8-3.1,54.7c0,18.2,1,36.6,3.1,54.7H59.1z M121.9,410.2c-17.1-14.9-31.4-32.2-42.6-51.6h61
	c6.9,31.4,16.9,59.5,29.4,82.6C152.4,433.2,136.5,422.8,121.9,410.2z M290.7,432.8c-17,24.8-30.4,27.4-35.4,27.4
	c-5,0-18.4-2.7-35.4-27.4c-9.2-13.4-21.7-36.9-31-74.2h132.9C312.4,395.9,299.9,419.4,290.7,432.8z M330.2,311.2h-150
	c-2.2-18-3.3-36.3-3.3-54.7c0-18.4,1.1-36.8,3.3-54.7h150c2.2,18,3.3,36.3,3.3,54.7C333.5,274.9,332.4,293.3,330.2,311.2z
	 M388.6,410.2c-14.5,12.7-30.5,23-47.7,31.1c12.5-23.2,22.5-51.2,29.4-82.6h61C420,378,405.7,395.3,388.6,410.2z M451.5,311.2h-73.7
	c2.1-18.9,3.1-36.8,3.1-54.7c0-18.2-1-36.6-3.1-54.7h73.7c5,17.7,7.5,36.1,7.5,54.7C458.9,275.1,456.4,293.5,451.5,311.2z"/>
</svg>
