<svg xmlns="http://www.w3.org/2000/svg" viewBox="0 0 495.58 512"><g id="Layer_3" data-name="Layer 3"><path d="M483.13,243.4c0,29.11-10.17,54.33-30.23,75S408,349.66,379.39,349.66H290.24v-32h89.15c19.9,0,36.44-7.07,50.56-21.6s21.18-31.88,21.18-52.66A72.73,72.73,0,0,0,434.46,196c-11.13-13.76-24.3-21.94-40.26-25l-18.46-3.55,6.45-17.65a51.08,51.08,0,0,0,2.32-9.06,64.29,64.29,0,0,0,.82-10.14c0-14.6-4.8-26.64-14.67-36.8s-21.24-14.89-35.13-14.89A51.34,51.34,0,0,0,320.64,81a38.12,38.12,0,0,0-11.86,6L294.24,97.87l-9-15.8a95.59,95.59,0,0,0-34.19-35.15,88,88,0,0,0-47.17-13.16c-25.89,0-47.47,9.26-66,28.3s-27.69,41.58-27.69,68.52v16.81l-10.48,3.85c-16.23,6-29.24,16.07-39.76,30.91s-15.56,31.1-15.56,50c0,24.1,7.94,44,24.26,60.77s35.32,24.77,58.44,24.77h67.09v32H127.15c-31.77,0-59.15-11.6-81.38-34.46s-33.32-50.7-33.32-83.08c0-25.37,7.22-48.41,21.46-68.49a115.73,115.73,0,0,1,44.43-38c1.11-33.1,13.43-62,36.66-85.85,24.5-25.21,54.42-38,88.92-38a120.73,120.73,0,0,1,63.87,17.86A129.39,129.39,0,0,1,304.41,52.9a72.66,72.66,0,0,1,6.91-2.49,83.11,83.11,0,0,1,24.21-3.52c22.66,0,42.2,8.27,58.07,24.59s23.73,36.09,23.73,59.1a95.88,95.88,0,0,1-1,13.5c16.51,6.21,30.92,16.86,43,31.8A104.92,104.92,0,0,1,483.13,243.4Zm-263.69,259-56-56.89c-20.77-21.09-4.2-54.45,22.8-54.45h40v-128h-40c-26.8,0-43.8-33.15-22.8-54.45l56-56.89.34-.35a32,32,0,0,1,45.26.35l56,56.89c20.31,20.63,4.61,54.45-22.8,54.45h-40v128h40c27.48,0,43.29,33.64,22.8,54.45l-56,56.89a32,32,0,0,1-45.6,0Zm78.8-271.34-56-56.89-56,56.89ZM242.24,480l56-56.89h-112Z"/></g></svg>