<?xml version="1.0" encoding="utf-8"?>
<!-- Generator: Adobe Illustrator 26.0.1, SVG Export Plug-In . SVG Version: 6.00 Build 0)  -->
<svg version="1.1" id="Layer_1" xmlns="http://www.w3.org/2000/svg" xmlns:xlink="http://www.w3.org/1999/xlink" x="0px" y="0px"
	 viewBox="0 0 512 512" style="enable-background:new 0 0 512 512;" xml:space="preserve">
<path d="M506.7,404v81.1c0,9.6-7.8,17.4-17.4,17.4h-81.1c-15.6,0-23.3-18.7-12.4-29.6l23.9-22.6l-58.9-59H151.9l-58.9,59l23.9,22.6
	c10.9,10.9,3.2,29.6-12.4,29.6H23.4c-9.6,0-17.4-7.8-17.4-17.4V404c0-15.5,18.8-23.2,29.7-12.3l22.5,23.8l33-33
	c-35.4-15.8-60.1-51.2-60.1-92.4c0-44.2,28.3-81.7,67.7-95.6c-0.1-1.9-0.2-3.8-0.2-5.7c0-15.5,3.1-30.3,8.8-43.8L58.2,95.8
	l-22.5,23.8C24.8,130.5,6,122.8,6,107.3V26.2c0-9.6,7.8-17.4,17.4-17.4h81.1c15.6,0,23.3,18.7,12.4,29.6L93,61l43.5,43.6
	c19.8-17.6,46-28.3,74.6-28.3c41.8,0,78.2,22.7,97.6,56.4c10.6-7.2,23.5-11.4,37.4-11.4c4.2,0,8.2,0.4,12.2,1.1l1.8-1.8
	c0.2-0.2,0.3-0.3,0.5-0.5l59-59.1l-23.9-22.6c-10.9-10.9-3.2-29.6,12.4-29.6h81.1c9.6,0,17.4,7.8,17.3,17.4v81.2
	c0,15.5-18.8,23.2-29.7,12.3l-22.5-23.8l-53.4,53.4c8,11.1,12.7,24.7,12.7,39.5c0,8.5-1.6,16.7-4.5,24.3c41,8.3,72,44.7,72.1,88.2
	c0,38.1-23.7,70.7-57.2,83.8l30.4,30.4l22.5-23.8C487.8,380.8,506.6,388.5,506.7,404z"/>
</svg>
