<?xml version="1.0" encoding="utf-8"?>
<!-- Generator: Adobe Illustrator 25.4.1, SVG Export Plug-In . SVG Version: 6.00 Build 0)  -->
<svg version="1.1" id="Layer_1" xmlns="http://www.w3.org/2000/svg" xmlns:xlink="http://www.w3.org/1999/xlink" x="0px" y="0px"
	 viewBox="0 0 640 512" style="enable-background:new 0 0 640 512;" xml:space="preserve">
<path d="M537.6,226.6c4.1-10.7,6.4-22.4,6.4-34.6c0-53-43-96-96-96c-19.7,0-38.1,6-53.3,16.2C367,64.2,315.3,32,256,32
	c-88.4,0-160,71.6-160,160c0,2.7,0.1,5.4,0.2,8.1C40.2,219.8,0,273.2,0,336c0,79.5,64.5,144,144,144h368c70.7,0,128-57.3,128-128
	C640,290.1,596,238.4,537.6,226.6z M173,263.7h36.4v131.4H173L173,263.7L173,263.7z M227.5,344.8v-0.3c0-28.9,23.6-53.1,56.2-53.1
	s56,23.9,56,52.8v0.3c0,28.9-23.7,53.1-56.3,53.1C251,397.6,227.5,373.7,227.5,344.8z M305,344.8v-0.3c0-12.5-9.2-23.1-21.8-23.1
	c-13,0-21.2,10.3-21.2,22.8v0.3c0,12.4,9,22.9,21.6,22.9C296.7,367.3,305,357,305,344.8z M388.9,295.6h-39.3v-31.9h115.2v31.9h-39.5
	v99.5h-36.4V295.6z"/>
</svg>
