<?xml version="1.0" encoding="utf-8"?>
<!-- Generator: Adobe Illustrator 26.0.0, SVG Export Plug-In . SVG Version: 6.00 Build 0)  -->
<svg version="1.1" id="Layer_1" xmlns="http://www.w3.org/2000/svg" xmlns:xlink="http://www.w3.org/1999/xlink" x="0px" y="0px"
	 viewBox="0 0 512 512" style="enable-background:new 0 0 512 512;" xml:space="preserve">
<path d="M453.9,96.9l22.5,23.8c10.9,11,29.7,3.3,29.7-12.2V27.3c0.1-9.6-7.7-17.4-17.3-17.4h-81.1c-15.6,0-23.3,18.7-12.4,29.6
	l23.9,22.6l6,6.1l-56.9,56.9c-7-2.4-14.4-3.8-22.2-3.8c-13.9,0-26.8,4.2-37.4,11.4c-19.4-33.7-55.8-56.4-97.6-56.4
	c-31.6,0-60.2,13-80.6,34L85.8,65.5l6.1-6.1l23.8-22.5c10.9-10.9,3.2-29.7-12.3-29.7H22.2C12.6,7.1,4.8,14.9,4.8,24.5v81.1
	c0,15.6,18.7,23.3,29.6,12.4L57,94.1l6.1-6l48.4,48.4c-8.2,15.6-12.9,33.4-12.9,52.3c0,1.9,0.1,3.8,0.2,5.7
	c-39.4,13.9-67.7,51.4-67.7,95.6c0,44.2,28.4,81.7,67.9,95.5l-35.9,35.9l-6.1-6l-22.6-23.9C23.5,380.7,4.8,388.4,4.8,404v81.1
	c0,9.6,7.8,17.4,17.4,17.3h81.2c15.5,0,23.2-18.8,12.3-29.8l-23.8-22.5l-6.1-6.1l52.7-52.7h236.6l50.1,50.1l-6,6.1l-23.9,22.6
	c-10.9,10.9-3.2,29.6,12.4,29.6h81.1c9.6,0,17.4-7.8,17.3-17.4v-81.2c0-15.5-18.8-23.2-29.7-12.2l-22.5,23.8l-6.1,6.1l-31.1-31.2
	c37.3-11,64.5-45.5,64.5-86.3c-0.1-43.5-31.1-79.9-72.1-88.2c2.9-7.6,4.5-15.8,4.5-24.3c0-17.7-6.8-33.8-18-45.8l52.2-52.2
	L453.9,96.9z M402.7,244.5c26.8,5.4,46.4,29.3,46.4,56.9c0,32-26,58-58,58H132.4c-2.1,0-6.6-0.3-6.9-0.3c-35-3.5-62.4-33-62.4-68.9
	c0-29.4,18.6-55.6,46.3-65.4l22.6-8l-1.3-23.9c-0.1-1.5-0.2-3-0.2-4c0-21.5,8.4-41.8,23.6-56.9c15.2-15.3,35.5-23.7,57-23.7
	c14.5,0,28.6,3.8,40.9,11.1c12,7.1,22,17.2,28.9,29.2l17.2,29.9l28.5-19.4c5.7-3.8,12.4-5.9,19.4-5.9c19.6,0,35.5,15.9,35.5,35.5
	c0,4.4-0.8,8.7-2.4,12.9L365.7,237L402.7,244.5z"/>
</svg>
