<?xml version="1.0" encoding="utf-8"?>
<!-- Generator: Adobe Illustrator 26.0.0, SVG Export Plug-In . SVG Version: 6.00 Build 0)  -->
<svg version="1.1" id="Layer_1" xmlns="http://www.w3.org/2000/svg" xmlns:xlink="http://www.w3.org/1999/xlink" x="0px" y="0px"
	 viewBox="0 0 640 512" style="enable-background:new 0 0 640 512;" xml:space="preserve">
<path d="M389.6,271H380v-35.2c0-41.6-35.2-76.8-76.8-76.8s-76.8,35.2-76.8,76.8V271h-12.8c-16,0-25.6,12.8-25.6,25.6v96
	c0,16,12.8,25.6,25.6,25.6h176c16,0,25.6-12.8,25.6-25.6v-96C415.2,280.6,402.4,271,389.6,271z M335.2,271h-70.4v-35.2
	c0-19.2,16-35.2,35.2-35.2s35.2,16,35.2,35.2L335.2,271L335.2,271z M256,64c22.9,0,45.4,6.1,64.9,17.7c19,11.2,35,27.3,46.1,46.5
	l17.1,29.7l28.4-19.1c10.5-7,22.8-10.8,35.5-10.8c35.3,0,64,28.7,64,64c0,7.9-1.4,15.7-4.3,23.2l-13.5,35.3l37.1,7.5
	c21.3,4.3,40.8,16,54.8,32.9c14.2,17.1,22,38.8,22,61.1c0,52.9-43.1,96-96,96H144c-61.8,0-112-50.2-112-112
	c0-47.5,30.1-90,74.8-105.7l22.2-7.8l-0.9-23.6c-0.1-2.5-0.2-4.8-0.2-6.9c0-34.2,13.3-66.4,37.5-90.5C189.6,77.3,221.8,64,256,64
	 M256,32c-88.4,0-160,71.6-160,160c0,2.7,0.1,5.4,0.2,8.1C40.2,219.8,0,273.2,0,336c0,79.5,64.5,144,144,144h368
	c70.7,0,128-57.3,128-128c0-61.9-44-113.6-102.4-125.4c4.1-10.7,6.4-22.4,6.4-34.6c0-53-43-96-96-96c-19.7,0-38.1,6-53.3,16.2
	C367,64.2,315.3,32,256,32L256,32z"/>
</svg>
