<?xml version="1.0" encoding="utf-8"?>
<!-- Generator: Adobe Illustrator 25.4.1, SVG Export Plug-In . SVG Version: 6.00 Build 0)  -->
<svg version="1.1" id="Layer_1" xmlns="http://www.w3.org/2000/svg" xmlns:xlink="http://www.w3.org/1999/xlink" x="0px" y="0px"
	 viewBox="0 0 640 512" style="enable-background:new 0 0 640 512;" xml:space="preserve">
<path d="M537.6,226.6c4.1-10.7,6.4-22.4,6.4-34.6c0-53-43-96-96-96c-19.7,0-38.1,6-53.3,16.2C367,64.2,315.3,32,256,32
	c-88.4,0-160,71.6-160,160c0,2.7,0.1,5.4,0.2,8.1C40.2,219.8,0,273.2,0,336c0,79.5,64.5,144,144,144h368c70.7,0,128-57.3,128-128
	C640,290.1,596,238.4,537.6,226.6z M76.9,375.7l20.2-24.2c13.2,10.3,27.4,15.7,42.7,15.7c9.9,0,15.2-3.4,15.2-9v-0.3
	c0-5.6-4.3-8.5-22.3-12.8c-27.9-6.4-49.6-14.3-49.6-41.1v-0.3c0-24.4,19.4-42,50.9-42c22.3,0,39.8,6,54.1,17.5L170,304.7
	c-12-8.7-25.2-13-36.9-13c-8.8,0-13.2,3.5-13.2,8.5v0.3c0,6,4.5,8.7,22.9,12.8c30,6.6,48.8,16.4,48.8,40.9v0.3
	c0,26.8-21.2,42.8-53.1,42.8C115.3,397.5,93.3,390.2,76.9,375.7z M202.4,366.1v-0.3c0-21.2,15.9-31.9,39.8-31.9
	c9.4,0,18.6,1.6,24.4,4v-1.6c0-10.7-6.6-16.7-20.2-16.7c-10.7,0-18.9,2.2-28.2,5.6l-7.4-25c11.4-4.7,23.6-7.9,41.1-7.9
	c18.3,0,30.6,4.3,38.7,12.4c7.7,7.5,10.9,18,10.9,32.3v58.4h-35.1v-10.7c-7.2,7.7-16.7,13-30,13C217,397.5,202.4,386.2,202.4,366.1z
	 M267,358.4v-4.7c-3.7-1.5-8.8-2.6-14.1-2.6c-10.3,0-16.4,4.8-16.4,12.5v0.3c0,6.9,5.3,11.1,12.5,11.1
	C259.7,375.1,267,368.5,267,358.4z M314.9,366.1v-0.3c0-21.2,15.9-31.9,39.8-31.9c9.4,0,18.6,1.6,24.4,4v-1.6
	c0-10.7-6.6-16.7-20.2-16.7c-10.7,0-18.9,2.2-28.2,5.6l-7.4-25c11.4-4.7,23.6-7.9,41.1-7.9c18.3,0,30.6,4.3,38.7,12.4
	c7.7,7.5,10.9,18,10.9,32.3v58.4h-35.1v-10.7c-7.1,7.7-16.7,13-30,13C329.6,397.5,314.9,386.2,314.9,366.1z M379.5,358.4v-4.7
	c-3.7-1.5-8.8-2.6-14.1-2.6c-10.3,0-16.4,4.8-16.4,12.5v0.3c0,6.9,5.3,11.1,12.5,11.1C372.1,375.1,379.5,368.5,379.5,358.4z
	 M424.4,375.7l20.2-24.2c13.2,10.3,27.4,15.7,42.7,15.7c9.9,0,15.2-3.4,15.2-9v-0.3c0-5.6-4.3-8.5-22.3-12.8
	c-27.9-6.4-49.6-14.3-49.6-41.1v-0.3c0-24.4,19.4-42,50.9-42c22.3,0,39.8,6,54.1,17.5l-18.3,25.6c-12-8.7-25.2-13-36.8-13
	c-8.8,0-13.2,3.5-13.2,8.5v0.3c0,6,4.5,8.7,22.9,12.8c30,6.6,48.8,16.4,48.8,40.9v0.3c0,26.8-21.2,42.8-53.1,42.8
	C462.7,397.5,440.8,390.2,424.4,375.7z"/>
</svg>
