<svg xmlns="http://www.w3.org/2000/svg" viewBox="0 0 495.58 512"><defs><style>.cls-1{fill:#fff;}</style></defs><g id="Layer_3" data-name="Layer 3"><path class="cls-1" d="M241.56,160.9a17.83,17.83,0,0,1,12.64,5.24l64.1,64.1c11.26,11.26,3.28,30.52-12.64,30.52H271.35V412.15h34.31c15.92,0,23.9,19.25,12.64,30.51l-64.1,64.1a17.87,17.87,0,0,1-25.28,0l-64.1-64.1c-11.26-11.26-3.29-30.51,12.64-30.51h34.3V260.76h-34.3c-15.93,0-23.9-19.26-12.64-30.52l64.1-64.1a17.82,17.82,0,0,1,12.64-5.24"/><path d="M483.13,243.4c0,29.11-10.17,54.33-30.23,75S408,349.66,379.39,349.66h-76v-56.9h2.31a49.88,49.88,0,0,0,35.27-85.15l-64.1-64.1a49.88,49.88,0,0,0-70.54,0l-64.1,64.1a49.88,49.88,0,0,0,35.27,85.15h2.3v56.9H127.15c-31.77,0-59.15-11.6-81.38-34.46s-33.32-50.7-33.32-83.08c0-25.37,7.22-48.41,21.46-68.49a115.73,115.73,0,0,1,44.43-38c1.11-33.1,13.43-62,36.66-85.85,24.5-25.21,54.42-38,88.92-38a120.76,120.76,0,0,1,63.87,17.86A129.39,129.39,0,0,1,304.41,52.9a72.66,72.66,0,0,1,6.91-2.49,83.11,83.11,0,0,1,24.21-3.52c22.66,0,42.2,8.27,58.07,24.59s23.73,36.09,23.73,59.1a95.88,95.88,0,0,1-1,13.5c16.51,6.21,30.92,16.86,43,31.8A104.92,104.92,0,0,1,483.13,243.4ZM305.66,412.15H271.35V260.76h34.31c15.92,0,23.9-19.26,12.64-30.52l-64.1-64.1a17.88,17.88,0,0,0-25.28,0l-64.1,64.1c-11.26,11.26-3.29,30.52,12.64,30.52h34.3V412.15h-34.3c-15.93,0-23.9,19.25-12.64,30.51l64.1,64.1a17.86,17.86,0,0,0,25.28,0l64.1-64.1C329.56,431.4,321.58,412.15,305.66,412.15Z"/></g></svg>