<?xml version="1.0" encoding="utf-8"?>
<!-- Generator: Adobe Illustrator 25.4.1, SVG Export Plug-In . SVG Version: 6.00 Build 0)  -->
<svg version="1.1" id="Layer_1" xmlns="http://www.w3.org/2000/svg" xmlns:xlink="http://www.w3.org/1999/xlink" x="0px" y="0px"
	 viewBox="0 0 640 512" style="enable-background:new 0 0 640 512;" xml:space="preserve">
<path d="M537.6,226.6c4.1-10.7,6.4-22.4,6.4-34.6c0-53-43-96-96-96c-19.7,0-38.1,6-53.3,16.2C367,64.2,315.3,32,256,32
	c-88.4,0-160,71.6-160,160c0,2.7,0.1,5.4,0.2,8.1C40.2,219.8,0,273.2,0,336c0,79.5,64.5,144,144,144h368c70.7,0,128-57.3,128-128
	C640,290.1,596,238.4,537.6,226.6z M359.1,225.7c-16.4-15.3-37.7-23.8-60.2-23.7c-40.6,0-75.7,27.9-85.3,66.5
	c-0.7,2.8-3.2,4.8-6.1,4.8h-30c-3.9,0-6.9-3.6-6.2-7.4C182.6,205.6,235.5,160,299,160c34.8,0,66.5,13.7,89.8,36l18.7-18.7
	c7.9-7.9,21.5-2.3,21.5,8.9v70.3c0,6.9-5.6,12.6-12.6,12.6h-70.3c-11.2,0-16.8-13.6-8.9-21.5L359.1,225.7z M181.6,311h70.3
	c11.2,0,16.8,13.6,8.9,21.5l-21.9,21.9c16.4,15.3,37.7,23.8,60.2,23.7c40.6,0,75.6-27.9,85.3-66.5c0.7-2.8,3.2-4.8,6.1-4.8h30
	c3.9,0,6.9,3.6,6.2,7.4C415.4,374.4,362.5,420,299,420c-34.8,0-66.5-13.7-89.8-36l-18.7,18.7c-7.9,7.9-21.5,2.3-21.5-8.9v-70.3
	C169,316.6,174.6,311,181.6,311z"/>
</svg>
