<?xml version="1.0" encoding="utf-8"?>
<!-- Generator: Adobe Illustrator 26.5.0, SVG Export Plug-In . SVG Version: 6.00 Build 0)  -->
<svg version="1.1" xmlns="http://www.w3.org/2000/svg" xmlns:xlink="http://www.w3.org/1999/xlink" x="0px" y="0px"
	 viewBox="0 0 512 512" style="enable-background:new 0 0 512 512;" xml:space="preserve">
<style type="text/css">
	.st0{display:none;}
	.st1{display:inline;fill-rule:evenodd;clip-rule:evenodd;}
	.st2{display:inline;}
	.st3{display:inline;fill-rule:evenodd;clip-rule:evenodd;fill:#FFFFFF;}
	.st4{fill-rule:evenodd;clip-rule:evenodd;}
	.st5{display:inline;fill-rule:evenodd;clip-rule:evenodd;fill:#00C2D0;}
</style>
<g id="Layer_1" class="st0">
	<path class="st1" d="M294.4,305v54.9c0,21.1,17.1,38.1,38.1,38.1h57.8c6,13.2,19.3,22.4,34.8,22.4c21.1,0,38.1-17.1,38.1-38.1
		c0-21.1-17.1-38.1-38.1-38.1c-15,0-27.9,8.6-34.1,21.1h-58.5c-3,0-5.4-2.4-5.4-5.4V305 M240,305v133.3c0,0.2,0,0.4,0,0.6
		c-13.5,5.9-22.9,19.3-22.9,35c0,21.1,17.1,38.1,38.1,38.1s38.1-17.1,38.1-38.1c0-14.8-8.4-27.6-20.8-34c0.1-0.5,0.1-1,0.1-1.6V305
		 M185.5,305v54.9c0,3-2.4,5.4-5.4,5.4h-54.5c-1.3,0-2.6,0.2-3.8,0.4c-6.2-12.8-19.2-21.6-34.4-21.6c-21.1,0-38.1,17.1-38.1,38.1
		c0,21.1,17.1,38.1,38.1,38.1c15.6,0,29-9.4,34.9-22.8c1,0.2,2.1,0.3,3.2,0.3h54.5c21.1,0,38.1-17.1,38.1-38.1V305 M294.4,305v-43.5
		c0-9,7.3-16.3,16.3-16.3s16.3,7.3,16.3,16.3V305 M240,305v-4.8v-82.3c0-9,7.3-16.3,16.3-16.3c9,0,16.3,7.3,16.3,16.3v82.3v4.8
		 M185.5,305v-43.5c0-9,7.3-16.3,16.3-16.3c9,0,16.3,7.3,16.3,16.3V305"/>
	<path class="st1" d="M-200.5,132.7c2.7-7.5,4.8-15,4.8-23.8c0-36.1-29.3-65.3-65.4-65.3c-13.6,0-26.6,4.1-36.8,11.6
		C-316.2,22.5-351.6,0-391.8,0c-60.6,0-108.9,49-108.9,108.9v6.1c-38.1,12.9-65.4,49.7-65.4,91.9c0,54.5,43.6,98,98,98h27.2v0.1
		h21.8v54.9c0,3-2.4,5.4-5.4,5.4h-54.5c-1.3,0-2.6,0.2-3.8,0.4c-6.2-12.8-19.2-21.6-34.4-21.6c-21.1,0-38.1,17.1-38.1,38.1
		c0,21.1,17.1,38.1,38.1,38.1c15.6,0,29-9.4,34.9-22.8c1,0.2,2.1,0.3,3.2,0.3h54.5c21.1,0,38.1-17.1,38.1-38.1V305h21.8v133.3
		c0,0.2,0,0.4,0,0.6c-13.5,5.9-22.9,19.3-22.9,35c0,21.1,17.1,38.1,38.1,38.1c21.1,0,38.1-17.1,38.1-38.1c0-14.8-8.4-27.6-20.8-34
		c0.1-0.5,0.1-1,0.1-1.6V305h21.8v54.9c0,21.1,17.1,38.1,38.1,38.1h57.8c6,13.2,19.3,22.4,34.8,22.4c21.1,0,38.1-17.1,38.1-38.1
		c0-21.1-17.1-38.1-38.1-38.1c-15,0-27.9,8.6-34.1,21.1H-272c-3,0-5.4-2.4-5.4-5.4V305h21.8V305h38.1c47.7,0,87.1-38.8,87.1-87.1
		C-130.3,176.3-160.3,140.9-200.5,132.7z M-277.4,305h21.8v-38.1v-10.3c0-21.1-17.1-38.1-38.1-38.1c-3.8,0-7.4,0.6-10.9,1.6v-4.8
		c0-24.1-19.5-43.6-43.6-43.6c-24.1,0-43.6,19.5-43.6,43.6v4.8c-3.5-1-7.1-1.6-10.9-1.6c-21.1,0-38.1,17.1-38.1,38.1v10.3V305h21.8
		v-43.5c0-9,7.3-16.3,16.3-16.3c9,0,16.3,7.3,16.3,16.3V305h21.8v-4.8v-82.3c0-9,7.3-16.3,16.3-16.3s16.3,7.3,16.3,16.3v82.3v4.8
		h21.8v-43.5c0-9,7.3-16.3,16.3-16.3s16.3,7.3,16.3,16.3V305z"/>
</g>
<g id="Layer_2" class="st0">
	<path class="st2" d="M37.8,207.3c0,54.2,44,98.2,98.2,98.2h250.9c48.2,0,87.3-39.1,87.3-87.3c0-42.2-30-77.5-69.8-85.5
		c2.8-7.3,4.4-15.3,4.4-23.6c0-36.1-29.3-65.5-65.5-65.5c-13.4,0-26,4.1-36.3,11C288,22,252.8,0,212.4,0
		c-60.3,0-109.1,48.8-109.1,109.1c0,1.8,0.1,3.7,0.1,5.5C65.2,128.1,37.8,164.5,37.8,207.3z"/>
	<path class="st3" d="M255.2,544c-38.7,0-70.1-31.5-70.1-70.1c0-18.2,7.1-35.3,19.1-48.1c-7.5,2.8-15.6,4.3-24.1,4.3h-41.2
		c-13,14.1-31.6,22.4-51.4,22.4c-38.7,0-70.1-31.5-70.1-70.1c0-38.7,31.5-70.1,70.1-70.1c19,0,37.1,7.9,50.1,21.1h15.9v-71.9
		c0-26.7,21.7-48.3,48.3-48.3c2.1,0,4.3,0.1,6.3,0.4c2.2-24.6,23-44,48.1-44s45.9,19.4,48.1,44c2.1-0.3,4.2-0.4,6.3-0.4
		c26.7,0,48.3,21.7,48.3,48.3v71.9h15.8c13-13.4,30.9-21.1,50.2-21.1c38.7,0,70.1,31.5,70.1,70.1c0,38.7-31.5,70.1-70.1,70.1
		c-19.8,0-38.3-8.4-51.4-22.4h-41.2c-9.8,0-19.1-2-27.6-5.7c12.9,12.9,20.4,30.6,20.4,49.5C325.4,512.5,293.9,544,255.2,544z"/>
</g>
<g id="Layer_3">
	<path class="st4" d="M473.1,382.4c0,21.1-17.1,38.1-38.1,38.1c-15.5,0-28.8-9.2-34.8-22.4h-57.8c-21.1,0-38.1-17.1-38.1-38.1v-98.5
		c0-9,7.3-16.3,16.3-16.3c9,0,16.3,7.3,16.3,16.3v98.5c0,3,2.4,5.4,5.4,5.4h58.5c6.2-12.5,19.2-21.1,34.1-21.1
		C456,344.2,473.1,361.3,473.1,382.4z M38.9,382.4c0,21.1,17.1,38.1,38.1,38.1c15.5,0,28.8-9.2,34.8-22.4h57.8
		c21.1,0,38.1-17.1,38.1-38.1v-98.5c0-9-7.3-16.3-16.3-16.3c-9,0-16.3,7.3-16.3,16.3v98.5c0,3-2.4,5.4-5.4,5.4h-58.5
		c-6.2-12.5-19.2-21.1-34.1-21.1C56,344.2,38.9,361.3,38.9,382.4z M136,305.5h7.1v-44c0-26.7,21.7-48.3,48.3-48.3
		c5.7,0,11.2,1,16.3,2.8c1-25.8,22.3-46.4,48.3-46.4c26,0,47.3,20.6,48.3,46.4c5.1-1.8,10.6-2.8,16.3-2.8
		c26.7,0,48.3,21.7,48.3,48.3v44h18c48.2,0,87.3-39.1,87.3-87.3c0-42.2-30-77.5-69.8-85.5c2.8-7.3,4.4-15.3,4.4-23.6
		c0-36.1-29.3-65.5-65.5-65.5c-13.4,0-26,4.1-36.3,11C288,22,252.8,0,212.4,0c-60.3,0-109.1,48.8-109.1,109.1c0,1.8,0.1,3.7,0.1,5.5
		c-38.2,13.4-65.6,49.8-65.6,92.7C37.8,261.5,81.8,305.5,136,305.5z M272.3,439.6V217.9c0-9-7.3-16.3-16.3-16.3
		c-9,0-16.3,7.3-16.3,16.3v221.7c-12.8,6.1-21.7,19.2-21.7,34.4c0,21,17,38.1,38.1,38.1s38.1-17,38.1-38.1
		C294.1,458.8,285.2,445.7,272.3,439.6z"/>
</g>
<g id="Layer_5">
</g>
<g id="Layer_4" class="st0">
	<path class="st5" d="M1023,119.8c0,7.5-1.4,14.3-3.4,21.1c29.3,15.7,47,44.9,47,76.9c0,48.3-39.5,87.1-87.1,87.1h-16.9v-21.8h16.9
		c36.1,0,65.4-29.3,65.4-65.4c0-32-23.8-59.2-55.1-64c6.8-9.5,11.6-21.1,11.6-34c0-30-24.5-54.5-54.5-54.5c-16.3,0-30,6.8-40.2,17.7
		c-15-36.1-49.7-61.3-90.6-61.3c-54.5,0-98,44.3-98,98c0,4.1,0,8.2,0.7,11.6c-37.4,5.4-66,37.4-66,75.6c0,42.2,34,76.3,76.3,76.3h6
		V305h-6c-54.5,0-98-43.6-98-98c0-41.5,26.6-78.3,65.4-91.9C698.9,51.1,751.3,0,816,0c40.2,0,76.3,20.4,98,51.1
		c10.2-4.8,21.1-7.5,32.7-7.5C988.3,43.6,1023,78.3,1023,119.8z M848.7,200.4c6.6,0,12,5.4,12,12V438c14.6,5.3,25.1,19.4,25.1,35.8
		c0,21.1-17.1,38.1-38.1,38.1s-38.1-17.1-38.1-38.1c0-17.3,11.5-31.9,27.2-36.5V212.4C836.7,205.8,842.1,200.4,848.7,200.4z
		 M902.4,261.4c0-6.6,5.4-12,12-12s12,5.4,12,12v98.5c0,5.4,4.4,9.8,9.8,9.8h54.5c0.6,0,1.2,0,1.7,0.1c4.9-15.5,19.3-26.7,36.4-26.7
		c21.1,0,38.1,17.1,38.1,38.1c0,21.1-17.1,38.1-38.1,38.1c-16.8,0-31-10.8-36.1-25.9c-0.7,0.1-1.3,0.2-2,0.2h-54.5
		c-18.6,0-33.8-15.1-33.8-33.8V261.4z M783,249.5c6.6,0,12,5.4,12,12v98.5c0,18.6-15.1,33.8-33.8,33.8h-54.5c-0.6,0-1.1,0-1.7-0.1
		c-4.8,15.6-19.3,26.9-36.5,26.9c-21.1,0-38.1-17.1-38.1-38.1c0-21.1,17.1-38.1,38.1-38.1c16.7,0,30.9,10.7,36,25.7
		c0.7-0.1,1.4-0.2,2.1-0.2h54.5c5.4,0,9.8-4.4,9.8-9.8v-98.5C771,254.8,776.4,249.5,783,249.5z M861.8,473.9
		c0,7.8-6.3,14.2-14.2,14.2c-7.8,0-14.2-6.3-14.2-14.2s6.3-14.2,14.2-14.2C855.4,459.7,861.8,466.1,861.8,473.9z M668.6,396.5
		c7.8,0,14.2-6.3,14.2-14.2c0-7.8-6.3-14.2-14.2-14.2c-7.8,0-14.2,6.3-14.2,14.2C654.5,390.2,660.8,396.5,668.6,396.5z
		 M1042.9,381.3c0,7.8-6.3,14.2-14.2,14.2c-7.8,0-14.2-6.3-14.2-14.2c0-7.8,6.3-14.2,14.2-14.2
		C1036.6,367.1,1042.9,373.5,1042.9,381.3z"/>
	<path class="st5" d="M430.3,119.8c0,7.5-1.4,14.3-3.4,21.1c29.3,15.7,47,44.9,47,76.9c0,48.3-39.5,87.1-87.1,87.1h-16.9v-21.8h16.9
		c36.1,0,65.4-29.3,65.4-65.4c0-32-23.8-59.2-55.1-64c6.8-9.5,11.6-21.1,11.6-34c0-30-24.5-54.5-54.5-54.5c-16.3,0-30,6.8-40.2,17.7
		c-15-36.1-49.7-61.3-90.6-61.3c-54.5,0-98,44.3-98,98c0,4.1,0,8.2,0.7,11.6c-37.4,5.4-66,37.4-66,75.6c0,42.2,34,76.3,76.3,76.3h6
		V305h-6c-54.5,0-98-43.6-98-98c0-41.5,26.6-78.3,65.4-91.9C106.2,51.1,158.6,0,223.3,0c40.2,0,76.3,20.4,98,51.1
		c10.2-4.8,21.1-7.5,32.7-7.5C395.6,43.6,430.3,78.3,430.3,119.8z M256,200.4c6.6,0,12,5.4,12,12V438c14.6,5.3,25.1,19.4,25.1,35.8
		c0,21.1-17.1,38.1-38.1,38.1s-38.1-17.1-38.1-38.1c0-17.3,11.5-31.9,27.2-36.5V212.4C244,205.8,249.4,200.4,256,200.4z
		 M309.7,261.4c0-6.6,5.4-12,12-12s12,5.4,12,12v98.5c0,5.4,4.4,9.8,9.8,9.8h54.5c0.6,0,1.2,0,1.7,0.1c4.9-15.5,19.3-26.7,36.4-26.7
		c21.1,0,38.1,17.1,38.1,38.1c0,21.1-17.1,38.1-38.1,38.1c-16.8,0-31-10.8-36.1-25.9c-0.7,0.1-1.3,0.2-2,0.2h-54.5
		c-18.6,0-33.8-15.1-33.8-33.8V261.4z M190.3,249.5c6.6,0,12,5.4,12,12v98.5c0,18.6-15.1,33.8-33.8,33.8h-54.5c-0.6,0-1.1,0-1.7-0.1
		c-4.8,15.6-19.3,26.9-36.5,26.9c-21.1,0-38.1-17.1-38.1-38.1c0-21.1,17.1-38.1,38.1-38.1c16.7,0,30.9,10.7,36,25.7
		c0.7-0.1,1.4-0.2,2.1-0.2h54.5c5.4,0,9.8-4.4,9.8-9.8v-98.5C178.3,254.8,183.7,249.5,190.3,249.5z M269.1,473.9
		c0,7.8-6.3,14.2-14.2,14.2c-7.8,0-14.2-6.3-14.2-14.2s6.3-14.2,14.2-14.2C262.7,459.7,269.1,466.1,269.1,473.9z M75.9,396.5
		c7.8,0,14.2-6.3,14.2-14.2c0-7.8-6.3-14.2-14.2-14.2c-7.8,0-14.2,6.3-14.2,14.2C61.8,390.2,68.1,396.5,75.9,396.5z M450.2,381.3
		c0,7.8-6.3,14.2-14.2,14.2c-7.8,0-14.2-6.3-14.2-14.2c0-7.8,6.3-14.2,14.2-14.2C443.9,367.1,450.2,373.5,450.2,381.3z"/>
</g>
</svg>
