<?xml version="1.0" encoding="utf-8"?>
<!-- Generator: Adobe Illustrator 26.0.1, SVG Export Plug-In . SVG Version: 6.00 Build 0)  -->
<svg version="1.1" id="Layer_1" xmlns="http://www.w3.org/2000/svg" xmlns:xlink="http://www.w3.org/1999/xlink" x="0px" y="0px"
	 viewBox="0 0 640 512" style="enable-background:new 0 0 640 512;" xml:space="preserve">
<path d="M537.6,226.6c4.1-10.7,6.4-22.4,6.4-34.6c0-53-43-96-96-96c-19.7,0-38.1,6-53.3,16.2C367,64.2,315.3,32,256,32
	c-88.4,0-160,71.6-160,160c0,2.7,0.1,5.4,0.2,8.1C40.2,219.8,0,273.2,0,336c0,79.5,64.5,144,144,144h368c70.7,0,128-57.3,128-128
	C640,290.1,596,238.4,537.6,226.6z M299,149c34.2,0,62,27.8,62,62s-27.8,62-62,62s-62-27.8-62-62S264.8,149,299,149z M407.4,373.7
	c0,12.8-10.4,23.2-23.2,23.2H213.7c-12.8,0-23.2-10.4-23.2-23.2v-20.1c0-35.9,29.2-65.1,65.1-65.1h8.1c10.8,5,22.7,7.8,35.3,7.8
	s24.5-2.9,35.3-7.8h8.1c35.9,0,65.1,29.2,65,65.1V373.7z"/>
</svg>
