<?xml version="1.0" encoding="utf-8"?>
<!-- Generator: Adobe Illustrator 25.4.1, SVG Export Plug-In . SVG Version: 6.00 Build 0)  -->
<svg version="1.1" id="Layer_1" xmlns="http://www.w3.org/2000/svg" xmlns:xlink="http://www.w3.org/1999/xlink" x="0px" y="0px"
	 viewBox="0 0 640 512" style="enable-background:new 0 0 640 512;" xml:space="preserve">
<path d="M537.6,226.6c4.1-10.7,6.4-22.4,6.4-34.6c0-53-43-96-96-96c-19.7,0-38.1,6-53.3,16.2C367,64.2,315.3,32,256,32
	c-88.4,0-160,71.6-160,160c0,2.7,0.1,5.4,0.2,8.1C40.2,219.8,0,273.2,0,336c0,79.5,64.5,144,144,144h368c70.7,0,128-57.3,128-128
	C640,290.1,596,238.4,537.6,226.6z M416.1,384.4c0,17.2-45.8,35.6-114.1,35.6s-114.1-18.4-114.1-35.6v-49
	c24.1,14.5,66.2,23.2,114.1,23.2c47.8,0,90-8.6,114.1-23.2V384.4z M187.9,194.2c0-17.2,45.8-35.6,114.1-35.6s114.1,18.4,114.1,35.6
	V218c0,17.2-45.8,35.6-114.1,35.6S187.9,235.2,187.9,218V194.2z M416.1,301.2c0,17.2-45.8,35.6-114.1,35.6s-114.1-18.4-114.1-35.6
	v-49c24.1,14.5,66.2,23.2,114.1,23.2c47.8,0,90-8.6,114.1-23.2V301.2z"/>
</svg>
