<?xml version="1.0" encoding="utf-8"?>
<!-- Generator: Adobe Illustrator 25.4.1, SVG Export Plug-In . SVG Version: 6.00 Build 0)  -->
<svg version="1.1" id="Layer_1" xmlns="http://www.w3.org/2000/svg" xmlns:xlink="http://www.w3.org/1999/xlink" x="0px" y="0px"
	 viewBox="0 0 640 512" style="enable-background:new 0 0 640 512;" xml:space="preserve">
<path d="M537.6,226.2c3.2-9.6,6.4-22.4,6.4-35.2c0-51.2-41.6-96-96-96c-19.2,0-38.4,6.4-54.4,16C368,63,313.6,31,256,31
	c-89.6,0-160,70.4-160,160v9.6C38.4,219.8,0,274.2,0,335c0,80,64,144,144,144h368c70.4,0,128-57.6,128-128
	C640,290.2,595.2,239,537.6,226.2 M415.2,392.6c0,12.8-9.6,25.6-25.6,25.6h-176c-12.8,0-25.6-9.6-25.6-25.6v-96
	c0-12.8,9.6-25.6,25.6-25.6h12.8v-35.2c0-41.6,35.2-76.8,76.8-76.8c41.6,0,76.8,35.2,76.8,76.8V271h9.6c12.8,0,25.6,9.6,25.6,25.6
	V392.6z M300,200.6c-19.2,0-35.2,16-35.2,35.2V271h70.4v-35.2C335.2,216.6,319.2,200.6,300,200.6"/>
</svg>
