<?xml version="1.0" encoding="utf-8"?>
<!-- Generator: Adobe Illustrator 25.4.1, SVG Export Plug-In . SVG Version: 6.00 Build 0)  -->
<svg version="1.1" id="Layer_1" xmlns="http://www.w3.org/2000/svg" xmlns:xlink="http://www.w3.org/1999/xlink" x="0px" y="0px"
	 viewBox="0 0 640 512" style="enable-background:new 0 0 640 512;" xml:space="preserve">
<path d="M312.5,168.5c-4.7-4.7-12.3-4.7-17,0l-98.3,98.3c-4.7,4.7-4.7,12.3,0,17l5.7,5.7c4.7,4.7,12.3,4.7,17,0l68.2-68.2V372
	c0,6.6,5.4,12,12,12h8c6.6,0,12-5.4,12-12V221.3l68.2,68.2c4.7,4.7,12.3,4.7,17,0l5.7-5.7c4.7-4.7,4.7-12.3,0-17L312.5,168.5
	L312.5,168.5z M571.7,238.8c2.8-9.9,4.3-20.2,4.3-30.8c0-61.9-50.1-112-112-112c-16.7,0-32.9,3.6-48,10.8
	C384.4,61.8,331.7,32,272,32c-94.4,0-171.7,74.5-175.8,168.2C39.2,220.2,0,274.3,0,336c0,79.6,64.4,144,144,144h368
	c70.7,0,128-57.2,128-128C640,305,614.2,261.2,571.7,238.8z M512,448H144c-61.9,0-112-50.1-112-112c0-56.8,42.2-103.7,97-111
	c-0.7-5.6-1-11.3-1-17c0-79.5,64.5-144,144-144c60.3,0,111.9,37,133.4,89.6C420,137.9,440.8,128,464,128c44.2,0,80,35.8,80,80
	c0,18.5-6.3,35.6-16.9,49.2C573,264.4,608,304.1,608,352C608,405,565,448,512,448z"/>
</svg>
