<?xml version="1.0" encoding="utf-8"?>
<!-- Generator: Adobe Illustrator 25.4.1, SVG Export Plug-In . SVG Version: 6.00 Build 0)  -->
<svg version="1.1" id="Layer_1" xmlns="http://www.w3.org/2000/svg" xmlns:xlink="http://www.w3.org/1999/xlink" x="0px" y="0px"
	 viewBox="0 0 640 512" style="enable-background:new 0 0 640 512;" xml:space="preserve">
<path d="M537.6,226.6c4.1-10.7,6.4-22.4,6.4-34.6c0-53-43-96-96-96c-19.7,0-38.1,6-53.3,16.2C367,64.2,315.3,32,256,32
	c-88.4,0-160,71.6-160,160c0,2.7,0.1,5.4,0.2,8.1C40.2,219.8,0,273.2,0,336c0,79.5,64.5,144,144,144h368c70.7,0,128-57.3,128-128
	C640,290.1,596,238.4,537.6,226.6z M128,257.8h36.4v131.5H128V257.8z M181.5,360.2v-0.4c0-21.2,16-31.9,39.8-31.9
	c9.4,0,18.6,1.7,24.4,3.9v-1.7c0-10.7-6.6-16.7-20.3-16.7c-10.7,0-19,2.3-28.2,5.6l-7.3-25c11.5-4.7,23.7-7.9,41.1-7.9
	c18.2,0,30.6,4.3,38.7,12.4c7.7,7.5,10.9,18,10.9,32.3v58.4h-35.1v-10.7c-7.1,7.7-16.7,13-30.1,13
	C196.2,391.5,181.5,380.3,181.5,360.2z M246.1,352.5v-4.7c-3.8-1.5-8.8-2.6-14.1-2.6c-10.3,0-16.3,4.9-16.3,12.6v0.4
	c0,6.9,5.3,11.1,12.6,11.1C238.8,369.2,246.1,362.6,246.1,352.5z M294,360.2v-0.4c0-21.2,16-31.9,39.8-31.9c9.4,0,18.6,1.7,24.4,3.9
	v-1.7c0-10.7-6.6-16.7-20.3-16.7c-10.7,0-19,2.3-28.2,5.6l-7.3-25c11.5-4.7,23.7-7.9,41.1-7.9c18.2,0,30.6,4.3,38.7,12.4
	c7.7,7.5,10.9,18,10.9,32.3v58.4h-35.1v-10.7c-7.1,7.7-16.7,13-30.1,13C308.7,391.5,294,380.3,294,360.2z M358.6,352.5v-4.7
	c-3.8-1.5-8.8-2.6-14.1-2.6c-10.3,0-16.3,4.9-16.3,12.6v0.4c0,6.9,5.3,11.1,12.6,11.1C351.3,369.2,358.6,362.6,358.6,352.5z
	 M403.5,369.7l20.3-24.2c13.1,10.3,27.4,15.8,42.6,15.8c10,0,15.2-3.4,15.2-9v-0.4c0-5.6-4.3-8.5-22.4-12.8
	c-28-6.4-49.6-14.3-49.6-41.1v-0.4c0-24.4,19.3-42.1,50.9-42.1c22.4,0,39.8,6,54.1,17.5l-18.2,25.7c-12-8.6-25.2-13-36.8-13
	c-8.8,0-13.1,3.6-13.1,8.5v0.4c0,6,4.5,8.6,22.9,12.8c30.1,6.6,48.8,16.3,48.8,40.9v0.4c0,26.9-21.2,42.8-53.2,42.8
	C441.8,391.5,419.9,384.2,403.5,369.7z"/>
</svg>
