<?xml version="1.0" encoding="utf-8"?>
<!-- Generator: Adobe Illustrator 26.0.1, SVG Export Plug-In . SVG Version: 6.00 Build 0)  -->
<svg version="1.1" id="Layer_1" xmlns="http://www.w3.org/2000/svg" xmlns:xlink="http://www.w3.org/1999/xlink" x="0px" y="0px"
	 viewBox="0 0 640 512" style="enable-background:new 0 0 640 512;" xml:space="preserve">
<path d="M577.1,275.4c0,60.7-49.4,110.1-110.1,110.1h-80.9c-37.5,0-63-44.3-63.9-77.5h-24.7c-7.8,0-14.4-4.4-17.3-11.4
	c-2.8-6.9-1.2-14.7,4-19.9l43.5-43.5c3.5-3.5,8.1-5.4,13-5.4s9.5,1.9,13,5.4l43.5,43.5c5.3,5.3,6.8,13.1,4,20
	c-2.9,7-9.5,11.3-17.2,11.3h-24.3c0.8,14.4,14.6,39.5,27.1,39.5h79.9c39.8,0,72.1-32.4,72.1-72.1c0-17.3-6.2-34-17.5-47
	c-11.1-12.9-26.5-21.5-43.3-24.2l-10-1.6l6.2-8c8.1-10.4,12.4-23,12.4-36.3c0-32.6-26.5-59.1-59.1-59.1c-16.5,0-31.9,6.7-43.3,18.9
	l-6.4,6.8l-3.5-8.7c-17.2-42-57.6-69.2-103-69.2C210,47,160.1,96.9,160.1,158.2c0,4.4,0.3,8.8,0.8,13.1l0.7,5.9l-5.9,0.8
	c-42,5.6-73.7,41.8-73.7,84.4c0,46.9,38.2,85.1,85.1,85.1h6v0.1c3.4,0,8.7,0,17.1,0c22.1,0,53.5-0.1,63.8-0.1h3.5
	c18.2,0,33.6,7.7,44.7,22.2c9.3,12.2,14.6,37.8,15,55h24.9c7.8,0,14.4,4.4,17.3,11.4c2.8,6.9,1.2,14.7-4,19.9l-43.5,43.5
	c-3.5,3.5-8.1,5.4-13,5.4s-9.5-1.9-13-5.4L242.3,456c-5.3-5.3-6.8-13.1-4-20c2.9-7,9.5-11.3,17.2-11.3h24.4
	c-0.8-14.5-9.7-39.2-22.2-39.2h-90.2c-32.9,0-63.9-12.8-87.1-36s-36-54.2-36-87.1c0-50.9,31.4-96.5,78.5-114.7
	c2.6-37,18.7-71.3,45.6-97.1c27.9-26.8,64.6-41.5,103.2-41.5c46.9,0,91.1,22.1,119.2,59.3c11.6-4.9,24.1-7.3,37-7.3
	c53.6,0,97.1,43.6,97.1,97.1c0,7.5-0.9,14.9-2.5,22.1C556.3,200,577.1,236,577.1,275.4z"/>
</svg>
