<?xml version="1.0" encoding="utf-8"?>
<!-- Generator: Adobe Illustrator 25.4.1, SVG Export Plug-In . SVG Version: 6.00 Build 0)  -->
<svg version="1.1" id="Layer_1" xmlns="http://www.w3.org/2000/svg" xmlns:xlink="http://www.w3.org/1999/xlink" x="0px" y="0px"
	 viewBox="0 0 640 512" style="enable-background:new 0 0 640 512;" xml:space="preserve">
<path d="M626,116.4v41.2c0,36.4-90.4,65.9-201.8,65.9S222.3,194,222.3,157.7v-41.3c0-36.3,90.4-65.9,201.8-65.9S626,80.3,626,116.4z
	 M626,209.2v92.7c0,36.4-90.4,65.9-201.8,65.9s-201.8-29.6-201.8-65.9v-92.7c43.4,29.8,122.7,43.8,201.8,43.8
	C503.3,253,582.7,239.1,626,209.2z M626,353.4v92.7c0,36.4-90.4,65.9-201.8,65.9s-201.8-29.6-201.8-65.9v-92.7
	c43.4,29.8,122.7,43.8,201.8,43.8C503.3,397.2,582.7,383.2,626,353.4z M192,396.7c-0.2,0-0.3,0-0.5,0c-38.8,0-76.7-4.3-106.8-11.7
	c-24.8-6.2-38.1-13.2-43.6-17.1v-60.4c41.6,14.7,96.1,21.6,150.4,21.6c0.2,0,0.3,0,0.5,0v-27v-0.9c-0.2,0-0.3,0-0.5,0
	c-61.1,0-115.4-9.4-150.4-23.9V170.4c41.6,14.7,96.1,21.6,150.4,21.6c0.2,0,0.3,0,0.5,0v-27.9c-0.2,0-0.3,0-0.5,0
	c-61.1,0-115.4-9.4-150.4-23.8V70l0,0c5.6-4,18.8-11,43.6-17.1c30.1-7.6,68-11.7,106.8-11.7c22.7,0,45.1,1.4,65.8,4.2
	c4.9-2,10-3.9,15.5-5.7c20.5-6.7,44.4-11.8,70.3-15.1c-0.3-0.1-0.7-0.3-0.9-0.4c-1.9-0.9-3.9-1.5-5.9-2.4c-0.9-0.4-2-0.8-3-1.1
	c-2.1-0.8-4.2-1.4-6.3-2.2c-1-0.4-2.2-0.8-3.3-1c-2.3-0.8-4.4-1.3-6.8-2.1c-2.4-0.8-4.6-1.2-7.1-1.9c-9.7-2.6-20.1-4.6-31.1-6.4
	c-2.7-0.5-5.6-0.9-8.3-1.3c-7.1-1-14.4-2-21.9-2.7c-18.1-2-37.2-2.9-57-2.9C85.8,0,0,28.1,0,62.5v15.6v23.5v0.1v48.9v88v48.9v69.2
	v18.7c0,5.4,2.1,10.6,6.1,15.5c0.9,0.9,1.6,2,2.7,2.9c2.7,2.9,6.2,5.8,10.2,8.5c1.3,0.9,2.7,1.8,4.3,2.7c0.8,0.5,1.5,0.9,2.3,1.3
	c1.5,0.9,3.1,1.7,4.7,2.7c0.9,0.5,1.7,0.9,2.6,1.2c1.7,0.9,3.5,1.6,5.3,2.5c2.7,1.1,5.7,2.4,8.6,3.5c2,0.8,4.1,1.5,6.2,2.3
	c3.1,1,6.4,2.2,9.8,3.1c1.1,0.4,2.3,0.7,3.4,0.9c3.5,0.9,7.1,1.9,10.8,2.8c7.4,1.8,15.1,3.4,23.3,4.8c4.1,0.8,8.2,1.4,12.5,2.1
	c7.1,1,14.4,2,21.9,2.7c4.4,0.5,9.1,0.9,13.7,1.2c1.5,0.1,3,0.3,4.6,0.4c4.6,0.3,9.5,0.6,14.2,0.9c3.2,0.1,6.3,0.3,9.7,0.4
	c3.2,0.1,6.4,0.2,9.8,0.2c1.6,0,3.3,0,4.9,0c0.2,0,0.4,0,0.6,0V396.7z"/>
</svg>
