<?xml version="1.0" encoding="utf-8"?>
<!-- Generator: Adobe Illustrator 26.0.0, SVG Export Plug-In . SVG Version: 6.00 Build 0)  -->
<svg version="1.1" id="Layer_1" xmlns="http://www.w3.org/2000/svg" xmlns:xlink="http://www.w3.org/1999/xlink" x="0px" y="0px"
	 viewBox="0 0 641 512" style="enable-background:new 0 0 641 512;" xml:space="preserve">
<path d="M234,271.4h207.2v-60.9c0-27.1,32.8-40.7,52.1-21.5l101.5,101.5c11.9,11.9,11.9,31.1,0,43.1L493.3,435
	c-19.1,19.1-52.1,5.7-52.1-21.5v-60.9H234V271.4z M200,196.7c109.9,0,199-29.2,199-65V91.1c0-35.8-89.1-65-199-65S1,55.3,1,91.1
	v40.6C1,167.5,90.1,196.7,200,196.7z M200,338.7c0.5,0,0.9,0,1.4,0v-67.4v-25.6c0-3.9,3.1-7,7-7H234h165v-56.3
	c-42.8,29.4-120.9,43.1-199,43.1S43.8,211.8,1,182.4v91.3C1,309.5,90.1,338.7,200,338.7z M234,385.2h-25.6c-3.9,0-7-3.1-7-7v-10.5
	c-0.5,0-0.9,0-1.4,0c-78,0-156.2-13.7-199-43.1V416c0,35.8,89.1,65,199,65s199-29.2,199-65v-30.8H234z"/>
</svg>
