<?xml version="1.0" encoding="utf-8"?>
<!-- Generator: Adobe Illustrator 25.4.1, SVG Export Plug-In . SVG Version: 6.00 Build 0)  -->
<svg version="1.1" id="Layer_1" xmlns="http://www.w3.org/2000/svg" xmlns:xlink="http://www.w3.org/1999/xlink" x="0px" y="0px"
	 viewBox="0 0 489.8 515" style="enable-background:new 0 0 489.8 515;" xml:space="preserve">
<path d="M370.9,514c-1.5,0-3.1-0.4-4.4-1.1c-2.6-1.4-6.6-3.1-11-5.1c-16-7-40.2-17.5-60.8-35.6c-25.4-22.5-38.3-50.5-38.3-83.4
	V275.5c0-5.3,4.3-9.6,9.6-9.6h209.5c5.3,0,9.6,4.3,9.6,9.6v113.3c0,32.9-12.8,60.9-38.1,83.4c-20.5,18.2-44.6,28.7-60.6,35.6
	c-4.5,1.9-8.3,3.6-11,5C374,513.6,372.4,514,370.9,514z M370.9,479.6c0.9-0.4,1.9-0.8,3-1.3c14-6,35.1-15.1,51.9-30.1
	c18.4-16.4,27.4-35.8,27.4-59.5v-90.9H288.4v90.9c0,23.6,9,43,27.5,59.4c16.7,14.6,37.1,23.6,52,30.1l0.5,0.2
	C368.3,478.5,370.2,479.3,370.9,479.6z M207.1,326.4c5.8,0,11.6-0.1,17.3-0.2v-50.7c0-22.9,18.7-41.6,41.6-41.6h148.1v-70.2
	c-44.5,30.6-125.9,44.9-207.1,44.9S44.5,194.3,0,163.7v95.1C0,296,92.7,326.4,207.1,326.4z M207.1,178.5
	c114.3,0,207.1-30.4,207.1-67.6V68.6C414.1,31.4,321.4,1,207.1,1S0,31.4,0,68.6v42.3C0,148.1,92.7,178.5,207.1,178.5z M236.9,447.8
	c-8.3-18.1-12.5-38-12.5-59v-32.5c-5.8,0.1-11.6,0.2-17.3,0.2c-81.2,0-162.6-14.3-207.1-44.9v95.1c0,37.2,92.7,67.6,207.1,67.6
	c15.4,0,30.3-0.6,44.8-1.6C245.9,464.8,241,456.5,236.9,447.8z"/>
</svg>
