<?xml version="1.0" encoding="utf-8"?>
<!-- Generator: Adobe Illustrator 26.0.1, SVG Export Plug-In . SVG Version: 6.00 Build 0)  -->
<svg version="1.1" id="Layer_1" xmlns="http://www.w3.org/2000/svg" xmlns:xlink="http://www.w3.org/1999/xlink" x="0px" y="0px"
	 viewBox="0 0 500 500" style="enable-background:new 0 0 500 500;" xml:space="preserve">
<style type="text/css">
	.st0{fill:#010101;}
</style>
<g id="Layer_2_00000075852546302207980790000016104469368561913477_">
</g>
<g id="Layer_3">
</g>
<path class="st0" d="M365.7,70.8L316.4,5.1c-1.1-1.5-2.9-2.4-4.8-2.4c-0.2,0-0.5,0-0.7,0c-2.1,0.3-4,1.6-4.8,3.6l-8.3,19.4
	c-15.9-3.4-32-5.2-47.8-5.2c-125,0-226.6,101.7-226.6,226.6c0,51.2,16.7,99.5,48.2,139.7c4.1,5.2,10.1,8.1,16.7,8.1
	c4.8,0,9.3-1.6,13.1-4.5c9.2-7.2,10.8-20.6,3.6-29.8c-25.6-32.7-39.1-71.9-39.1-113.5C65.9,145.6,148.5,63,250,63
	c10.3,0,20.6,0.9,30.8,2.6l-6.9,16.2c-0.8,2-0.6,4.2,0.7,6c1.1,1.5,2.9,2.4,4.8,2.4c0.2,0,0.5,0,0.7,0l81.5-9.9
	c2.1-0.3,4-1.6,4.8-3.6C367.3,74.7,367,72.5,365.7,70.8z M428.4,107.5c-4.1-5.2-10.1-8.1-16.7-8.1c-4.7,0-9.4,1.6-13.1,4.5
	c-4.5,3.5-7.3,8.5-8,14.2c-0.7,5.6,0.9,11.2,4.4,15.7c25.6,32.7,39.2,71.9,39.2,113.6c0,101.5-82.6,184.1-184.1,184.1
	c-12,0-23.9-1.2-35.6-3.5l7.3-16.1c0.9-1.9,0.7-4.2-0.6-6c-1.1-1.6-3-2.5-4.9-2.5c-0.2,0-0.4,0-0.6,0l-81.7,7.8
	c-2.1,0.2-4,1.5-4.9,3.5c-0.9,1.9-0.7,4.2,0.6,6l47.6,66.9c1.1,1.6,3,2.5,4.9,2.5c0.2,0,0.4,0,0.6,0c2.1-0.2,4-1.5,4.9-3.5l8.8-19.2
	c17.8,4.3,35.8,6.5,53.6,6.5c125,0,226.6-101.7,226.6-226.6C476.6,196,459.9,147.7,428.4,107.5z M353.7,158.3v21.2
	c0,18.7-46.4,33.8-103.7,33.8s-103.7-15.2-103.7-33.8v-21.2c0-18.6,46.4-33.8,103.7-33.8S353.7,139.7,353.7,158.3z M353.7,206v47.6
	c0,18.7-46.4,33.8-103.7,33.8s-103.7-15.2-103.7-33.8V206c22.3,15.3,63.1,22.5,103.7,22.5S331.4,221.3,353.7,206z M353.7,280v47.6
	c0,18.7-46.4,33.8-103.7,33.8s-103.7-15.2-103.7-33.8V280c22.3,15.3,63.1,22.5,103.7,22.5S331.4,295.4,353.7,280z"/>
</svg>
