<?xml version="1.0" encoding="utf-8"?>
<!-- Generator: Adobe Illustrator 26.0.1, SVG Export Plug-In . SVG Version: 6.00 Build 0)  -->
<svg version="1.1" id="Layer_1" xmlns="http://www.w3.org/2000/svg" xmlns:xlink="http://www.w3.org/1999/xlink" x="0px" y="0px"
	 viewBox="0 0 478.9 513.2" style="enable-background:new 0 0 478.9 513.2;" xml:space="preserve">
<path d="M216.7,116.6c-2.7-2.9-2.6-7.1-0.1-9.9l78.9-90.2c1.4-1.6,3.4-2.5,5.6-2.5l0,0c2.1,0,4.2,0.9,5.6,2.5l79,90.1
	c2.4,2.8,2.5,7-0.1,9.9c-1.4,1.6-3.5,2.4-5.6,2.4l-37.5,0c0,0,0,0,0,0l0,105.1c0,2.2-0.9,4.4-2.6,5.9c-1.4,1.2-3.1,1.7-4.8,1.7
	c-1.9,0-3.8-0.7-5.2-2.2L262,161.9c-1.4-1.4-2.2-3.3-2.2-5.2V119c0,0,0,0,0,0l-37.5,0C220.2,119,218.1,118.2,216.7,116.6z
	 M455.7,353.1l-90.1-101.3c-0.7-0.8-1.5-1.5-2.5-1.9c-3.1-1.4-6.6-0.6-8.7,1.8l-90.2,101.4c-2.4,2.8-2.6,7,0.1,9.9
	c1.4,1.6,3.5,2.4,5.6,2.4l37.5,0c0,0,0,0,0,0v56.5c0,2.5,1.3,4.8,3.3,6.2l90.1,59.2c1.2,0.8,2.6,1.2,4.1,1.2c1.9,0,3.8-0.7,5.3-2.2
	c1.4-1.4,2.1-3.4,2.1-5.4l0-115.5c0,0,0,0,0,0l37.6,0c2.1,0,4.2-0.8,5.6-2.4C458.3,360.1,458.2,355.8,455.7,353.1z M286.6,263
	c2.6-3,2.5-7.3,0-10l-124-135.2c-1.4-1.5-3.3-2.4-5.3-2.4c-2,0-4,0.7-5.4,2.2L16.7,252.8c-2.7,2.7-3,7-0.4,10.1
	c1.4,1.7,3.6,2.5,5.8,2.5h71.3c0,0,0,0,0,0v79.8c0,2.3,1.1,4.5,2.9,5.9L209,437.9c1.3,1,2.9,1.5,4.5,1.5c1.9,0,3.9-0.8,5.4-2.3
	c1.4-1.4,2-3.3,2-5.3l0-166.4c0,0,0,0,0,0h60C283.1,265.4,285.2,264.6,286.6,263z"/>
</svg>
