<?xml version="1.0" encoding="utf-8"?>
<!-- Generator: Adobe Illustrator 25.4.1, SVG Export Plug-In . SVG Version: 6.00 Build 0)  -->
<svg version="1.1" id="Layer_1" xmlns="http://www.w3.org/2000/svg" xmlns:xlink="http://www.w3.org/1999/xlink" x="0px" y="0px"
	 viewBox="0 0 640 512" style="enable-background:new 0 0 640 512;" xml:space="preserve">
<path d="M456.3,356.5v25.2c0,16.1-13,29.1-29.1,29.1H213.8c-16.1,0-29.1-13-29.1-29.1v-25.2c0-45,36.5-81.5,81.5-81.5h10.1
	c13.5,6.2,28.4,9.7,44.2,9.7c15.8,0,30.7-3.5,44.2-9.7h10.1C419.8,275,456.3,311.5,456.3,356.5 M242.9,178
	c0-42.9,34.7-77.6,77.6-77.6s77.6,34.7,77.6,77.6s-34.7,77.6-77.6,77.6S242.9,220.9,242.9,178 M558.5,275h-10.1
	c-13.5,6.2-28.4,9.7-44.2,9.7c-15.8,0-30.7-3.5-44.2-9.7h-10.1c-4.2,0-8.3,0.3-12.3,0.9c3.3,2.6,6.5,5.4,9.5,8.4
	c9.4,9.4,16.7,20.3,21.9,32.4c5.3,12.6,8,26,8,39.7v25.2c0,10.9-3.5,20.9-9.4,29.1h143.4c16.1,0,29.1-13,29.1-29.1v-25.2
	C640,311.5,603.5,275,558.5,275 M504.2,255.6c42.9,0,77.6-34.7,77.6-77.6s-34.7-77.6-77.6-77.6c-42.9,0-77.6,34.7-77.6,77.6
	S461.3,255.6,504.2,255.6 M164.1,381.7v-25.2c0-13.8,2.7-27.1,8-39.7c5.1-12.2,12.5-23.1,21.9-32.4c3-3,6.2-5.8,9.5-8.4
	c-4-0.6-8.1-0.9-12.3-0.9H181c-13.5,6.2-28.4,9.7-44.2,9.7c-15.8,0-30.7-3.5-44.2-9.7H82.5C37.5,275,1,311.5,1,356.5v25.2
	c0,16.1,13,29.1,29.1,29.1h143.4C167.6,402.6,164.1,392.6,164.1,381.7 M59.2,178c0-42.9,34.7-77.6,77.6-77.6s77.6,34.7,77.6,77.6
	s-34.7,77.6-77.6,77.6S59.2,220.9,59.2,178"/>
</svg>
