<?xml version="1.0" encoding="utf-8"?>
<!-- Generator: Adobe Illustrator 25.4.1, SVG Export Plug-In . SVG Version: 6.00 Build 0)  -->
<svg version="1.1" id="Layer_1" xmlns="http://www.w3.org/2000/svg" xmlns:xlink="http://www.w3.org/1999/xlink" x="0px" y="0px"
	 viewBox="0 0 640 512" style="enable-background:new 0 0 640 512;" xml:space="preserve">
<path d="M477.4,193.5c-41.8-35.6-104-29.2-142.4,10.4l-15,15.5l-15-15.5c-38.3-39.6-100.6-46-142.4-10.4
	c-47.9,40.9-50.4,114.3-7.6,158.6l147.7,152.5c9.5,9.8,25,9.8,34.6,0l147.7-152.5C527.8,307.8,525.3,234.4,477.4,193.5L477.4,193.5z
	 M320.7,105.8c12.6,0,22.7-10.1,22.7-22.7V22.7c0-12.6-10.1-22.7-22.7-22.7s-22.7,10.1-22.7,22.7v60.4
	C298.1,95.5,308.1,105.8,320.7,105.8z M194.4,134.6c10.9-6.3,14.6-20.1,8.3-31l-30.2-52.3c-6.3-10.9-20.1-14.6-31-8.3
	s-14.6,20.1-8.3,31l30.2,52.3C169.6,137,183.4,140.9,194.4,134.6z M100.6,218.4c6.3-10.9,2.6-24.7-8.3-31l-52.3-30.2
	c-10.9-6.3-24.7-2.6-31,8.3c-6.3,10.9-2.6,24.7,8.3,31l52.3,30.2C80.4,232.9,94.2,229.2,100.6,218.4z M443.1,134.4
	c10.9,6.3,24.7,2.6,31-8.3l30.2-52.3c6.3-10.9,2.6-24.7-8.3-31c-10.9-6.3-24.7-2.6-31,8.3l-30.2,52.3
	C428.6,114.2,432.3,128.1,443.1,134.4z M539.4,217.7c6.3,10.9,20.1,14.6,31,8.3l52.3-30.2c10.9-6.3,14.6-20.1,8.3-31
	c-6.3-10.9-20.1-14.6-31-8.3l-52.3,30.2C536.9,193,533.2,206.8,539.4,217.7z"/>
</svg>
