<?xml version="1.0" encoding="utf-8"?>
<!-- Generator: Adobe Illustrator 28.3.0, SVG Export Plug-In . SVG Version: 6.00 Build 0)  -->
<svg version="1.1" xmlns="http://www.w3.org/2000/svg" xmlns:xlink="http://www.w3.org/1999/xlink" x="0px" y="0px"
	 viewBox="0 0 640 512" style="enable-background:new 0 0 640 512;" xml:space="preserve">
<style type="text/css">
	.st0{stroke:#000000;stroke-width:4;stroke-miterlimit:10;}
	.st1{fill:#FFFFFF;}
	.st2{fill:none;stroke:#FFFFFF;stroke-width:21;stroke-linecap:round;stroke-miterlimit:10;}
</style>
<g id="Layer_1">
</g>
<g id="Layer_3">
	<g>
		<polygon points="190.4,244.1 224.1,244.1 207.3,201.6 		"/>
		<path d="M354.6,341.7v-31.4c0-35,28.5-63.4,63.4-63.4h78v-9.4c0-5.9-4.8-10.8-10.8-10.8h-45.6v-41.8h45.6
			c5.9,0,10.8-4.8,10.8-10.8V145c0-5.9-4.8-10.8-10.8-10.8h-45.6V111c0-22.3-18.1-40.4-40.4-40.4H376V15.8C376,9.8,371.2,5,365.3,5
			h-29.2c-5.9,0-10.8,4.8-10.8,10.8v54.9h-41.8V15.8c0-5.9-4.8-10.8-10.8-10.8h-29.2c-5.9,0-10.8,4.8-10.8,10.8v54.9h-41.8V15.8
			c0-5.9-4.8-10.8-10.8-10.8h-29.2c-5.9,0-10.8,4.8-10.8,10.8v54.9h-23.2C95,70.6,76.9,88.8,76.9,111v23.2H12.7
			C6.8,134.2,2,139,2,145v29.2c0,5.9,4.8,10.8,10.8,10.8h64.1v41.8H12.7c-5.9,0-10.8,4.8-10.8,10.8v29.2c0,5.9,4.8,10.8,10.8,10.8
			h64.1v41.8H12.7c-5.9,0-10.8,4.8-10.8,10.8V359c0,5.9,4.8,10.8,10.8,10.8h64.1v23.1c0,22.3,18.1,40.4,40.4,40.4h23.2v55
			c0,5.9,4.8,10.8,10.8,10.8h29.2c5.9,0,10.8-4.8,10.8-10.8v-55h41.8v55c0,5.9,4.8,10.8,10.8,10.8h29.2c5.9,0,10.8-4.8,10.8-10.8
			v-54.9h41.8v54.9c0,5.9,4.8,10.8,10.8,10.8h27c-5.4-9.3-8.5-20.1-8.5-31.6V436c0-18.7,8.1-35.5,21-47.1
			C362.7,377.2,354.6,360.4,354.6,341.7z M241.4,289.2l-8.8-22.4h-50.7l-8.8,22.4h-31.6l51-121h30.5l51.1,121H241.4z M319.5,289.2
			h-29.5v-92h29.5V289.2z M320.2,184.6h-30.9v-20.8h30.9V184.6z"/>
		<path d="M606.6,278.8H418c-17.3,0-31.4,14.1-31.4,31.4v31.4c0,17.3,14.1,31.4,31.4,31.4h188.6c17.3,0,31.4-14.1,31.4-31.4v-31.4
			C638,292.9,623.9,278.8,606.6,278.8z M555.5,337.7c-6.5,0-11.8-5.3-11.8-11.8c0-6.5,5.3-11.8,11.8-11.8c6.5,0,11.8,5.3,11.8,11.8
			C567.3,332.5,562,337.7,555.5,337.7z M590.9,337.7c-6.5,0-11.8-5.3-11.8-11.8c0-6.5,5.3-11.8,11.8-11.8c6.5,0,11.8,5.3,11.8,11.8
			C602.7,332.5,597.4,337.7,590.9,337.7z"/>
		<path d="M606.6,404.5H418c-17.3,0-31.4,14.1-31.4,31.4v31.4c0,17.3,14.1,31.4,31.4,31.4h188.6c17.3,0,31.4-14.1,31.4-31.4V436
			C638,418.6,623.9,404.5,606.6,404.5z M555.5,463.5c-6.5,0-11.8-5.3-11.8-11.8s5.3-11.8,11.8-11.8c6.5,0,11.8,5.3,11.8,11.8
			S562,463.5,555.5,463.5z M594.8,463.5c-6.5,0-11.8-5.3-11.8-11.8s5.3-11.8,11.8-11.8c6.5,0,11.8,5.3,11.8,11.8
			S601.3,463.5,594.8,463.5z"/>
	</g>
</g>
</svg>
