<?xml version="1.0" encoding="utf-8"?>
<!-- Generator: Adobe Illustrator 28.3.0, SVG Export Plug-In . SVG Version: 6.00 Build 0)  -->
<svg version="1.1" id="Layer_1" xmlns="http://www.w3.org/2000/svg" xmlns:xlink="http://www.w3.org/1999/xlink" x="0px" y="0px"
	 viewBox="0 0 612.3 512" style="enable-background:new 0 0 612.3 512;" xml:space="preserve">
<g>
	<path d="M314.1,378.2c0-22.5,4.5-44.5,13.1-64.7c-18-6.1-37.4-9.5-57.5-9.5h-91.4C79.8,304,0,383.8,0,482.3
		C0,498.7,13.3,512,29.7,512h352.2C340.8,481.8,314.1,433.1,314.1,378.2z"/>
	<circle cx="224" cy="128" r="128"/>
</g>
<path d="M574.1,284.4c-3-3.2-7.1-4.9-11.6-4.9h-0.1c-4.4,0-8.5,1.7-11.6,4.8c-6.3,6.3-6.3,16.6-0.1,22.9c18.7,19.1,29,44.3,29,70.9
	c0,55.8-45.1,101.1-100.6,101.1s-100.6-45.4-100.6-101.1c0-25.5,9.5-49.8,26.8-68.6c16.2-17.5,37.8-28.7,61.2-31.6v20.2
	c0,2.9,1.5,5.5,4.1,6.9l0,0l0,0c1.1,0.6,2.4,0.9,3.6,0.9c1.5,0,2.9-0.4,4.2-1.2l56.4-36.8c2.2-1.5,3.5-3.9,3.5-6.5
	c0-2.7-1.4-5.2-3.5-6.6l-56.3-36.8c-1.3-0.8-2.8-1.2-4.2-1.2c-1.2,0-2.5,0.3-3.6,0.9l-0.1,0l-0.1,0c-2.5,1.4-4,4-4,6.9v20.4
	c-32.2,3.1-62.1,17.8-84.4,41.6c-23.3,24.8-36.2,57.4-36.2,91.5c0,73.8,59.7,133.8,133.1,133.8s133.1-60,133.1-133.8
	C612.3,342.9,598.8,309.6,574.1,284.4z M474.5,303.2c-0.1,0-0.2,0-0.2,0c0.1,0,0.2,0,0.3,0C474.5,303.2,474.5,303.2,474.5,303.2z
	 M474.5,219.7C474.5,219.7,474.5,219.7,474.5,219.7c0,0-0.1,0-0.3,0C474.3,219.7,474.4,219.7,474.5,219.7z M407.9,423.1h65v-16.8
	h-38.3l14.3-11.1c15.5-12.1,23.1-19.4,23.1-34.1v-0.3c0-16.5-12.1-27.2-30.2-27.2c-15.7,0-24.1,6.4-32.8,18.3l13.5,11
	c6.5-8,11.2-11.8,17.9-11.8c6.9,0,11.8,4,11.8,11.5c0,7.3-4.2,12.1-15.2,21.2l-29.2,24.1L407.9,423.1L407.9,423.1z M522.9,423.1
	h18.4V404h11.8v-15.8h-11.8v-54.1h-16.3l-48.1,56.2l3.1,13.7H523L522.9,423.1L522.9,423.1z M499.6,388.3l23.3-27.5v27.5H499.6z"/>
</svg>
