<?xml version="1.0" encoding="utf-8"?>
<!-- Generator: Adobe Illustrator 28.3.0, SVG Export Plug-In . SVG Version: 6.00 Build 0)  -->
<svg version="1.1" xmlns="http://www.w3.org/2000/svg" xmlns:xlink="http://www.w3.org/1999/xlink" x="0px" y="0px"
	 viewBox="0 0 640 512" style="enable-background:new 0 0 640 512;" xml:space="preserve">
<style type="text/css">
	.st0{stroke:#000000;stroke-width:4;stroke-miterlimit:10;}
	.st1{fill:#FFFFFF;}
	.st2{fill:none;stroke:#FFFFFF;stroke-width:21;stroke-linecap:round;stroke-miterlimit:10;}
</style>
<g id="Layer_1">
</g>
<g id="Layer_3">
	<g>
		<path d="M582.2,329.5c-31.6,0-57.3-25.7-57.3-57.3s25.7-57.3,57.3-57.3s57.3,25.7,57.3,57.3S613.8,329.5,582.2,329.5z
			 M582.2,253.4c-10.4,0-18.8,8.4-18.8,18.8s8.4,18.8,18.8,18.8c10.4,0,18.8-8.4,18.8-18.8S592.6,253.4,582.2,253.4z M460.7,254.3
			c-2.9-3.6-7.2-5.7-11.9-5.7H448c-4.7,0-9,2-11.9,5.7c-17.7,22.3-80.9,105.4-80.9,149.7c0,51.5,41.8,93.2,93.2,93.2
			s93.2-41.8,93.2-93.2C541.6,359.8,478.4,276.7,460.7,254.3z M443.9,449.8c-0.8,5.1-5.3,8.8-10.3,8.8c-0.6,0-1.1,0-1.7-0.1
			c-18.1-3-40.8-17.3-50.3-48.4c-1.7-5.5,1.4-11.4,7-13.1c5.5-1.7,11.4,1.4,13.1,7c4.4,14.4,15.5,30.8,33.6,33.8
			C441,438.7,444.9,444.1,443.9,449.8z M190.4,244.1h33.7l-16.7-42.5L190.4,244.1z M485.2,134.2h-45.6V111
			c0-22.3-18.1-40.4-40.4-40.4H376V15.8C376,9.8,371.2,5,365.3,5h-29.2c-5.9,0-10.8,4.8-10.8,10.8v54.9h-41.8V15.8
			c0-5.9-4.8-10.8-10.8-10.8h-29.2c-5.9,0-10.8,4.8-10.8,10.8v54.9h-41.8V15.8c0-5.9-4.8-10.8-10.8-10.8h-29.2
			c-5.9,0-10.8,4.8-10.8,10.8v54.9h-23.2C95,70.6,76.9,88.8,76.9,111v23.2H12.7C6.8,134.2,2,139,2,145v29.2
			c0,5.9,4.8,10.8,10.8,10.8h64.1v41.8H12.7c-5.9,0-10.8,4.8-10.8,10.8v29.2c0,5.9,4.8,10.8,10.8,10.8h64.1v41.8H12.7
			c-5.9,0-10.8,4.8-10.8,10.8V359c0,5.9,4.8,10.8,10.8,10.8h64.1v23.1c0,22.3,18.1,40.4,40.4,40.4h23.2v55c0,5.9,4.8,10.8,10.8,10.8
			h29.2c5.9,0,10.8-4.8,10.8-10.8v-55h41.8v55c0,5.9,4.8,10.8,10.8,10.8h29.2c5.9,0,10.8-4.8,10.8-10.8v-54.9h41.8v54.9
			c0,5.9,4.8,10.8,10.8,10.8h29.2c0.5,0,1,0,1.5-0.1c-26.7-23-43.6-57-43.6-94.9c0-14.8,4.2-31.7,12.8-51.6
			c6.2-14.4,14.9-30.7,25.8-48.3c19.2-31,40.8-59,49.2-69.6l0.1-0.1l0.1-0.1c7.2-9,17.3-15,28.5-17v-32.5h45.6
			c5.9,0,10.8-4.8,10.8-10.8V145C496,139,491.2,134.2,485.2,134.2z M241.4,289.2l-8.8-22.4h-50.7l-8.8,22.4h-31.6l51-121h30.5
			l51.1,121H241.4z M319.5,289.2h-29.5v-92h29.5V289.2z M320.2,184.6h-30.9v-20.8h30.9V184.6z"/>
	</g>
</g>
</svg>
