<?xml version="1.0" encoding="utf-8"?>
<!-- Generator: Adobe Illustrator 25.4.1, SVG Export Plug-In . SVG Version: 6.00 Build 0)  -->
<svg version="1.1" id="Layer_1" xmlns="http://www.w3.org/2000/svg" xmlns:xlink="http://www.w3.org/1999/xlink" x="0px" y="0px"
	 viewBox="0 0 542.7 512" style="enable-background:new 0 0 542.7 512;" xml:space="preserve">
<path d="M532.6,338.7c-11.1-10.1-28.5-9.4-40.1,0l-87.1,69.6c-10.6,8.6-23.9,13.2-37.7,13.2H256.3c-8.3,0-15.1-6.8-15.1-15.1
	c0-8.3,6.8-15.1,15.1-15.1H330c15,0,28.9-10.3,31.4-25.1c3.1-18.8-11.4-35.2-29.8-35.2H180.9c-25.4,0-50,8.8-69.8,24.8l-43.8,35.5
	H15.1c-8.3,0-15.1,6.8-15.1,15.1v90.4c0,8.3,6.8,15.1,15.1,15.1h336.1c13.7,0,26.9-4.6,37.7-13.2l142.4-114
	C545.7,373.4,546.8,351.6,532.6,338.7z M394.8,164.2l-22.7-13.1c2.3-12.3,2.3-25.1,0-37.5l22.7-13.1c2.6-1.5,3.8-4.6,2.9-7.4
	c-5.9-19-16-36.2-29.2-50.5c-2.1-2.2-5.4-2.7-7.9-1.2l-22.7,13.1c-9.5-8.2-20.5-14.6-32.4-18.7V9.4c0-3-2.1-5.6-5-6.2
	c-19.6-4.3-39.7-4.1-58.3,0c-2.9,0.7-5,3.3-5,6.2v26.3c-11.9,4.2-22.8,10.6-32.4,18.7l-22.7-13.1c-2.6-1.5-5.8-1-7.9,1.2
	C161,56.8,150.9,74,145,93.1c-0.9,2.9,0.3,5.9,2.9,7.4l22.7,13.1c-2.3,12.3-2.3,25.1,0,37.5l-22.7,13.1c-2.6,1.5-3.8,4.6-2.9,7.4
	c5.9,19,16,36.2,29.2,50.5c2.1,2.2,5.4,2.7,7.9,1.2l22.7-13.1c9.5,8.2,20.5,14.6,32.4,18.7v26.3c0,3,2.1,5.6,5,6.2
	c19.6,4.3,39.7,4.1,58.3,0c2.9-0.7,5-3.3,5-6.2V229c11.9-4.2,22.8-10.6,32.4-18.7l22.7,13.1c2.6,1.5,5.8,1,7.9-1.2
	c13.2-14.2,23.3-31.5,29.2-50.5C398.6,168.7,397.4,165.7,394.8,164.2z M271.3,175c-23.6,0-42.7-19.1-42.7-42.7s19.1-42.7,42.7-42.7
	s42.7,19.1,42.7,42.7S294.9,175,271.3,175z"/>
</svg>
