<?xml version="1.0" encoding="utf-8"?>
<!-- Generator: Adobe Illustrator 26.0.1, SVG Export Plug-In . SVG Version: 6.00 Build 0)  -->
<svg version="1.1" id="Layer_1" xmlns="http://www.w3.org/2000/svg" xmlns:xlink="http://www.w3.org/1999/xlink" x="0px" y="0px"
	 viewBox="0 0 576 512" style="enable-background:new 0 0 576 512;" xml:space="preserve">
<path d="M565.3,328.1c-11.8-10.7-30.2-10-42.6,0L430.3,402c-11.3,9.1-25.4,14-40,14H272c-8.8,0-16-7.2-16-16s7.2-16,16-16h78.3
	c15.9,0,30.7-10.9,33.3-26.6c3.3-20-12.1-37.4-31.6-37.4H192c-27,0-53.1,9.3-74.1,26.3L71.4,384H16c-8.8,0-16,7.2-16,16v96
	c0,8.8,7.2,16,16,16h356.8c14.5,0,28.6-4.9,40-14L564,377C579.2,364.9,580.4,341.7,565.3,328.1z"/>
</svg>
