<?xml version="1.0" encoding="utf-8"?>
<!-- Generator: Adobe Illustrator 25.4.1, SVG Export Plug-In . SVG Version: 6.00 Build 0)  -->
<svg version="1.1" id="Layer_1" xmlns="http://www.w3.org/2000/svg" xmlns:xlink="http://www.w3.org/1999/xlink" x="0px" y="0px"
	 viewBox="0 0 384 512" style="enable-background:new 0 0 384 512;" xml:space="preserve">
<path d="M159,336l-39.5-39.5c-4.7-4.7-12.3-4.7-17,0l-39,39L63,448h256V304l-55.5-55.5c-4.7-4.7-12.3-4.7-17,0L159,336z M255,285.3
	l32,32V416H95.1l0.3-67.2l15.6-15.6l48,48C179.3,360.9,236.7,303.6,255,285.3z M127,256c35.3,0,64-28.7,64-64s-28.7-64-64-64
	s-64,28.7-64,64S91.7,256,127,256z M127,160c17.6,0,32,14.4,32,32s-14.4,32-32,32s-32-14.4-32-32S109.4,160,127,160z M369.9,97.9
	L286,14c-9-9-21.2-14.1-33.9-14.1H48C21.5,0,0,21.5,0,48v416c0,26.5,21.5,48,48,48h288c26.5,0,48-21.5,48-48V131.9
	C384,119.2,378.9,106.9,369.9,97.9z M256,32.5c2.8,0.7,5.3,2.1,7.4,4.2l83.9,83.9c2.1,2.1,3.5,4.6,4.2,7.4H256V32.5z M352,464
	c0,8.8-7.2,16-16,16H48c-8.8,0-16-7.2-16-16V48c0-8.8,7.2-16,16-16h176v104c0,13.3,10.7,24,24,24h104V464z"/>
</svg>
