<?xml version="1.0" encoding="utf-8"?>
<!-- Generator: Adobe Illustrator 26.0.0, SVG Export Plug-In . SVG Version: 6.00 Build 0)  -->
<svg version="1.1" id="Layer_1" xmlns="http://www.w3.org/2000/svg" xmlns:xlink="http://www.w3.org/1999/xlink" x="0px" y="0px"
	 viewBox="0 0 576 512" style="enable-background:new 0 0 576 512;" xml:space="preserve">
<path d="M552,26H88c-13.3,0-24,10.7-24,24v8H24C10.7,58,0,68.7,0,82v348c0,30.9,25.1,56,56,56h472c26.5,0,48-21.5,48-48V50
	C576,36.7,565.3,26,552,26z M64,430c0,4.4-3.6,8-8,8s-8-3.6-8-8V106h16V430z M320,417c0,6.6-5.4,12-12,12H140c-6.6,0-12-5.4-12-12
	v-8c0-6.6,5.4-12,12-12h168c6.6,0,12,5.4,12,12V417z M320,349.8c0,6.6-5.4,12-12,12H140c-6.6,0-12-5.4-12-12v-8c0-6.6,5.4-12,12-12
	h168c6.6,0,12,5.4,12,12V349.8z M320,283c0,6.6-5.4,12-12,12H140c-6.6,0-12-5.4-12-12V108c0-6.6,5.4-12,12-12h168
	c6.6,0,12,5.4,12,12V283z M512,417c0,6.6-5.4,12-12,12H364c-6.6,0-12-5.4-12-12v-8c0-6.6,5.4-12,12-12h136c6.6,0,12,5.4,12,12V417z
	 M512,349.8c0,6.6-5.4,12-12,12H364c-6.6,0-12-5.4-12-12v-8c0-6.6,5.4-12,12-12h136c6.6,0,12,5.4,12,12V349.8z M512,282.5
	c0,6.6-5.4,12-12,12H364c-6.6,0-12-5.4-12-12v-8c0-6.6,5.4-12,12-12h136c6.6,0,12,5.4,12,12V282.5z M512,215.2c0,6.6-5.4,12-12,12
	H364c-6.6,0-12-5.4-12-12v-8c0-6.6,5.4-12,12-12h136c6.6,0,12,5.4,12,12V215.2z M512,148c0,6.6-5.4,12-12,12H364
	c-6.6,0-12-5.4-12-12v-8c0-6.6,5.4-12,12-12h136c6.6,0,12,5.4,12,12V148z"/>
</svg>
