<?xml version="1.0" encoding="utf-8"?>
<!-- Generator: Adobe Illustrator 26.0.0, SVG Export Plug-In . SVG Version: 6.00 Build 0)  -->
<svg version="1.1" id="Layer_1" xmlns="http://www.w3.org/2000/svg" xmlns:xlink="http://www.w3.org/1999/xlink" x="0px" y="0px"
	 viewBox="0 0 576 512" style="enable-background:new 0 0 576 512;" xml:space="preserve">
<path d="M552,28H88c-13.2,0-24,10.8-24,24v8H24C10.7,60,0,70.7,0,84v356c0,26.5,21.5,48,48,48h504c13.2,0,24-10.8,24-24V52
	C576,38.8,565.2,28,552,28z M32,440V92h32v348c0,8.8-7.2,16-16,16S32,448.8,32,440z M544,456H93.3c1.8-5.1,2.7-10.5,2.7-16V60h448
	V456z M140,295h168c6.6,0,12-5.4,12-12V108c0-6.6-5.4-12-12-12H140c-6.6,0-12,5.4-12,12v175C128,289.6,133.4,295,140,295z M160,128
	h128v135H160V128z M128,349.8v-8c0-6.6,5.4-12,12-12h168c6.6,0,12,5.4,12,12v8c0,6.6-5.4,12-12,12H140
	C133.4,361.8,128,356.4,128,349.8z M352,282.5v-8c0-6.6,5.4-12,12-12h136c6.6,0,12,5.4,12,12v8c0,6.6-5.4,12-12,12H364
	C357.4,294.5,352,289.1,352,282.5z M128,417v-8c0-6.6,5.4-12,12-12h168c6.6,0,12,5.4,12,12v8c0,6.6-5.4,12-12,12H140
	C133.4,429,128,423.6,128,417z M352,417v-8c0-6.6,5.4-12,12-12h136c6.6,0,12,5.4,12,12v8c0,6.6-5.4,12-12,12H364
	C357.4,429,352,423.6,352,417z M352,349.8v-8c0-6.6,5.4-12,12-12h136c6.6,0,12,5.4,12,12v8c0,6.6-5.4,12-12,12H364
	C357.4,361.8,352,356.4,352,349.8z M352,148v-8c0-6.6,5.4-12,12-12h136c6.6,0,12,5.4,12,12v8c0,6.6-5.4,12-12,12H364
	C357.4,160,352,154.6,352,148z M352,215.2v-8c0-6.6,5.4-12,12-12h136c6.6,0,12,5.4,12,12v8c0,6.6-5.4,12-12,12H364
	C357.4,227.2,352,221.9,352,215.2z"/>
</svg>
