<?xml version="1.0" encoding="utf-8"?>
<!-- Generator: Adobe Illustrator 25.4.1, SVG Export Plug-In . SVG Version: 6.00 Build 0)  -->
<svg version="1.1" id="Layer_1" xmlns="http://www.w3.org/2000/svg" xmlns:xlink="http://www.w3.org/1999/xlink" x="0px" y="0px"
	 viewBox="0 0 384 512" style="enable-background:new 0 0 384 512;" xml:space="preserve">
<path d="M136,320h-16c-4.4,0-8,3.6-8,8v96c0,4.4,3.6,8,8,8h16c4.4,0,8-3.6,8-8v-96C144,323.6,140.4,320,136,320z M200,224h-16
	c-4.4,0-8,3.6-8,8v192c0,4.4,3.6,8,8,8h16c4.4,0,8-3.6,8-8V232C208,227.6,204.4,224,200,224z M240,296v128c0,4.4,3.6,8,8,8h16
	c4.4,0,8-3.6,8-8V296c0-4.4-3.6-8-8-8h-16C243.6,288,240,291.6,240,296z M369.9,98L286,14.1C277,5.1,264.8,0,252.1,0H48
	C21.5,0.1,0,21.6,0,48.1V464c0,26.5,21.5,48,48,48h288c26.5,0,48-21.5,48-48V132C384,119.3,378.9,107,369.9,98L369.9,98z M256,32.6
	c2.8,0.7,5.3,2.1,7.4,4.2l83.9,83.9c2.1,2.1,3.5,4.6,4.2,7.4H256V32.6z M352,464c0,8.8-7.2,16-16,16H48c-8.8,0-16-7.2-16-16V48.1
	C32,39.3,39.2,32,48,32h176v104.1c0,13.3,10.7,23.9,24,23.9h104V464z"/>
</svg>
