<?xml version="1.0" encoding="utf-8"?>
<!-- Generator: Adobe Illustrator 25.4.1, SVG Export Plug-In . SVG Version: 6.00 Build 0)  -->
<svg version="1.1" id="Layer_1" xmlns="http://www.w3.org/2000/svg" xmlns:xlink="http://www.w3.org/1999/xlink" x="0px" y="0px"
	 viewBox="0 0 512 512" style="enable-background:new 0 0 512 512;" xml:space="preserve">
<path d="M464,64c8.8,0,16,7.2,16,16v352c0,8.8-7.2,16-16,16H48c-8.8,0-16-7.2-16-16V80c0-8.8,7.2-16,16-16H464 M464,32H48
	C21.5,32,0,53.5,0,80v352c0,26.5,21.5,48,48,48h416c26.5,0,48-21.5,48-48V80C512,53.5,490.5,32,464,32z M128,128
	c-17.7,0-32,14.3-32,32s14.3,32,32,32s32-14.3,32-32S145.7,128,128,128z M128,224c-17.7,0-32,14.3-32,32s14.3,32,32,32
	s32-14.3,32-32S145.7,224,128,224z M128,320c-17.7,0-32,14.3-32,32s14.3,32,32,32s32-14.3,32-32S145.7,320,128,320z M416,172v-24
	c0-3.3-2.7-6-6-6H198c-3.3,0-6,2.7-6,6v24c0,3.3,2.7,6,6,6h212C413.3,178,416,175.3,416,172z M416,268v-24c0-3.3-2.7-6-6-6l0,0H198
	c-3.3,0-6,2.7-6,6l0,0v24c0,3.3,2.7,6,6,6h212C413.3,274,416,271.3,416,268z M416,364v-24c0-3.3-2.7-6-6-6H198c-3.3,0-6,2.7-6,6v24
	c0,3.3,2.7,6,6,6h212C413.3,370,416,367.3,416,364z"/>
</svg>
