<?xml version="1.0" encoding="utf-8"?>
<!-- Generator: Adobe Illustrator 26.0.1, SVG Export Plug-In . SVG Version: 6.00 Build 0)  -->
<svg version="1.1" id="Layer_1" xmlns="http://www.w3.org/2000/svg" xmlns:xlink="http://www.w3.org/1999/xlink" x="0px" y="0px"
	 viewBox="0 0 512 512" style="enable-background:new 0 0 512 512;" xml:space="preserve">
<path d="M477.7,77.3h-444c-18.7,0-34,15.3-34,34v293.1c0,18.7,15.3,34,34,34h444c18.7,0,34-15.3,34-34V111.3
	C511.7,92.6,496.4,77.3,477.7,77.3z M479,149.3v219.4V407h-36.5h-373H33v-38.3V149.3V111h36.5h373.1H479V149.3z M211,326.3
	c-7.8,4.5-17.5-1.1-17.5-10.1V199.6c0-9,9.7-14.6,17.5-10.1l101.1,58.3c7.8,4.5,7.8,15.7,0,20.2L211,326.3L211,326.3z"/>
</svg>
