<?xml version="1.0" encoding="utf-8"?>
<!-- Generator: Adobe Illustrator 26.0.0, SVG Export Plug-In . SVG Version: 6.00 Build 0)  -->
<svg version="1.1" id="Layer_1" xmlns="http://www.w3.org/2000/svg" xmlns:xlink="http://www.w3.org/1999/xlink" x="0px" y="0px"
	 viewBox="0 0 512 512" style="enable-background:new 0 0 512 512;" xml:space="preserve">
<path d="M139.6,35.5c-4.7-4.7-12.3-4.7-17,0c0,0,0,0,0,0L58.9,98.8L36.2,76.7c-4.7-4.7-12.3-4.7-17,0c0,0,0,0,0,0L3.5,92.4
	c-4.7,4.7-4.7,12.3,0,17c0,0,0,0,0,0l47.6,47.4c4.9,4.7,12.7,4.7,17.6,0l15.6-15.6L156.5,69c4.7-4.7,4.7-12.3,0.1-17L139.6,35.5z
	 M139.6,194.7c-4.7-4.7-12.3-4.7-17,0c0,0,0,0,0,0l-63.7,63.7l-22.7-22.1c-4.7-4.7-12.3-4.7-17,0c0,0,0,0,0,0L3.5,252
	c-4.7,4.7-4.7,12.3,0,17c0,0,0,0,0,0L51,316.5c4.9,4.7,12.7,4.7,17.6,0l15.7-15.7l72.2-72.2c4.7-4.7,4.7-12.2,0.1-16.9L139.6,194.7z
	 M64,368c-26.5,0-48.6,21.5-48.6,48s22.1,48,48.6,48c26.5,0,48-21.5,48-48S90.5,368,64,368z M502,401H200c-4.4,0-8,3.6-8,8v16
	c0,4.4,3.6,8,8,8h302c4.4,0,8-3.6,8-8v-16C510,404.6,506.4,401,502,401z M502,81H200c-4.4,0-8,3.6-8,8v16c0,4.4,3.6,8,8,8h302
	c4.4,0,8-3.6,8-8V89C510,84.6,506.4,81,502,81z M502,241H200c-4.4,0-8,3.6-8,8v16c0,4.4,3.6,8,8,8h302c4.4,0,8-3.6,8-8v-16
	C510,244.6,506.4,241,502,241z"/>
</svg>
