<?xml version="1.0" encoding="utf-8"?>
<!-- Generator: Adobe Illustrator 25.4.1, SVG Export Plug-In . SVG Version: 6.00 Build 0)  -->
<svg version="1.1" id="Layer_1" xmlns="http://www.w3.org/2000/svg" xmlns:xlink="http://www.w3.org/1999/xlink" x="0px" y="0px"
	 viewBox="0 0 512 512" style="enable-background:new 0 0 512 512;" xml:space="preserve">
<path d="M88,56H40c-8.8,0-16,7.2-16,16v48c0,8.8,7.2,16,16,16h48c8.8,0,16-7.2,16-16V72C104,63.2,96.8,56,88,56z M88,216H40
	c-8.8,0-16,7.2-16,16v48c0,8.8,7.2,16,16,16h48c8.8,0,16-7.2,16-16v-48C104,223.2,96.8,216,88,216z M88,376H40c-8.8,0-16,7.2-16,16
	v48c0,8.8,7.2,16,16,16h48c8.8,0,16-7.2,16-16v-48C104,383.2,96.8,376,88,376z M504,400H168c-4.4,0-8,3.6-8,8v16c0,4.4,3.6,8,8,8
	h336c4.4,0,8-3.6,8-8v-16C512,403.6,508.4,400,504,400z M504,80H168c-4.4,0-8,3.6-8,8v16c0,4.4,3.6,8,8,8h336c4.4,0,8-3.6,8-8V88
	C512,83.6,508.4,80,504,80z M504,240H168c-4.4,0-8,3.6-8,8v16c0,4.4,3.6,8,8,8h336c4.4,0,8-3.6,8-8v-16C512,243.6,508.4,240,504,240
	z"/>
</svg>
