<?xml version="1.0" encoding="utf-8"?>
<!-- Generator: Adobe Illustrator 25.4.1, SVG Export Plug-In . SVG Version: 6.00 Build 0)  -->
<svg version="1.1" id="Layer_1" xmlns="http://www.w3.org/2000/svg" xmlns:xlink="http://www.w3.org/1999/xlink" x="0px" y="0px"
	 viewBox="0 0 576 512" style="enable-background:new 0 0 576 512;" xml:space="preserve">
<path d="M528,224h-48v-48c0-26.5-21.5-48-48-48H272l-64-64H48C21.5,64,0,85.5,0,112v288c0,26.5,21.5,48,48,48h385.1
	c28.1,0,54.1-14.7,68.6-38.8l67.5-112.5C588.2,264.8,565.3,224,528,224z M48,96h146.7l64,64H432c8.8,0,16,7.2,16,16v48H171.2
	c-28.1,0-54.1,14.7-68.6,38.8L32,380.5V112C32,103.2,39.2,96,48,96z M541.7,280.2l-67.5,112.5c-8.7,14.5-24.3,23.3-41.2,23.3H44.8
	l82-136.7c8.7-14.5,24.3-23.3,41.2-23.3h360C540.4,256,548.1,269.6,541.7,280.2L541.7,280.2z"/>
</svg>
