<?xml version="1.0" encoding="utf-8"?>
<!-- Generator: Adobe Illustrator 26.0.0, SVG Export Plug-In . SVG Version: 6.00 Build 0)  -->
<svg version="1.1" id="Layer_1" xmlns="http://www.w3.org/2000/svg" xmlns:xlink="http://www.w3.org/1999/xlink" x="0px" y="0px"
	 viewBox="0 0 384 512" style="enable-background:new 0 0 384 512;" xml:space="preserve">
<path d="M369.9,97.9L286,14c-9-9-21.2-14.1-33.9-14.1H48C21.5,0,0,21.5,0,48v416c0,26.5,21.5,48,48,48l0,0h288c26.5,0,48-21.5,48-48
	l0,0V131.9C384,119.1,378.9,106.9,369.9,97.9z M347.3,120.6c2.1,2,3.5,4.6,4.2,7.4H256V32.5c2.8,0.7,5.4,2.1,7.4,4.2L347.3,120.6z
	 M336,480H48c-8.8,0-16-7.2-16-16V48c0-8.8,7.2-16,16-16h176v104c0,13.2,10.7,24,23.9,24h0.1h104v304C352,472.8,344.8,480,336,480z
	 M288,317v8c0,6.6-5.4,12-12,12h-68v68c0,6.6-5.4,12-12,12h-8c-6.6,0-12-5.4-12-12v-68h-68c-6.6,0-12-5.4-12-12v-8
	c0-6.6,5.4-12,12-12h68v-68c0-6.6,5.4-12,12-12h8c6.6,0,12,5.4,12,12v68h68C282.6,305,288,310.4,288,317z"/>
</svg>
