<?xml version="1.0" encoding="utf-8"?>
<!-- Generator: Adobe Illustrator 25.4.1, SVG Export Plug-In . SVG Version: 6.00 Build 0)  -->
<svg version="1.1" id="Layer_1" xmlns="http://www.w3.org/2000/svg" xmlns:xlink="http://www.w3.org/1999/xlink" x="0px" y="0px"
	 viewBox="0 0 512 512" style="enable-background:new 0 0 512 512;" xml:space="preserve">
<path d="M504,416H32V72c0-4.4-3.6-8-8-8H8c-4.4,0-8,3.6-8,8v360c0,8.8,7.2,16,16,16h488c4.4,0,8-3.6,8-8v-16
	C512,419.6,508.4,416,504,416z M98.3,263c-3.1,3.1-3.1,8.2,0,11.3l11.3,11.3c3.1,3.1,8.2,3.1,11.3,0l72.7-72l84.7,84.7
	c6.2,6.2,16.4,6.2,22.6,0l93.5-93.5l44,44c5,4.9,11,7.2,17,7.2c12.5,0,24.5-9.7,24.5-24.3V112.2c0-8.9-7.2-16.2-16.2-16.2H344.3
	c-21.6,0-32.5,26.2-17.2,41.5l44.7,44.7l-82.2,82.2L205,179.8c-6.2-6.2-16.3-6.2-22.6-0.1L98.3,263L98.3,263z M363,128h85v85
	L363,128z"/>
</svg>
