<?xml version="1.0" encoding="utf-8"?>
<!-- Generator: Adobe Illustrator 26.0.0, SVG Export Plug-In . SVG Version: 6.00 Build 0)  -->
<svg version="1.1" id="Layer_1" xmlns="http://www.w3.org/2000/svg" xmlns:xlink="http://www.w3.org/1999/xlink" x="0px" y="0px"
	 viewBox="0 0 514.3 512" style="enable-background:new 0 0 514.3 512;" xml:space="preserve">
<style type="text/css">
	.st0{fill:#010101;}
</style>
<path class="st0" d="M508.1,46.8L428.9,1c-3.2-1.9-7.2-1.9-10.4,0s-5.2,5.3-5.2,9v22.6H12.9C7.1,32.6,2.5,37.2,2.5,43v25.5
	c0,5.8,4.6,10.4,10.4,10.4h400.5v22.6c0,3.7,2,7.2,5.2,9c1.6,0.9,3.4,1.4,5.2,1.4s3.6-0.5,5.2-1.4l79.2-45.6c3.2-1.9,5.2-5.3,5.2-9
	S511.3,48.6,508.1,46.8z M6,464.5l79.2,45.7c3.2,1.9,7.2,1.9,10.4,0c3.2-1.9,5.2-5.3,5.2-9v-22.6h403.9c5.8,0,10.4-4.6,10.4-10.4
	v-25.5c0-5.8-4.6-10.4-10.4-10.4H100.8v-22.6c0-3.7-2-7.2-5.2-9c-1.6-0.9-3.4-1.4-5.2-1.4s-3.6,0.5-5.2,1.4L6,446.3
	c-3.2,1.9-5.2,5.3-5.2,9C0.8,459,2.7,462.6,6,464.5z M349.5,140.4H166.9c-13.7,0-24.9,11.2-24.9,24.9v182.6
	c0,13.7,11.2,24.9,24.9,24.9h182.6c13.7,0,24.9-11.2,24.9-24.9V165.3C374.4,151.6,363.2,140.4,349.5,140.4z M223.4,293.4l-9.9,20.3
	h-28.4l59.3-123.2h28.5l-37.7,79.1h28.4l11.2,23.7h-51.4L223.4,293.4L223.4,293.4z M302.9,313.8l-35.1-73.5l14.2-29.9l49.4,103.4
	H302.9z"/>
</svg>
