<?xml version="1.0" encoding="utf-8"?>
<!-- Generator: Adobe Illustrator 26.0.0, SVG Export Plug-In . SVG Version: 6.00 Build 0)  -->
<svg version="1.1" id="Layer_1" xmlns="http://www.w3.org/2000/svg" xmlns:xlink="http://www.w3.org/1999/xlink" x="0px" y="0px"
	 viewBox="0 0 514.3 512" style="enable-background:new 0 0 514.3 512;" xml:space="preserve">
<style type="text/css">
	.st0{fill:#010101;}
</style>
<path class="st0" d="M508,46.8L428.8,1c-3.2-1.9-7.2-1.9-10.4,0s-5.2,5.3-5.2,9v22.6H12.8C7,32.6,2.4,37.2,2.4,43v25.5
	c0,5.8,4.6,10.4,10.4,10.4h400.5v22.6c0,3.7,2,7.2,5.2,9c1.6,0.9,3.4,1.4,5.2,1.4s3.6-0.5,5.2-1.4l79.2-45.6c3.2-1.9,5.2-5.3,5.2-9
	S511.2,48.6,508,46.8z M5.9,464.5l79.2,45.7c3.2,1.9,7.2,1.9,10.4,0c3.2-1.9,5.2-5.3,5.2-9v-22.6h403.9c5.8,0,10.4-4.6,10.4-10.4
	v-25.5c0-5.8-4.6-10.4-10.4-10.4H100.7v-22.6c0-3.7-2-7.2-5.2-9c-1.6-0.9-3.4-1.4-5.2-1.4s-3.6,0.5-5.2,1.4L5.9,446.3
	c-3.2,1.9-5.2,5.3-5.2,9C0.7,459,2.6,462.6,5.9,464.5z M402.6,145.5h-239c-13.2,0-23.9,10.7-23.9,23.9v7.1c0,0,0,0,0,0
	c1.4,0.1,2.7,0.2,4,0.3c0.6,0.1,1.2,0.1,1.7,0.2c0.8,0.1,1.6,0.2,2.4,0.3c0.6,0.1,1.2,0.2,1.9,0.3c0.7,0.1,1.4,0.2,2.2,0.4
	c0.6,0.1,1.3,0.3,1.9,0.4c0.7,0.2,1.4,0.3,2.1,0.5c0.6,0.2,1.3,0.3,1.9,0.5c0.7,0.2,1.3,0.4,2,0.6c0.6,0.2,1.3,0.4,1.9,0.6
	c0.6,0.2,1.3,0.4,1.9,0.7c0.6,0.2,1.3,0.5,1.9,0.7c0.6,0.2,1.2,0.5,1.8,0.7c0.6,0.3,1.2,0.5,1.9,0.8c0.6,0.3,1.2,0.5,1.8,0.8
	c0.6,0.3,1.2,0.6,1.8,0.9c0.6,0.3,1.1,0.6,1.7,0.9c0.6,0.3,1.2,0.6,1.8,1c0.5,0.3,1.1,0.6,1.6,0.9c0.6,0.4,1.2,0.7,1.8,1.1
	c0.5,0.3,1,0.7,1.5,1c0.6,0.4,1.2,0.8,1.8,1.2c0.5,0.3,1,0.7,1.4,1c0.6,0.4,1.2,0.8,1.8,1.3c0.4,0.3,0.9,0.7,1.3,1
	c0.6,0.5,1.2,0.9,1.8,1.4c0.4,0.3,0.8,0.7,1.2,1c0.6,0.5,1.2,1,1.8,1.6c0.3,0.3,0.6,0.6,0.9,0.9c0.7,0.6,1.3,1.2,1.9,1.9
	c0,0,0.1,0.1,0.1,0.1c2.5,2.6,4.9,5.3,7.1,8.2c0.1,0.1,0.2,0.3,0.3,0.4c0.6,0.8,1.2,1.6,1.7,2.4c0.2,0.3,0.4,0.5,0.6,0.8
	c0.5,0.8,1,1.5,1.5,2.3c0.2,0.3,0.4,0.6,0.6,1c0.5,0.8,0.9,1.6,1.4,2.3c0.2,0.4,0.4,0.7,0.6,1c0.4,0.8,0.9,1.6,1.3,2.4
	c0.2,0.4,0.4,0.7,0.6,1.1c0.4,0.8,0.8,1.6,1.1,2.4c0.2,0.4,0.4,0.8,0.5,1.2c0.4,0.8,0.7,1.6,1,2.5c0.2,0.4,0.3,0.8,0.5,1.2
	c0.3,0.8,0.6,1.7,0.9,2.5c0.1,0.4,0.3,0.8,0.4,1.2c0.3,0.9,0.6,1.7,0.8,2.6c0.1,0.4,0.2,0.8,0.3,1.2c0.3,0.9,0.5,1.8,0.7,2.7
	c0.1,0.4,0.2,0.8,0.3,1.1c0.2,0.9,0.4,1.9,0.6,2.8c0.1,0.3,0.1,0.7,0.2,1.1c0.2,1,0.3,2,0.5,3c0,0.3,0.1,0.6,0.1,0.9
	c0.1,1.1,0.3,2.1,0.4,3.2c0,0.2,0,0.4,0,0.6c0.1,1.2,0.2,2.3,0.2,3.5h1.7c3.3,0,6,2.7,6,6v19.9c0,3.3-2.7,6-6,6h-6.4
	c-0.2,0.7-0.5,1.3-0.7,2c-0.1,0.3-0.3,0.6-0.4,1c-0.4,1.1-0.9,2.1-1.3,3.1c-0.2,0.3-0.3,0.7-0.5,1c-0.4,1-0.9,1.9-1.4,2.8
	c-0.2,0.4-0.4,0.8-0.6,1.2c-0.3,0.6-0.6,1.1-0.9,1.7c-0.3,0.6-0.7,1.2-1,1.7c-0.4,0.7-0.8,1.3-1.2,2c-0.3,0.5-0.6,1-0.9,1.4
	c-0.4,0.7-0.9,1.3-1.3,2c-0.4,0.5-0.7,1.1-1.1,1.6c-0.3,0.4-0.6,0.8-0.9,1.3c-0.6,0.7-1.1,1.5-1.7,2.2c-0.3,0.4-0.6,0.8-0.9,1.1
	c-0.6,0.7-1.1,1.3-1.7,2c-0.3,0.4-0.7,0.8-1,1.1c-0.5,0.6-1,1.1-1.6,1.6c-0.3,0.3-0.6,0.6-0.9,0.9h18.7c3.3,0,6,2.7,6,6v4
	c0,3.3-2.7,6-6,6h-35.8c-1.3,0-2.4-0.4-3.4-1.1c-1.3,0.7-2.5,1.3-3.8,1.9c-0.2,0.1-0.3,0.1-0.5,0.2c-1.1,0.5-2.2,1-3.4,1.4
	c-0.3,0.1-0.6,0.2-0.9,0.3c-0.9,0.4-1.9,0.7-2.9,1.1c-0.5,0.2-0.9,0.3-1.4,0.5c-0.7,0.2-1.3,0.4-2,0.6c-0.8,0.2-1.5,0.4-2.3,0.7
	c-0.5,0.1-0.9,0.3-1.4,0.4c-1,0.2-1.9,0.5-2.9,0.7c-0.4,0.1-0.8,0.2-1.2,0.2c-1.1,0.2-2.1,0.4-3.2,0.6c-0.3,0-0.6,0.1-0.9,0.1
	c-1.1,0.2-2.3,0.3-3.5,0.4c-0.2,0-0.4,0-0.7,0.1c-1.2,0.1-2.5,0.2-3.8,0.3c0,0,0,0,0,0c0.3,13,10.8,23.4,23.9,23.4h239
	c13.2,0,23.9-10.7,23.9-23.9V169.4C426.5,156.2,415.8,145.5,402.6,145.5z M241.3,257h31.9c3.3,0,6,2.7,6,6v19.9c0,3.3-2.7,6-6,6
	h-31.9c-3.3,0-6-2.7-6-6l0-19.9C235.3,259.7,238,257,241.3,257z M315,330.7L315,330.7c-0.1,3.3-2.8,6-6.1,6h-67.7c-3.3,0-6-2.7-6-6
	v-4c0-3.3,2.7-6,6-6H309c3.3,0,6,2.7,6,6V330.7z M330.9,282.9c0,3.3-2.7,6-6,6H293c-3.3,0-6-2.7-6-6V263c0-3.3,2.7-6,6-6h31.9
	c3.3,0,6,2.7,6,6V282.9z M394.6,282.9c0,3.3-2.7,6-6,6h-43.8c-3.3,0-6-2.7-6-6V263c0-3.3,2.7-6,6-6h43.8c3.3,0,6,2.7,6,6V282.9z
	 M394.6,213.2c0,6.6-5.3,11.9-11.9,11.9h-39.8c-6.6,0-11.9-5.3-11.9-11.9v-23.9c0-6.6,5.3-11.9,11.9-11.9h39.8
	c6.6,0,11.9,5.3,11.9,11.9V213.2z M81.9,207.5c29.4-29.4,77.2-29.4,106.6,0s29.4,77.2,0,106.6s-77.2,29.4-106.6,0
	C52.5,284.7,52.5,237,81.9,207.5z M135.3,194.4c-36.7,0-66.4,29.7-66.4,66.4c0,36.7,29.7,66.4,66.4,66.4c36.7,0,66.4-29.7,66.4-66.4
	S172,194.4,135.3,194.4z M176.9,246.8l-49.3,49.3c-0.8,0.9-1.9,1.3-3,1.3c-1.1,0-2.2-0.5-3-1.3l-27.9-27.9c-1.7-1.7-1.7-4.4,0-6.1
	l6.1-6.1c0.8-0.9,1.9-1.3,3-1.3c1.1,0,2.2,0.5,3,1.3l18.8,18.8l40.2-40.2c0.8-0.9,1.9-1.3,3-1.3c1.1,0,2.2,0.5,3,1.3l6.1,6.1
	C178.6,242.4,178.6,245.1,176.9,246.8z"/>
</svg>
