<?xml version="1.0" encoding="utf-8"?>
<!-- Generator: Adobe Illustrator 26.0.1, SVG Export Plug-In . SVG Version: 6.00 Build 0)  -->
<svg version="1.1" id="Layer_1" xmlns="http://www.w3.org/2000/svg" xmlns:xlink="http://www.w3.org/1999/xlink" x="0px" y="0px"
	 viewBox="0 0 514.3 512" style="enable-background:new 0 0 514.3 512;" xml:space="preserve">
<style type="text/css">
	.st0{fill:#010101;}
</style>
<path class="st0" d="M508,46.8L428.8,1c-3.2-1.9-7.2-1.9-10.4,0c-3.2,1.9-5.2,5.3-5.2,9v22.6H12.8C7,32.6,2.4,37.2,2.4,43v25.5
	c0,5.8,4.6,10.4,10.4,10.4h400.5v22.6c0,3.7,2,7.2,5.2,9c1.6,0.9,3.4,1.4,5.2,1.4s3.6-0.5,5.2-1.4l79.2-45.6c3.2-1.9,5.2-5.3,5.2-9
	S511.2,48.6,508,46.8z M5.9,464.5l79.2,45.7c3.2,1.9,7.2,1.9,10.4,0c3.2-1.9,5.2-5.3,5.2-9v-22.6h403.9c5.8,0,10.4-4.6,10.4-10.4
	v-25.5c0-5.8-4.6-10.4-10.4-10.4H100.7v-22.6c0-3.7-2-7.2-5.2-9c-1.6-0.9-3.4-1.4-5.2-1.4s-3.6,0.5-5.2,1.4L5.9,446.3
	c-3.2,1.9-5.2,5.3-5.2,9C0.7,459,2.6,462.6,5.9,464.5z M163.9,177.5h32.6l69,162.2h-37l-14.7-36.1h-68.1L131,339.7H94.9L163.9,177.5
	z M201.1,272.4l-21.4-52.2l-21.4,52.2H201.1z M275.4,278.2v-0.5c0-41.2,26.9-63.7,56.1-63.7c18.7,0,30.2,8.5,38.4,18.4v-60.7h35
	v167.9h-35v-17.7c-8.5,11.5-20.3,20-38.4,20C302.8,342,275.4,319.5,275.4,278.2z M370.3,278.2v-0.5c0-20.5-13.6-34-29.9-34
	s-30.2,13.4-30.2,34v0.5c0,20.5,13.8,34,30.2,34C356.9,312.2,370.3,298.8,370.3,278.2z"/>
</svg>
