<?xml version="1.0" encoding="utf-8"?>
<!-- Generator: Adobe Illustrator 26.0.0, SVG Export Plug-In . SVG Version: 6.00 Build 0)  -->
<svg version="1.1" id="Layer_1" xmlns="http://www.w3.org/2000/svg" xmlns:xlink="http://www.w3.org/1999/xlink" x="0px" y="0px"
	 viewBox="0 0 514.3 512" style="enable-background:new 0 0 514.3 512;" xml:space="preserve">
<style type="text/css">
	.st0{fill:#010101;}
</style>
<path class="st0" d="M507.2,47.1L428.1,1.4c-3.2-1.9-7.2-1.9-10.4,0s-5.2,5.3-5.2,9V33H12.7C7,33,2.4,37.6,2.4,43.4v25.5
	c0,5.8,4.6,10.4,10.4,10.4h399.9v22.6c0,3.7,2,7.2,5.2,9c1.6,0.9,3.4,1.4,5.2,1.4s3.6-0.5,5.2-1.4l79-45.8c3.2-1.9,5.2-5.3,5.2-9
	S510.4,49,507.2,47.1z M5.9,464.9L85,510.6c3.2,1.9,7.2,1.9,10.4,0c3.2-1.9,5.2-5.3,5.2-9V479h403.3c5.8,0,10.4-4.6,10.4-10.4v-25.5
	c0-5.8-4.6-10.4-10.4-10.4H100.5v-22.6c0-3.7-2-7.2-5.2-9c-1.6-0.9-3.4-1.4-5.2-1.4c-1.8,0-3.6,0.5-5.2,1.4l-79,45.8
	c-3.2,1.9-5.2,5.3-5.2,9C0.7,459.4,2.6,463,5.9,464.9z M281.1,380.8l12.3-3.8v-27.4h-12.3v-16.3h12.3V319c0-11.4,3.4-20.8,9.6-27.2
	c6-6.2,15-9.6,26.2-9.6c17.3,0,27.2,7.6,34.4,17.4L349,311.3c-5.6-7.2-10.9-11.4-19.5-11.4c-5,0-8.6,1.6-11.5,4.3
	c-3.3,3.4-5.2,8.6-5.2,15.1v13.9h38.7v16.2h-38.7V376h50.6v16.7H281L281.1,380.8L281.1,380.8z M183.5,173.4v-29.6
	c7.1,1.6,14.1,5.1,21,10l8.6-14.5c-8.6-6.3-17.9-10.3-28.9-11.7v-12.2h-13.5v12c-19.3,1.7-32.3,12.9-32.3,29.4v0.3
	c0,17.4,10.5,25.7,32.9,31.6v30.4c-10-1.7-18.3-6.3-27.1-13.6l-9.8,14.1c10.4,8.3,22.9,13.8,36.4,15.3v15.4h13.4V235
	c19.6-1.9,32.8-13.1,32.8-29.9v-0.3C216.8,188.4,206.9,179.3,183.5,173.4z M171.2,170.2c-11.9-3.7-14.8-7.9-14.8-14.3v-0.2
	c0-6.7,5-11.9,14.8-12.7V170.2z M198.7,206.3c0,7.4-5.4,12.3-15.3,13.2v-28c11.9,3.6,15.3,7.7,15.3,14.5V206.3z M209.1,314.4
	c-6.6-9.1-12.9-14-23.8-14s-19.4,7.3-23.8,18.8h33.1v13.1h-36c-0.4,2.2-0.4,4.4-0.4,6.8c0,2.2,0,4.1,0.2,6.1h36.2v13.2h-33.3
	c4.3,12.3,13.1,19.6,25.2,19.6c10.4,0,16.5-5.4,23.6-14.8l13.6,10c-8.8,12.7-19.7,21.7-37.2,21.7c-22.8,0-38.7-14.6-44.8-36.6h-14
	v-13.2h11.9c-0.1-1.9-0.1-3.8-0.1-5.8c0-2.3,0-4.8,0.3-7.1h-12.1v-13.1h14.5c6.1-20.8,21.9-35.7,43.7-35.7
	c18.8,0,29.4,8.7,37.6,20.4L209.1,314.4z M283.7,184h24.2l-35.4-53.5h22l28.1,45l28.3-45h21.4L336.6,184h24.6v13.7h-29.7v11.2h29.7
	v13.8h-29.7v15.5h-18.2v-15.5h-29.6v-13.8h29.6v-11.2h-29.6L283.7,184L283.7,184z"/>
</svg>
