<?xml version="1.0" encoding="utf-8"?>
<!-- Generator: Adobe Illustrator 26.0.1, SVG Export Plug-In . SVG Version: 6.00 Build 0)  -->
<svg version="1.1" id="Layer_1" xmlns="http://www.w3.org/2000/svg" xmlns:xlink="http://www.w3.org/1999/xlink" x="0px" y="0px"
	 viewBox="0 0 514.3 512" style="enable-background:new 0 0 514.3 512;" xml:space="preserve">
<style type="text/css">
	.st0{fill:#010101;}
</style>
<path class="st0" d="M508,46.8L428.8,1c-3.2-1.9-7.2-1.9-10.4,0c-3.2,1.9-5.2,5.3-5.2,9v22.6H12.8C7,32.6,2.4,37.2,2.4,43v25.5
	c0,5.8,4.6,10.4,10.4,10.4h400.5v22.6c0,3.7,2,7.2,5.2,9c1.6,0.9,3.4,1.4,5.2,1.4s3.6-0.5,5.2-1.4l79.2-45.6c3.2-1.9,5.2-5.3,5.2-9
	S511.3,48.6,508,46.8z M6,464.5l79.2,45.7c3.2,1.9,7.2,1.9,10.4,0c3.2-1.9,5.2-5.3,5.2-9v-22.6h403.9c5.8,0,10.4-4.6,10.4-10.4
	v-25.5c0-5.8-4.6-10.4-10.4-10.4H100.8v-22.6c0-3.7-2-7.2-5.2-9c-1.6-0.9-3.4-1.4-5.2-1.4s-3.6,0.5-5.2,1.4L6,446.3
	c-3.2,1.9-5.2,5.3-5.2,9C0.8,459,2.7,462.6,6,464.5z M151.1,296.4h67.7v67.7c0,5.3,4.4,9.7,9.7,9.7h58c5.3,0,9.7-4.4,9.7-9.7v-67.7
	h67.7c5.3,0,9.7-4.4,9.7-9.7v-58.1c0-5.3-4.4-9.7-9.7-9.7h-67.7v-67.7c0-5.3-4.4-9.7-9.7-9.7h-58c-5.3,0-9.7,4.4-9.7,9.7v67.7h-67.7
	c-5.3,0-9.7,4.4-9.7,9.7v58.1C141.5,292,145.8,296.4,151.1,296.4"/>
</svg>
