<?xml version="1.0" encoding="utf-8"?>
<!-- Generator: Adobe Illustrator 26.0.1, SVG Export Plug-In . SVG Version: 6.00 Build 0)  -->
<svg version="1.1" id="Layer_1" xmlns="http://www.w3.org/2000/svg" xmlns:xlink="http://www.w3.org/1999/xlink" x="0px" y="0px"
	 viewBox="0 0 514.3 512" style="enable-background:new 0 0 514.3 512;" xml:space="preserve">
<style type="text/css">
	.st0{fill:#010101;}
</style>
<path class="st0" d="M507.2,47.1L428.1,1.4c-3.2-1.9-7.2-1.9-10.4,0c-3.2,1.9-5.2,5.3-5.2,9V33H12.7C6.9,33,2.3,37.6,2.3,43.4v25.5
	c0,5.8,4.6,10.4,10.4,10.4h399.9v22.6c0,3.7,2,7.2,5.2,9c1.6,0.9,3.4,1.4,5.2,1.4s3.6-0.5,5.2-1.4l79.1-45.6c3.2-1.9,5.2-5.3,5.2-9
	S510.4,49,507.2,47.1z M5.9,464.9L85,510.6c3.2,1.9,7.2,1.9,10.4,0c3.2-1.9,5.2-5.3,5.2-9V479h403.3c5.8,0,10.4-4.6,10.4-10.4v-25.5
	c0-5.8-4.6-10.4-10.4-10.4H100.6v-22.6c0-3.7-2-7.2-5.2-9c-1.6-0.9-3.4-1.4-5.2-1.4c-1.8,0-3.6,0.5-5.2,1.4L5.9,446.7
	c-3.2,1.9-5.2,5.3-5.2,9C0.7,459.4,2.6,463,5.9,464.9z M109.8,175.4h123.6v32.4h-87.9v34.6H223V275h-77.5v63h-35.7V175.4z
	 M402.7,175.4l-54.3,79.3l56.6,83.1h-41.8l-36.4-55.6l-36.7,55.6h-40.6l56.6-82.6l-54.3-79.8h42l33.8,52.6l34.6-52.6L402.7,175.4
	L402.7,175.4z"/>
</svg>
