<?xml version="1.0" encoding="utf-8"?>
<!-- Generator: Adobe Illustrator 26.0.1, SVG Export Plug-In . SVG Version: 6.00 Build 0)  -->
<svg version="1.1" id="Layer_1" xmlns="http://www.w3.org/2000/svg" xmlns:xlink="http://www.w3.org/1999/xlink" x="0px" y="0px"
	 viewBox="0 0 512 512" style="enable-background:new 0 0 512 512;" xml:space="preserve">
<path d="M162.5,18v144.5H18c-9.9,0-18,8.1-18,18v151.1c0,9.9,8.1,18,18,18h144.5V494c0,9.9,8.1,18,18,18h151.1c9.9,0,18-8.1,18-18
	V349.5H494c9.9,0,18-8.1,18-18v-151c0-9.9-8.1-18-18-18H349.5V18c0-9.9-8.1-18-18-18h-151C170.5,0,162.5,8.1,162.5,18z"/>
</svg>
