<?xml version="1.0" encoding="utf-8"?>
<!-- Generator: Adobe Illustrator 26.0.1, SVG Export Plug-In . SVG Version: 6.00 Build 0)  -->
<svg version="1.1" id="Layer_1" xmlns="http://www.w3.org/2000/svg" xmlns:xlink="http://www.w3.org/1999/xlink" x="0px" y="0px"
	 viewBox="0 0 640 512" style="enable-background:new 0 0 640 512;" xml:space="preserve">
<path d="M608,352V243.9c0-12.7-5.1-24.9-14.1-33.9L494,110.1c-9-9-21.2-14.1-33.9-14.1H416V48c0-26.5-21.5-48-48-48H48
	C21.5,0,0,21.5,0,48v320c0,26.5,21.5,48,48,48h16c0,53,43,96,96,96s96-43,96-96h128c0,53,43,96,96,96s96-43,96-96h32L608,352z
	 M160,464c-26.5,0-48-21.5-48-48s21.5-48,48-48s48,21.5,48,48S186.5,464,160,464z M480,464c-26.5,0-48-21.5-48-48s21.5-48,48-48
	s48,21.5,48,48S506.5,464,480,464z M560,256H416V144h44.1l99.9,99.9V256z"/>
</svg>
