<?xml version="1.0" encoding="utf-8"?>
<!-- Generator: Adobe Illustrator 25.4.1, SVG Export Plug-In . SVG Version: 6.00 Build 0)  -->
<svg version="1.1" id="Layer_1" xmlns="http://www.w3.org/2000/svg" xmlns:xlink="http://www.w3.org/1999/xlink" x="0px" y="0px"
	 viewBox="0 0 640 512" style="enable-background:new 0 0 640 512;" xml:space="preserve">
<path d="M625.9,293.8L421.8,497.9c-18.7,18.7-49.1,18.7-67.9,0l-1.8-1.8l22.6-22.6l1.8,1.8c6.3,6.3,16.4,6.2,22.6,0l204.1-204.1
	c6.2-6.2,6.2-16.4,0-22.6L391.4,36.7c-3-3-7.1-4.7-11.3-4.7h-19.5l-32-32h51.5c12.7,0,24.9,5.1,33.9,14.1l211.9,211.9
	C644.7,244.7,644.7,275.1,625.9,293.8z M252.1,32H48c-8.8,0-16,7.2-16,16v204.1c0,4.3,1.7,8.3,4.7,11.3l211.9,211.9
	c6.3,6.3,16.4,6.2,22.6,0l204.1-204.1c6.2-6.2,6.2-16.4,0-22.6L263.4,36.7C260.4,33.7,256.4,32,252.1,32 M252.1,0
	c12.7,0,24.9,5.1,33.9,14.1l211.9,211.9c18.7,18.7,18.7,49.1,0,67.9L293.8,497.9c-18.7,18.7-49.1,18.7-67.9,0L14.1,286.1
	c-9-9-14.1-21.2-14.1-33.9V48C0,21.5,21.5,0,48,0H252.1z M144,124c-11,0-20,9-20,20s9,20,20,20s20-9,20-20S155,124,144,124 M144,96
	c26.5,0,48,21.5,48,48s-21.5,48-48,48s-48-21.5-48-48S117.5,96,144,96z"/>
</svg>
