<?xml version="1.0" encoding="utf-8"?>
<!-- Generator: Adobe Illustrator 26.0.1, SVG Export Plug-In . SVG Version: 6.00 Build 0)  -->
<svg version="1.1" id="Layer_1" xmlns="http://www.w3.org/2000/svg" xmlns:xlink="http://www.w3.org/1999/xlink" x="0px" y="0px"
	 viewBox="0 0 512 512" style="enable-background:new 0 0 512 512;" xml:space="preserve">
<path d="M144.1,102.6v26c-10.6-3.9-13.3-7.6-13.3-13.8v-0.3C130.8,108.3,134.7,103.7,144.1,102.6z M512.1,54.9v402.2
	c0,30.3-24.6,54.9-54.9,54.9H54.9C24.6,512,0,487.4,0,457.2V54.9C0,24.6,24.6,0,54.9,0h402.2C487.4,0,512,24.6,512.1,54.9z
	 M307.4,217h102.9v-25.4H352v-25.7h43.8v-24.5H352v-14.7c0-6.1,1.9-11.1,5-14.2c2.9-2.8,6.4-4.2,11-4.2c8.2,0,13.8,4.2,20.3,12.7
	l22.5-18.1c-9.3-12.5-21.5-22.1-43.2-22.1c-14.9,0-26.2,4.4-34.1,12.3c-7.5,7.4-11.5,19-11.5,32.8v15.5h-14.6v24.3H322v27.2
	l-14.6,4.8V217z M144.3,157.1v30.5c-11.3-2.2-20.9-7.6-31.3-15.5L98,194c12.7,9.6,28.9,16.2,45.4,18.3v19.4h20v-19
	c24.2-2.5,40.7-16.3,40.7-37.8v-0.3c0-21.6-12.6-33.2-41.7-41.1v-29.1c7.9,2,16.1,6.2,23.8,11.3L199,93.2
	c-10.7-7.4-22.2-12.4-35.8-14.1V67.4h-20v11.4c-24.2,2.4-40.3,16.5-40.3,37.6v0.3C102.9,139.5,116.5,149.8,144.3,157.1z
	 M172.7,360.1l41.3-63.3h-33l-29.9,49.7l-29.4-49.7H87.8l41.1,63.3h-27.4v20.8h35.3v11.9h-35.3v20.8h35.3v17.7h28.5v-17.7h35.3
	v-20.8h-35.3v-11.9h35.3v-20.8H172.7z M419.2,406.7l-21.1-15.5c-8.4,10.4-14.7,15.8-25.9,15.8c-12.1,0-20.9-6.3-25.9-17.6h35.8V370
	h-40c-0.2-1.8-0.2-4.2-0.2-6.3c0-2.2,0-4.6,0.2-6.7h40v-19.3h-35.3c4.8-10.6,13.2-16.9,24.5-16.9c11.1,0,18.2,5.4,25.5,15.2
	l22.3-16.9c-10.2-14.2-23.4-24.6-47.2-24.6c-28.5,0-48,17.8-55.9,43.2h-18v19.4h14.4c-0.2,2.3-0.2,4.8-0.2,7.1c0,2,0,4,0.2,5.9H298
	v19.4h17.6c7.5,26.3,27.5,44,56.9,44C394.6,433.5,408.2,423,419.2,406.7z M175.8,176.6v-0.3c0-6.3-3.3-10.4-13.6-14.2V189
	C171.2,187.5,175.8,183.4,175.8,176.6z"/>
</svg>
