<?xml version="1.0" encoding="utf-8"?>
<!-- Generator: Adobe Illustrator 26.0.1, SVG Export Plug-In . SVG Version: 6.00 Build 0)  -->
<svg version="1.1" id="Layer_1" xmlns="http://www.w3.org/2000/svg" xmlns:xlink="http://www.w3.org/1999/xlink" x="0px" y="0px"
	 viewBox="0 0 512 512" style="enable-background:new 0 0 512 512;" xml:space="preserve">
<path id="Layer_3" d="M136.9,259.3c0-69.9,56.7-126.6,126.6-126.6s126.6,56.7,126.6,126.6s-56.7,126.6-126.6,126.6
	S136.9,329.3,136.9,259.3z M201.6,188.3l45.8,77.1h-30.9V283H252v18.3h-35.5V319H252v21.8h25V319h35.3v-17.6H277v-18.3h35.3v-17.6
	h-31.2l46-77.1h-27.9l-34.4,62.5l-34.4-62.5L201.6,188.3L201.6,188.3z M72.5,256.9c-0.2,41,13.6,80.9,39,113.1
	c8.1,10.4,6.3,25.5-4.1,33.6s-25.4,6.3-33.6-4.1c-32.1-40.6-49.4-90.9-49.2-142.7C24.5,129.3,128.4,25.4,256,25.4
	c15.7,0,31.4,1.7,46.8,4.9l7.6-17.7c1.9-4.3,6.9-6.4,11.2-4.5c1.4,0.6,2.6,1.5,3.5,2.7l49.8,66.3c2.8,3.8,2.1,9.1-1.7,12
	c-1.2,0.9-2.6,1.5-4.1,1.7l-82.3,10c-4.7,0.6-9-2.8-9.5-7.5c-0.2-1.5,0-3,0.6-4.4l5.7-13.4c-9.1-1.4-18.3-2.1-27.6-2.1
	C154.8,73.3,72.5,155.7,72.5,256.9L72.5,256.9z M438.2,114.1L438.2,114.1c-8.2-10.4-23.2-12.2-33.6-4.1
	c-10.4,8.2-12.2,23.2-4.1,33.6l0,0c25.4,32.2,39.2,72.1,39,113.2c0,101.2-82.3,183.5-183.5,183.5c-10.9,0-21.7-1-32.4-2.9l6.1-13.3
	c2-4.3,0.1-9.4-4.2-11.3c-1.4-0.6-2.9-0.9-4.4-0.7l-82.5,7.9c-4.7,0.4-8.2,4.6-7.7,9.3c0.1,1.5,0.7,2.9,1.5,4.2l48.1,67.6
	c1.6,2.3,4.2,3.6,7,3.6c0.3,0,0.5,0,0.8,0c3-0.3,5.7-2.2,7-5l8-17.5c17.3,4.1,35,6.2,52.7,6.2c127.6,0,231.5-103.8,231.5-231.5
	C487.6,205.1,470.3,154.8,438.2,114.1L438.2,114.1z"/>
</svg>
