<?xml version="1.0" encoding="utf-8"?>
<!-- Generator: Adobe Illustrator 25.4.1, SVG Export Plug-In . SVG Version: 6.00 Build 0)  -->
<svg version="1.1" id="Layer_1" xmlns="http://www.w3.org/2000/svg" xmlns:xlink="http://www.w3.org/1999/xlink" x="0px" y="0px"
	 viewBox="0 0 640 512" style="enable-background:new 0 0 640 512;" xml:space="preserve">
<path d="M640,235.9v184.3c0,41-33.6,74.6-74.6,74.6h-400c-41,0-74.6-33.6-74.6-74.6V235.9c0-41,33.6-74.6,74.6-74.6h400
	C606.4,161.3,640,194.9,640,235.9z M58.8,235.9c0-31.3,13.6-59.5,35.1-79c18.7-17.6,43.8-28.5,71.5-28.5h349.7l-12.5-59.7
	c-7.8-37.4-44.8-61.5-82.1-53.7L56.2,91.5c-37.4,7.8-61.5,44.8-53.7,82.1l35.2,167.8c3.1,14.6,10.8,27,21.1,36.5V235.9z
	 M587.7,252.5H143.1v51.3h444.6V252.5z"/>
</svg>
