<?xml version="1.0" encoding="utf-8"?>
<!-- Generator: Adobe Illustrator 26.0.1, SVG Export Plug-In . SVG Version: 6.00 Build 0)  -->
<svg version="1.1" id="Layer_1" xmlns="http://www.w3.org/2000/svg" xmlns:xlink="http://www.w3.org/1999/xlink" x="0px" y="0px"
	 viewBox="0 0 640 512" style="enable-background:new 0 0 640 512;" xml:space="preserve">
<path d="M543.7,200.1C539.7,142.1,491.4,96,432,96c-7.6,0-15.1,0.8-22.4,2.3C377.7,58.3,328.1,32,272,32
	c-84.6,0-155.5,59.7-172.3,139.8C39.9,196.1,0,254.4,0,320c0,88.4,71.6,160,160,160h336c79.5,0,144-64.5,144-144
	C640,274.2,600.8,220.2,543.7,200.1z M496,432H160c-61.9,0-112-50.1-112-112c0-56.4,41.7-103.1,96-110.9V208
	c0-70.7,57.3-128,128-128c53.5,0,99.3,32.8,118.4,79.4c11.2-9.6,25.7-15.4,41.6-15.4c35.3,0,64,28.7,64,64c0,11.8-3.2,22.9-8.8,32.4
	c2.9-0.3,5.9-0.4,8.8-0.4c53,0,96,43,96,96S549,432,496,432z M415.6,192.6H208.4c-11.4,0-20.7,9.3-20.7,20.7v152
	c0,11.4,9.3,20.7,20.7,20.7h207.3c11.4,0,20.7-9.3,20.7-20.7v-152C436.4,201.8,427.1,192.6,415.6,192.6z M270.5,294.5
	c0-2.8,2.3-5.2,5.2-5.2h27.6c2.8,0,5.2,2.3,5.2,5.2v17.3c0,2.8-2.3,5.2-5.2,5.2h-27.6c-2.8,0-5.2-2.3-5.2-5.2V294.5z M256.7,353.2
	c0,2.8-2.3,5.2-5.2,5.2h-31.1c-2.8,0-5.2-2.3-5.2-5.2v-3.5c0-2.8,2.3-5.2,5.2-5.2h31.1c2.8,0,5.2,2.3,5.2,5.2V353.2z M263.6,311.7
	c0,2.8-2.3,5.2-5.2,5.2h-38c-2.8,0-5.2-2.3-5.2-5.2v-17.3c0-2.8,2.3-5.2,5.2-5.2h38c2.8,0,5.2,2.3,5.2,5.2V311.7z M339.6,353.2
	c0,2.8-2.3,5.2-5.2,5.2h-58.7c-2.8,0-5.2-2.3-5.2-5.2v-3.5c0-2.8,2.3-5.2,5.2-5.2h58.7c2.8,0,5.2,2.3,5.2,5.2V353.2z M353.5,311.7
	c0,2.8-2.3,5.2-5.2,5.2h-27.6c-2.8,0-5.2-2.3-5.2-5.2v-17.3c0-2.8,2.3-5.2,5.2-5.2h27.6c2.8,0,5.2,2.3,5.2,5.2V311.7z M408.7,311.7
	c0,2.8-2.3,5.2-5.2,5.2h-38c-2.8,0-5.2-2.3-5.2-5.2v-17.3c0-2.8,2.3-5.2,5.2-5.2h38c2.8,0,5.2,2.3,5.2,5.2V311.7z M408.7,251.3
	c0,5.7-4.6,10.4-10.4,10.4h-34.5c-5.7,0-10.4-4.6-10.4-10.4v-20.7c0-5.7,4.6-10.4,10.4-10.4h34.5c5.7,0,10.4,4.6,10.4,10.4V251.3z"
	/>
</svg>
