<?xml version="1.0" encoding="utf-8"?>
<!-- Generator: Adobe Illustrator 26.0.1, SVG Export Plug-In . SVG Version: 6.00 Build 0)  -->
<svg version="1.1" id="Layer_1" xmlns="http://www.w3.org/2000/svg" xmlns:xlink="http://www.w3.org/1999/xlink" x="0px" y="0px"
	 viewBox="0 0 640 512" style="enable-background:new 0 0 640 512;" xml:space="preserve">
<style type="text/css">
	.st0{display:none;}
</style>
<g id="PLslkM_00000174563852603997387640000007430639995692890274_" class="st0">
</g>
<path d="M455.4,23.9H110.9c-32,0-58,26-58,58v348.5c0,32,26,58,58,58h344.5c32,0,58-26,58-58V81.9C513.4,49.9,487.4,23.9,455.4,23.9
	z M481.4,430.4c0,14.3-11.7,26-26,26H110.9c-14.3,0-26-11.7-26-26v-29.3h47.2c25.6,0,46.5-20.9,46.5-46.6V350
	c0-25.7-20.9-46.6-46.6-46.6H84.9v-91.3h47.2c25.6,0,46.5-20.9,46.5-46.6V161c0-25.7-20.9-46.6-46.6-46.6H84.9V81.9
	c0-14.3,11.7-26,26-26h344.5c14.3,0,26,11.7,26,26V430.4z M330.1,356.2c-58.6,0-106.2-47.6-106.2-106.2
	c0-58.6,47.6-106.2,106.2-106.2S436.3,191.4,436.3,250C436.3,308.6,388.7,356.2,330.1,356.2z M330.1,175.8
	c-40.9,0-74.2,33.3-74.2,74.2s33.3,74.2,74.2,74.2s74.2-33.3,74.2-74.2S371,175.8,330.1,175.8z M373.2,250
	c0,23.8-19.3,43.1-43.1,43.1c-23.8,0-43.1-19.3-43.1-43.1s19.3-43.1,43.1-43.1C353.9,206.9,373.2,226.2,373.2,250z"/>
</svg>
