<?xml version="1.0" encoding="utf-8"?>
<!-- Generator: Adobe Illustrator 26.0.1, SVG Export Plug-In . SVG Version: 6.00 Build 0)  -->
<svg version="1.1" id="Layer_1" xmlns="http://www.w3.org/2000/svg" xmlns:xlink="http://www.w3.org/1999/xlink" x="0px" y="0px"
	 viewBox="0 0 640 512" style="enable-background:new 0 0 640 512;" xml:space="preserve">
<path d="M352,256v105H96V256H64v222.5C64,497,78.3,512,96,512h256c17.7,0,32-15,32-33.5V256H352z M352,478.5c0,0.9-0.3,1.4-0.2,1.5
	l-255.2,0.2c0,0-0.6-0.5-0.6-1.7V393h256V478.5z M544,256v248c0,4.4,3.6,8,8,8h16c4.4,0,8-3.6,8-8V256H544z M635.7,176.1l-91.4-160
	C538.6,6.2,528,0,516.5,0h-393C112,0,101.4,6.2,95.7,16.1l-91.4,160C-7.9,197.5,7.4,224,32,224h0.1H64h32h256h32h160h32h19.9H608
	C632.6,224,647.9,197.5,635.7,176.1z M32.1,192l91.4-160h393L608,192H32.1z"/>
</svg>
