<?xml version="1.0" encoding="utf-8"?>
<!-- Generator: Adobe Illustrator 26.0.1, SVG Export Plug-In . SVG Version: 6.00 Build 0)  -->
<svg version="1.1" id="Layer_1" xmlns="http://www.w3.org/2000/svg" xmlns:xlink="http://www.w3.org/1999/xlink" x="0px" y="0px"
	 viewBox="0 0 640 512" style="enable-background:new 0 0 640 512;" xml:space="preserve">
<path d="M362.6,170.7c-43.7,0-79.2,35.5-79.2,79.2s35.5,79.2,79.2,79.2s79.2-35.5,79.2-79.2S406.3,170.7,362.6,170.7z M362.6,293
	c-23.8,0-43.1-19.3-43.1-43.1s19.3-43.1,43.1-43.1s43.1,19.3,43.1,43.1S386.4,293,362.6,293z M501.4,17.1H119.7
	c-25.7,0-46.5,20.8-46.5,46.5v386.3c0,25.7,20.8,46.5,46.5,46.5h381.8c25.7,0,46.5-20.9,46.4-46.6V63.6
	C547.9,37.9,527.1,17.1,501.4,17.1z M195.2,365.3c0,28-17.4,49.9-39.7,49.9h-50.6v-16.1l-0.1-56.7v-32h50.6
	c22.3,0,39.8,21.9,39.8,49.9V365.3z M195.2,156.3c0,28-17.4,49.9-39.7,49.9h-50.6v-16.1l-0.1-56.7v-32h50.6
	c22.3,0,39.8,21.9,39.8,49.9V156.3z M362.6,370.5c-66.5,0-120.6-54.1-120.6-120.6s54.1-120.6,120.6-120.6s120.6,54.1,120.6,120.6
	S429.1,370.5,362.6,370.5z"/>
</svg>
