<svg id="Layer_1" data-name="Layer 1" xmlns="http://www.w3.org/2000/svg" viewBox="0 0 512 512"><defs><style>.cls-1{fill:#010101;}</style></defs><path class="cls-1" d="M290.02,291.8665v.4118c0,7.4227-4.9518,11.7543-14.647,13.1981V276.6043C286.5066,280.7324,290.02,285.059,290.02,291.8665Zm-48.2575-66.199v.4168c0,6.599,2.8877,10.7222,14.23,14.8454V212.8862C245.88,214.1216,241.762,219.0684,241.762,225.6675Zm148.0794,33.57A126.6188,126.6188,0,1,1,263.2238,132.6183,126.619,126.619,0,0,1,389.8414,259.2371Zm-69.7143,30.9771c0-23.0917-13.4066-35.6746-44.7546-44.1293V214.7418a87.5868,87.5868,0,0,1,25.5726,12.1661l13.8134-24.1287c-11.3424-7.8345-23.7169-13.1981-38.3539-15.0538V175.1475H254.96v11.9577c-25.9894,2.6843-43.3057,17.7381-43.3057,40.4229v.4119c0,24.5405,14.637,35.6746,44.3377,43.7175v32.7869c-12.166-2.4709-22.4864-8.2464-33.62-16.7011l-16.0859,23.5085A103.6464,103.6464,0,0,0,254.96,330.8406V351.67h21.4445V331.2524c25.9794-2.6793,43.7225-17.5247,43.7225-40.6214ZM72.4688,256.8766A181.6369,181.6369,0,0,0,111.4766,370.01a23.9625,23.9625,0,0,1-37.7139,29.5713A229.1415,229.1415,0,0,1,24.5449,256.8766c0-127.625,103.8281-231.4555,231.4512-231.4555a231.3674,231.3674,0,0,1,46.8232,4.8662L310.3809,12.55a8.5614,8.5614,0,0,1,14.7216-1.7832l49.793,66.3A8.5611,8.5611,0,0,1,369.08,90.7077l-82.3125,9.9839a8.562,8.562,0,0,1-8.9063-11.857l5.7178-13.4121a185.1586,185.1586,0,0,0-27.583-2.0781C154.7988,73.3444,72.4688,155.6764,72.4688,256.8766Zm365.72-142.7636-.001-.001a23.9586,23.9586,0,1,0-37.6914,29.5874,181.624,181.624,0,0,1,39.0361,113.1772c0,101.2-82.334,183.5323-183.5361,183.5323a185.04,185.04,0,0,1-32.3643-2.86l6.0879-13.3154a8.561,8.561,0,0,0-8.5967-12.083l-82.5439,7.8515a8.5628,8.5628,0,0,0-6.167,13.4873l48.0625,67.5655a8.5778,8.5778,0,0,0,6.9756,3.5986c.2656,0,.5332-.0127.8105-.0381a8.5841,8.5841,0,0,0,6.9766-4.9629L203.249,482.13a230.83,230.83,0,0,0,52.7471,6.2021c127.6269,0,231.459-103.83,231.459-231.4551A229.1142,229.1142,0,0,0,438.1885,114.113Z"/></svg>