<?xml version="1.0" encoding="utf-8"?>
<!-- Generator: Adobe Illustrator 26.0.1, SVG Export Plug-In . SVG Version: 6.00 Build 0)  -->
<svg version="1.1" id="Layer_1" xmlns="http://www.w3.org/2000/svg" xmlns:xlink="http://www.w3.org/1999/xlink" x="0px" y="0px"
	 viewBox="0 0 576 512" style="enable-background:new 0 0 576 512;" xml:space="preserve">
<path d="M43.9,252.8c2,2.4,5,3.3,7.9,2.8L284.3,66.8l0.1,0.1l3.7-3l2.6,2.1l0.1-0.2l233.8,189.8c2.8,0.5,5.7-0.5,7.5-2.9l10.1-12.4
	c2.8-3.4,2.3-8.4-1.2-11.2l-232.9-190c-11.8-9.5-28.6-9.5-40.4,0L35,229.2c-3.4,2.8-3.9,7.8-1.2,11.2L43.9,252.8z M448,234.7
	l-0.1,213.1h0.1l-96,0.3V319.9c0-8.8-7.1-15.9-16-16l-96-0.3c-8.8,0-16,7.1-16,15.9c0,0,0,0,0,0.1v128.1h-96V234.9l-32,26v202.7
	c0,8.8,7.2,16,16,16h128c8.8,0,16-7.2,16-16v-128l64,0.3V464c0,8.8,7.2,16,16,16l128-0.3c8.8,0,16-7.2,16-16v-203L448,234.7z"/>
</svg>
