<?xml version="1.0" encoding="utf-8"?>
<!-- Generator: Adobe Illustrator 25.4.1, SVG Export Plug-In . SVG Version: 6.00 Build 0)  -->
<svg version="1.1" id="Layer_1" xmlns="http://www.w3.org/2000/svg" xmlns:xlink="http://www.w3.org/1999/xlink" x="0px" y="0px"
	 viewBox="0 0 448 512" style="enable-background:new 0 0 448 512;" xml:space="preserve">
<path d="M400,64h-48V12c0-6.6-5.4-12-12-12h-8c-6.6,0-12,5.4-12,12v52H128V12c0-6.6-5.4-12-12-12h-8c-6.6,0-12,5.4-12,12v52H48
	C21.5,64,0,85.5,0,112v352c0,26.5,21.5,48,48,48h352c26.5,0,48-21.5,48-48V112C448,85.5,426.5,64,400,64z M48,96h352
	c8.8,0,16,7.2,16,16v48H32v-48C32,103.2,39.2,96,48,96z M400,480H48c-8.8,0-16-7.2-16-16V192h384v272C416,472.8,408.8,480,400,480z
	 M148,320h-40c-6.6,0-12-5.4-12-12v-40c0-6.6,5.4-12,12-12h40c6.6,0,12,5.4,12,12v40C160,314.6,154.6,320,148,320z M244,320h-40
	c-6.6,0-12-5.4-12-12v-40c0-6.6,5.4-12,12-12h40c6.6,0,12,5.4,12,12v40C256,314.6,250.6,320,244,320z M340,320h-40
	c-6.6,0-12-5.4-12-12v-40c0-6.6,5.4-12,12-12h40c6.6,0,12,5.4,12,12v40C352,314.6,346.6,320,340,320z M244,416h-40
	c-6.6,0-12-5.4-12-12v-40c0-6.6,5.4-12,12-12h40c6.6,0,12,5.4,12,12v40C256,410.6,250.6,416,244,416z M148,416h-40
	c-6.6,0-12-5.4-12-12v-40c0-6.6,5.4-12,12-12h40c6.6,0,12,5.4,12,12v40C160,410.6,154.6,416,148,416z M340,416h-40
	c-6.6,0-12-5.4-12-12v-40c0-6.6,5.4-12,12-12h40c6.6,0,12,5.4,12,12v40C352,410.6,346.6,416,340,416z"/>
</svg>
