<?xml version="1.0" encoding="utf-8"?>
<!-- Generator: Adobe Illustrator 26.0.1, SVG Export Plug-In . SVG Version: 6.00 Build 0)  -->
<svg version="1.1" id="Layer_1" xmlns="http://www.w3.org/2000/svg" xmlns:xlink="http://www.w3.org/1999/xlink" x="0px" y="0px"
	 viewBox="0 0 478.9 513.2" style="enable-background:new 0 0 478.9 513.2;" xml:space="preserve">
<path d="M108.5,356.7h116.3v-30h-68.5l25.6-19.9c27.8-21.7,41.3-34.7,41.3-61.1v-0.5c0-29.6-21.6-48.7-54.1-48.7
	c-28.1,0-43.1,11.5-58.6,32.7l24.2,19.6c11.7-14.4,20-21.2,32.1-21.2c12.4,0,21.1,7.2,21.1,20.5c0,13.1-7.6,21.7-27.2,37.9
	l-52.3,43.1L108.5,356.7L108.5,356.7z M314.3,356.7h33v-34.1h21.1v-28.2h-21.1v-96.8h-29.2L232,298.1l5.6,24.6h76.8v34H314.3z
	 M272.6,294.4l41.7-49.2v49.2H272.6z M466.8,281.3C466.8,408,364.3,511,238.4,511S10,408,10,281.3c0-58.6,22-114.4,62.1-157.1
	c39.4-42,92.4-67.4,149.4-71.7V12.1c0-3.2,1.7-6.1,4.5-7.7c2.8-1.4,6.1-1.3,8.8,0.4l98.8,64.5c2.4,1.5,3.9,4.3,3.9,7.3
	s-1.5,5.7-3.9,7.3l-98.8,64.5c-2.7,1.7-5.9,1.9-8.8,0.4c-2.9-1.6-4.6-4.5-4.6-7.7v-41c-44.4,4.2-85.5,24.6-116,57.6
	c-31.2,33.8-48.3,77.7-48.3,123.6c0,100.5,81.3,182.3,181.3,182.3s181.3-81.8,181.3-182.3c0-48.1-18.6-93.5-52.3-127.9
	c-9-9.1-8.9-24,0.1-33.1c4.5-4.5,10.4-7,16.8-7c0,0,0,0,0.1,0c6.4,0,12.4,2.5,16.8,7.1C443.5,163.6,466.8,220.8,466.8,281.3z"/>
</svg>
