<?xml version="1.0" encoding="utf-8"?>
<!-- Generator: Adobe Illustrator 26.0.0, SVG Export Plug-In . SVG Version: 6.00 Build 0)  -->
<svg version="1.1" id="Layer_1" xmlns="http://www.w3.org/2000/svg" xmlns:xlink="http://www.w3.org/1999/xlink" x="0px" y="0px"
	 viewBox="0 0 512 512" style="enable-background:new 0 0 512 512;" xml:space="preserve">
<path d="M483.3,340.8c-9.8-8.9-25.2-8.3-35.5,0l-77.1,61.7c-9.4,7.6-21.2,11.7-33.4,11.7h-98.7c-7.3,0-13.4-6-13.4-13.4
	c0-7.3,6-13.3,13.4-13.3h65.3c13.3,0,25.6-9.1,27.8-22.2c2.7-16.7-10.1-31.2-26.4-31.2H171.8c-22.5,0-44.3,7.8-61.8,21.9l-38.8,31.5
	H25c-7.3,0-13.4,6-13.4,13.3v80.1c0,7.3,6,13.4,13.4,13.4h297.7c12.1,0,23.9-4.1,33.4-11.7l126.2-100.9
	C494.9,371.5,495.9,352.1,483.3,340.8 M62.7,363.4l32.2-26.1c21.8-17.6,49.1-27.3,76.9-27.3h19.8c0-0.3,0-0.7,0-1v-28.1
	c0-10.2-5.5-19.5-14.4-24.4c-12.6-6.9-30.3-16.6-42.5-22.7c-9.9-5.1-19.2-11.5-27.5-19l-0.7-0.6c-6-5.3-11.3-11.4-15.8-18
	c-8.2-11.9-21.5-31.6-30.1-44.4c17.8-39.7,50-71.4,90-88.6l20.6,10.3c9.3,4.7,20.2-2,20.2-12.4v-9.7c7-1.2,14.1-1.8,21.4-2.1
	l24.5,24.5c5.4,5.4,5.4,14.3,0,19.7l-4.1,4.1l-9,9c-2.7,2.7-2.7,7.1,0,9.8l4.1,4.1c2.7,2.7,2.7,7.1,0,9.8l-7,7c-1.3,1.3-3.2,2-5,2
	h-7.8c-1.9,0-3.6,0.7-4.9,2l-8.6,8.4c-2.2,2.1-2.8,5.4-1.4,8.1l13.6,27.2c2.2,4.6-1.1,10.1-6.3,10.1H196c-1.6,0-3.2-0.6-4.5-1.7
	l-8.1-7c-3.7-3.2-8.8-4.3-13.5-2.7l-27.2,9c-4.2,1.4-7.1,5.4-7.1,9.8c0,3.9,2.3,7.6,5.8,9.3l9.7,4.8c8.2,4.1,17.3,6.3,26.4,6.3
	c9.2,0,19.7,23.8,27.9,27.9h58.2c7.4,0,14.5,3,19.7,8.2l11.9,11.9c4.9,5,7.7,11.8,7.7,18.8c0,7.2-1.9,14.2-5.4,20.3h7.8
	c14.9,0,29,6.5,38.7,17.9c9.6,11.4,13.8,26.4,11.3,41.2c-1.2,7-3.8,13.4-7.6,19.1c2.8-1.1,5.5-2.6,7.9-4.5l46.5-37.2
	c24.5-36.1,37.7-78.6,37.7-123.1c0-58.7-22.8-113.8-64.3-155.3S278.9,3.8,220.2,3.8S106.4,26.6,64.9,68.1S0.6,164.7,0.6,223.4
	c0,51.7,17.8,100.7,50.4,140H62.7z M338.4,183.6l17.1-25.6c2-2.9,4.8-5.4,8-7l10.9-5.4c11.6,23.3,18.2,49.5,18.1,77.2
	c0,7.6-0.5,15-1.4,22.3l-24.7-6.2c-5-1.3-9.4-4.3-12.3-8.7l-15.7-23.5C333.7,199.8,333.7,190.6,338.4,183.6z"/>
</svg>
