<?xml version="1.0" encoding="utf-8"?>
<!-- Generator: Adobe Illustrator 26.0.1, SVG Export Plug-In . SVG Version: 6.00 Build 0)  -->
<svg version="1.1" id="Layer_1" xmlns="http://www.w3.org/2000/svg" xmlns:xlink="http://www.w3.org/1999/xlink" x="0px" y="0px"
	 viewBox="0 0 496 512" style="enable-background:new 0 0 496 512;" xml:space="preserve">
<path d="M248,10.5C112.4,10.5,2.5,120.4,2.5,256S112.4,501.5,248,501.5S493.5,391.6,493.5,256S383.6,10.5,248,10.5z M326.9,286.6
	c1.4-1.1,3.1-1.6,4.9-1.6h13c3.4,0,6.6,2,7.9,5.2l5.8,13.8c0.7,1.6,2.3,2.7,4,2.7h4.1c1.9,0,3.6-1.3,4.1-3.1l4.5-15.5
	c0.5-1.8,2.2-3.1,4.1-3.1h6.5c2.4,0,4.3,1.9,4.3,4.3v13.8c0,2.4,0.9,4.5,2.5,6.1l12.7,12.7c3.3,3.3,5.1,7.6,4.9,11.9v26.3
	c0,4.5-1.8,8.9-5,12.1l-10.3,10.3c-3.2,3.2-7.6,5-12.1,5h-16.3c-4.5,0-8.9-1.8-12.1-5l-13.9-13.9c-7.1-7.1-17.5-10-27.2-7.5
	l-22.8,5.7c-1.4,0.3-2.8,0.5-4.2,0.5h-11c-4.5,0-8.9-1.8-12.1-5l-12.7-12.7c-1.6-1.6-2.5-3.9-2.5-6.1v-10.9c0-3.4,2.2-6.6,5.4-7.9
	l42.1-16.8c2.1-0.7,4.2-1.9,6-3.2L326.9,286.6z M108.3,116.3c37.4-37.3,87-57.8,139.7-57.8c17.5,0,34.6,2.3,51,6.6L258.7,96
	c-5.4,3.7-4.9,11.8,1,14.8l11.6,5.8c5.8,2.9,9.4,8.8,9.4,15.3v83.6c0,4.7-3.9,8.6-8.6,8.6h-3.3c-3.2,0-6.1-1.8-7.6-4.7
	c-1.7-3.3-6.4-3.5-8.3-0.3L234.3,250c-3.1,5.2-8.7,8.3-14.7,8.3h-0.3c-4.5,0-8.9,1.8-12.1,5l-6.1,6.1c-3.3,3.3-3.3,8.8,0,12.1
	l6.1,6.1c3.2,3.2,5,7.6,5,12.1v10.1c0,9.4-7.7,17.1-17.1,17.1h-6.5c-6.5,0-12.4-3.7-15.3-9.5L149.1,269c-2.6-5.2-9.5-6.4-13.7-2.2
	l-20.9,20.9c-3.2,3.2-7.6,5-12.1,5H53.9c-2.2-12-3.4-24.2-3.4-36.7C50.5,203.2,71,153.6,108.3,116.3z"/>
</svg>
