<?xml version="1.0" encoding="utf-8"?>
<!-- Generator: Adobe Illustrator 26.0.0, SVG Export Plug-In . SVG Version: 6.00 Build 0)  -->
<svg version="1.1" id="Layer_1" xmlns="http://www.w3.org/2000/svg" xmlns:xlink="http://www.w3.org/1999/xlink" x="0px" y="0px"
	 viewBox="0 0 512 512" style="enable-background:new 0 0 512 512;" xml:space="preserve">
<path d="M472,354.3c-7.9-7.1-18.2-11-28.9-11c-10.3,0-20.4,3.5-28.4,10l-50.6,40.5c-1.6,1.2-3.5,1.9-5.5,1.9h-34.2
	c3.8-7.9,5.3-17,3.9-26.5C325,346.3,304,330,280.8,330H162.3c-17.1,0-33.7,5.5-47.3,15.8l-31.6,23.7H20c-3.6,0-6.6,3-6.6,6.6v13.1
	c0,3.6,3,6.6,6.6,6.6h72.3l38.5-28.9c9.1-6.8,20.2-10.5,31.5-10.5h120.5c10.9,0,19.7,8.8,19.7,19.7c0,10.9-8.8,19.7-19.7,19.7h-72.3
	c-7.2,0-13.1,5.9-13.1,13.1s5.9,13.1,13.1,13.1h148c8,0,15.7-2.7,21.9-7.6L431,374c3.5-2.8,7.8-4.3,12-4.3c4.1,0,8.1,1.4,11.3,4.3
	c8.3,7.5,7.6,20.1-0.7,26.8L370.9,467c-6.2,5-14,7.6-21.9,7.6H20c-3.6,0-6.6,3-6.6,6.6v13.1c0,3.6,3,6.6,6.6,6.6h329
	c14,0,27.4-4.8,38.3-13.5l82.9-66.3c10-8.1,16-20,16.4-32.9C487,375.5,481.6,363,472,354.3 M75.5,345.4l7.9-5.9
	c-26.6-31.3-42.7-71.9-42.7-116.1c0-25,5.1-48.8,14.4-70.5c9,13.4,21.3,31.6,29.1,43.1c4.8,7,10.3,13.4,16.7,19l0.7,0.6
	c8.7,7.9,18.6,14.7,29,20c12.9,6.4,31.6,16.8,44.8,24c9.3,5.2,15.1,14.9,15.1,25.7V306h90.4c8.4,0,16.6,1.4,24.1,4.1
	c2-5,3-10.3,3-15.8c0-7.4-2.9-14.6-8.1-19.8l-12.6-12.6c-5.5-5.5-13-8.6-20.7-8.6h-61.4c-8.6-4.3-19.8-29.3-29.3-29.3
	c-9.6,0-19.2-2.3-27.8-6.6l-10.2-5.1c-3.7-1.8-6.1-5.7-6.1-9.9c0-4.7,3-8.9,7.5-10.4l28.6-9.5c5-1.6,10.4-0.5,14.2,2.8l8.5,7.4
	c1.4,1.2,3,1.8,4.8,1.8h5.2c5.5,0,9-5.8,6.6-10.7l-14.3-28.6c-1.4-2.8-0.8-6.3,1.5-8.5l9.1-8.8c1.4-1.4,3.2-2.1,5.2-2.1h8.2
	c1.9,0,3.9-0.7,5.3-2.1l7.3-7.3c2.8-2.8,2.8-7.5,0-10.4l-4.3-4.4c-2.8-2.8-2.8-7.5,0-10.4l9.4-9.4l4.4-4.3c5.7-5.7,5.7-15,0-20.7
	l-22.9-22.9c1.4,0,2.7-0.1,4.1-0.1c70.3,0,131.3,40.6,160.8,99.7l-9,4.5c-3.4,1.7-6.3,4.4-8.4,7.4l-18,27c-5,7.4-5,17.1,0,24.5
	l16.6,24.8c3,4.6,7.7,7.8,13,9.1l23.2,5.8c-5.2,40-23.6,75.9-50.6,103.2c2.1,5.1,3.6,10.4,4.4,16c0.3,2,0.5,4,0.6,5.9h0.6l46.4-37.1
	c0.3-0.2,0.6-0.5,0.9-0.7c19.8-32.2,31.2-70,31.2-110.5c0-116.7-94.9-211.6-211.6-211.6S8.6,106.7,8.6,223.4
	c0,45.4,14.4,87.5,38.8,122H75.5z M190.7,46.2v7.2c0,11-11.5,18-21.3,13.1l-18-9C163.9,52.3,177,48.5,190.7,46.2z"/>
</svg>
