<?xml version="1.0" encoding="utf-8"?>
<!-- Generator: Adobe Illustrator 25.4.1, SVG Export Plug-In . SVG Version: 6.00 Build 0)  -->
<svg version="1.1" id="Layer_1" xmlns="http://www.w3.org/2000/svg" xmlns:xlink="http://www.w3.org/1999/xlink" x="0px" y="0px"
	 viewBox="0 0 640 512" style="enable-background:new 0 0 640 512;" xml:space="preserve">
<path d="M630.3,227.1h-40.9c-8.9,0-16.2,0-16.2,0s-0.3,7.3-0.7,16.2c0,0-5.5,128.2-105.8,206.3C290.5,579,136.5,467,136.5,467
	c-7.2-5.2-6.2-7,2.1-4c0,0,136.2,49.6,239.2-41.4c88.1-77.8,81.9-178.2,81.9-178.2c-0.5-8.9-1-16.1-1.1-16.1s-7.4,0-16.3,0h-42.5
	c-8.9,0-12-5.9-6.9-13.2L505.3,54.6c5.1-7.2,13.5-7.3,18.7,0L636.9,214C642.2,221.2,639.2,227.1,630.3,227.1L630.3,227.1z
	 M101.3,452.1c4.4-13.5,17.1-22.5,31.5-22.5c3.3,0,6.6,0.4,10.3,1.4c-30.3-20.3-55-48.3-71.2-81.3h69.9
	c6.1,33.5,15.6,63.6,27.6,88.7c13.7,3,33.6,6.2,56.4,6.2c1.4,0,2.8,0,4.2,0c-14.2-19.6-28.4-52-37.3-94.9h131.6
	c-7.5,35.9-18.7,64.6-30.5,84.4c23.3-7.8,44.4-20,63-36.4c3.1-2.7,6.1-5.6,9-8.4c3.6-12.6,6.7-25.8,9.3-39.6h22.4
	c9.5-15.5,17-32.1,22.2-49.9h-38.3c1-13.6,1.8-27.4,1.8-41.6c0-0.6,0-1.2,0-1.9c-8.8-3.5-16-9.7-20.3-18c-6.9-13.2-5.4-29.1,4-42.5
	l0,0l20.5-29.1H375c-7-38-18.2-71.6-32.5-98.5c29,12.9,54.5,32.2,74.7,56.2l29.7-42.2c-47-50.6-114.1-82.1-188.5-82.1
	c-142.5,0-258,115.5-258,258c0,82.6,38.8,156.2,99.3,203.4C99.8,458.3,100.3,455.2,101.3,452.1z M258.4,50
	c19.3,0,50.5,42.9,65.7,116.5H192.7C207.8,92.9,239,50,258.4,50z M185.5,216.5h145.9c1.1,13.3,2,27,2,41.6s-0.9,28.3-2.1,41.6H185.5
	c-1.1-13.3-2-27-2-41.6S184.3,229.8,185.5,216.5z M174.2,68c-14.2,26.9-25.5,60.5-32.5,98.5H71.8C93.4,122.9,129.6,87.8,174.2,68z
	 M50.4,258.1c0-14.2,1.5-28.2,4.2-41.6h80.8c-1,13.6-1.8,27.4-1.8,41.6s0.7,28,1.8,41.6H54.6C51.8,286.3,50.4,272.3,50.4,258.1z"/>
</svg>
