<?xml version="1.0" encoding="utf-8"?>
<!-- Generator: Adobe Illustrator 26.0.1, SVG Export Plug-In . SVG Version: 6.00 Build 0)  -->
<svg version="1.1" id="Layer_1" xmlns="http://www.w3.org/2000/svg" xmlns:xlink="http://www.w3.org/1999/xlink" x="0px" y="0px"
	 viewBox="0 0 496 512" style="enable-background:new 0 0 496 512;" xml:space="preserve">
<path d="M421.6,82.4C375.2,36,313.5,10.5,248,10.5S120.8,36,74.4,82.4S2.5,190.4,2.5,256c0,65.5,25.6,127.2,71.9,173.6
	c46.4,46.4,108,71.9,173.6,71.9s127.3-25.6,173.6-71.9c46.4-46.4,71.9-108,71.9-173.6S468,128.8,421.6,82.4z M399,407
	c-40.4,40.3-94,62.5-151,62.5c-103.8,0-190.6-74.5-209.6-172.9h27.5h2.6h57.4c4,0,8-1.6,10.8-4.5l18.7-18.7c3.7-3.7,10-2.7,12.3,2
	l21.6,43.3c2.6,5.2,7.9,8.5,13.7,8.5h5.8c8.4,0,15.3-6.9,15.3-15.3v-9c0-4-1.6-8-4.5-10.8l-5.5-5.5c-3-3-3-7.9,0-10.8l5.5-5.5
	c2.9-2.9,6.8-4.5,10.8-4.5h0.3c5.4,0,10.3-2.8,13.1-7.5l16.7-27.7c1.7-2.9,5.9-2.7,7.5,0.3c1.3,2.6,3.9,4.2,6.8,4.2h3
	c4.2,0,7.7-3.4,7.7-7.7v-74.8c0-5.8-3.3-11.1-8.4-13.7l-10.3-5.2c-5.3-2.7-5.7-10-0.9-13.2l44.3-34l28.4-24.2
	c22.2,10.4,42.7,24.7,60.5,42.5c40.3,40.4,62.5,93.9,62.5,151S439.3,366.7,399,407z M408.2,340.4V364c0,4-1.6,8-4.5,10.8l-9.2,9.2
	c-2.9,2.9-6.8,4.5-10.8,4.5h-14.6c-4,0-8-1.6-10.8-4.5l-12.5-12.5c-6.3-6.3-15.6-8.9-24.3-6.7l-20.4,5.1c-1.2,0.3-2.5,0.5-3.7,0.5
	h-9.9c-2.4,0-4.8-0.6-6.9-1.7l-10.4-9.3l-5-5c-1.4-1.4-2.2-3.4-2.2-5.5v-9.8c0-3.1,1.9-5.9,4.8-7.1l7.2-2.9v0l13.9-5.5v0l16.6-6.6
	c1.9-0.7,3.7-1.7,5.4-2.9l22.7-16.2c1.2-1,2.8-1.4,4.4-1.4h11.6c3.1,0,5.9,1.8,7.1,4.7l5.1,12.4c0.6,1.4,2,2.4,3.5,2.4h3.6
	c1.6,0,3.2-1.1,3.6-2.8l4-13.9c0.5-1.6,1.9-2.8,3.6-2.8h5.8c2.1,0,3.8,1.7,3.8,3.8v12.4c0,2.1,0.8,4,2.2,5.5l11.4,11.4
	C406.4,332.6,408,336.5,408.2,340.4z"/>
</svg>
