<?xml version="1.0" encoding="utf-8"?>
<!-- Generator: Adobe Illustrator 25.4.1, SVG Export Plug-In . SVG Version: 6.00 Build 0)  -->
<svg version="1.1" id="Layer_1" xmlns="http://www.w3.org/2000/svg" xmlns:xlink="http://www.w3.org/1999/xlink" x="0px" y="0px"
	 viewBox="0 0 512 512" style="enable-background:new 0 0 512 512;" xml:space="preserve">
<style type="text/css">
	.st0{fill-rule:evenodd;clip-rule:evenodd;}
</style>
<path class="st0" d="M268.6,325c-6.3,9.4-18.8,9.4-25.1,0c-15.7-22-25.1-40.8-37.7-56.5c-56.5-81.6-65.9-100.4-65.9-141.2
	C139.9,61.5,190.1,5,256,5c65.9,0,116.1,53.3,116.1,122.4c0,40.8-12.6,56.5-65.9,138.1C296.8,284.2,284.2,303.1,268.6,325z
	 M205.8,130.5c0,28.2,22,50.2,50.2,50.2c28.2,0,50.2-22,50.2-50.2s-22-50.2-50.2-50.2S205.8,102.3,205.8,130.5z M61.5,96
	c-22,0-37.7,18.8-37.7,37.6v260.4c0,22,15.7,37.6,37.7,37.6h156.9l-12.6,37.6h-59.6c-12.6,0-18.8,9.4-18.8,18.8
	c0,12.6,9.4,18.8,18.8,18.8h219.6c9.4,0,18.8-9.4,18.8-18.8c0-9.4-9.4-18.8-18.8-18.8h-59.6l-12.6-37.6h156.9
	c22,0,37.7-15.7,37.7-37.6V133.6c0-22-18.8-37.6-37.7-37.6h-15.7c-15.7,0-25.1,12.6-25.1,25.1c0,15.7,12.6,25.1,25.1,25.1h3.1v232.2
	H74V146.2h12.6c15.7,0,25.1-12.6,25.1-25.1c0-15.7-12.6-25.1-25.1-25.1H61.5z"/>
</svg>
