<?xml version="1.0" encoding="utf-8"?>
<!-- Generator: Adobe Illustrator 26.5.0, SVG Export Plug-In . SVG Version: 6.00 Build 0)  -->
<svg version="1.1" id="Layer_1" xmlns="http://www.w3.org/2000/svg" xmlns:xlink="http://www.w3.org/1999/xlink" x="0px" y="0px"
	 viewBox="0 0 512 512" style="enable-background:new 0 0 512 512;" xml:space="preserve">
<path d="M210.9,442.8C155.7,440.5,104.2,418,65,378.7C23.4,337.2,0.6,282.1,0.6,223.4S23.4,109.6,64.9,68.1S161.5,3.8,220.2,3.8
	S334,26.6,375.5,68.1c36.7,36.7,58.8,84.1,63.4,135.2c-2.6-1.3-5.2-2.4-7.9-3.6c-13.5-5.7-27.6-9.7-42-11.8
	c-3.1-14.9-8-29-14.6-42.3l-10.9,5.4c-3.2,1.6-6,4.1-8,7l-17.1,25.6c-1,1.4-1.7,3-2.3,4.5c-13.8,2.2-27.3,6-40.3,11.6
	c-20.7,8.7-39.2,21.3-55.2,37.2c-4.4,4.4-8.6,9.1-12.5,13.9h-22.7c-8.2-4.1-18.7-27.9-27.9-27.9c-9.1,0-18.2-2.2-26.4-6.3l-9.7-4.8
	c-3.5-1.7-5.8-5.4-5.8-9.3c0-4.4,2.9-8.4,7.1-9.8l27.2-9c4.7-1.6,9.8-0.5,13.5,2.7l8.1,7c1.3,1.1,2.9,1.7,4.5,1.7h4.9
	c5.2,0,8.5-5.5,6.3-10.1l-13.6-27.2c-1.4-2.7-0.8-6,1.4-8.1l8.6-8.4c1.3-1.3,3-2,4.9-2h7.8c1.8,0,3.7-0.7,5-2l7-7
	c2.7-2.7,2.7-7.1,0-9.8l-4.1-4.1c-2.7-2.7-2.7-7.1,0-9.8l9-9l4.1-4.1c5.4-5.4,5.4-14.3,0-19.7l-24.5-24.5
	c-7.3,0.3-14.4,0.9-21.4,2.1v9.7c0,10.4-10.9,17.1-20.2,12.4l-20.6-10.3c-40,17.2-72.2,48.9-90,88.6c8.6,12.8,21.9,32.5,30.1,44.4
	c4.5,6.6,9.8,12.7,15.8,18l0.7,0.6c8.3,7.5,17.6,13.9,27.5,19c12.2,6.1,29.9,15.8,42.5,22.7c8.9,4.9,14.4,14.2,14.4,24.4V309
	c0,4,0.9,7.9,2.5,11.5c-3,12.8-4.4,25.9-4.4,39.2c0,23.4,4.6,46.2,13.7,67.6C205.6,432.6,208.1,437.8,210.9,442.8z M505,359.6
	c0-78.1-63.5-141.6-141.6-141.6s-141.6,63.5-141.6,141.6s63.5,141.6,141.6,141.6S505,437.7,505,359.6z M457,359.6
	c0,51.6-42,93.6-93.6,93.6s-93.6-42-93.6-93.6s42-93.6,93.6-93.6S457,308,457,359.6z M410.2,381.8c-0.3-2.5-1.5-4.6-3.4-6.1
	l-25.9-18.7v-56.6c0-5.2-4.3-9.5-9.5-9.5h-12.9c-5.2,0-9.5,4.3-9.5,9.5v62.7c0,5.8,2.6,11.2,7.1,14.9l30.8,22.5c1.7,1.3,3.8,2,5.9,2
	c0.3,0,0.7,0,1-0.1c2.5-0.3,4.8-1.5,6.3-3.5l8.1-10.1l0,0C409.8,387,410.6,384.4,410.2,381.8z"/>
</svg>
