<?xml version="1.0" encoding="utf-8"?>
<!-- Generator: Adobe Illustrator 26.0.1, SVG Export Plug-In . SVG Version: 6.00 Build 0)  -->
<svg version="1.1" id="Layer_1" xmlns="http://www.w3.org/2000/svg" xmlns:xlink="http://www.w3.org/1999/xlink" x="0px" y="0px"
	 viewBox="0 0 496 512" style="enable-background:new 0 0 496 512;" xml:space="preserve">
<path d="M248,10.5C112.4,10.5,2.5,120.4,2.5,256S112.4,501.5,248,501.5S493.5,391.6,493.5,256S383.6,10.5,248,10.5z M213.6,45.3
	l0.4,16.2c0,12.4-13.1,20.5-24.3,15l-26.5-15c-0.4-0.3-0.9-0.6-1.3-0.9c1-0.4,1.9-0.9,2.9-1.3C180.6,52.6,196.9,47.9,213.6,45.3z
	 M97,407c-19.6-19.6-35-42.5-45.8-67.9c-11.1-26.3-16.8-54.3-16.8-83.1s5.6-56.8,16.8-83.1c0.3-0.7,0.6-1.3,0.9-2
	c10.8,15.5,31.4,39.3,40.8,53c5.4,7.9,11.7,15.3,18.9,21.7l0.8,0.7c9.9,9,21.1,16.7,33.1,22.8c14.6,7.3,36,19,51,27.3
	c10.7,5.9,17.3,17,17.3,29.3v33.5c0,8.9,3.6,17.4,9.8,23.6c15.7,15.8,25.4,40.5,23.6,53.7v33c-28.7-0.1-56.4-5.7-82.6-16.8
	C139.5,442,116.7,426.6,97,407z M399,407c-19.6,19.6-42.5,35-67.9,45.8c-12.1,5.1-24.5,9.1-37.2,11.8l16.5-53.4
	c2.1-5.8,3.5-11.7,5-17.7c1.2-4.2,3.3-8.1,6.5-11.2l11.8-11.8c9.2-9.1,14.3-21.5,14.3-34.5c0-8.5-3.3-16.6-9.3-22.6L324.4,299
	c-6.3-6.3-14.7-9.8-23.6-9.8h-70c-9.8-4.9-22.5-33.5-33.5-33.5s-21.9-2.6-31.7-7.5l-11.6-5.8c-4.2-2.1-6.9-6.5-6.9-11.2
	c0-5.3,3.5-10.1,8.6-11.8l32.6-10.9c5.6-1.9,11.8-0.6,16.2,3.2l9.7,8.5c1.6,1.4,3.5,2.1,5.4,2.1h5.9c6.3,0,10.3-6.6,7.5-12.1
	l-16.3-32.6c-1.7-3.2-0.9-7.2,1.7-9.7l10.4-10c1.6-1.6,3.7-2.4,5.9-2.4h9.4c2.2,0,4.4-0.8,6-2.4l8.4-8.4c3.2-3.2,3.2-8.6,0-11.8
	l-4.9-4.9c-3.2-3.2-3.2-8.6,0-11.8l10.8-10.8l4.9-4.9c6.5-6.5,6.5-17.2,0-23.6l-29.8-34.1c2.9-0.1,5.8-0.2,8.7-0.2
	c28.8,0,56.8,5.6,83.1,16.8c25.2,10.6,48,26,67.7,45.6c16.4,16.4,29.8,34.9,40,55.4l-8,3.9c-14.1,6.9-17.4,9.9-19.8,13.4l-20.5,30.8
	c-5.6,8.5-5.6,19.5,0,27.8l18.8,28.2c3.5,5.2,8.8,8.9,14.7,10.5l35.6,7.5c-2.4,19.5-7.5,38.4-15.1,56.6
	C434,364.5,418.6,387.3,399,407z"/>
</svg>
