<?xml version="1.0" encoding="utf-8"?>
<!-- Generator: Adobe Illustrator 26.5.0, SVG Export Plug-In . SVG Version: 6.00 Build 0)  -->
<svg version="1.1" id="Layer_1" xmlns="http://www.w3.org/2000/svg" xmlns:xlink="http://www.w3.org/1999/xlink" x="0px" y="0px"
	 viewBox="0 0 512 512" style="enable-background:new 0 0 512 512;" xml:space="preserve">
<path d="M363.4,493.2c-73.7,0-133.6-59.9-133.6-133.6S289.7,226,363.4,226S497,285.9,497,359.6S437.1,493.2,363.4,493.2z M363.4,258
	c-56,0-101.6,45.6-101.6,101.6s45.6,101.6,101.6,101.6S465,415.6,465,359.6S419.4,258,363.4,258z M210.8,424.1
	c-3-7.2-5.5-14.5-7.5-21.9c-91.2-8.5-162.7-85.5-162.7-178.8c0-25.7,5.4-50.1,15.2-72.2c9,13.3,22.3,33.1,30.5,45.2
	c4.7,6.9,10.1,13.2,16.4,18.7l0.7,0.6c8.6,7.8,18.3,14.5,28.6,19.7c12.7,6.3,31.1,16.5,44.1,23.6c9.2,5.1,14.9,14.7,14.9,25.3v28.9
	c0,7.7,3.1,15,8.5,20.4c0.1,0.1,0.2,0.2,0.3,0.3c2.1-13.3,5.8-26.3,11-38.8c6.6-15.4,15.3-29.6,26-42.3h-31.3
	c-8.5-4.2-19.5-28.9-28.9-28.9c-9.5,0-18.9-2.3-27.4-6.5l-10-5c-3.6-1.8-6-5.6-6-9.7c0-4.6,3-8.8,7.4-10.2l28.2-9.4
	c4.9-1.6,10.2-0.5,14,2.8l8.4,7.3c1.4,1.2,3,1.8,4.7,1.8h5.1c5.4,0,8.9-5.7,6.5-10.5l-14.1-28.2c-1.4-2.8-0.8-6.2,1.5-8.4l9-8.7
	c1.4-1.4,3.2-2.1,5.1-2.1h8.1c1.9,0,3.8-0.7,5.2-2.1l7.2-7.2c2.8-2.8,2.8-7.4,0-10.2l-4.2-4.3c-2.8-2.8-2.8-7.4,0-10.2l9.3-9.3
	l4.3-4.2c5.6-5.6,5.6-14.8,0-20.4l-25.3-25.3c2.2-0.1,4.4-0.1,6.6-0.1c70.4,0,131.4,40.7,160.8,99.7l-11.2,5.6
	c-3.3,1.7-6.2,4.3-8.3,7.3L343.8,183c-2.6,3.8-3.8,8.2-3.7,12.6c7.7-1.1,15.4-1.6,23.3-1.6c22.3,0,44,4.4,64.5,13
	c1.1,0.5,2.3,1,3.4,1.5C423.6,98.7,331.9,11.8,220.2,11.8C103.5,11.8,8.6,106.7,8.6,223.4c0,115.2,92.6,209.2,207.2,211.5
	C214,431.4,212.4,427.8,210.8,424.1z M191.3,46.1V56c0,10.8-11.3,17.7-21,12.9l-21.1-10.5C162.5,52.7,176.6,48.5,191.3,46.1z
	 M408.7,382.5c-0.5-2.9-2-5.5-4.4-7.1l-25.2-17.9V302c0-6.1-4.9-11-11-11h-5.9c-6.1,0-11,4.9-11,11v64.1c0,3.5,1.6,6.7,4.6,8.9
	l32.2,23c1.9,1.3,4.1,2.1,6.4,2.1c3.4,0,6.6-1.6,8.7-4.2l3.6-5C408.5,388.4,409.2,385.5,408.7,382.5z"/>
</svg>
