<?xml version="1.0" encoding="utf-8"?>
<!-- Generator: Adobe Illustrator 26.0.1, SVG Export Plug-In . SVG Version: 6.00 Build 0)  -->
<svg version="1.1" id="Layer_1" xmlns="http://www.w3.org/2000/svg" xmlns:xlink="http://www.w3.org/1999/xlink" x="0px" y="0px"
	 viewBox="0 0 496 512" style="enable-background:new 0 0 496 512;" xml:space="preserve">
<path d="M248,10.5C112.4,10.5,2.5,120.4,2.5,256S112.4,501.5,248,501.5S493.5,391.6,493.5,256S383.6,10.5,248,10.5z M433,324.9
	c-4.6,0-9.1-1.8-12.3-5.2l-34.4-35.2c-4.9-5.1-4.9-13.1,0.1-18l13.5-13.5v-9.4c0-3.2-1.3-6.4-3.6-8.6l-10-10
	c-2.3-2.3-5.4-3.6-8.6-3.6h-17.3c-6.7,0-12.2-5.5-12.2-12.2c0-3.2,1.3-6.4,3.6-8.6l10.1-10.1c2.3-2.3,5.4-3.6,8.6-3.6H405
	c6.7,0,12.2-5.5,12.2-12.2v-10.1c0-6.7-5.5-12.2-12.2-12.2h-39.6c-9.5,0-17.3,7.8-17.3,17.3v4.9c0,7.4-4.7,14-11.8,16.4l-34.1,11.3
	c-3.6,1.2-5.9,4.5-5.9,8.2v2.4c0,4.7-3.9,8.6-8.6,8.6h-17.3c-4.7,0-8.6-3.9-8.6-8.6s-3.9-8.6-8.6-8.6H250c-3.3,0-6.3,1.8-7.8,4.7
	l-10.1,20.2c-2.9,5.8-8.8,9.5-15.4,9.5h-23.8c-9.5,0-17.3-7.8-17.3-17.3V194c0-4.5,1.8-9,5.1-12.2l21.7-21.7
	c5-5.1,7.8-11.8,7.8-18.9c0-3.8,2.4-7,5.9-8.2l43.2-14.3c1.8-0.5,3.5-1.6,4.7-2.9l28.9-28.9c2.3-2.3,3.6-5.4,3.6-8.6
	c0-6.8-5.5-12.2-12.2-12.2H262l-17.3,17.3V92c0,4.7-3.9,8.6-8.6,8.6h-17.3c-4.7,0-8.6-3.9-8.6-8.6V70.3c0-2.7,1.3-5.3,3.5-6.9
	l3.3-2.5c10.2-1.6,20.5-2.4,31-2.4c52.8,0,102.4,20.5,139.7,57.8s57.8,86.9,57.8,139.7c0,23.9-4.2,47.2-12.3,68.9H433z M124.3,136.9
	c0-3.1,1.3-6.2,3.4-8.4l26.5-26.5c2.2-2.2,5.2-3.4,8.4-3.4c6.5,0,11.8,5.3,11.8,11.8v16.7c0,3.1-1.3,6.2-3.4,8.4l-9.8,9.8
	c-2.2,2.2-5.2,3.4-8.4,3.4h-16.7C129.6,148.7,124.3,143.4,124.3,136.9z M244.6,445.6h-21.8c-11.7,0-28.9-5.7-38.2-12.7l-24-18
	c-12.4-9.3-19.6-23.8-19.6-39.3v-25.8c0-17.3,9.1-33.2,23.8-42.1l46.3-27.7c7.7-4.6,16.4-7,25.2-7H270c11.8,0,23.1,4.1,31.9,11.8
	l46.6,40h19.7c9.2,0,17.9,3.7,24.4,10.1l18.7,18.7c1.8,1.8,3.9,3.2,6.1,4.1c-8.2,13.7-18.2,26.4-29.7,38
	c-34.7,34.7-80.1,54.9-128.8,57.5C255.8,448.6,250.5,445.6,244.6,445.6z"/>
</svg>
