<?xml version="1.0" encoding="utf-8"?>
<!-- Generator: Adobe Illustrator 26.0.1, SVG Export Plug-In . SVG Version: 6.00 Build 0)  -->
<svg version="1.1" id="Layer_1" xmlns="http://www.w3.org/2000/svg" xmlns:xlink="http://www.w3.org/1999/xlink" x="0px" y="0px"
	 viewBox="0 0 576 512" style="enable-background:new 0 0 576 512;" xml:space="preserve">
<style type="text/css">
	.st0{display:none;}
</style>
<path class="st0" d="M263.2,300.2c-29.6-34.7-54.7-68.5-72.6-97.8c-31-50.6-31-72.6-31-79.8c0-67.8,57.4-123,128-123
	s128,55.2,128,123c0,7.2,0,29.2-31,79.8c-18,29.3-43.1,63.1-72.6,97.8l-24.3,28.6L263.2,300.2z"/>
<path class="st0" d="M287.5,31.6c52.9,0,96,40.8,96,91c0,27-38.1,88.9-96,156.8c-57.9-67.9-96-129.8-96-156.8
	C191.5,72.4,234.6,31.6,287.5,31.6L287.5,31.6z"/>
<path d="M560,160c-2,0-4,0.4-6,1.2l-138.1,51c-1.3,2.3-2.7,4.6-4.1,6.9c-11.9,19.4-26.7,40.6-43.8,62.7v194.4l-160-56.5V283.1
	c-11.8-15.2-22.5-30-32-44.1v180.8L31.9,473l-1.3-226.9l123.3-42.8c-6-10.8-10.7-20.4-14.3-28.9L20.1,216C8,220.8,0,232.6,0,245.7
	V496c0,9.2,7.5,16,16,16c2,0,4-0.4,6-1.2L192,448l172,60.7c13,4.3,27,4.4,40,0.2L555.9,456c12.2-4.9,20.1-16.6,20.1-29.7V176
	C576,166.8,568.5,160,560,160z M400,476.4V252.2L544.1,199l1.3,226.9L400,476.4z M208,230.4c22.9,36.3,52.1,68,67.7,85.7
	c3.2,3.7,7.8,5.5,12.3,5.5s9-1.8,12.3-5.5c12.8-14.5,33.7-39.1,54.3-66.9l19.1-27.2c23.3-34.9,42.3-71.2,42.3-97.4
	c0-68-57.3-123-128-123s-128,55.1-128,123c0,11.8,3.2,26.2,10.4,40.6C178.8,182.1,197.9,214.5,208,230.4z M288,281.4
	c-57.9-67.9-96-129.8-96-156.8c0-50.2,43.1-91,96-91l0,0c52.9,0,96,40.8,96,91C384,151.6,345.9,213.5,288,281.4 M288,105.6
	c13.3,0,24,10.7,24,24s-10.7,24-24,24s-24-10.7-24-24S274.7,105.6,288,105.6z"/>
</svg>
