<?xml version="1.0" encoding="utf-8"?>
<!-- Generator: Adobe Illustrator 26.0.1, SVG Export Plug-In . SVG Version: 6.00 Build 0)  -->
<svg version="1.1" id="Layer_1" xmlns="http://www.w3.org/2000/svg" xmlns:xlink="http://www.w3.org/1999/xlink" x="0px" y="0px"
	 viewBox="0 0 512 512" style="enable-background:new 0 0 512 512;" xml:space="preserve">
<path d="M256.5,49.7C143,49.7,50.6,142.1,50.6,255.6S143,461.5,256.5,461.5s205.9-92.4,205.9-205.9S370,49.7,256.5,49.7
	 M256.5,509.4c-67.8,0-131.5-26.4-179.4-74.3S2.8,323.4,2.8,255.6S29.1,124.1,77.1,76.2S188.7,1.9,256.5,1.9S388,28.3,435.9,76.2
	s74.3,111.7,74.3,179.4S483.9,387.1,436,435S324.3,509.4,256.5,509.4 M410,255.6c0-84.8-68.7-153.5-153.5-153.5S103,170.9,103,255.6
	s68.8,153.5,153.5,153.5C341.3,409.2,410,340.4,410,255.6"/>
</svg>
