<?xml version="1.0" encoding="utf-8"?>
<!-- Generator: Adobe Illustrator 26.0.1, SVG Export Plug-In . SVG Version: 6.00 Build 0)  -->
<svg version="1.1" id="Layer_1" xmlns="http://www.w3.org/2000/svg" xmlns:xlink="http://www.w3.org/1999/xlink" x="0px" y="0px"
	 viewBox="0 0 496 512" style="enable-background:new 0 0 496 512;" xml:space="preserve">
<path d="M173,131.8c0,3.2-1.3,6.3-3.5,8.6l-10.1,10.1c-2.3,2.3-5.4,3.5-8.6,3.5h-17.2c-6.6,0-12.1-5.5-12.1-12.1
	c0-3.2,1.3-6.3,3.5-8.6l27.2-27.2c2.3-2.3,5.4-3.5,8.6-3.5c6.6,0,12.1,5.5,12.1,12.1V131.8z M493.5,256
	c0,135.6-109.9,245.5-245.5,245.5S2.5,391.6,2.5,256S112.4,10.5,248,10.5S493.5,120.4,493.5,256z M444.8,339.2
	c1.9-4.4,3.6-8.8,5.1-13.2h-20.3c-4.6,0-9-1.8-12.3-5.2L383,285.7c-4.8-5.1-4.8-13,0.1-18l13.5-13.5v-9.4c0-3.2-1.3-6.4-3.6-8.6
	l-10.1-10.1c-2.3-2.3-5.4-3.6-8.6-3.6H357c-6.7,0-12.2-5.5-12.2-12.2c0-3.2,1.3-6.4,3.6-8.6l10.1-10.1c2.3-2.3,5.4-3.6,8.6-3.6h34.5
	c6.7,0,12.2-5.5,12.2-12.2v-10.1c0-6.7-5.5-12.2-12.2-12.2h-39.5c-9.5,0-17.2,7.8-17.2,17.2v4.8c0,7.4-4.7,14-11.7,16.4l-34,11.3
	c-3.6,1.2-5.9,4.5-5.9,8.2v2.4c0,4.7-3.9,8.6-8.6,8.6h-17.2c-4.7,0-8.6-3.9-8.6-8.6c0-4.7-3.9-8.6-8.6-8.6h-3.3
	c-3.3,0-6.2,1.8-7.8,4.7l-10.1,20.1c-2.9,5.8-8.8,9.5-15.4,9.5h-23.8c-9.5,0-17.2-7.8-17.2-17.2v-27.3c0-4.5,1.8-8.9,5.1-12.2
	l21.6-21.6c5-5.1,7.8-11.7,7.8-18.8c0-3.8,2.4-7,5.9-8.2l43.1-14.3c1.8-0.5,3.4-1.6,4.7-2.9l28.9-28.9c2.3-2.3,3.6-5.4,3.6-8.6
	c0-6.8-5.5-12.2-12.2-12.2h-22.3l-17.2,17.2v8.6c0,4.7-3.9,8.6-8.6,8.6h-17.2c-4.7,0-8.6-3.9-8.6-8.6V71.7c0-2.7,1.3-5.3,3.4-6.9
	l29.8-22.2c-26,0.9-51.3,6.5-75.2,16.6c-25.4,10.8-48.3,26.2-67.9,45.8S62,147.6,51.2,173c-11.2,26.3-16.8,54.3-16.8,83.1
	s5.7,56.8,16.8,83.1C62,364.6,77.4,387.5,97,407.1s42.5,35,67.9,45.8c26.3,11.2,54.3,16.8,83.1,16.8c3.6,0,7.1-0.1,10.7-0.3v-5.8
	c0-9.5-7.8-17.2-17.2-17.2h-21.7c-11.6,0-28.9-5.7-38.1-12.7l-23.9-18c-12.4-9.3-19.6-23.8-19.6-39.2v-25.7c0-17.2,9-33.2,23.8-42
	l46.2-27.7c7.6-4.6,16.4-7,25.2-7h33.6c11.7,0,23,4.1,31.9,11.7l46.5,39.9H365c9.2,0,17.9,3.7,24.3,10.1l18.6,18.6
	c3.7,3.7,8.7,5.7,13.9,5.7h12.6C438.3,353.5,441.7,346.4,444.8,339.2z"/>
</svg>
