<?xml version="1.0" encoding="utf-8"?>
<!-- Generator: Adobe Illustrator 26.0.1, SVG Export Plug-In . SVG Version: 6.00 Build 0)  -->
<svg version="1.1" id="Layer_1" xmlns="http://www.w3.org/2000/svg" xmlns:xlink="http://www.w3.org/1999/xlink" x="0px" y="0px"
	 viewBox="0 0 640 512" style="enable-background:new 0 0 640 512;" xml:space="preserve">
<path d="M110.5,446.7c3.5-6.7,11.1-13.2,22.3-13.2c-32.6-21.1-59.2-50.6-76.6-85.6h82.5c7.5,37.2,19.4,69.8,34.3,95.2
	c11.5,2.3,26.2,4.4,42.7,5.1c-17.6-19.9-34.3-54.2-44.4-100.3h156.2c-8.8,39.9-22.5,71-37.4,91.5c17.5-5.2,33.8-12.7,48.9-22.5
	c8.8-20.3,16-43.5,21.1-69h45.1c6.6-10.9,11.8-21.7,15.9-32h-55.8c2.6-20.5,4.2-41.8,4.2-64c0-8-0.2-15.8-0.6-23.6
	c-2.6-6.2-3-13-1.4-19.7c-0.6-7-1.4-13.9-2.3-20.8h13.9l22.6-32h-41.6c-9-44.4-24.1-82.2-43.2-109.1c43.2,14.3,80.4,41.9,106.7,77.9
	l19.5-27.7C397.7,40.4,327.8,4,249.4,4c-137,0-248,111-248,248c0,84.3,42.1,158.8,106.4,203.6C108.2,452.3,109.2,449.3,110.5,446.7z
	 M337.4,252c0,22.9-1.6,44.2-4.3,64H165.7c-2.7-19.8-4.3-41.1-4.3-64c0-22.9,1.6-44.2,4.3-64h167.4
	C335.8,207.8,337.4,229.1,337.4,252z M249.4,36c26.9,0,61.4,44.1,78.1,120H171.3C188,80.1,222.5,36,249.4,36z M181.9,46.9
	c-19,26.8-34.2,64.6-43.2,109.1H56.2C81.7,104.8,126.9,65.1,181.9,46.9z M33.4,252c0-22.3,3.4-43.8,9.7-64h90.5
	c-2.6,20.5-4.2,41.8-4.2,64s1.5,43.5,4.2,64H43.1C36.8,295.8,33.4,274.3,33.4,252z M630.3,223.1h-40.9c-8.9,0-16.2,0-16.2,0
	s-0.3,7.3-0.7,16.2c0,0-5.5,128.2-105.8,206.3C290.5,575,136.5,463,136.5,463c-7.2-5.2-6.2-7,2.1-4c0,0,136.2,49.6,239.2-41.4
	c88.1-77.8,81.9-178.2,81.9-178.2c-0.5-8.9-1-16.1-1.1-16.1c-0.1,0-7.4,0-16.3,0h-42.5c-8.9,0-12-5.9-6.9-13.2L505.3,50.6
	c5.1-7.2,13.5-7.3,18.7,0L636.9,210C642.2,217.2,639.2,223.1,630.3,223.1z"/>
</svg>
