<?xml version="1.0" encoding="utf-8"?>
<!-- Generator: Adobe Illustrator 25.4.1, SVG Export Plug-In . SVG Version: 6.00 Build 0)  -->
<svg version="1.1" id="Layer_1" xmlns="http://www.w3.org/2000/svg" xmlns:xlink="http://www.w3.org/1999/xlink" x="0px" y="0px"
	 viewBox="0 0 603.3 512" style="enable-background:new 0 0 603.3 512;" xml:space="preserve">
<path d="M346.1,482h-46h-43c-4.3,0-5.9-3.1-3.6-6.8l8.9-20.5c2.4-3.8,7.9-6.9,12.2-6.9h25.4h28.4c4.3,0,9.8,3.1,12.2,6.9l8.9,20.5
	C352,478.9,350.4,482,346.1,482 M599.6,489.3l-53.7-123.8c-7.9-12.5-26.1-22.8-40.5-22.8H97.9c-14.4,0-32.6,10.3-40.5,22.8
	L3.7,489.3C-4.2,501.7,1.1,512,15.4,512h572.4C602.2,512,607.5,501.7,599.6,489.3 M498.8,0H107.8C89.2,0,74,15.2,74,33.7v252.6
	c0,18.5,15.2,33.7,33.7,33.7h391.1c18.5,0,33.7-15.2,33.7-33.7V33.7C532.5,15.2,517.4,0,498.8,0z M484.5,272H122V48h362.5V272z"/>
</svg>
