<?xml version="1.0" encoding="utf-8"?>
<!-- Generator: Adobe Illustrator 25.4.1, SVG Export Plug-In . SVG Version: 6.00 Build 0)  -->
<svg version="1.1" id="Layer_1" xmlns="http://www.w3.org/2000/svg" xmlns:xlink="http://www.w3.org/1999/xlink" x="0px" y="0px"
	 viewBox="0 0 448 512" style="enable-background:new 0 0 448 512;" xml:space="preserve">
<path d="M352,96v256H96V96H352 M372,64H76c-6.6,0-12,5.4-12,12v296c0,6.6,5.4,12,12,12h296c6.6,0,12-5.4,12-12V76
	C384,69.4,378.6,64,372,64z M400,0H48C21.5,0,0,21.5,0,48v416c0,26.5,21.5,48,48,48h352c26.5,0,48-21.5,48-48V48
	C448,21.5,426.5,0,400,0z M416,464c0,8.8-7.2,16-16,16H48c-8.8,0-16-7.2-16-16V48c0-8.8,7.2-16,16-16h352c8.8,0,16,7.2,16,16V464z
	 M224,400c-17.7,0-32,14.3-32,32s14.3,32,32,32s32-14.3,32-32S241.7,400,224,400z"/>
</svg>
