<?xml version="1.0" encoding="utf-8"?>
<!-- Generator: Adobe Illustrator 25.4.1, SVG Export Plug-In . SVG Version: 6.00 Build 0)  -->
<svg version="1.1" id="Layer_1" xmlns="http://www.w3.org/2000/svg" xmlns:xlink="http://www.w3.org/1999/xlink" x="0px" y="0px"
	 viewBox="0 0 512 512" style="enable-background:new 0 0 512 512;" xml:space="preserve">
<path d="M487.8,24.1L387,0.8c-14.7-3.4-29.8,4.2-35.8,18.1l-46.5,108.5c-5.5,12.7-1.8,27.7,8.9,36.5l53.9,44.1
	c-34,69.2-90.3,125.6-159.6,159.6l-44.1-53.9c-8.8-10.7-23.8-14.4-36.5-8.9L18.9,351.3c-13.9,6-21.5,21-18.1,35.7L24,487.7
	C27.3,502,39.9,512,54.5,512C306.7,512,512,307.8,512,54.5C512,39.9,502,27.3,487.8,24.1z M55.1,480l-23-99.6l107.4-46l59.5,72.8
	c103.6-48.6,159.7-104.9,208.1-208.1l-72.8-59.5l46-107.4l99.6,23C479.7,289.7,289.6,479.7,55.1,480z"/>
</svg>
