<?xml version="1.0" encoding="utf-8"?>
<!-- Generator: Adobe Illustrator 25.4.1, SVG Export Plug-In . SVG Version: 6.00 Build 0)  -->
<svg version="1.1" id="Layer_1" xmlns="http://www.w3.org/2000/svg" xmlns:xlink="http://www.w3.org/1999/xlink" x="0px" y="0px"
	 viewBox="0 0 320 512" style="enable-background:new 0 0 320 512;" xml:space="preserve">
<path d="M192,416c0,17.7-14.3,32-32,32s-32-14.3-32-32s14.3-32,32-32S192,398.3,192,416z M224,96H96v240h128V96 M244,64
	c6.6,0,12,5.4,12,12v280c0,6.6-5.4,12-12,12H76c-6.6,0-12-5.4-12-12V76c0-6.6,5.4-12,12-12H244z M320,48v416c0,26.5-21.5,48-48,48
	H48c-26.5,0-48-21.5-48-48V48C0,21.5,21.5,0,48,0h224C298.5,0,320,21.5,320,48z M288,48c0-8.8-7.2-16-16-16H48c-8.8,0-16,7.2-16,16
	v416c0,8.8,7.2,16,16,16h224c8.8,0,16-7.2,16-16V48z"/>
</svg>
