<?xml version="1.0" encoding="utf-8"?>
<!-- Generator: Adobe Illustrator 26.0.0, SVG Export Plug-In . SVG Version: 6.00 Build 0)  -->
<svg version="1.1" id="Layer_1" xmlns="http://www.w3.org/2000/svg" xmlns:xlink="http://www.w3.org/1999/xlink" x="0px" y="0px"
	 viewBox="0 0 576 512" style="enable-background:new 0 0 576 512;" xml:space="preserve">
<path d="M528,0H48C21.5,0,0,21.5,0,48v288c0,26.5,21.5,48,48,48h192l-24,96h-72c-8.8,0-16,7.2-16,16s7.2,16,16,16h288
	c8.8,0,16-7.2,16-16s-7.2-16-16-16h-72l-24-96h192c26.5,0,48-21.5,48-48V48C576,21.5,554.5,0,528,0z M544,336c0,8.8-7.2,16-16,16H48
	c-8.8,0-16-7.2-16-16V48c0-8.8,7.2-16,16-16h480c8.8,0,16,7.2,16,16V336z"/>
</svg>
