<?xml version="1.0" encoding="utf-8"?>
<!-- Generator: Adobe Illustrator 26.0.1, SVG Export Plug-In . SVG Version: 6.00 Build 0)  -->
<svg version="1.1" id="Layer_3" xmlns="http://www.w3.org/2000/svg" xmlns:xlink="http://www.w3.org/1999/xlink" x="0px" y="0px"
	 viewBox="0 0 458.7 512" style="enable-background:new 0 0 458.7 512;" xml:space="preserve">
<style type="text/css">
	.st0{fill:#ED1C24;}
</style>
<path class="st0" d="M432.4,111.9L252.2,6.7c-14.1-8.2-31.4-8.2-45.5-0.1L26.4,111.8C12.6,119.8,4,134.7,4,150.7V361
	c0,16.1,8.5,30.9,22.4,38.9l180.3,105.2c14,8.1,31.4,8.1,45.4,0L432.5,400c13.8-8,22.4-22.9,22.4-38.9V150.8
	C454.8,134.8,446.2,119.9,432.4,111.9z M122.8,314.1c4.3,1.2,8.2,3.3,11.6,6.3l46.1-24.6c-0.3-1.7-0.4-3.6-0.2-5.6
	c0.2-3,0.8-6,1.9-8.7l-64.1-56.4c-0.8,0.5-1.8,1.1-2.8,1.6L122.8,314.1z M257.9,179.7c0.2,0,0.4,0,0.6,0l0.1,0
	c9.5,0.5,18.2,5.6,23.5,13.5l44.6-10c0,0,0,0,0,0l-79-44.5c-0.9,0.8-1.9,1.6-2.9,2.3L257.9,179.7z M136.9,212.5l59.7,52.5
	c4.9-2.5,10.4-3.6,15.9-3.3l0.3,0c0.7,0.1,1.5,0.1,2.3,0.2l18.1-32.3c-2.7-3.2-4.6-6.8-5.7-10.6L136.9,212.5z M138.9,190.9l90.3,6.4
	c1.8-4.1,4.6-7.7,8.1-10.5l-13.7-40.5c-5.1-0.7-9.7-2.5-13.9-5.5L138.9,190.9z M144.6,344.2l80.2,33c0.9-1,1.7-1.8,2.6-2.5
	l-17.9-52.3c-0.2,0-0.4,0-0.6,0l-0.1,0c-6.7-0.4-13.1-3-18.2-7.3l-46.2,24.5C144.6,341.1,144.7,342.6,144.6,344.2z M248.9,367.8
	c5.3,0.4,10.4,2.1,14.9,5l60.7-43.4L236,309.1c-1.7,2.5-3.7,4.6-5.8,6.4l17.9,52.2C248.4,367.7,248.6,367.7,248.9,367.8z
	 M283.5,224.7l59.6,69.4c0.6-0.3,1.3-0.6,2-0.9l0.5-77.2c-5.6-2.2-10.6-6.2-14.1-11.5l-44.6,10C286.3,218,285.2,221.4,283.5,224.7z
	 M247.2,428.6c-0.7,0-1.3,0-2-0.1c-16.4-1.1-29-15-28.6-31.3l-80.2-33c-6.3,6.6-14.9,10.1-23.9,9.5c-8.1-0.5-15.5-4.1-20.9-10.2
	c-5.4-6.1-8.1-14-7.6-22.2c0.6-11,7.2-20.7,17.1-25.6l-7.5-87.4c-13.7-3.9-22.9-16.8-22.1-31.2c0.5-8.1,4.1-15.5,10.2-20.9
	c6.1-5.4,14-8.1,22.2-7.6c5.7,0.4,11.1,2.2,15.6,5.5l78.2-52.7c-0.5-2.6-0.6-5.1-0.5-7.5c0.5-8.1,4.1-15.5,10.2-20.9
	c6.1-5.4,14-8.1,22.2-7.6c8.1,0.5,15.5,4.1,20.9,10.2c5.4,6.1,8.1,14,7.6,22.2l-0.2,1.6l79.6,44.8c6-5,13.6-7.4,21.3-6.9
	c16.5,1,29.2,15.4,28.2,32.1v0c-0.7,12.1-8.4,22.4-19.6,26.7l-0.5,77.2c11.4,4.7,18.6,16.1,17.9,28.6c-1,15.9-14.7,28.1-30.6,27.2
	c-4.8-0.3-9.5-1.8-13.7-4.4l-63.9,45.7c0.8,3,1.1,6.2,0.9,9.6c-0.5,8.1-4.1,15.5-10.2,20.9C261.8,425.9,254.7,428.6,247.2,428.6z
	 M240.9,287.8l84.7,19.3L267,238.9c-3.7,1.3-7.8,2-12.1,1.8l-0.3,0c-0.8-0.1-1.5-0.1-2.3-0.2l-18.1,32.3
	C237.8,277.1,240.1,282.2,240.9,287.8z"/>
</svg>
