<?xml version="1.0" encoding="utf-8"?>
<!-- Generator: Adobe Illustrator 25.4.1, SVG Export Plug-In . SVG Version: 6.00 Build 0)  -->
<svg version="1.1" id="Layer_1" xmlns="http://www.w3.org/2000/svg" xmlns:xlink="http://www.w3.org/1999/xlink" x="0px" y="0px"
	 viewBox="0 0 576 512" style="enable-background:new 0 0 576 512;" xml:space="preserve">
<path d="M512,32H64C28.7,32,0,60.7,0,96v320c0,35.3,28.7,64,64,64h448c35.3,0,64-28.7,64-64V96C576,60.7,547.3,32,512,32z M544,416
	c0,17.6-14.4,32-32,32H64c-17.6,0-32-14.4-32-32V96c0-17.6,14.4-32,32-32h448c17.6,0,32,14.4,32,32V416z M472,288H360
	c-4.4,0-8,3.6-8,8v16c0,4.4,3.6,8,8,8h112c4.4,0,8-3.6,8-8v-16C480,291.6,476.4,288,472,288z M472,224H360c-4.4,0-8,3.6-8,8v16
	c0,4.4,3.6,8,8,8h112c4.4,0,8-3.6,8-8v-16C480,227.6,476.4,224,472,224z M472,160H360c-4.4,0-8,3.6-8,8v16c0,4.4,3.6,8,8,8h112
	c4.4,0,8-3.6,8-8v-16C480,163.6,476.4,160,472,160z M208,288c44.2,0,80-35.8,80-80s-35.8-80-80-80s-80,35.8-80,80S163.8,288,208,288
	z M208,160c26.5,0,48,21.5,48,48s-21.5,48-48,48s-48-21.5-48-48S181.5,160,208,160z M254.8,304c-19.5,0-24.4,7-46.8,7
	s-27.3-7-46.8-7c-21.2,0-41.8,9.4-53.8,27.4C100.2,342.1,96,355,96,368.9V392c0,4.4,3.6,8,8,8h16c4.4,0,8-3.6,8-8v-23.1
	c0-7,2.1-13.8,6-19.6c5.6-8.3,15.8-13.2,27.3-13.2c12.4,0,20.8,7,46.8,7c25.9,0,34.3-7,46.8-7c11.5,0,21.7,5,27.3,13.2
	c3.9,5.8,6,12.6,6,19.6V392c0,4.4,3.6,8,8,8h16c4.4,0,8-3.6,8-8v-23.1c0-13.9-4.2-26.8-11.4-37.5C296.5,313.4,275.9,304,254.8,304
	L254.8,304z"/>
</svg>
