<?xml version="1.0" encoding="utf-8"?>
<!-- Generator: Adobe Illustrator 26.0.1, SVG Export Plug-In . SVG Version: 6.00 Build 0)  -->
<svg version="1.1" id="Layer_1" xmlns="http://www.w3.org/2000/svg" xmlns:xlink="http://www.w3.org/1999/xlink" x="0px" y="0px"
	 viewBox="0 0 640 512" style="enable-background:new 0 0 640 512;" xml:space="preserve">
<path d="M348.1,349.6l57.2,0.1c0.5,0,1,0,1.6,0h87l-0.2-6.1v-0.4c0-14.1,5.3-27.3,15.2-37.2c5.2-5.3,11.6-9.3,18.4-12
	c-11.4-37.6-46.3-64.9-87.6-64.9h-3.1c-11.4,3.9-23.4,6.5-36.1,6.5c-12.8,0-24.8-2.6-36.1-6.5h-3.1c-16.7,0-32,4.8-45.5,12.6
	c19.9,21.5,32.4,50,32.4,81.6v26.3H348.1z M400.4,45.9c43.4,0,78.5,35.1,78.5,78.5s-35.1,78.5-78.5,78.5s-78.5-35.1-78.5-78.5
	S357,45.9,400.4,45.9z M165,19.7c50.6,0,91.6,41,91.6,91.6s-41,91.6-91.6,91.6s-91.6-41-91.6-91.6S114.4,19.7,165,19.7z
	 M183.7,373.5l67.6-67.6c10-10,23.1-15.4,37-15.4c11.5,0,22.1,3.7,30.8,10c-10.3-40.9-47.3-71.2-91.4-71.2H221
	c-17,8.2-35.9,13.1-56,13.1s-38.9-4.9-56-13.1h-6.8c-52,0-94.2,42.2-94.2,94.2V347c0,21.7,17.6,39.2,39.2,39.2h127.2
	C176.8,381.5,179.9,377.3,183.7,373.5z M621.5,394.9l-58.8-58.8c-11.2-11.2-30.5-3.2-30.5,12.7l1,33.6H388.4c-0.3,0-0.4,0-0.7,0
	l-85.6-0.1l1-33.7c0-15.8-19.1-23.8-30.5-12.5l-58.8,58.8c-7,7-7,18.3,0,25.2l58.8,58.8c11.2,11.2,30.5,3.2,30.5-12.6l-1-33.6h86.2
	h18.2h126.7l-1,33.7c0,15.8,19.1,23.8,30.5,12.5l58.8-58.8C628.5,413.2,628.5,402,621.5,394.9z"/>
</svg>
