<?xml version="1.0" encoding="utf-8"?>
<!-- Generator: Adobe Illustrator 25.4.1, SVG Export Plug-In . SVG Version: 6.00 Build 0)  -->
<svg version="1.1" id="Layer_1" xmlns="http://www.w3.org/2000/svg" xmlns:xlink="http://www.w3.org/1999/xlink" x="0px" y="0px"
	 viewBox="0 0 640 512" style="enable-background:new 0 0 640 512;" xml:space="preserve">
<path d="M208,352h-3.8c-13.9,4.8-28.6,8-44.2,8c-15.6,0-30.3-3.2-44.2-8H112C50.1,352,0,402.1,0,464c0,26.5,21.5,48,48,48h224
	c26.5,0,48-21.5,48-48C320,402.1,269.9,352,208,352z M592,0H208c-26.5,0-48,22.2-48,49.6V96c23.4,0,45.1,6.8,64,17.8V64h352v288
	H307.8c19.1,16.7,33.1,38.7,39.7,64H592c26.5,0,48-22.2,48-49.6V49.6C640,22.2,618.5,0,592,0z M160,128c53,0,96,43,96,96
	s-43,96-96,96s-96-43-96-96S107,128,160,128z M424.5,218h-2c-7.4,2.6-15.2,4.2-23.5,4.2s-16.1-1.7-23.5-4.2h-2
	c-32.9,0-59.5,26.6-59.5,59.5c0,14.1,11.4,25.5,25.5,25.5h119c14.1,0,25.5-11.4,25.5-25.5C484,244.6,457.4,218,424.5,218z M399,99
	c28.2,0,51,22.8,51,51s-22.8,51-51,51c-28.2,0-51-22.8-51-51S370.8,99,399,99z"/>
</svg>
