<?xml version="1.0" encoding="utf-8"?>
<!-- Generator: Adobe Illustrator 26.0.0, SVG Export Plug-In . SVG Version: 6.00 Build 0)  -->
<svg version="1.1" id="Layer_1" xmlns="http://www.w3.org/2000/svg" xmlns:xlink="http://www.w3.org/1999/xlink" x="0px" y="0px"
	 viewBox="0 0 640 512" style="enable-background:new 0 0 640 512;" xml:space="preserve">
<path d="M73.2,105.4c0-51.7,42-93.7,93.8-93.7s93.8,41.9,93.8,93.7s-42,93.8-93.8,93.8S73.2,157.3,73.2,105.4z M194.7,348.8
	c6.6-15.8,20.8-26.8,37.3-29.5v-75.7c0-7.4,1.8-14.4,4.9-20.6c-1.4-0.2-2.9-0.3-4.3-0.3h-12.2c-16.3,7.5-34.3,11.8-53.5,11.8
	c-19,0-37.1-4.3-53.5-11.8h-12.2c-54.3,0-98.4,44.1-98.4,98.4v30.5c0,19.5,15.7,35.2,35.2,35.2h156.8
	C189.8,374.9,189.5,361.2,194.7,348.8z M474.7,224.8v19c0,6.7-5.4,12.1-12.1,12.1H324.2v97.7l0,0v3.4h32.9c14.7,0,22,17.8,11.6,28.2
	l-54.8,55.2c-6.3,6.5-16.8,6.5-23.2,0l-54.8-55.2c-10.3-10.3-3-28.2,11.6-28.2h32.9v-3.4v-0.3V224.7c0-6.7,5.4-12.1,12.1-12.1h170.1
	C469.4,212.5,474.9,218,474.7,224.8z M395.3,406.7v-19c0-6.7,5.4-12.1,12.1-12.1h138.5v-97.7l0,0v-3.4H513
	c-14.7,0-22-17.8-11.6-28.2l54.8-55.2c6.3-6.5,16.8-6.5,23.2,0l54.8,55.2c10.3,10.3,3,28.2-11.6,28.2h-32.9v3.4v0.3v128.7
	c0,6.7-5.4,12.1-12.1,12.1H407.4C400.7,419,395.3,413.4,395.3,406.7z"/>
</svg>
