<?xml version="1.0" encoding="utf-8"?>
<!-- Generator: Adobe Illustrator 25.4.1, SVG Export Plug-In . SVG Version: 6.00 Build 0)  -->
<svg version="1.1" id="Layer_1" xmlns="http://www.w3.org/2000/svg" xmlns:xlink="http://www.w3.org/1999/xlink" x="0px" y="0px"
	 viewBox="0 0 640 512" style="enable-background:new 0 0 640 512;" xml:space="preserve">
<path d="M131.1,271.4H68c-34.9,0-63.1,28.3-63.1,63.1v31.6c0,17.4,14.1,31.6,31.6,31.6h126.2c17.4,0,31.6-14.1,31.6-31.6v-31.6
	C194.2,299.7,166,271.4,131.1,271.4 M352.1,271.4h-63.1c-34.9,0-63.1,28.3-63.1,63.1v31.6c0,17.4,14.1,31.6,31.6,31.6h126.2
	c17.4,0,31.6-14.1,31.6-31.6v-31.6C415.2,299.7,386.9,271.4,352.1,271.4 M573,271.4h-63.1c-34.9,0-63.1,28.3-63.1,63.1v31.6
	c0,17.4,14.1,31.6,31.6,31.6h126.2c17.4,0,31.6-14.1,31.6-31.6v-31.6C636.1,299.7,607.9,271.4,573,271.4 M99.6,239.8
	c34.9,0,63.1-28.3,63.1-63.1s-28.3-63.1-63.1-63.1c-34.9,0-63.1,28.3-63.1,63.1S64.7,239.8,99.6,239.8 M478.3,176.7
	c0,34.9,28.3,63.1,63.1,63.1c34.9,0,63.1-28.3,63.1-63.1s-28.3-63.1-63.1-63.1C506.6,113.6,478.3,141.9,478.3,176.7 M257.4,176.7
	c0,34.9,28.3,63.1,63.1,63.1c34.9,0,63.1-28.3,63.1-63.1s-28.3-63.1-63.1-63.1C285.6,113.6,257.4,141.9,257.4,176.7"/>
</svg>
