<?xml version="1.0" encoding="utf-8"?>
<!-- Generator: Adobe Illustrator 25.4.1, SVG Export Plug-In . SVG Version: 6.00 Build 0)  -->
<svg version="1.1" id="Layer_1" xmlns="http://www.w3.org/2000/svg" xmlns:xlink="http://www.w3.org/1999/xlink" x="0px" y="0px"
	 viewBox="0 0 496 512" style="enable-background:new 0 0 496 512;" xml:space="preserve">
<path d="M248,8C111,8,0,119,0,256s111,248,248,248s248-111,248-248S385,8,248,8z M248,472c-119.1,0-216-96.9-216-216
	S128.9,40,248,40s216,96.9,216,216S367.1,472,248,472z M248,320c-44.4,0-86.2,19.6-114.8,53.8c-5.7,6.8-4.8,16.9,2,22.5
	c6.8,5.7,16.9,4.8,22.5-2c22.4-26.8,55.3-42.2,90.2-42.2s67.8,15.4,90.2,42.2c5.3,6.4,15.4,8,22.5,2c6.8-5.7,7.7-15.8,2-22.5
	C334.2,339.6,292.4,320,248,320z M168,240c17.7,0,32-14.3,32-32s-14.3-32-32-32s-32,14.3-32,32S150.3,240,168,240z M328,240
	c17.7,0,32-14.3,32-32s-14.3-32-32-32s-32,14.3-32,32S310.3,240,328,240z"/>
</svg>
