<?xml version="1.0" encoding="utf-8"?>
<!-- Generator: Adobe Illustrator 26.0.0, SVG Export Plug-In . SVG Version: 6.00 Build 0)  -->
<svg version="1.1" id="Layer_1" xmlns="http://www.w3.org/2000/svg" xmlns:xlink="http://www.w3.org/1999/xlink" x="0px" y="0px"
	 viewBox="0 0 512 512" style="enable-background:new 0 0 512 512;" xml:space="preserve">
<path d="M170.4,336.9c48.4,0,87.6-39.2,87.6-87.6s-39.2-87.6-87.6-87.6S82.8,201,82.8,249.3S122,336.9,170.4,336.9z M231.7,358.8
	h-11.4c-15.2,7-32.1,10.9-49.9,10.9s-34.6-4-49.9-10.9h-11.4c-50.8,0-91.9,41.2-91.9,91.9v28.5c0,18.1,14.7,32.8,32.8,32.8h240.8
	c18.1,0,32.8-14.7,32.8-32.8v-28.5C323.6,400,282.4,358.8,231.7,358.8z M465.8,0H292.2c-15.9,0-28.9,13-28.9,28.9v130.2
	c0,15.9,13,28.9,28.9,28.9h43.4v38c0,4.4,5.1,7,8.6,4.4l56.5-42.3h65.1c15.9,0,28.9-13,28.9-28.9V28.9C494.8,13,481.8,0,465.8,0z
	 M321.2,108.6c-8,0-14.5-6.5-14.5-14.5s6.5-14.5,14.5-14.5c8,0,14.5,6.5,14.5,14.5C335.6,102.1,329.2,108.6,321.2,108.6z M379,108.6
	c-8,0-14.5-6.5-14.5-14.5S371,79.6,379,79.6s14.5,6.5,14.5,14.5C393.5,102.1,387,108.6,379,108.6z M436.9,108.6
	c-8,0-14.5-6.5-14.5-14.5s6.5-14.5,14.5-14.5s14.5,6.5,14.5,14.5C451.3,102.1,444.9,108.6,436.9,108.6z"/>
</svg>
