<?xml version="1.0" encoding="utf-8"?>
<!-- Generator: Adobe Illustrator 25.4.1, SVG Export Plug-In . SVG Version: 6.00 Build 0)  -->
<svg version="1.1" id="Layer_1" xmlns="http://www.w3.org/2000/svg" xmlns:xlink="http://www.w3.org/1999/xlink" x="0px" y="0px"
	 viewBox="0 0 640 512" style="enable-background:new 0 0 640 512;" xml:space="preserve">
<path d="M480,256c53,0,96-43,96-96s-43-96-96-96s-96,43-96,96S427,256,480,256z M480,96c35.3,0,64,28.7,64,64s-28.7,64-64,64
	s-64-28.7-64-64S444.7,96,480,96z M192,256c61.9,0,112-50.1,112-112S253.9,32,192,32S80,82.1,80,144S130.1,256,192,256z M192,64
	c44.1,0,80,35.9,80,80s-35.9,80-80,80s-80-35.9-80-80S147.9,64,192,64z M272.1,276c-33.4,0-41.7,12-80.1,12s-46.7-12-80.1-12
	c-36.3,0-71.6,16.2-92.3,46.9C7.2,341.3,0,363.4,0,387.2V432c0,26.5,21.5,48,48,48h288c26.5,0,48-21.5,48-48v-44.8
	c0-23.8-7.2-45.9-19.6-64.3C343.7,292.2,308.4,276,272.1,276L272.1,276z M352,432c0,8.8-7.2,16-16,16H48c-8.8,0-16-7.2-16-16v-44.8
	c0-16.6,4.9-32.7,14.1-46.4c13.8-20.5,38.4-32.8,65.7-32.8c27.4,0,37.2,12,80.2,12s52.8-12,80.1-12s51.9,12.3,65.7,32.8
	c9.2,13.7,14.1,29.8,14.1,46.4V432H352z M623.7,317.1C606.4,291.5,577,278,546.8,278c-27.8,0-34.8,10-66.8,10s-39-10-66.8-10
	c-13.2,0-26.1,3-38.1,8.1c15.2,15.4,18.5,23.6,20.2,26.6c5.7-1.6,11.6-2.6,17.9-2.6c21.8,0,30,10,66.8,10s45-10,66.8-10
	c21,0,39.8,9.3,50.4,25c7.1,10.5,10.9,22.9,10.9,35.7V408c0,4.4-3.6,8-8,8H416c0,17.7,0.3,22.5-1.6,32H600c22.1,0,40-17.9,40-40
	v-37.3C640,350.8,634,332.4,623.7,317.1z"/>
</svg>
