<?xml version="1.0" encoding="utf-8"?>
<!-- Generator: Adobe Illustrator 25.4.1, SVG Export Plug-In . SVG Version: 6.00 Build 0)  -->
<svg version="1.1" id="Layer_1" xmlns="http://www.w3.org/2000/svg" xmlns:xlink="http://www.w3.org/1999/xlink" x="0px" y="0px"
	 viewBox="0 0 512 512" style="enable-background:new 0 0 512 512;" xml:space="preserve">
<path d="M448,0H64C28.7,0,0,28.7,0,64v288c0,35.3,28.7,64,64,64h96v84c0,7.1,5.8,12,12,12c2.4,0,4.9-0.7,7.1-2.4L304,416h144
	c35.3,0,64-28.7,64-64V64C512,28.7,483.3,0,448,0z M480,352c0,17.6-14.4,32-32,32H293.3l-8.5,6.4L192,460v-76H64
	c-17.6,0-32-14.4-32-32V64c0-17.6,14.4-32,32-32h384c17.6,0,32,14.4,32,32V352z"/>
</svg>
