<?xml version="1.0" encoding="utf-8"?>
<!-- Generator: Adobe Illustrator 25.4.1, SVG Export Plug-In . SVG Version: 6.00 Build 0)  -->
<svg version="1.1" id="Layer_1" xmlns="http://www.w3.org/2000/svg" xmlns:xlink="http://www.w3.org/1999/xlink" x="0px" y="0px"
	 viewBox="0 0 640 512" style="enable-background:new 0 0 640 512;" xml:space="preserve">
<path d="M544,224c44.2,0,80-35.8,80-80s-35.8-80-80-80s-80,35.8-80,80S499.8,224,544,224z M544,96c26.5,0,48,21.5,48,48
	s-21.5,48-48,48s-48-21.5-48-48S517.5,96,544,96z M320,256c61.9,0,112-50.1,112-112S381.9,32,320,32S208,82.1,208,144
	S258.1,256,320,256z M320,64c44.1,0,80,35.9,80,80s-35.9,80-80,80s-80-35.9-80-80S275.9,64,320,64z M564,256h-40
	c-15.2,0-29.3,4.8-41.1,12.9c9.4,6.4,17.9,13.9,25.4,22.4c4.9-2.1,10.2-3.3,15.7-3.3h40c24.2,0,44,21.5,44,48c0,8.8,7.2,16,16,16
	s16-7.2,16-16C640,291.9,605.9,256,564,256z M96,224c44.2,0,80-35.8,80-80s-35.8-80-80-80s-80,35.8-80,80S51.8,224,96,224z M96,96
	c26.5,0,48,21.5,48,48s-21.5,48-48,48s-48-21.5-48-48S69.5,96,96,96z M400.1,276c-33.4,0-41.7,12-80.1,12s-46.7-12-80.1-12
	c-36.3,0-71.6,16.2-92.3,46.9c-12.4,18.4-19.6,40.5-19.6,64.3V432c0,26.5,21.5,48,48,48h288c26.5,0,48-21.5,48-48v-44.8
	c0-23.8-7.2-45.9-19.6-64.3C471.7,292.2,436.4,276,400.1,276L400.1,276z M480,432c0,8.8-7.2,16-16,16H176c-8.8,0-16-7.2-16-16v-44.8
	c0-16.6,4.9-32.7,14.1-46.4c13.8-20.5,38.4-32.8,65.7-32.8c27.4,0,37.2,12,80.2,12s52.8-12,80.1-12c27.3,0,51.9,12.3,65.7,32.8
	c9.2,13.7,14.1,29.8,14.1,46.4V432H480z M157.1,268.9c-11.9-8.1-26-12.9-41.1-12.9H76c-41.9,0-76,35.9-76,80c0,8.8,7.2,16,16,16
	s16-7.2,16-16c0-26.5,19.8-48,44-48h40c5.5,0,10.8,1.2,15.7,3.3C139.2,282.8,147.8,275.3,157.1,268.9L157.1,268.9z"/>
</svg>
