<?xml version="1.0" encoding="utf-8"?>
<!-- Generator: Adobe Illustrator 25.4.1, SVG Export Plug-In . SVG Version: 6.00 Build 0)  -->
<svg version="1.1" id="Layer_1" xmlns="http://www.w3.org/2000/svg" xmlns:xlink="http://www.w3.org/1999/xlink" x="0px" y="0px"
	 viewBox="0 0 512 512" style="enable-background:new 0 0 512 512;" xml:space="preserve">
<path d="M448,0H64C28.7,0,0,28.7,0,64v288c0,35.3,28.7,64,64,64h96v84c0,7.1,5.8,12,12,12c2.4,0,4.9-0.7,7.1-2.4L304,416h144
	c35.3,0,64-28.7,64-64V64C512,28.7,483.3,0,448,0z M480,352c0,17.6-14.4,32-32,32H293.3l-8.5,6.4L192,460v-76H64
	c-17.6,0-32-14.4-32-32V64c0-17.6,14.4-32,32-32h384c17.6,0,32,14.4,32,32V352z M331.8,237.3C313,259.4,285.4,272,256,272
	s-57-12.6-75.8-34.6c-5.7-6.7-15.8-7.4-22.5-1.8c-6.8,5.8-7.5,15.8-1.8,22.6C180.7,287.3,217.2,304,256,304s75.3-16.7,100.2-45.9
	c5.8-6.7,4.9-16.8-1.8-22.6C347.7,229.8,337.6,230.6,331.8,237.3L331.8,237.3z M192,184c13.3,0,24-10.7,24-24s-10.7-24-24-24
	s-24,10.7-24,24S178.7,184,192,184z M320,184c13.3,0,24-10.7,24-24s-10.7-24-24-24s-24,10.7-24,24S306.7,184,320,184z"/>
</svg>
