<?xml version="1.0" encoding="utf-8"?>
<!-- Generator: Adobe Illustrator 25.4.1, SVG Export Plug-In . SVG Version: 6.00 Build 0)  -->
<svg version="1.1" id="Layer_1" xmlns="http://www.w3.org/2000/svg" xmlns:xlink="http://www.w3.org/1999/xlink" x="0px" y="0px"
	 viewBox="0 0 496 512" style="enable-background:new 0 0 496 512;" xml:space="preserve">
<path d="M248,8C111,8,0,119,0,256s111,248,248,248s248-111,248-248S385,8,248,8z M248,472c-119.1,0-216-96.9-216-216
	S128.9,40,248,40s216,96.9,216,216S367.1,472,248,472z M168,240c17.7,0,32-14.3,32-32s-14.3-32-32-32s-32,14.3-32,32
	S150.3,240,168,240z M328,176c-17.7,0-32,14.3-32,32s14.3,32,32,32s32-14.3,32-32S345.7,176,328,176z M344,336H152
	c-8.8,0-16,7.2-16,16s7.2,16,16,16h192c8.8,0,16-7.2,16-16S352.8,336,344,336z"/>
</svg>
