<?xml version="1.0" encoding="utf-8"?>
<!-- Generator: Adobe Illustrator 26.0.1, SVG Export Plug-In . SVG Version: 6.00 Build 0)  -->
<svg version="1.1" id="Layer_1" xmlns="http://www.w3.org/2000/svg" xmlns:xlink="http://www.w3.org/1999/xlink" x="0px" y="0px"
	 viewBox="0 0 512 512" style="enable-background:new 0 0 512 512;" xml:space="preserve">
<g id="Layer_1_00000022526343348107592450000011327157118247653803_">
</g>
<path id="Layer_2_00000029008687961745872760000012858818991534631866_" d="M508.2,275.8c-1.4,11.9-3.8,23.9-6.9,35.6
	c-11,40.3-32.3,77.2-61.6,106.8c-27.5,27.8-61.5,48.7-98.7,60.5l2.4,19.4c0.4,3-0.9,6-3.3,7.8c-1.5,1.1-3.3,1.7-5.1,1.7
	c-1.1,0-2.2-0.2-3.3-0.7l-73.4-31c-2.8-1.2-4.8-3.8-5.1-6.8c-0.4-3,0.9-6,3.3-7.8L320,413c2.4-1.8,5.6-2.3,8.4-1.1
	c2.8,1.2,4.8,3.8,5.1,6.8l2,15.6c28.1-10.3,53.7-26.9,74.6-48.4c23.3-24.1,40.3-53.9,49.1-86.2c2.6-9.6,4.5-19.4,5.7-29.2
	c0.3-2.2,1.4-4.3,3.2-5.7c1.8-1.4,4-2,6.3-1.8l26.4,3.2C505.4,266.9,508.7,271.1,508.2,275.8z M160.3,414.9
	c-32.5-20.9-58-50.8-73.9-86.5C72,296.1,66.5,260.9,70.2,226l14.6,5c2.9,1,6.1,0.4,8.4-1.6s3.4-5.1,2.8-8l-15.1-78.5
	c-0.6-3-2.7-5.4-5.6-6.4s-6.1-0.4-8.4,1.6L6.7,190.5c-2.3,2-3.3,5.1-2.8,8s2.7,5.4,5.6,6.4l18.6,6.4c-6.7,45-0.7,90.7,17.5,132.7
	c19.2,44.4,50.7,81.6,91.1,107.6c1.4,0.9,3,1.4,4.6,1.4c0.6,0,1.2-0.1,1.8-0.2c2.2-0.5,4.1-1.8,5.4-3.7l14.4-22.5
	C165.4,422.7,164.2,417.4,160.3,414.9z M150.4,75.7c1.2,1.9,3.1,3.3,5.3,3.8s4.5,0.1,6.4-1.1C209.1,48.8,266.6,40.3,320,55
	c32,8.8,61.2,25.5,85,48.4l-13,8.6c-2.5,1.7-4,4.6-3.8,7.6s2,5.7,4.7,7.1l71.2,35.9c1.2,0.6,2.5,0.9,3.8,0.9c1.6,0,3.3-0.5,4.7-1.4
	c2.5-1.7,4-4.6,3.8-7.6l-4.6-79.8c-0.2-3-2-5.7-4.7-7.1s-6-1.2-8.5,0.5l-16.4,10.8c-30.2-31.6-68.3-54.4-110.7-66
	c-65-18-135.3-7.6-192.6,28.5c-4,2.5-5.2,7.7-2.7,11.7L150.4,75.7z M267.8,381c-74.4,0-134.7-60.3-134.7-134.7
	s60.3-134.7,134.7-134.7s134.7,60.3,134.7,134.7S342.2,381,267.8,381z M224.8,146.6l13,6.5c5.8,2.9,12.6-1.3,12.6-7.8v-6.1
	C241.5,140.7,232.9,143.1,224.8,146.6z M215.7,233.5c0,2.4,1.4,4.7,3.6,5.8l6,3c5.1,2.6,10.8,3.9,16.5,3.9s12.3,14.8,17.4,17.4h36.3
	c4.6,0,9,1.8,12.3,5.1l7.4,7.4c3.1,3.1,4.8,7.3,4.8,11.7c0,6.7-2.7,13.2-7.4,17.9l-6.1,6.1c-1.6,1.6-2.8,3.6-3.4,5.8
	c-0.8,3.1-1.5,6.2-2.6,9.2l-9.4,25.5c44.3-9.7,78.6-46.5,84.5-92.2l-15.9-4c-3.1-0.8-5.9-2.7-7.7-5.4l-9.8-14.7
	c-2.9-4.3-2.9-10,0-14.4l10.6-16c1.2-1.8,3-3.4,5-4.4l7.1-3.5c-17.9-35.6-54.6-60.1-97.1-60.1c-1.4,0-2.8,0.2-4.1,0.2l15.4,15.4
	c3.4,3.4,3.4,8.9,0,12.3l-2.6,2.6l-5.6,5.6c-1.7,1.7-1.7,4.5,0,6.1l2.6,2.6c1.7,1.7,1.7,4.5,0,6.1l-4.3,4.3c-0.8,0.8-2,1.2-3.1,1.2
	h-4.9c-1.1,0-2.2,0.4-3,1.2l-5.4,5.2c-1.4,1.3-1.7,3.4-0.9,5.1l8.5,16.9c1.4,2.9-0.7,6.3-3.9,6.3h-3c-1,0-2-0.4-2.8-1.1l-5.1-4.4
	c-2.3-2-5.5-2.7-8.4-1.7l-16.9,5.6C217.5,228.2,215.7,230.7,215.7,233.5z M267.8,355v-14.9c0.9-6.8-4.1-19.7-12.3-27.9
	c-3.3-3.3-5.1-7.7-5.1-12.3v-17.4c0-6.4-3.4-12.2-9-15.2c-7.8-4.3-18.9-10.4-26.5-14.2c-6.2-3.1-12-7.2-17.2-11.8l-0.4-0.4
	c-3.7-3.3-7-7.1-9.8-11.2c-5.1-7.4-13.4-19.8-18.8-27.8c-6.1,13.6-9.6,28.6-9.6,44.4C159.2,306.2,207.9,355,267.8,355z"/>
</svg>
