<?xml version="1.0" encoding="utf-8"?>
<!-- Generator: Adobe Illustrator 26.0.1, SVG Export Plug-In . SVG Version: 6.00 Build 0)  -->
<svg version="1.1" id="Layer_1" xmlns="http://www.w3.org/2000/svg" xmlns:xlink="http://www.w3.org/1999/xlink" x="0px" y="0px"
	 viewBox="0 0 512 512" style="enable-background:new 0 0 512 512;" xml:space="preserve">
<path d="M160.5,275.1l-40.7-25.5l-6.8-4.2l-50.9,81.4c-7.8,12.5-8.2,27.7-1,40.6C68.2,380.3,81.3,388,96,388h61c1.7,0,3,1.3,3,3v42
	c0,1.7-1.3,3-3,3H96.1c-32.4,0-61.2-17-76.9-45.4s-14.9-61.8,2.3-89.3L72.3,220l-6.8-4.2l-40.7-25.4c-12.1-7.5-9-26,4.9-29.2
	l110.2-25.5c8.6-2,17.2,3.4,19.2,12l25.5,110.2l0,0C187.8,271.9,172.4,282.5,160.5,275.1z M419.4,81.7l-40.7,25.4l-6,3.7l-42.1-65.6
	C314.5,19.4,286.5,4,256,4s-58.4,15.4-74.6,41.3l-23.8,34.6c-1.2,1.9-0.6,4.3,1.3,5.5l33.9,21.2c1.2,0.8,2.4,0.6,3,0.5
	s1.7-0.6,2.5-1.8l18-28.7c7.3-11.8,25.8-24.6,39.6-24.6c14,0,26.7,7,34,18.7l42.1,65.6l-7.6,4.7l-40.7,25.5c-12.1,7.5-9,26,4.9,29.2
	l110.2,25.5c8.7,2,17.2-3.4,19.2-12L443.5,99C446.6,85.1,431.4,74.2,419.4,81.7z M488.8,301.3l-32.5-49.1c-0.8-1.2-1.9-1.6-2.5-1.8
	c-0.6-0.1-1.8-0.3-3,0.5L417,272.1c-1.9,1.2-2.4,3.6-1.3,5.5l32.6,49.1c7.8,12.5,8.2,27.6,1,40.6c-7.2,12.9-20.2,20.6-34.9,20.6H320
	v-8v-48c0-14.2-17.2-21.4-27.3-11.3l-80,80c-6.2,6.2-6.2,16.4,0,22.6l80,80c10,10,27.3,3,27.3-11.3v-48v-8h94.2
	c32.4,0,61.2-17,76.9-45.4C506.9,362.2,506,328.8,488.8,301.3z"/>
</svg>
