<?xml version="1.0" encoding="utf-8"?>
<!-- Generator: Adobe Illustrator 26.0.0, SVG Export Plug-In . SVG Version: 6.00 Build 0)  -->
<svg version="1.1" id="Layer_1" xmlns="http://www.w3.org/2000/svg" xmlns:xlink="http://www.w3.org/1999/xlink" x="0px" y="0px"
	 viewBox="0 0 512 512" style="enable-background:new 0 0 512 512;" xml:space="preserve">
<path d="M8.8,43.8v-32c0-4.4,3.6-8,8-8h181.8c4.4,0,8,3.5,8,8v32c0,4.4-3.6,8-8,8H16.8C12.4,51.8,8.8,48.2,8.8,43.8z M492.4,392.4
	c0.1,6.6-5.2,12.1-11.9,12.1l-8,0.1c-6.6,0.1-12.1-5.2-12.1-11.9c-0.5-38.8-1.9-160.7-1.9-199c0-19.8-7.7-36.5-22.4-48.3
	c-13.5-10.8-32.5-17.1-52-17.1c-19.3,0-37,5.8-49.8,16.4c-14.2,11.7-21.3,28.1-21.3,48.9c0,15.7,0,35.6-0.1,57.5
	c-0.1,50.3-0.2,112.8,0.1,157.9c0.2,27.7-14.4,51.6-41.3,67.2c-20.6,12.5-46.6,18.6-72.2,18.6c-24.2,0-48.1-5.4-67.1-16.3
	C106,463.3,91.5,439,91.5,410.1V331H36c-15,0-27.1-12.2-27.1-27.1v-193c0-15,12.2-27.1,27.1-27.1h144.3c15,0,27.1,12.2,27.1,27.1
	v192.9c0.1,7.2-2.7,14-7.7,19.1c-5.1,5.1-12.1,8.1-19.3,8.1h-56.9v79.1c0,17.4,8.4,31.1,24.8,40.5c29,16.7,77.2,15.9,107.3-1.7
	c17-9.9,25.5-23.2,25.4-39.4c-0.3-45.3-0.2-107.9-0.1-158.2c0-21.8,0.1-41.7,0.1-57.4c0-30.3,11.4-55.8,32.9-73.6
	c18.5-15.3,43.5-23.8,70.2-23.8c27.1,0,52.7,8.6,72.1,24.1c22.5,18,34.3,43.4,34.3,73.2C490.5,231.9,491.9,353.6,492.4,392.4z
	 M40.7,299.2h134.8V115.6H40.7V299.2z"/>
</svg>
