<?xml version="1.0" encoding="utf-8"?>
<!-- Generator: Adobe Illustrator 25.4.1, SVG Export Plug-In . SVG Version: 6.00 Build 0)  -->
<svg version="1.1" id="Layer_1" xmlns="http://www.w3.org/2000/svg" xmlns:xlink="http://www.w3.org/1999/xlink" x="0px" y="0px"
	 viewBox="0 0 576 512" style="enable-background:new 0 0 576 512;" xml:space="preserve">
<path d="M96.8,77.9L85.5,66.4c-3.1-3.2-8.1-3.2-11.3-0.1c-0.1,0.1-0.2,0.2-0.2,0.2C26.2,118,0,185,0,256s26.2,138,73.9,189.5
	c3,3.2,8.1,3.4,11.3,0.3c0.1-0.1,0.2-0.2,0.2-0.2l11.3-11.5c3-3.1,3.1-8.1,0.1-11.2C55,377.5,32,318.5,32,256S55,134.6,96.9,89.2
	C99.9,86,99.8,81.1,96.8,77.9z M180.7,146.9l-11.3-11.5c-3.1-3.2-8.1-3.3-11.3-0.2c-0.1,0.1-0.2,0.2-0.3,0.3
	c-61.1,68.6-61.1,172.1,0,240.8c3,3.3,8.1,3.5,11.3,0.5c0.1-0.1,0.2-0.2,0.3-0.3l11.3-11.5c3-3.1,3.1-8,0.1-11.2
	c-49.2-55.9-49.2-139.7,0-195.6C183.7,155,183.7,150.1,180.7,146.9L180.7,146.9z M502.1,66.5c-3-3.2-8.1-3.4-11.3-0.3
	c-0.1,0.1-0.2,0.2-0.3,0.2l-11.3,11.5c-3,3.1-3.1,8.1-0.1,11.2C521,134.6,544,193.5,544,256s-23,121.5-64.9,166.8
	c-3,3.2-3,8.1,0.1,11.2l11.3,11.5c3.1,3.2,8.1,3.2,11.3,0.2c0.1-0.1,0.2-0.2,0.2-0.3C549.8,394,576,327,576,256
	S549.8,118,502.1,66.5z M288,192c-35.3,0-64,28.7-64,64s28.7,64,64,64s64-28.7,64-64S323.3,192,288,192z M288,288
	c-17.7,0-32-14.3-32-32s14.3-32,32-32s32,14.3,32,32S305.7,288,288,288z M406.6,135.5L395.3,147c-3,3.1-3.1,8-0.1,11.2
	c49.2,55.9,49.2,139.7,0,195.6c-2.9,3.2-2.9,8.1,0.1,11.2l11.3,11.5c3.1,3.2,8.1,3.3,11.3,0.2c0.1-0.1,0.2-0.2,0.3-0.3
	c61.1-68.6,61.1-172.1,0-240.8c-3-3.3-8-3.5-11.3-0.5C406.8,135.2,406.7,135.4,406.6,135.5L406.6,135.5z"/>
</svg>
