<?xml version="1.0" encoding="utf-8"?>
<!-- Generator: Adobe Illustrator 26.5.0, SVG Export Plug-In . SVG Version: 6.00 Build 0)  -->
<svg version="1.1" id="Layer_1" xmlns="http://www.w3.org/2000/svg" xmlns:xlink="http://www.w3.org/1999/xlink" x="0px" y="0px"
	 viewBox="0 0 640 512" style="enable-background:new 0 0 640 512;" xml:space="preserve">
<g>
	<path d="M588,498.8H52c-28.6,0-52-23.4-52-52V65.2c0-28.6,23.4-52,52-52h536c28.6,0,52,23.4,52,52v381.7
		C640,475.4,616.6,498.8,588,498.8z M295.8,397.7h-9.9V224.5c0-9.9-8.1-18-18-18h-30.4v-29.4h38.4c5.5,0,10-4.5,10-10v-28
		c0-5.5-4.5-10-10-10h-38.4V94.3c0-6.6-5.4-12-12-12h-78.4c-6.6,0-12,5.4-12,12v34.8H96.8c-5.5,0-10,4.5-10,10v28
		c0,5.5,4.5,10,10,10h38.4v29.4h-30.4c-9.9,0-18,8.1-18,18v173.3h-9.9c-4.4,0-8,3.6-8,8v16c0,4.4,3.6,8,8,8h219c4.4,0,8-3.6,8-8v-16
		C303.8,401.3,300.2,397.7,295.8,397.7z M186.3,339.9c-20.9,0-37.9-17-37.9-37.9c0-20.9,17-37.9,37.9-37.9s37.9,17,37.9,37.9
		C224.2,322.9,207.3,339.9,186.3,339.9z M563.2,397.7h-9.9V224.5c0-9.9-8.1-18-18-18h-30.4v-29.4h38.4c5.5,0,10-4.5,10-10v-28
		c0-5.5-4.5-10-10-10h-38.4V94.3c0-6.6-5.4-12-12-12h-78.4c-6.6,0-12,5.4-12,12v34.8h-38.4c-5.5,0-10,4.5-10,10v28
		c0,5.5,4.5,10,10,10h38.4v29.4h-30.4c-9.9,0-18,8.1-18,18v173.3h-9.9c-4.4,0-8,3.6-8,8v16c0,4.4,3.6,8,8,8h219c4.4,0,8-3.6,8-8v-16
		C571.2,401.3,567.6,397.7,563.2,397.7z M453.7,339.9c-20.9,0-37.9-17-37.9-37.9c0-20.9,17-37.9,37.9-37.9c20.9,0,37.9,17,37.9,37.9
		C491.6,322.9,474.6,339.9,453.7,339.9z"/>
</g>
</svg>
