<?xml version="1.0" encoding="utf-8"?>
<!-- Generator: Adobe Illustrator 26.0.0, SVG Export Plug-In . SVG Version: 6.00 Build 0)  -->
<svg version="1.1" id="Layer_1" xmlns="http://www.w3.org/2000/svg" xmlns:xlink="http://www.w3.org/1999/xlink" x="0px" y="0px"
	 viewBox="0 0 512 512" style="enable-background:new 0 0 512 512;" xml:space="preserve">
<path d="M198.6,3.8H16.8c-4.4,0-8,3.6-8,8v32c0,4.4,3.6,8,8,8h181.8c4.4,0,8-3.6,8-8v-32C206.6,7.3,203,3.8,198.6,3.8z M499.3,193.9
	c0-31.9-13.3-60.1-37.3-79.4c-20.8-16.7-48.2-25.9-77.1-25.9c-28.6,0-55.3,9.1-75.3,25.6c-23.5,19.4-35.9,46.9-35.9,79.7
	c0,15.7,0,35.5-0.1,57.4c-0.1,50.3-0.2,113,0.1,158.3c0.1,13.1-7.1,24-21.4,32.4c-27.9,16.3-72.5,17.1-99.3,1.7
	c-14-8-20.8-19-20.8-33.6v-78.9h66.4c4.4,0,8-3.6,8-8V91.5c0-4.4-3.6-8-8-8H16.8c-4.4,0-8,3.6-8,8v231.8c0,4.4,3.6,8,8,8h67.4v78.9
	c0,31.9,15.9,58.6,44.9,75.2c20.2,11.6,45.5,17.3,71.1,17.3c27.1,0,54.4-6.4,76.3-19.2c29.4-17.2,45.5-43.5,45.2-74.2
	c-0.3-45.1-0.2-107.6-0.1-157.8c0-21.9,0.1-41.8,0.1-57.5c0-18.3,6.2-32.6,18.4-42.7c11.2-9.3,27.5-14.6,44.7-14.6
	c32,0,66.4,17.9,66.4,57.3c0,39.8,1.5,169.5,1.9,203.1c0.1,4.4,3.7,8,8.1,7.9l32-0.4c4.4-0.1,8-3.7,7.9-8.1
	C500.8,362.9,499.3,233.5,499.3,193.9z"/>
</svg>
