<?xml version="1.0" encoding="utf-8"?>
<!-- Generator: Adobe Illustrator 26.5.0, SVG Export Plug-In . SVG Version: 6.00 Build 0)  -->
<svg version="1.1" id="Layer_1" xmlns="http://www.w3.org/2000/svg" xmlns:xlink="http://www.w3.org/1999/xlink" x="0px" y="0px"
	 viewBox="0 0 512 512" style="enable-background:new 0 0 512 512;" xml:space="preserve">
<g>
	<path d="M279.6,10.4C273.5,3.8,265,0,256,0s-17.5,3.8-23.6,10.4l-88,96c-11.9,13-11.1,33.3,2,45.2s33.3,11.1,45.2-2l32.4-35.3V352
		c0,17.7,14.3,32,32,32s32-14.3,32-32V114.3l32.4,35.4c11.9,13,32.2,13.9,45.2,2s13.9-32.2,2-45.2l-88-96V10.4z M512,145.6v298.7
		c0,37.4-30.3,67.7-67.7,67.7H67.7C30.3,512,0,481.7,0,444.3V145.6c0-37.4,30.3-67.7,67.7-67.7H91c7.2,0,13,5.8,13,13v41.7
		c0,7.2-5.8,13-13,13l-9.3,0c-7.3,0-14,6-14,14l0,270.7c0,7.2,3.2,14,14,14h348.6c7.4,0,14-6.4,14-14l0-270.7c0-8-4.8-14-14-14
		l-9.3,0c-7.2,0-13-5.8-13-13V90.9c0-7.2,5.8-13,13-13h23.3C481.7,77.9,512,108.2,512,145.6z"/>
</g>
</svg>
