<?xml version="1.0" encoding="utf-8"?>
<!-- Generator: Adobe Illustrator 26.0.1, SVG Export Plug-In . SVG Version: 6.00 Build 0)  -->
<svg version="1.1" id="Layer_1" xmlns="http://www.w3.org/2000/svg" xmlns:xlink="http://www.w3.org/1999/xlink" x="0px" y="0px"
	 viewBox="0 0 640 512" style="enable-background:new 0 0 640 512;" xml:space="preserve">
<path d="M628.1,240.2l-80-80c-15-15-41-4.8-41,17.5v47.5v7.9h-66.9v-181c0-26.5-21.5-48-48-48H150.7c-26.5,0-48,21.5-48,48v181H14
	c-6.6,0-12,5.4-12,12v24c0,6.6,5.4,12,12,12h88.7v183c0,26.5,21.5,48,48,48h241.5c26.5,0,48-21.5,48-48v-183h66.9v8v47.5
	c0,22.4,26.1,32.3,41,17.5l80-80C637.5,264.7,637.5,249.5,628.1,240.2z M392.2,160.2v72.9v48v102.2v56.8c0,13.3-10.7,24-24,24H174.7
	c-13.3,0-24-10.7-24-24v-159h193.5v-48H150.7v-157c0-13.3,10.7-24,24-24h193.5c13.3,0,24,10.7,24,24V160.2z"/>
</svg>
