<?xml version="1.0" encoding="utf-8"?>
<!-- Generator: Adobe Illustrator 26.0.1, SVG Export Plug-In . SVG Version: 6.00 Build 0)  -->
<svg version="1.1" id="Layer_1" xmlns="http://www.w3.org/2000/svg" xmlns:xlink="http://www.w3.org/1999/xlink" x="0px" y="0px"
	 viewBox="0 0 640 512" style="enable-background:new 0 0 640 512;" xml:space="preserve">
<path d="M128,352H32c-17.7,0-32,14.3-32,32v96c0,17.7,14.3,32,32,32h96c17.7,0,32-14.3,32-32v-96C160,366.3,145.7,352,128,352z
	 M104,272h192v87.5h48V272h192v87.5h48v-97.1c0-21.2-17.2-38.4-38.4-38.4H344v-64h40c17.7,0,32-14.3,32-32V32c0-17.7-14.3-32-32-32
	H256c-17.7,0-32,14.3-32,32v96c0,17.7,14.3,32,32,32h40v64H94.4C73.2,224,56,241.2,56,262.4v97.1h48V272z M368,352h-96
	c-17.7,0-32,14.3-32,32v96c0,17.7,14.3,32,32,32h96c17.7,0,32-14.3,32-32v-96C400,366.3,385.7,352,368,352z M608,352h-96
	c-17.7,0-32,14.3-32,32v96c0,17.7,14.3,32,32,32h96c17.7,0,32-14.3,32-32v-96C640,366.3,625.7,352,608,352z"/>
</svg>
