<?xml version="1.0" encoding="utf-8"?>
<!-- Generator: Adobe Illustrator 26.0.1, SVG Export Plug-In . SVG Version: 6.00 Build 0)  -->
<svg version="1.1" id="Layer_1" xmlns="http://www.w3.org/2000/svg" xmlns:xlink="http://www.w3.org/1999/xlink" x="0px" y="0px"
	 viewBox="0 0 640 512" style="enable-background:new 0 0 640 512;" xml:space="preserve">
<path d="M629.5,238l-80-80c-4.9-4.9-10.9-7.1-16.8-7.1c-12.3,0-24.2,9.5-24.2,24.6V223v15.9h-74.8V58c0-26.5-21.5-48-48-48H160.2
	c-26.5,0-48,21.5-48,48v180.9H15.5c-6.6,0-12,5.4-12,12v8c0,6.6,5.4,12,12,12h96.7V454c0,26.5,21.5,48,48,48h225.5
	c26.5,0,48-21.5,48-48V270.9h74.8v16v47.5c0,15.1,11.9,24.5,24.2,24.5c5.9,0,12-2.2,16.8-7l80-80C638.9,262.5,638.9,247.3,629.5,238
	z M401.7,146.3v92.6v32v98.6V446c0,13.3-10.7,24-24,24H168.2c-13.3,0-24-10.7-24-24V270.9h209.5v-32H144.2V66c0-13.3,10.7-24,24-24
	h209.5c13.3,0,24,10.7,24,24V146.3z M540.5,315.7V287v-64v-28.7l60.7,60.7L540.5,315.7z"/>
</svg>
