<?xml version="1.0" encoding="utf-8"?>
<!-- Generator: Adobe Illustrator 26.0.1, SVG Export Plug-In . SVG Version: 6.00 Build 0)  -->
<svg version="1.1" id="Layer_1" xmlns="http://www.w3.org/2000/svg" xmlns:xlink="http://www.w3.org/1999/xlink" x="0px" y="0px"
	 viewBox="0 0 512 512" style="enable-background:new 0 0 512 512;" xml:space="preserve">
<g>
	<path d="M256,7c-34.8,0-66,26.4-88.8,45.6c-3.8,3.2-7.5,6.3-10.8,9C132.1,80.9,25.4,166.7,21.3,170c-9.7,8-15.3,19.8-15.3,32.4V465
		c0,23.2,18.8,42,42,42h416c23.2,0,42-18.8,42-42V202.5c0-12.6-5.6-24.4-15.2-32.4l0,0c-4.7-3.9-111.8-90-135.2-108.6
		c-3.3-2.6-6.9-5.6-10.7-8.9C323.5,34.5,291,7,256,7z M458,471H54c-6.6,0-12-5.4-12-12V205.3c0-3.6,1.6-7,4.5-9.3
		c15.3-12.3,108.3-87.2,132.4-106.3c3-2.4,6.5-5.4,10.3-8.5C208.2,65.1,234.2,43,256,43c21.9,0,48,22.2,67.2,38.4
		c3.6,3.1,7.1,6,10,8.3c23.2,18.4,116.5,93.5,132.4,106.3c2.8,2.3,4.5,5.7,4.5,9.3V459C470,465.6,464.6,471,458,471z M104.5,254.4
		c-1.7,0-3.5,0.7-4.6,2.2l-15.3,18.5c-1,1.2-1.5,2.8-1.3,4.4c0.2,1.6,0.9,3,2.2,4.1c16.7,13.4,56.9,45.7,70.9,56.8
		c3.3,2.6,6.8,5.6,10.6,8.9c21.5,18.2,54,45.7,89,45.7c34.8,0,66-26.4,88.8-45.6c3.8-3.2,7.5-6.3,10.8-9
		c13.5-10.7,50.2-40.2,70.9-56.9c1.3-1,2-2.5,2.2-4.1c0.2-1.6-0.3-3.2-1.3-4.4l-15.3-18.5c-2.1-2.5-5.8-2.9-8.4-0.9
		c-25.1,20.1-57.6,46.3-70.6,56.6c-3,2.4-6.5,5.4-10.3,8.5c-19,16.1-45.1,38.2-66.9,38.2c-21.9,0-48-22.2-67.1-38.4
		c-3.6-3.1-7.1-6-10-8.3c-10.3-8.2-36-28.8-70.6-56.6C107.2,254.8,105.8,254.4,104.5,254.4z"/>
</g>
</svg>
