<?xml version="1.0" encoding="utf-8"?>
<!-- Generator: Adobe Illustrator 26.0.1, SVG Export Plug-In . SVG Version: 6.00 Build 0)  -->
<svg version="1.1" id="Layer_1" xmlns="http://www.w3.org/2000/svg" xmlns:xlink="http://www.w3.org/1999/xlink" x="0px" y="0px"
	 viewBox="0 0 512 512" style="enable-background:new 0 0 512 512;" xml:space="preserve">
<g>
	<path d="M48,70C25.4,70,7,88.4,7,111v288c0,22.6,18.4,41,41,41h416c22.6,0,41-18.4,41-41V111c0-22.6-18.4-41-41-41H48z M471,406H41
		V198.9l11.4,9c24,19.1,57.3,45.4,104.9,82.6c3.2,2.6,6.8,5.5,10.6,8.7c21.4,17.8,53.7,44.8,87.8,44.8c0.2,0,0.5,0,0.7,0
		c34,0,65-25.8,87.6-44.6c3.8-3.2,7.5-6.2,10.8-8.8c47.5-37.2,80.9-63.5,104.9-82.6l11.4-9V406z M255.6,310
		c-21.8,0-48.3-22.1-67.7-38.3c-3.5-2.9-6.9-5.7-9.6-7.9c-69.7-54.6-110-86.4-134.7-106.6l-2.6-2.1V104h430v51.1l-2.6,2.1
		c-24.7,20.2-65,52-134.7,106.6c-2.7,2.2-6.1,4.9-9.6,7.9c-19.4,16.2-45.9,38.3-67.7,38.3C256.1,310,255.9,310,255.6,310z"/>
</g>
</svg>
