<?xml version="1.0" encoding="utf-8"?>
<!-- Generator: Adobe Illustrator 26.0.1, SVG Export Plug-In . SVG Version: 6.00 Build 0)  -->
<svg version="1.1" id="Layer_1" xmlns="http://www.w3.org/2000/svg" xmlns:xlink="http://www.w3.org/1999/xlink" x="0px" y="0px"
	 viewBox="0 0 458.7 512" style="enable-background:new 0 0 458.7 512;" xml:space="preserve">
<style type="text/css">
	.st0{display:none;}
	.st1{display:inline;fill:none;}
</style>
<g id="Layer_3" class="st0">
	<polygon class="st1" points="387.7,164.6 229.4,73.2 71,164.6 71,347.4 229.4,438.8 387.7,347.4 	"/>
</g>
<path d="M402.8,300.6c-9.4,0-18.9,2.4-27.6,7.4c-3.8,2.2-7.3,4.8-10.4,7.7l-62.5-36.1c2.3-7.3,3.6-15.1,3.6-23.1
	c0-8.4-1.4-16.5-3.9-24l62.8-36.3c9.9,9.4,23.3,15.1,38,15.1c0,0,0.1,0,0.1,0c30.6,0,55.5-24.9,55.6-55.5
	c0.1-30.7-24.8-55.6-55.5-55.7c0,0-0.1,0-0.1,0c-30.6,0-55.5,24.9-55.6,55.5c0,4.4,0.5,8.7,1.5,12.9l-62.9,36.3
	c-10.6-11.6-24.6-19.9-40.5-23.2v-72.8c13.1-3.9,24.7-12.6,32.1-25.3c15.4-26.5,6.3-60.6-20.2-76C248.5,2.4,238.9,0,229.4,0
	c-19.2,0-37.9,9.9-48.2,27.7c-15.4,26.5-6.3,60.6,20.2,76c3.8,2.2,7.8,3.9,11.9,5.2v72.8c-15.9,3.4-30,11.7-40.5,23.2l-63-36.4
	c3.1-13.3,1.4-27.7-5.9-40.5c-10.3-17.9-29-27.9-48.3-27.9c-9.4,0-18.9,2.4-27.6,7.4C1.5,122.9-7.7,156.9,7.6,183.5
	c10.3,17.9,29,27.9,48.3,27.9c9.4,0,18.9-2.4,27.6-7.4c3.8-2.2,7.3-4.8,10.4-7.7l62.8,36.2c-2.5,7.6-3.9,15.6-3.9,24
	c0,8.1,1.3,15.8,3.6,23.1l-62.5,36.1c-9.9-9.4-23.3-15.1-38-15.1c0,0-0.1,0-0.1,0c-30.6,0-55.5,24.9-55.6,55.5
	c-0.1,30.7,24.8,55.6,55.5,55.7c0,0,0.1,0,0.1,0c30.6,0,55.5-24.9,55.6-55.5c0-4.4-0.5-8.7-1.5-12.9l62.3-36
	c10.6,11.9,25,20.5,41.2,24v71.8c-13.1,3.9-24.7,12.6-32.1,25.3c-15.4,26.5-6.3,60.6,20.2,76c8.8,5.1,18.3,7.5,27.8,7.5
	c19.2,0,37.9-9.9,48.2-27.7c15.4-26.5,6.3-60.6-20.2-76c-3.8-2.2-7.8-3.9-11.9-5.2v-71.7c16.2-3.4,30.5-12,41.2-24l62.3,36
	c-3.1,13.3-1.4,27.7,5.9,40.5c10.3,17.9,29,27.9,48.3,27.9c9.4,0,18.9-2.4,27.6-7.4c26.6-15.3,35.8-49.3,20.5-75.9
	C440.8,310.6,422.1,300.6,402.8,300.6z M402.9,132.2L402.9,132.2c6.3,0,12.2,2.5,16.7,7c4.5,4.5,6.9,10.4,6.9,16.7
	c0,13-10.6,23.6-23.6,23.6c-6.3,0-12.2-2.5-16.7-7c-4.5-4.5-6.9-10.4-6.9-16.7C379.3,142.8,389.9,132.2,402.9,132.2z M78.5,161.9
	c-1.6,6.1-5.5,11.2-11,14.3c-3.6,2.1-7.5,3.1-11.7,3.1c-8.5,0-16.4-4.5-20.5-11.8c-6.5-11.3-2.6-25.7,8.7-32.2
	c3.6-2.1,7.5-3.1,11.7-3.1c8.5,0,16.4,4.5,20.5,11.8C79.4,149.5,80.2,155.8,78.5,161.9z M55.7,379.8c-13,0-23.6-10.6-23.6-23.6
	c0-13,10.6-23.6,23.6-23.6h0c13,0,23.6,10.6,23.6,23.6C79.4,369.2,68.8,379.8,55.7,379.8z M208.9,43.7C213.1,36.5,221,32,229.4,32
	c4.2,0,8.1,1.1,11.7,3.2c11.3,6.5,15.1,21,8.6,32.2c-4.2,7.2-12.1,11.7-20.5,11.7c-4.2,0-8.1-1.1-11.7-3.2
	C206.3,69.5,202.4,55,208.9,43.7z M252.1,450.4c1.6,6.1,0.8,12.5-2.4,17.9c-4.2,7.2-12.1,11.7-20.5,11.7c-4.2,0-8.1-1.1-11.7-3.2
	c-11.3-6.5-15.1-21-8.6-32.2c4.2-7.2,12.1-11.7,20.5-11.7c4.2,0,8.1,1.1,11.7,3.2C246.6,439.2,250.5,444.3,252.1,450.4z
	 M229.3,301.1c-24.6,0-44.6-20-44.6-44.6c0-24.6,20-44.6,44.6-44.6s44.6,20,44.6,44.6C273.9,281.1,253.9,301.1,229.3,301.1z
	 M414.7,376.7c-3.6,2.1-7.5,3.1-11.7,3.1c-8.5,0-16.4-4.5-20.5-11.8c-6.5-11.3-2.6-25.7,8.7-32.2c3.6-2.1,7.5-3.1,11.7-3.1
	c8.5,0,16.4,4.5,20.5,11.8C429.9,355.7,426,370.2,414.7,376.7z"/>
</svg>
