<?xml version="1.0" encoding="utf-8"?>
<!-- Generator: Adobe Illustrator 26.5.0, SVG Export Plug-In . SVG Version: 6.00 Build 0)  -->
<svg version="1.1" id="Icon" xmlns="http://www.w3.org/2000/svg" xmlns:xlink="http://www.w3.org/1999/xlink" x="0px" y="0px"
	 viewBox="0 0 512 512" style="enable-background:new 0 0 512 512;" xml:space="preserve">
<style type="text/css">
	.st0{fill:none;}
</style>
<g id="specs-delete">
</g>
<path d="M489.6,260.3H198.4c-11.5,0-20.8-9.3-20.8-20.8v-41.6c0-11.5,9.3-20.8,20.8-20.8h291.2c11.5,0,20.8,9.3,20.8,20.8v41.6
	C510.4,251,501.1,260.3,489.6,260.3z M458.4,203.1c-8.6,0-15.6,7-15.6,15.6c0,8.6,7,15.6,15.6,15.6s15.6-7,15.6-15.6
	C474,210.1,467,203.1,458.4,203.1z M416.8,203.1c-8.6,0-15.6,7-15.6,15.6c0,8.6,7,15.6,15.6,15.6s15.6-7,15.6-15.6
	C432.4,210.1,425.4,203.1,416.8,203.1z M489.6,376.3H198.4c-11.5,0-20.8-9.3-20.8-20.8v-41.6c0-11.5,9.3-20.8,20.8-20.8h291.2
	c11.5,0,20.8,9.3,20.8,20.8v41.6C510.4,367,501.1,376.3,489.6,376.3z M458.4,319.1c-8.6,0-15.6,7-15.6,15.6s7,15.6,15.6,15.6
	s15.6-7,15.6-15.6S467,319.1,458.4,319.1z M416.8,319.1c-8.6,0-15.6,7-15.6,15.6s7,15.6,15.6,15.6s15.6-7,15.6-15.6
	S425.4,319.1,416.8,319.1z M489.6,491.3H198.4c-11.5,0-20.8-9.3-20.8-20.8v-41.6c0-11.5,9.3-20.8,20.8-20.8h291.2
	c11.5,0,20.8,9.3,20.8,20.8v41.6C510.4,482,501.1,491.3,489.6,491.3z M458.4,434.1c-8.6,0-15.6,7-15.6,15.6s7,15.6,15.6,15.6
	s15.6-7,15.6-15.6S467,434.1,458.4,434.1z M416.8,434.1c-8.6,0-15.6,7-15.6,15.6s7,15.6,15.6,15.6s15.6-7,15.6-15.6
	S425.4,434.1,416.8,434.1z"/>
<g>
	<path class="st0" d="M370.1,144.8C366.8,121.7,347,104,323,104c-11.8,0-22.6,4.3-30.9,11.5c-14.2-34.7-48.3-59.1-88.1-59.1
		c-52.6,0-95.2,42.6-95.2,95.2v0.8c-40.4,5.8-71.4,40.5-71.4,82.5c0,46,37.3,83.3,83.3,83.3h24.9"/>
	<line class="st0" x1="384.5" y1="176.8" x2="323.8" y2="176.8"/>
	<path d="M139.6,318.2c3.3,0,6,2.7,6,6v23.7c0,3.3-2.7,6-6,6h-19c-65.8,0-119-53.3-119-119c0-48.8,29.7-92.2,74.2-110.2
		C88.3,65.1,141,20.7,204,20.7c41.7,0,78.6,19.6,102.4,49.3c5.4-1.1,11-1.7,16.7-1.7c41.4,0,75.5,30.1,82.1,69.4
		c0.6,3.7-2.2,7.1-5.9,7.1h-24.3c-2.8,0-5.2-1.9-5.8-4.6c-5.1-20.8-23.9-36.1-46.2-36.1c-11.8,0-22.6,4.3-30.9,11.5
		c-14.2-34.7-48.3-59.1-88.1-59.1c-52.6,0-95.2,42.6-95.2,95.2v0.8c-40.6,5.8-71.7,40.9-71.4,83.2c0.4,45.9,38.4,82.6,84.3,82.6
		H139.6z"/>
</g>
</svg>
