<?xml version="1.0" encoding="utf-8"?>
<!-- Generator: Adobe Illustrator 26.5.0, SVG Export Plug-In . SVG Version: 6.00 Build 0)  -->
<svg version="1.1" id="Layer_1" xmlns="http://www.w3.org/2000/svg" xmlns:xlink="http://www.w3.org/1999/xlink" x="0px" y="0px"
	 viewBox="0 0 576 512" style="enable-background:new 0 0 576 512;" xml:space="preserve">
<g>
	<path d="M400,144h121.4l-52.7,52.7c-6.2,6.2-6.2,16.4,0,22.6c3.1,3.1,7.2,4.7,11.3,4.7c4.1,0,8.2-1.6,11.3-4.7l80-80
		c6.2-6.2,6.2-16.4,0-22.6l-80-80c-6.2-6.2-16.4-6.2-22.6,0s-6.2,16.4,0,22.6l52.7,52.7H400c-15,0-29.4,7.2-38.4,19.2L188.8,361.6
		c-3,4-7.8,6.4-12.8,6.4H80H54.6l52.7-52.7c6.2-6.2,6.2-16.4,0-22.6s-16.4-6.2-22.6,0l-80,80c-6.2,6.2-6.2,16.4,0,22.6l80,80
		c3.1,3.1,7.2,4.7,11.3,4.7c4.1,0,8.2-1.6,11.3-4.7c6.2-6.2,6.2-16.4,0-22.6L54.6,400H80h96c15,0,29.4-7.2,38.4-19.2l172.8-230.4
		C390.2,146.4,395,144,400,144z"/>
	<path d="M491.3,292.7c-6.2-6.2-16.4-6.2-22.6,0s-6.2,16.4,0,22.6l52.7,52.7H400c-5,0-9.8-2.4-12.8-6.4l-38.4-51.2
		c-5.3-7.1-15.4-8.5-22.4-3.2c-7.1,5.3-8.5,15.3-3.2,22.4l38.4,51.2c9,12,22.5,19.2,38.4,19.2h121.4l-52.7,52.7
		c-6.2,6.2-6.2,16.4,0,22.6c3.1,3.1,7.2,4.7,11.3,4.7c4.1,0,8.2-1.6,11.3-4.7l80-80c6.2-6.2,6.2-16.4,0-22.6L491.3,292.7z"/>
	<path d="M84.7,219.3c3.1,3.1,7.2,4.7,11.3,4.7c4.1,0,8.2-1.6,11.3-4.7c6.2-6.2,6.2-16.4,0-22.6L54.6,144H80h96
		c5,0,9.8,2.4,12.8,6.4l38.4,51.2c3.1,4.2,8,6.4,12.8,6.4c3.3,0,6.7-1,9.6-3.2c7.1-5.3,8.5-15.3,3.2-22.4l-38.4-51.2
		c-9-12-23.4-19.2-38.4-19.2H80H54.6l52.7-52.7c6.2-6.2,6.2-16.4,0-22.6s-16.4-6.2-22.6,0l-80,80c-6.2,6.2-6.2,16.4,0,22.6
		L84.7,219.3z"/>
</g>
</svg>
