<?xml version="1.0" encoding="utf-8"?>
<!-- Generator: Adobe Illustrator 26.0.1, SVG Export Plug-In . SVG Version: 6.00 Build 0)  -->
<svg version="1.1" id="Layer_1" xmlns="http://www.w3.org/2000/svg" xmlns:xlink="http://www.w3.org/1999/xlink" x="0px" y="0px"
	 viewBox="0 0 448 512" style="enable-background:new 0 0 448 512;" xml:space="preserve">
<path d="M448,415c0,52.2-42.3,94.5-94.5,94.5S259,467.2,259,415c0-9.5,1.4-18.7,4-27.4l-103.7-62.9c-16.9,16-39.8,25.8-64.9,25.8
	C42.3,350.5,0,308.2,0,256s42.3-94.5,94.5-94.5c25.5,0,48.6,10.1,65.6,26.5l102.8-64c-2.5-8.5-3.9-17.6-3.9-27
	c0-52.2,42.3-94.5,94.5-94.5S448,44.8,448,97s-42.3,94.5-94.5,94.5c-25.5,0-48.6-10.1-65.6-26.5l-102.8,64c2.5,8.5,3.9,17.6,3.9,27
	c0,9.7-1.5,19.1-4.2,28l103.4,62.7c17-16.2,40-26.2,65.3-26.2C405.7,320.5,448,362.8,448,415z"/>
</svg>
