<?xml version="1.0" encoding="utf-8"?>
<!-- Generator: Adobe Illustrator 26.5.0, SVG Export Plug-In . SVG Version: 6.00 Build 0)  -->
<svg version="1.1" id="Icon" xmlns="http://www.w3.org/2000/svg" xmlns:xlink="http://www.w3.org/1999/xlink" x="0px" y="0px"
	 viewBox="0 0 512 512" style="enable-background:new 0 0 512 512;" xml:space="preserve">
<path d="M340,172v168H172V172H340 M348,140H164c-13.3,0-24,10.7-24,24v184c0,13.3,10.7,24,24,24h184c13.3,0,24-10.7,24-24V164
	C372,150.7,361.3,140,348,140L348,140z M203.4,4.3h262c23.4,0,42.3,18.9,42.3,42.3v261.8c0,4-3.2,7.2-7.2,7.2h-18.6
	c-4,0-7.2-3.2-7.2-7.2V50.7c0-7.4-6-13.4-13.4-13.4H203.4c-4,0-7.2-3.2-7.2-7.2V11.5C196.2,7.5,199.4,4.3,203.4,4.3z M37.3,203.6
	v257.7c0,7.4,6,13.4,13.4,13.4h257.9c4,0,7.2,3.2,7.2,7.2v18.6c0,4-3.2,7.2-7.2,7.2h-262c-23.4,0-42.3-18.9-42.3-42.3V203.6
	c0-4,3.2-7.2,7.2-7.2h18.6C34.1,196.4,37.3,199.6,37.3,203.6z"/>
</svg>
