<?xml version="1.0" encoding="utf-8"?>
<!-- Generator: Adobe Illustrator 25.4.1, SVG Export Plug-In . SVG Version: 6.00 Build 0)  -->
<svg version="1.1" id="Layer_1" xmlns="http://www.w3.org/2000/svg" xmlns:xlink="http://www.w3.org/1999/xlink" x="0px" y="0px"
	 viewBox="0 0 640 512" style="enable-background:new 0 0 640 512;" xml:space="preserve">
<path d="M608,352h-32v-97.6c0-16.8-13.6-30.4-30.4-30.4H336v-64h48c17.7,0,32-14.3,32-32V32c0-17.7-14.3-32-32-32H256
	c-17.7,0-32,14.3-32,32v96c0,17.7,14.3,32,32,32h48v64H94.4C77.6,224,64,237.6,64,254.4V352H32c-17.7,0-32,14.3-32,32v96
	c0,17.7,14.3,32,32,32h96c17.7,0,32-14.3,32-32v-96c0-17.7-14.3-32-32-32H96v-96h208v96h-32c-17.7,0-32,14.3-32,32v96
	c0,17.7,14.3,32,32,32h96c17.7,0,32-14.3,32-32v-96c0-17.7-14.3-32-32-32h-32v-96h208v96h-32c-17.7,0-32,14.3-32,32v96
	c0,17.7,14.3,32,32,32h96c17.7,0,32-14.3,32-32v-96C640,366.3,625.7,352,608,352z M128,384v96H32v-96H128z M368,384v96h-96v-96H368z
	 M256,128V32h128v96H256z M608,480h-96v-96h96V480z"/>
</svg>
