<?xml version="1.0" encoding="utf-8"?>
<!-- Generator: Adobe Illustrator 26.0.1, SVG Export Plug-In . SVG Version: 6.00 Build 0)  -->
<svg version="1.1" id="Layer_1" xmlns="http://www.w3.org/2000/svg" xmlns:xlink="http://www.w3.org/1999/xlink" x="0px" y="0px"
	 viewBox="0 0 512 512" style="enable-background:new 0 0 512 512;" xml:space="preserve">
<path d="M120,259.2c18.5-29.6,40.7-56.8,66.7-81.2c6.5-6.1,13.2-12,20.1-17.7c-0.3-1.6-0.5-3.2-0.6-4.9c-11.8-1.2-23.7-2-35.7-2.5
	c-42.7-1.7-85.9,1.4-129.2,9.1c13.8,37.6,35.6,71.2,63.9,100.2c4.5-1.9,9.4-2.9,14.6-2.9C119.8,259.2,119.9,259.2,120,259.2z
	 M138.1,477.4c44.6-28.2,83.2-56.8,116.2-86.1c-0.5-2-0.8-4-1-6c-29-8.8-56.7-20.3-82.6-34.4c-11.6-6.3-22.6-13.1-33.2-20.3
	c-5.3,2.8-11.3,4.4-17.7,4.4c-0.8,0-1.6,0-2.4-0.1c-13.7,34-23,70.7-27.5,109.4C104.8,457.3,120.9,468.4,138.1,477.4z M119.7,315
	c9.9,0,17.9-8,17.9-17.9s-8-17.9-17.9-17.9s-17.9,8-17.9,17.9S109.8,315,119.7,315z M272.1,152.6c0-11.7-9.5-21.2-21.2-21.2
	s-21.2,9.5-21.2,21.2s9.5,21.2,21.2,21.2S272.1,164.3,272.1,152.6z M387.1,203.5c-7.2-3.2-14.5-6.3-22-9.3
	c-24-9.5-48.4-17.5-73.1-23.8c-6.9,15.8-22.7,26.9-41.1,26.9c-10.3,0-19.8-3.5-27.4-9.4c-5.1,4.3-10.1,8.7-14.9,13.3
	c-23,21.6-42.9,45.7-59.5,71.9c5.3,6.5,8.5,14.9,8.5,23.9c0,2.7-0.3,5.3-0.8,7.9c31.7,21.4,68,38.4,107.5,50.2
	c6.9-7,16.6-11.3,27.2-11.3c3.3,0,6.6,0.4,9.7,1.2c10-11.1,19.3-22.2,27.9-33.6C355.4,276.7,374.9,240.4,387.1,203.5z M273.3,382.1
	c0,10,8.1,18.1,18.1,18.1s18.1-8.1,18.1-18.1s-8.1-18.1-18.1-18.1S273.3,372.1,273.3,382.1z M399.5,406.4c-25.4,0-50.4-1.8-74.9-5.3
	c-6.6,11.5-19,19.3-33.2,19.3c-6.2,0-12-1.5-17.2-4.1c-29.4,26-62.8,51.3-100.7,76.3c25.8,8.8,53.2,13.4,81.3,13.4
	c67.2,0,130.4-26.2,177.9-73.7c9.1-9.1,17.4-18.8,24.9-29C438.1,405.4,418.7,406.4,399.5,406.4z M89.1,319.4
	c-4.6-6.3-7.3-14-7.3-22.3c0-3.9,0.6-7.7,1.7-11.2C53,255,29.6,219.6,14.1,180.7C7,204.3,3.2,229.1,3.2,254.4
	c0,59.6,20.6,116,58.4,161.2C67.3,381.8,76.5,349.6,89.1,319.4z M505.5,233.6c-4.2-52.1-24.4-101-58-141c-4.3,0.5-8.6,1-12.8,1.6
	c1.1,31.2-2.1,61.8-9.3,91.8C455.6,201.2,482.4,217.5,505.5,233.6z M171.7,120.9c14.9,0.6,29.7,1.7,44.5,3.3
	c8.2-10,20.7-16.5,34.7-16.5c8.6,0,16.6,2.4,23.5,6.6C295.2,102.9,317,93,340,84.8c19.8-7.1,40.1-12.8,60.6-17.1
	c-0.8-6.9-1.8-13.8-3.1-20.7c-41.6-28.8-91-44.3-142.7-44.3C187.6,2.8,124.4,29,76.9,76.5c-16.3,16.3-30.1,34.4-41.2,53.9
	C81.3,122.4,126.8,119.1,171.7,120.9z M479.3,368.3c14.9-29.3,23.9-61.5,26.4-94.9c-24.9-18.8-55-38.4-89.5-56
	c-13.4,39-34,76.8-61.7,113.4c-8.9,11.7-18.4,23.2-28.6,34.6c0.6,1.2,1.1,2.5,1.6,3.7C375.4,376.3,426.7,376.3,479.3,368.3z
	 M296.8,138.7c27.1,6.8,53.9,15.4,80.2,25.8c6.4,2.5,12.6,5.1,18.8,7.8c5.2-23.6,7.5-47.7,7.1-72.2c-17.6,3.9-35.1,8.9-52.1,15
	C331.9,121.8,314,129.7,296.8,138.7z"/>
</svg>
