<?xml version="1.0" encoding="utf-8"?>
<!-- Generator: Adobe Illustrator 26.0.1, SVG Export Plug-In . SVG Version: 6.00 Build 0)  -->
<svg version="1.1" id="Layer_1" xmlns="http://www.w3.org/2000/svg" xmlns:xlink="http://www.w3.org/1999/xlink" x="0px" y="0px"
	 viewBox="0 0 640 512" style="enable-background:new 0 0 640 512;" xml:space="preserve">
<path d="M366,50.5H242c-6.6,0-12,5.4-12,12v113.1l-77,77H38.6c-6.6,0-12,5.4-12,12v124c0,6.6,5.4,12,12,12h124c6.6,0,12-5.4,12-12
	V276.2l77.7-77.7H366c6.6,0,12-5.4,12-12v-124C378,55.9,372.6,50.5,366,50.5z M142.6,356.6c0,6.6-5.4,12-12,12h-60
	c-6.6,0-12-5.4-12-12v-60c0-6.6,5.4-12,12-12h60c6.6,0,12,5.4,12,12V356.6z M346,154.5c0,6.6-5.4,12-12,12h-60c-6.6,0-12-5.4-12-12
	v-60c0-6.6,5.4-12,12-12h60c6.6,0,12,5.4,12,12V154.5z M577.5,83h-124c-6.6,0-12,5.4-12,12v113.2l-76.9,76.9H250.1
	c-6.6,0-12,5.4-12,12v124c0,6.6,5.4,12,12,12h124c6.6,0,12-5.4,12-12V308.8l77.8-77.8h113.6c6.6,0,12-5.4,12-12V95
	C589.5,88.4,584.1,83,577.5,83z M354.1,389.1c0,6.6-5.4,12-12,12h-60c-6.6,0-12-5.4-12-12v-60c0-6.6,5.4-12,12-12h60
	c6.6,0,12,5.4,12,12V389.1z M557.5,187c0,6.6-5.4,12-12,12h-60c-6.6,0-12-5.4-12-12v-60c0-6.6,5.4-12,12-12h60c6.6,0,12,5.4,12,12
	V187z"/>
</svg>
