<?xml version="1.0" encoding="utf-8"?>
<!-- Generator: Adobe Illustrator 26.0.1, SVG Export Plug-In . SVG Version: 6.00 Build 0)  -->
<svg version="1.1" xmlns="http://www.w3.org/2000/svg" xmlns:xlink="http://www.w3.org/1999/xlink" x="0px" y="0px"
	 viewBox="0 0 460 512" style="enable-background:new 0 0 460 512;" xml:space="preserve">
<g id="Layer_1">
</g>
<g id="Layer_3">
	<g>
		<path d="M262,48.6l155.3,90.6c4,2.3,6.5,6.7,6.5,11.4V332l32,18.5V150.6c0-16.1-8.6-31-22.4-39.1L262,11.5V48.6z"/>
		<path d="M392.1,387.5l-155.5,90.7c-2,1.2-4.3,1.8-6.7,1.8c-2.3,0-4.6-0.6-6.6-1.8L68,387.6L36,406l171.2,99.9
			c14,8.2,31.4,8.2,45.5,0L424,406L392.1,387.5z"/>
		<path d="M36.1,332V150.6c0-4.7,2.5-9.1,6.6-11.4L198,48.6v-37l-171.5,100c-13.8,8.1-22.4,23-22.4,39.1v199.9L36.1,332z"/>
	</g>
</g>
</svg>
