<?xml version="1.0" encoding="utf-8"?>
<!-- Generator: Adobe Illustrator 25.4.1, SVG Export Plug-In . SVG Version: 6.00 Build 0)  -->
<svg version="1.1" id="Layer_1" xmlns="http://www.w3.org/2000/svg" xmlns:xlink="http://www.w3.org/1999/xlink" x="0px" y="0px"
	 viewBox="0 0 353.6 512" style="enable-background:new 0 0 353.6 512;" xml:space="preserve">
<path d="M339.1,280H14.6C6.5,280,0,273.5,0,265.4v-18.8c0-8.1,6.5-14.6,14.6-14.6h324.5c8.1,0,14.6,6.5,14.6,14.6v18.8
	C353.6,273.5,347.1,280,339.1,280z M266.5,91.8l-9.7-9.7c-3.3-3.3-7.6-5.1-12.2-5.1c0,0,0,0,0,0c-4.6,0-8.9,1.8-12.1,5.1l-31.5,31.5
	V11.3c0-6.2-5.1-11.3-11.3-11.3H164c-6.2,0-11.3,5.1-11.3,11.3v102.3l-31.5-31.5c-3.3-3.3-7.6-5.1-12.2-5.1c0,0,0,0,0,0
	c-4.6,0-8.9,1.8-12.1,5.1l-9.7,9.7c-3.3,3.3-5.1,7.6-5.1,12.2c0,4.6,1.8,8.9,5.1,12.1l77.4,77.4c3.3,3.3,7.6,5.1,12.2,5.1
	c0,0,0,0,0,0c4.6,0,8.9-1.8,12.1-5.1l77.5-77.4c3.3-3.3,5.1-7.6,5.1-12.2C271.5,99.3,269.7,95,266.5,91.8z M87.2,420.2l9.7,9.7
	c3.3,3.3,7.6,5.1,12.2,5.1c0,0,0,0,0,0c4.6,0,8.9-1.8,12.1-5.1l31.5-31.5v102.3c0,6.2,5.1,11.3,11.3,11.3h25.6
	c6.2,0,11.3-5.1,11.3-11.3V398.4l31.5,31.5c3.3,3.3,7.6,5.1,12.2,5.1c0,0,0,0,0,0c4.6,0,8.9-1.8,12.1-5.1l9.7-9.7
	c3.3-3.3,5.1-7.6,5.1-12.2c0-4.6-1.8-8.9-5.1-12.1L189,318.4c-3.3-3.3-7.6-5.1-12.2-5.1c0,0,0,0,0,0c-4.6,0-8.9,1.8-12.1,5.1
	l-77.5,77.4c-3.3,3.3-5.1,7.6-5.1,12.2C82.2,412.7,84,417,87.2,420.2z"/>
</svg>
