<?xml version="1.0" encoding="utf-8"?>
<!-- Generator: Adobe Illustrator 26.5.0, SVG Export Plug-In . SVG Version: 6.00 Build 0)  -->
<svg version="1.1" id="Layer_1" xmlns="http://www.w3.org/2000/svg" xmlns:xlink="http://www.w3.org/1999/xlink" x="0px" y="0px"
	 viewBox="0 0 576.1 512" style="enable-background:new 0 0 576.1 512;" xml:space="preserve">
<g>
	<path d="M390.5,172.8c6-8.1,15.5-12.8,25.6-12.8h32v31.8c0,13,7.8,24.6,19.8,29.6s25.7,2.3,34.9-6.9l64-64c6-6,9.4-14.1,9.4-22.6
		c0-8.5-3.4-16.6-9.4-22.6l-64-64c-9.2-9.1-22.9-11.9-34.9-6.9S448.1,51.1,448.1,64v32h-32c-30.2,0-58.7,14.2-76.8,38.4L308.1,176
		l40,53.3L390.5,172.8z"/>
	<path d="M502.8,297.3c-9.2-9.1-22.9-11.9-34.9-6.9s-19.8,16.7-19.8,29.6v32h-32c-10.1,0-19.6-4.7-25.6-12.8L236.9,134.4
		C218.8,110.2,190.3,96,160.1,96h-32V64c0-12.9-7.8-24.6-19.8-29.6s-25.7-2.2-34.9,6.9l-64,64c-6,6-9.4,14.1-9.4,22.6
		c0,8.5,3.4,16.6,9.4,22.6l64,64c9.2,9.2,22.9,11.9,34.9,6.9s19.8-16.6,19.8-29.6V160h32c10.1,0,19.6,4.7,25.6,12.8l153.6,204.8
		c18.1,24.2,46.6,38.4,76.8,38.4H448v32c0,13,7.8,24.6,19.8,29.6s25.7,2.3,34.9-6.9l0.1-0.2l64-64c6-6,9.4-14.1,9.4-22.6
		s-3.4-16.6-9.4-22.6L502.8,297.3z"/>
	<path d="M185.7,339.2c-6,8.1-15.5,12.8-25.6,12.8h-32v-32c0-12.9-7.8-24.6-19.8-29.6s-25.7-2.2-34.9,6.9l-64,64
		c-6,6-9.4,14.1-9.4,22.6s3.4,16.6,9.4,22.6l64,64l0.1,0.2c9.2,9.2,22.9,11.9,34.9,6.9s19.8-16.6,19.8-29.6v-32h31.9
		c30.2,0,58.7-14.2,76.8-38.4l31.2-41.6l-40-53.3L185.7,339.2z"/>
</g>
</svg>
