<?xml version="1.0" encoding="utf-8"?>
<!-- Generator: Adobe Illustrator 26.0.1, SVG Export Plug-In . SVG Version: 6.00 Build 0)  -->
<svg version="1.1" id="Layer_1" xmlns="http://www.w3.org/2000/svg" xmlns:xlink="http://www.w3.org/1999/xlink" x="0px" y="0px"
	 viewBox="0 0 475.7 512" style="enable-background:new 0 0 475.7 512;" xml:space="preserve">
<path d="M237.8,82.4c-84.5,0-153.3,68.8-153.3,153.3c0,25.1,6.2,50,18,72.1c2,3.9,5.6,6.7,9.8,7.8c4.2,1.1,8.6,0.3,12.2-2l12.9-8.5
	c6.6-4.4,8.9-13,5.3-20c-8-15.4-12-31.9-12-49.3c0-28.6,11.1-55.5,31.4-75.7c20.2-20.2,47.1-31.4,75.7-31.4s55.5,11.1,75.7,31.4
	c20.2,20.2,31.4,47.1,31.4,75.7c0,18-4.3,35.2-12.9,51c-3.8,6.9-1.7,15.8,4.8,20.2l12.8,8.7c2.6,1.8,5.6,2.7,8.7,2.7
	c1.2,0,2.4-0.1,3.5-0.4c4.2-1,7.8-3.7,9.8-7.4c12.7-22.7,19.5-48.6,19.5-74.8C391.2,151.1,322.3,82.4,237.8,82.4z M402.8,70.7
	c-44.1-44-102.6-68.3-164.9-68.3s-121,24.3-165,68.3C28.8,114.8,4.6,173.3,4.6,235.6c0,41,10.8,81.3,31.2,116.6
	c2.2,3.7,5.6,6.2,9.8,7.2c4.1,1,8.4,0.2,11.9-2.1l12.9-8.5c6.8-4.4,8.9-13.5,4.9-20.6c-16.1-28.1-24.5-60.1-24.5-92.6
	c0-49.9,19.4-96.8,54.7-132.2c35.3-35.3,82.3-54.7,132.2-54.7s96.8,19.4,132.2,54.7c35.3,35.4,54.7,82.3,54.7,132.2
	c0,33.7-9.1,66.8-26.3,95.6c-4.1,7-2.1,16.1,4.6,20.6l12.8,8.7c2.6,1.8,5.6,2.7,8.7,2.7c1.1,0,2.2-0.1,3.3-0.3
	c4.2-0.9,7.7-3.4,9.9-7.1c21.9-36.3,33.4-77.9,33.4-120.4C471,173.3,446.8,114.8,402.8,70.7z M335.8,444l-50.5-109l-25.5-55
	c7.6-3.8,14.2-9.5,19-16.5c6-8.7,9-19.1,8.6-29.8c-1-26.3-22.4-47.3-48.8-47.7c-13.3-0.2-26,4.9-35.5,14.3
	c-9.5,9.4-14.8,21.9-14.8,35.3c0,9.7,2.8,19.1,8.1,27.1c5.1,7.8,12.2,13.9,20.5,17.7l-25.5,54.9l-50.5,109l-21.5,46.3
	c-1.9,4.2-1.6,9,0.9,12.8c2.5,3.9,6.7,6.2,11.3,6.2h16.1c5.2,0,10-3,12.2-7.7l8-17.1h141.5l8,17.1c2.2,4.7,6.9,7.7,12.2,7.7h16.1
	c4.6,0,8.8-2.3,11.3-6.2c2.5-3.9,2.8-8.7,0.9-12.8L335.8,444z M211.9,389.4l2.4-5l0,0l24.1-52l24,51.8l2.5,5.3L211.9,389.4
	L211.9,389.4z M278.8,419.4l16.6,35.7H181.5l15.6-33.5l1-2.2H278.8z"/>
</svg>
