<?xml version="1.0" encoding="utf-8"?>
<!-- Generator: Adobe Illustrator 25.4.1, SVG Export Plug-In . SVG Version: 6.00 Build 0)  -->
<svg version="1.1" id="Layer_1" xmlns="http://www.w3.org/2000/svg" xmlns:xlink="http://www.w3.org/1999/xlink" x="0px" y="0px"
	 viewBox="0 0 512 512" style="enable-background:new 0 0 512 512;" xml:space="preserve">
<path d="M14.4,406.7h211.2c8,0,14.4,6.4,14.4,14.4v76.5c0,8-6.4,14.4-14.4,14.4H14.4c-8,0-14.4-6.4-14.4-14.4v-76.5
	C0,413.2,6.4,406.7,14.4,406.7z M151.7,272.9h208.5c8,0,14.4,6.4,14.4,14.4v73c0,8-6.4,14.4-14.4,14.4H151.7
	c-8,0-14.4-6.4-14.4-14.4v-73C137.3,279.4,143.8,272.9,151.7,272.9z M14.4,272.9h76.5c8,0,14.4,6.4,14.4,14.4v73
	c0,8-6.4,14.4-14.4,14.4H14.4c-8,0-14.4-6.4-14.4-14.4v-73C0,279.4,6.4,272.9,14.4,272.9z M286.4,406.7h211.2
	c8,0,14.4,6.4,14.4,14.4v76.5c0,8-6.4,14.4-14.4,14.4H286.4c-8,0-14.4-6.4-14.4-14.4v-76.5C272,413.2,278.4,406.7,286.4,406.7z
	 M421.1,272.9h76.5c8,0,14.4,6.4,14.4,14.4v73c0,8-6.4,14.4-14.4,14.4h-76.5c-8,0-14.4-6.4-14.4-14.4v-73
	C406.7,279.4,413.1,272.9,421.1,272.9z M286.4,139.1h211.2c8,0,14.4,6.4,14.4,14.4v73c0,8-6.4,14.4-14.4,14.4H286.4
	c-8,0-14.4-6.4-14.4-14.4v-73C272,145.6,278.4,139.1,286.4,139.1z M421.1,1.5h76.5c8,0,14.4,6.4,14.4,14.4v76.8
	c0,8-6.4,14.4-14.4,14.4h-76.5c-8,0-14.4-6.4-14.4-14.4V15.9C406.7,8,413.1,1.5,421.1,1.5z M151.7,1.5h208.5c8,0,14.4,6.4,14.4,14.4
	v76.8c0,8-6.4,14.4-14.4,14.4H151.7c-8,0-14.4-6.4-14.4-14.4V15.9C137.3,8,143.8,1.5,151.7,1.5z M14.4,139.1h211.2
	c8,0,14.4,6.4,14.4,14.4v73c0,8-6.4,14.4-14.4,14.4H14.4c-8,0-14.4-6.4-14.4-14.4v-73C0,145.6,6.4,139.1,14.4,139.1z M14.4,1.5h76.5
	c8,0,14.4,6.4,14.4,14.4v76.8c0,8-6.4,14.4-14.4,14.4H14.4c-8,0-14.4-6.4-14.4-14.4V15.9C0,8,6.4,1.5,14.4,1.5z"/>
</svg>
