<?xml version="1.0" encoding="utf-8"?>
<!-- Generator: Adobe Illustrator 26.0.1, SVG Export Plug-In . SVG Version: 6.00 Build 0)  -->
<svg version="1.1" id="Layer_1" xmlns="http://www.w3.org/2000/svg" xmlns:xlink="http://www.w3.org/1999/xlink" x="0px" y="0px"
	 viewBox="0 0 575.3 512" style="enable-background:new 0 0 575.3 512;" xml:space="preserve">
<g id="Layer_2_00000181807004088226522140000000264781228528831881_">
</g>
<g id="Layer_1_1_">
</g>
<path d="M414.7,191.6L333,319.3c1.5,4.7,2.5,9.4,2.5,14.5c0,26.3-21.3,47.7-47.7,47.7s-47.7-21.3-47.7-47.7s21.3-47.7,47.7-47.7
	c2.7,0,5.3,0.3,7.8,0.8l111.6-101.5L414.7,191.6z M287.9,50.2C148.5,50.2,32.5,151.5,9,284.3c-0.2,0.8-0.6,1.6-0.7,2.4
	c-0.2,1.5-0.3,3.1-0.3,4.5c-2.2,14-3.5,28-3.5,42.6c0,31.7,5.4,62.5,15.7,92.1h50.7c-12.4-29.2-18.7-60.2-18.7-92.1
	c0-5,0.5-9.9,0.8-14.8l44.5,8.2c1.5,0.2,2.8,0.3,4.3,0.3c11.4,0,21.3-8.1,23.4-19.5c2.4-12.9-6.2-25.3-19.2-27.7L60.6,272
	c10.2-37.8,29.6-71.7,55.6-99.4l30.8,35c4.7,5.3,11.2,8.1,17.8,8.1c5.6,0,11.2-1.9,15.8-5.9c9.9-8.7,10.8-23.7,2.2-33.6L152,141.4
	c32.4-22.9,70.6-38,112-42.2v46c0,13.2,10.7,23.8,23.8,23.8s23.8-10.7,23.8-23.8v-46c98.1,9.9,178.3,80.1,203.5,172.8l-46.2,8.4
	c-12.9,2.4-21.6,14.8-19.2,27.7c2,11.5,12.1,19.5,23.4,19.5c1.4,0,2.8-0.1,4.3-0.3l45.4-8.3c0.3,5,0.8,9.9,0.8,14.9
	c0,31.7-6.6,63-19,92.1h51c10.2-29.6,15.7-60.6,15.7-92.1C571.5,177.5,444.2,50.2,287.9,50.2z"/>
</svg>
