<?xml version="1.0" encoding="utf-8"?>
<!-- Generator: Adobe Illustrator 25.4.1, SVG Export Plug-In . SVG Version: 6.00 Build 0)  -->
<svg version="1.1" id="Layer_1" xmlns="http://www.w3.org/2000/svg" xmlns:xlink="http://www.w3.org/1999/xlink" x="0px" y="0px"
	 viewBox="0 0 640 512" style="enable-background:new 0 0 640 512;" xml:space="preserve">
<style type="text/css">
	.st0{fill:#010101;}
</style>
<path class="st0" d="M200.2,415.1c0,28-9.7,51.6-28,68.2c-18.3,16.6-44.3,25.4-75.1,25.4c-36.3,0-67-10.9-93.8-33.3
	c-3.9-3.2-4.4-9-1.2-12.8L24.4,436c1.8-2.1,4.4-3.2,6.9-3.2c1.9,0,3.9,0.6,5.5,1.9c20,16,38.9,23.5,59.4,23.5c30.7,0,49-15.3,49-41
	v-0.8c0-24.4-20.3-40.2-51.7-40.2c-13.6,0-27.3,2.7-42,8.3c-2.7,1-5.7,0.7-8.1-0.9l-24.8-16.5c-2.7-1.8-4.2-4.8-4-8l6.9-119.6
	c0.3-4.8,4.2-8.5,9-8.5h148.4c5,0,9,4,9,9v30.6c0,5-4,9-9,9H69.7l-3.6,53.8l3.3-0.8c10.3-2.6,20.1-4.7,35.9-4.7
	c27.8,0,51,7,67.3,20.4c18.2,14.9,27.5,37.2,27.5,66.1V415.1z M361.9,279.1c3.4-0.4,6.9-0.6,10.4-0.6c26.8,0,53,12.7,70.3,34
	c2.9,3.6,8.1,4.5,12.1,2.1l28.7-17c2.3-1.4,3.9-3.7,4.5-6.3c0.5-2.6-0.1-5.4-1.7-7.5c-12.9-17.5-30-32.1-49.3-42.1
	c-20.2-10.5-42.1-15.8-65.1-15.8c-4,0-8,0.2-11.9,0.5c-4.8,0.4-8.5,4.6-8.5,9.5v33.9c0,2.7,1.2,5.3,3.2,7.1
	C356.5,278.6,359.2,279.4,361.9,279.1z M305.9,244.8c-0.8-0.4-1.6-0.7-2.5-0.7c-0.9,0-1.7,0.2-2.5,0.7c-47.4,27.3-74.6,78.3-71,133
	c2.3,34.8,17.6,67.5,42.9,92.1c25.3,24.6,58.5,38.8,93.3,40.2c39.1,1.5,76-12.6,104.1-39.6c28.1-27,43.6-63.4,43.6-102.4
	c0-1.9,0-3.9-0.1-5.8c-0.2-5-4.4-8.9-9.5-8.9H361.5c-5.2,0-9.5,4.3-9.5,9.5v29.9c0,5.2,4.3,9.5,9.5,9.5H455l-1.3,2.8
	c-7.5,16.5-19.7,30.2-35.2,39.6c-16,9.7-34.5,14.1-53.4,12.6c-43.4-3.4-78.6-38.6-82.1-81.9c-2.1-26,7.2-51.4,25.3-70V249
	C308.3,247.3,307.4,245.7,305.9,244.8z M534.5,270.6l28.7-17.1c2.2-1.3,3.8-3.5,4.4-6c0.6-2.5,0.2-5-1.2-7.2
	c-22.9-36.5-56-63.9-98.3-81.5c-42.8-17.8-82-19.8-96.8-19.8c-4,0-8,0.2-11.9,0.5c-4.8,0.4-8.5,4.6-8.5,9.5v33.4c0,2.6,1,5,2.9,6.8
	c1.9,1.8,4.5,2.8,7.2,2.6c3.2-0.2,6.5-0.2,9.6-0.2c0.2,0,0.4,0,0.6,0h0.6c16.6,0,42,2.1,68.9,12c33.9,12.5,61.2,34,81.1,63.9
	C524.7,271.8,530.2,273.1,534.5,270.6z M372.2,109c0.1,0,0.3,0,0.4,0c15.9,0,52.4,0.1,94.4,14.5c53,18.1,95.8,52.3,127.2,101.6
	c2.8,4.4,8.4,5.8,12.9,3.1l28.3-16.8c2.2-1.3,3.8-3.5,4.4-6s0.2-5.1-1.2-7.3c-37.7-58.9-87.3-100.1-147.4-122.3
	c-46.6-17.2-88.5-19.5-119.7-19.5c-4,0-8,0.2-11.9,0.5c-4.8,0.4-8.5,4.6-8.5,9.5v33.4c0,2.6,1,5,2.9,6.8c1.9,1.8,4.5,2.8,7.2,2.6
	c3.4-0.2,6.9-0.2,10.2-0.2H372.2z"/>
</svg>
