<?xml version="1.0" encoding="utf-8"?>
<!-- Generator: Adobe Illustrator 26.0.1, SVG Export Plug-In . SVG Version: 6.00 Build 0)  -->
<svg version="1.1" id="Layer_1" xmlns="http://www.w3.org/2000/svg" xmlns:xlink="http://www.w3.org/1999/xlink" x="0px" y="0px"
	 viewBox="0 0 512 512" style="enable-background:new 0 0 512 512;" xml:space="preserve">
<path d="M102.5,285.9v32.9v32v33.8l-64.3-49.4L102.5,285.9 M109.2,247.1c-6.7,0-13.5,2.4-18.9,7.8l-0.1,0.1l-82,63
	c-0.1,0-0.1,0.1-0.2,0.1c-9.4,9.5-9.4,25.1,0,34.5c0,0,0.1,0.1,0.2,0.1l82,63l0.1,0.1c4.9,4.9,11,7,17,7c13.6,0,27.1-10.7,27.1-26
	v-45.9H500c6.6,0,12-5.4,12-12v-8c0-6.5-5.4-11.9-12-11.9H134.5v-48.2C134.5,256.2,122.1,247.1,109.2,247.1L109.2,247.1z M410.6,127
	l64.3,49.4l-64.3,49.4V192v-32l0,0L410.6,127 M403.8,88.2c-12.9,0-25.2,9.1-25.2,23.7V160H12c-6.6,0-12,5.4-12,12v8
	c0,6.6,5.4,12,12,12h366.5v45.8c0,15.3,13.5,26,27.1,26c6.1,0,12.1-2.1,17-7l0.1-0.1l82-63c0.1,0,0.2-0.1,0.2-0.1
	c9.4-9.4,9.4-25,0-34.5c-0.1,0-0.1-0.1-0.2-0.1l-82-63l-0.1-0.1C417.3,90.6,410.4,88.2,403.8,88.2L403.8,88.2z"/>
</svg>
