<?xml version="1.0" encoding="utf-8"?>
<!-- Generator: Adobe Illustrator 26.0.1, SVG Export Plug-In . SVG Version: 6.00 Build 0)  -->
<svg version="1.1" id="Layer_1" xmlns="http://www.w3.org/2000/svg" xmlns:xlink="http://www.w3.org/1999/xlink" x="0px" y="0px"
	 viewBox="0 0 512 512" style="enable-background:new 0 0 512 512;" xml:space="preserve">
<path d="M507.5,459.2c0,26.4-21.6,48-48,48h-408c-26.4,0-48-21.6-48-48V51.8c0-26.4,21.6-48,48-48h408c26.4,0,48,21.6,48,48V459.2z
	 M405.6,321.7H228.9v-10v-30.2c0-22.1-28.3-31.6-44.1-15.9l-0.1,0.1l-82,63c-0.1,0-0.1,0.1-0.2,0.1c-9.4,9.5-9.4,25.1,0,34.5
	c0,0,0.1,0.1,0.2,0.1l82,63l0.1,0.1c15.8,15.7,44.1,3.1,44.1-19v-30.2v-7.6h176.7c6.6,0,12-5.4,12-12v-24
	C417.6,327,412.2,321.7,405.6,321.7z M411.2,148.8c-0.1-0.1-0.1-0.1-0.2-0.2l-85-63l-0.1-0.1c-15.8-15.7-44.1-3.1-44.1,19v30.2v7.3
	H107.5c-6.6,0-12,5.4-12,12v24c0,6.6,5.4,12,12,12h174.3v7.4v30.2c0,22.1,28.3,34.7,44.1,19l0.1-0.1l85-63c0.1,0,0.1-0.1,0.2-0.2
	C420.6,173.8,420.6,158.2,411.2,148.8z"/>
</svg>
