<?xml version="1.0" encoding="utf-8"?>
<!-- Generator: Adobe Illustrator 26.5.0, SVG Export Plug-In . SVG Version: 6.00 Build 0)  -->
<svg version="1.1" id="Icon" xmlns="http://www.w3.org/2000/svg" xmlns:xlink="http://www.w3.org/1999/xlink" x="0px" y="0px"
	 viewBox="0 0 512 512" style="enable-background:new 0 0 512 512;" xml:space="preserve">
<path d="M304.9,459.7c6.6,0,12,5.4,12,12v24c0,6.6-5.4,12-12,12H52c-26.5,0-48-21.5-48-48V207.3c0-6.6,5.4-12,12-12h24
	c6.6,0,12,5.4,12,12v228.4c0,13.3,10.7,24,24,24H304.9z M436,52.3c13.3,0,24,10.7,24,24v228.4c0,6.6,5.4,12,12,12h24
	c6.6,0,12-5.4,12-12V52.3c0-26.5-21.5-48-48-48H207.1c-6.6,0-12,5.4-12,12v24c0,6.6,5.4,12,12,12H436L436,52.3z M372,164v184
	c0,13.3-10.7,24-24,24H164c-13.3,0-24-10.7-24-24V164c0-13.3,10.7-24,24-24h184C361.3,140,372,150.7,372,164z"/>
</svg>
