<?xml version="1.0" encoding="utf-8"?>
<!-- Generator: Adobe Illustrator 26.0.1, SVG Export Plug-In . SVG Version: 6.00 Build 0)  -->
<svg version="1.1" id="Layer_1" xmlns="http://www.w3.org/2000/svg" xmlns:xlink="http://www.w3.org/1999/xlink" x="0px" y="0px"
	 viewBox="0 0 576 512" style="enable-background:new 0 0 576 512;" xml:space="preserve">
<path d="M152.9,386.5l18.5-20.9c1.9-2.1,1.6-5.3-0.5-7.1L49.9,256l121-102.5c2.1-1.8,2.4-5,0.5-7.1l-18.5-20.9
	c-1.8-2.1-5-2.3-7.1-0.4L1.7,252.3c-2.3,2-2.3,5.5,0,7.5L145.8,387C147.9,388.8,151.1,388.6,152.9,386.5L152.9,386.5z M430.2,386.9
	l144.1-127.2c2.3-2,2.3-5.5,0-7.5L430.2,125.1c-2.1-1.8-5.2-1.6-7.1,0.4l-18.5,20.9c-1.9,2.1-1.6,5.3,0.5,7.1l121,102.5l-121,102.5
	c-2.1,1.8-2.4,5-0.5,7.1l18.5,20.9C424.9,388.6,428.1,388.8,430.2,386.9z M284.5,224c18.2,0,33,14.8,33,33s-14.8,33-33,33
	s-33-14.8-33-33S266.3,224,284.5,224z M185.1,224c18.2,0,33,14.8,33,33s-14.8,33-33,33s-33-14.8-33-33S166.9,224,185.1,224z
	 M383.9,224c18.2,0,33,14.8,33,33s-14.8,33-33,33s-33-14.8-33-33S365.7,224,383.9,224z"/>
</svg>
