<?xml version="1.0" encoding="utf-8"?>
<!-- Generator: Adobe Illustrator 26.0.1, SVG Export Plug-In . SVG Version: 6.00 Build 0)  -->
<svg version="1.1" id="Layer_1" xmlns="http://www.w3.org/2000/svg" xmlns:xlink="http://www.w3.org/1999/xlink" x="0px" y="0px"
	 viewBox="0 0 640 512" style="enable-background:new 0 0 640 512;" xml:space="preserve">
<path d="M359.1,49.3H248.9c-10.6,0-19.2,8.7-19.2,19.2v97L142,253.2H45.5c-10.6,0-19.2,8.7-19.2,19.2v110.2
	c0,10.6,8.7,19.2,19.2,19.2h110.2c10.6,0,19.2-8.7,19.2-19.2v-94.4l90.3-90.3h93.9c10.6,0,19.2-8.5,19.2-19.2V68.6
	C378.3,58,369.6,49.3,359.1,49.3z M570.6,81.9H460.4c-10.6,0-19.2,8.7-19.2,19.2v97l-87.6,87.6H257c-10.6,0-19.2,8.7-19.2,19.2
	v110.2c0,10.6,8.7,19.2,19.2,19.2h110.2c10.6,0,19.2-8.7,19.2-19.2v-94.4l90.3-90.3h93.9c10.6,0,19.2-8.5,19.2-19.2V101.1
	C589.8,90.6,581.1,81.9,570.6,81.9z"/>
</svg>
