<?xml version="1.0" encoding="utf-8"?>
<!-- Generator: Adobe Illustrator 26.0.1, SVG Export Plug-In . SVG Version: 6.00 Build 0)  -->
<svg version="1.1" id="Layer_1" xmlns="http://www.w3.org/2000/svg" xmlns:xlink="http://www.w3.org/1999/xlink" x="0px" y="0px"
	 viewBox="0 0 642 512" style="enable-background:new 0 0 642 512;" xml:space="preserve">
<path d="M176.1,394.2c-2.6,0-5.2-0.9-7.2-2.7L24.7,264.3c-2.4-2.1-3.8-5.1-3.8-8.2c0-3.2,1.4-6.2,3.8-8.3l144-127.1
	c2.1-1.8,4.7-2.8,7.4-2.8c3.2,0,6.2,1.4,8.2,3.7l18.5,20.9c2,2.2,3,5,2.8,8s-1.6,5.8-3.8,7.7L86.2,256l115.6,97.9
	c2.3,1.9,3.7,4.8,3.9,7.7c0.2,2.9-0.8,5.8-2.8,8l-18.5,20.8C182.3,392.9,179.3,394.2,176.1,394.2z M453.8,394.2
	c-3.2,0-6.2-1.4-8.2-3.7l-18.5-20.8c-2-2.2-3-5-2.8-8s1.6-5.8,3.8-7.7l115.7-98l-115.6-97.9c-2.3-1.9-3.7-4.8-3.9-7.7
	c-0.2-2.9,0.8-5.8,2.8-8l18.6-21l0.1-0.1c2.1-2.2,5.1-3.5,8.1-3.5c2.6,0,5.2,1,7.2,2.7l144.2,127.2c2.4,2.1,3.8,5.1,3.8,8.2
	c0,3.2-1.4,6.2-3.8,8.3l-144,127.1C459.1,393.2,456.5,394.2,453.8,394.2z M311.5,218c21.5,0,39,17.5,39,39s-17.5,39-39,39
	s-39-17.5-39-39S290,218,311.5,218z M212.1,218c21.5,0,39,17.5,39,39s-17.5,39-39,39s-39-17.5-39-39S190.6,218,212.1,218z
	 M410.9,218c21.5,0,39,17.5,39,39s-17.5,39-39,39s-39-17.5-39-39S389.4,218,410.9,218z"/>
</svg>
