<?xml version="1.0" encoding="utf-8"?>
<!-- Generator: Adobe Illustrator 26.0.1, SVG Export Plug-In . SVG Version: 6.00 Build 0)  -->
<svg version="1.1" id="Layer_1" xmlns="http://www.w3.org/2000/svg" xmlns:xlink="http://www.w3.org/1999/xlink" x="0px" y="0px"
	 viewBox="0 0 576 512" style="enable-background:new 0 0 576 512;" xml:space="preserve">
<path d="M529.2,0h-480c-26.5,0-48,21.5-48,48v320c0,26.5,21.5,48,48,48h192l-16,48h-72c-13.3,0-24,10.7-24,24s10.7,24,24,24h272
	c13.3,0,24-10.7,24-24s-10.7-24-24-24h-72l-16-48h192c26.5,0,48-21.5,48-48V48C577.2,21.5,555.8,0,529.2,0z M513.2,352h-448V64h448
	V352z M528,0H48C21.5,0,0,21.5,0,48v320c0,26.5,21.5,48,48,48h192l-16,48h-72c-13.3,0-24,10.7-24,24s10.7,24,24,24h272
	c13.3,0,24-10.7,24-24s-10.7-24-24-24h-72l-16-48h192c26.5,0,48-21.5,48-48V48C576,21.5,554.5,0,528,0z M512,352H64V64h448V352z
	 M444.8,196.4h-96c-4.7,0-9,2.7-11.1,6.9l-10.3,20.6l-28.7-105.1c-1.5-5.5-6.6-9.3-12.3-9.1c-5.7,0.2-10.6,4.2-11.8,9.8l-26.8,125.1
	l-11.2-39.1c-1.5-5.3-6.4-9-11.9-9h-91c-3.4,0-6.2,2.8-6.2,6.2V215c0,3.4,2.8,6.2,6.2,6.2h81.6l22.2,77.8c1.5,5.3,6.4,9,11.9,9
	c0.1,0,0.3,0,0.4,0c5.7-0.2,10.5-4.2,11.7-9.8L288,174.4l23.8,87.3c1.4,5,5.6,8.6,10.7,9.1s10-2.2,12.3-6.8l21.4-42.8h88.3
	c3.4,0,6.2-2.8,6.2-6.2v-12.4C451,199.1,448.2,196.4,444.8,196.4z"/>
</svg>
