<?xml version="1.0" encoding="utf-8"?>
<!-- Generator: Adobe Illustrator 26.0.1, SVG Export Plug-In . SVG Version: 6.00 Build 0)  -->
<svg version="1.1" id="Layer_1" xmlns="http://www.w3.org/2000/svg" xmlns:xlink="http://www.w3.org/1999/xlink" x="0px" y="0px"
	 viewBox="0 0 458.7 512" style="enable-background:new 0 0 458.7 512;" xml:space="preserve">
<style type="text/css">
	.st0{display:none;}
	.st1{display:inline;fill:none;}
</style>
<path d="M375.2,308c-1.3,0.7-2.5,1.5-3.7,2.3l-67.1-38.7c1-4.9,1.5-9.9,1.5-15.1c0-5.5-0.6-10.9-1.7-16.1l67.3-38.8
	c8.9,6.1,19.7,9.7,31.3,9.7c30.7,0.1,55.6-24.8,55.7-55.5c0.1-30.7-24.8-55.6-55.5-55.7c-30.7-0.1-55.6,24.8-55.7,55.5
	c0,1.5,0.1,2.9,0.2,4.4l-67.6,39c-7.7-6.8-16.7-12-26.6-15.3v-78.1c9.8-4.7,18.3-12.2,24.1-22.2c15.4-26.5,6.3-60.6-20.2-76
	c-26.5-15.4-60.6-6.3-76,20.2c-15.4,26.5-6.3,60.6,20.2,76c1.3,0.7,2.6,1.4,3.9,2v78.1c-9.9,3.3-18.9,8.5-26.6,15.3l-67.6-39
	c0.8-10.8-1.4-21.9-7.2-32c-15.3-26.6-49.3-35.8-75.9-20.5C1.5,122.9-7.7,156.9,7.6,183.5s49.3,35.8,75.9,20.5
	c1.3-0.7,2.5-1.5,3.7-2.3l67.3,38.8c-1.1,5.2-1.7,10.5-1.7,16.1c0,5.2,0.5,10.2,1.5,15.1l-67.1,38.7c-8.9-6.1-19.7-9.7-31.3-9.7
	c-30.7-0.1-55.6,24.8-55.7,55.5c-0.1,30.7,24.8,55.6,55.5,55.7c30.7,0.1,55.6-24.8,55.7-55.5c0-1.5-0.1-2.9-0.2-4.4l66.8-38.6
	c7.8,7.1,17.1,12.5,27.3,15.9v77c-9.8,4.7-18.3,12.2-24.1,22.2c-15.4,26.5-6.3,60.6,20.2,76c26.5,15.4,60.6,6.3,76-20.2
	c15.4-26.5,6.3-60.6-20.2-76c-1.3-0.7-2.6-1.4-3.9-2v-77c10.2-3.4,19.5-8.8,27.3-15.9l66.8,38.6c-0.8,10.8,1.4,21.9,7.2,32
	c15.3,26.6,49.3,35.8,75.9,20.5c26.6-15.3,35.8-49.3,20.5-75.9C435.8,301.9,401.8,292.7,375.2,308z"/>
</svg>
