<?xml version="1.0" encoding="utf-8"?>
<!-- Generator: Adobe Illustrator 25.4.1, SVG Export Plug-In . SVG Version: 6.00 Build 0)  -->
<svg version="1.1" id="Layer_1" xmlns="http://www.w3.org/2000/svg" xmlns:xlink="http://www.w3.org/1999/xlink" x="0px" y="0px"
	 viewBox="0 0 448 512" style="enable-background:new 0 0 448 512;" xml:space="preserve">
<path d="M400,32H48C21.5,32,0,53.5,0,80v352c0,26.5,21.5,48,48,48h352c26.5,0,48-21.5,48-48V80C448,53.4,426.5,32,400,32z M48,448
	c-8.8,0-16-7.2-16-16V80c0-8.8,7.2-16,16-16h352c8.8,0,16,7.2,16,16v352c0,8.8-7.2,16-16,16H48z M359,281.3c0,4.6-3.8,8.4-8.4,8.4
	h-25.3V315c0,4.6-3.8,8.4-8.4,8.4h-25.4v25.3c0,4.6-3.8,8.4-8.4,8.4H165c-4.6,0-8.4-3.8-8.4-8.4v-25.3h-25.3c-4.6,0-8.4-3.8-8.4-8.4
	v-25.3H97.6c-4.6,0-8.4-3.8-8.4-8.4V163.1c0-4.6,3.8-8.4,8.4-8.4h253.1c4.6,0,8.4,3.8,8.4,8.4v118.2L359,281.3L359,281.3z"/>
</svg>
