<?xml version="1.0" encoding="utf-8"?>
<!-- Generator: Adobe Illustrator 26.0.1, SVG Export Plug-In . SVG Version: 6.00 Build 0)  -->
<svg version="1.1" id="Layer_1" xmlns="http://www.w3.org/2000/svg" xmlns:xlink="http://www.w3.org/1999/xlink" x="0px" y="0px"
	 viewBox="0 0 512 512" style="enable-background:new 0 0 512 512;" xml:space="preserve">
<path d="M459.5,35.8c8.7,0,16,7.3,16,16v407.4c0,8.7-7.3,16-16,16h-408c-8.7,0-16-7.3-16-16V51.8c0-8.7,7.3-16,16-16H459.5
	 M459.5,3.8h-408c-26.4,0-48,21.6-48,48v407.4c0,26.4,21.6,48,48,48h408c26.4,0,48-21.6,48-48V51.8C507.5,25.4,485.9,3.8,459.5,3.8
	L459.5,3.8z M412,320.8v8c0,6.6-5.4,12-12,12H227.2v45.9c0,15.3-13.5,26-27.1,26c-6,0-12.1-2.1-17-7l-0.1-0.1l-82-63
	c-0.1,0-0.2-0.1-0.2-0.1c-9.4-9.4-9.4-25,0-34.5c0.1,0,0.1-0.1,0.2-0.1l82-63l0.1-0.1c5.4-5.4,12.2-7.8,18.9-7.8
	c12.9,0,25.3,9.1,25.3,23.7v48.2H400C406.6,308.9,412,314.3,412,320.8z M310.3,78.1c6.6,0,13.5,2.4,18.8,7.7l0.1,0.1l82,63
	c0.1,0,0.1,0.1,0.2,0.1c9.4,9.5,9.4,25.1,0,34.5c0,0-0.1,0.1-0.2,0.1l-82,63l-0.1,0.1c-4.9,4.9-10.9,7-17,7
	c-13.6,0-27.1-10.7-27.1-26v-45.8H103.9c-6.6,0-12-5.4-12-12v-8c0-6.6,5.4-12,12-12h181.2v-48.1C285.1,87.2,297.4,78.1,310.3,78.1
	L310.3,78.1z M195.3,275.8L131,325.1l64.3,49.4v-33.8v-32V275.8 M317.1,116.9v33l0,0v32v33.8l64.3-49.4L317.1,116.9"/>
</svg>
