<?xml version="1.0" encoding="utf-8"?>
<!-- Generator: Adobe Illustrator 26.0.1, SVG Export Plug-In . SVG Version: 6.00 Build 0)  -->
<svg version="1.1" id="Layer_1" xmlns="http://www.w3.org/2000/svg" xmlns:xlink="http://www.w3.org/1999/xlink" x="0px" y="0px"
	 viewBox="0 0 400 512" style="enable-background:new 0 0 400 512;" xml:space="preserve">
<path d="M363.6,50.8h-124c-6.6,0-12,5.4-12,12V176l-76.9,76.9H36.2c-6.6,0-12,5.4-12,12v124c0,6.6,5.4,12,12,12h124
	c6.6,0,12-5.4,12-12V276.6l77.8-77.8h113.6c6.6,0,12-5.4,12-12v-124C375.6,56.2,370.2,50.8,363.6,50.8z M140.2,356.9
	c0,6.6-5.4,12-12,12h-60c-6.6,0-12-5.4-12-12v-60c0-6.6,5.4-12,12-12h60c6.6,0,12,5.4,12,12V356.9z M343.6,154.8c0,6.6-5.4,12-12,12
	h-60c-6.6,0-12-5.4-12-12v-60c0-6.6,5.4-12,12-12h60c6.6,0,12,5.4,12,12V154.8z"/>
</svg>
