<?xml version="1.0" encoding="utf-8"?>
<!-- Generator: Adobe Illustrator 26.5.0, SVG Export Plug-In . SVG Version: 6.00 Build 0)  -->
<svg version="1.1" id="Layer_1" xmlns="http://www.w3.org/2000/svg" xmlns:xlink="http://www.w3.org/1999/xlink" x="0px" y="0px"
	 viewBox="0 0 512 512" style="enable-background:new 0 0 512 512;" xml:space="preserve">
<path d="M512,145.6v298.7c0,37.4-30.3,67.7-67.7,67.7H67.7C30.3,512,0,481.7,0,444.3V145.6c0-37.4,30.3-67.7,67.7-67.7H97
	c3.9,0,7,3.1,7,7v18c0,3.9-3.1,7-7,7H67.7c-19.7,0-35.7,16-35.7,35.7v298.7C32,464,48,480,67.7,480h376.6c19.7,0,35.7-16,35.7-35.7
	V145.6c0-19.7-16-35.7-35.7-35.7H415c-3.9,0-7-3.1-7-7v-18c0-3.9,3.1-7,7-7h29.3C481.7,77.9,512,108.2,512,145.6z M267.3,4.7
	l104,104c6.2,6.2,6.2,16.4,0,22.6s-16.4,6.2-22.6,0L272,54.6V368c0,8.8-7.2,16-16,16c-8.8,0-16-7.2-16-16V54.6l-76.7,76.7
	c-6.2,6.2-16.4,6.2-22.6,0c-6.2-6.2-6.2-16.4,0-22.6l104-104C250.9-1.5,261.1-1.5,267.3,4.7L267.3,4.7z"/>
</svg>
