<?xml version="1.0" encoding="utf-8"?>
<!-- Generator: Adobe Illustrator 26.0.1, SVG Export Plug-In . SVG Version: 6.00 Build 0)  -->
<svg version="1.1" id="Layer_1" xmlns="http://www.w3.org/2000/svg" xmlns:xlink="http://www.w3.org/1999/xlink" x="0px" y="0px"
	 viewBox="0 0 512 512" style="enable-background:new 0 0 512 512;" xml:space="preserve">
<path d="M37.4,256c0-120.1,97.3-218.6,218.6-218.6c120.1,0,218.6,97.3,218.6,218.6c0,120.1-97.3,218.6-218.6,218.6
	C135.9,474.6,37.4,377.4,37.4,256 M256,507c138.7,0,251-112.3,251-251S394.7,5,256,5S5,117.3,5,256S117.3,507,256,507 M334.6,273.4
	h-49.3c-5.8,0-10.6,4.7-10.6,10.6v49.3c0,9.4,11.4,14.1,18,7.5l13-13.7l69.3,69.3l0.7-0.7l21.1-21.1l0.8-0.8l-69.3-69.3l13.7-13
	C348.7,284.8,344.1,273.4,334.6,273.4z M395.6,179.9v-49.3c0-5.8-4.7-10.6-10.6-10.6h-49.3c-9.4,0-14.1,11.4-7.5,18l13.7,13
	l-69.3,69.3l0.7,0.7l21.1,21.1l0.8,0.8l69.3-69.3l13,13.7C384.2,194.1,395.6,189.4,395.6,179.9z M122.2,333.7V383
	c0,5.8,4.7,10.6,10.6,10.6h49.3c9.4,0,14.1-11.4,7.5-18l-13.7-13l69.3-69.3l-0.7-0.7l-21.1-21.1l-0.8-0.8L153.3,340l-13-13.7
	C133.5,319.6,122.2,324.2,122.2,333.7z M178.1,236.6h49.3c5.8,0,10.6-4.7,10.6-10.6v-49.3c0-9.4-11.4-14.1-18-7.5L207,183
	l-69.3-69.3l-0.7,0.7l-21.1,21.1l-0.8,0.8l69.3,69.3l-13.7,13C164,225.2,168.6,236.6,178.1,236.6z"/>
</svg>
