<?xml version="1.0" encoding="utf-8"?>
<!-- Generator: Adobe Illustrator 25.4.1, SVG Export Plug-In . SVG Version: 6.00 Build 0)  -->
<svg version="1.1" id="Layer_1" xmlns="http://www.w3.org/2000/svg" xmlns:xlink="http://www.w3.org/1999/xlink" x="0px" y="0px"
	 viewBox="0 0 512 512" style="enable-background:new 0 0 512 512;" xml:space="preserve">
<path d="M339.9,188.5l-110,109.2l-43.4-43.8c-4.9-4.9-12.8-4.9-17.6-0.1l-22.5,22.3c-2.4,2.3-3.7,5.5-3.7,8.8c0,3.3,1.3,6.5,3.6,8.8
	l74.6,75.2c2.4,2.4,5.5,3.7,8.8,3.7c0,0,0.1,0,0.1,0c3.3,0,6.4-1.3,8.7-3.6l141.3-140.2c4.9-4.9,4.9-12.8,0.1-17.6l-22.3-22.5
	C352.6,183.8,344.7,183.7,339.9,188.5 M483.8,279.5c0,126-102,228.6-227.3,228.6S29.2,405.6,29.2,279.5c0-58.3,22-113.8,61.8-156.3
	c39.1-41.7,91.7-67,148.2-71.3V12.2c0-3.4,1.8-6.4,4.8-8c2.9-1.5,6.4-1.4,9.3,0.4l98.1,64.1c2.6,1.6,4.1,4.5,4.1,7.6
	c0,3.2-1.5,6-4.1,7.7l-98.1,64c-2.9,1.8-6.1,2-9.2,0.4c-3-1.6-4.8-4.7-4.8-8.1v-40.2c-43.7,4.2-84.3,24.4-114.3,56.9
	C94.1,190.5,77.1,234,77.1,279.5c0,99.5,80.5,180.5,179.5,180.5c99,0,179.5-81,179.5-180.5c0-47.6-18.4-92.6-51.8-126.6
	c-9.1-9.2-9.1-24.3,0.1-33.6c4.5-4.6,10.5-7.1,17-7.1c6.6,0,12.6,2.6,17.1,7.2C460.6,162.5,483.8,219.3,483.8,279.5"/>
</svg>
