<?xml version="1.0" encoding="utf-8"?>
<!-- Generator: Adobe Illustrator 26.0.1, SVG Export Plug-In . SVG Version: 6.00 Build 0)  -->
<svg version="1.1" id="Layer_1" xmlns="http://www.w3.org/2000/svg" xmlns:xlink="http://www.w3.org/1999/xlink" x="0px" y="0px"
	 viewBox="0 0 512 512" style="enable-background:new 0 0 512 512;" xml:space="preserve">
<path d="M433.9,78.1C386.4,30.6,323.2,4.4,256,4.4S125.6,30.6,78.1,78.1S4.4,188.8,4.4,256s26.2,130.4,73.7,177.9
	s110.7,73.7,177.9,73.7s130.4-26.2,177.9-73.7s73.7-110.7,73.7-177.9S481.4,125.6,433.9,78.1z M475.4,256
	c0,42.6-12.1,83.4-34.6,118.4c-38.7,3-76.3,1.6-112.2-3.7c-0.5-1.3-1-2.5-1.6-3.7c10.2-11.4,19.8-22.9,28.6-34.6
	C383.4,295.8,404,258,417.4,219c21,10.7,40.4,22.2,58,33.8C475.4,253.9,475.4,254.9,475.4,256z M302.3,346.7
	c-3.1-0.8-6.3-1.2-9.7-1.2c-10.6,0-20.2,4.3-27.2,11.3C225.9,345,189.7,328,158,306.6c0.5-2.5,0.8-5.2,0.8-7.9
	c0-9.1-3.2-17.4-8.5-23.9c16.6-26.2,36.5-50.2,59.5-71.9c4.9-4.6,9.8-9,14.9-13.3c7.6,5.9,17.1,9.4,27.4,9.4
	c18.4,0,34.2-11.1,41.1-26.9c24.7,6.3,49.2,14.2,73.2,23.8c7.5,3,14.8,6.1,22,9.3c-12.2,36.9-31.8,73.1-58.1,107.9
	C321.6,324.4,312.3,335.6,302.3,346.7z M310.7,383.7c0,10-8.1,18.1-18.1,18.1s-18.1-8.1-18.1-18.1s8.1-18.1,18.1-18.1
	S310.7,373.7,310.7,383.7z M121.2,260.8c-0.1,0-0.2,0-0.3,0c-5.2,0-10.1,1-14.6,2.9c-23.8-24.3-43-52-56.7-82.6
	c2.5-6.8,5.3-13.6,8.5-20.1c38.1-5.8,76.1-8,113.6-6.5c11.9,0.5,23.8,1.3,35.7,2.5c0.1,1.7,0.3,3.3,0.6,4.9
	c-6.9,5.7-13.6,11.6-20.1,17.7C161.9,204,139.6,231.2,121.2,260.8z M138.8,298.7c0,9.9-8,17.9-17.9,17.9s-17.9-8-17.9-17.9
	s8-17.9,17.9-17.9S138.8,288.8,138.8,298.7z M230.9,154.2c0-11.7,9.5-21.2,21.2-21.2s21.2,9.5,21.2,21.2s-9.5,21.2-21.2,21.2
	S230.9,165.9,230.9,154.2z M471.1,212.1c-13.9-8.3-28.7-16.5-44.5-24.4c4.6-19.2,7.6-38.6,8.8-58.2
	C453,154.3,465.1,182.4,471.1,212.1z M396.9,174c-6.1-2.7-12.4-5.3-18.8-7.8c-26.3-10.5-52.7-20-79.8-26.8
	c17.2-9,34.8-15.9,53.6-22.7c17-6.1,34.4-11.1,52.1-15C404.5,126.2,402.1,150.3,396.9,174z M256,36.6c44.8,0,87.5,13.3,123.6,38.1
	c-13,3.4-25.9,7.4-38.5,11.9c-22.9,8.2-44.8,18.1-65.6,29.5c-6.8-4.2-14.9-6.6-23.4-6.6c-14,0-26.5,6.4-34.7,16.5
	c-14.8-1.7-29.6-2.8-44.5-3.3c-31-1.2-62.3,0-93.7,3.5c6.5-8.8,13.7-17.2,21.6-25.1C142.3,59.4,197.4,36.6,256,36.6z M38.3,228.3
	c12.9,21.2,28.4,41,46.4,59.2c-1.1,3.5-1.7,7.3-1.7,11.2c0,8.3,2.7,16,7.3,22.3c-7.3,17.5-13.4,35.7-18.4,54.5
	c-23-35.2-35.3-76.4-35.3-119.5C36.6,246.7,37.2,237.4,38.3,228.3z M97.2,407.5c5.1-24.7,12.2-48.4,21.3-71c0.8,0,1.6,0.1,2.4,0.1
	c6.4,0,12.4-1.6,17.7-4.4c10.6,7.2,21.6,13.9,33.2,20.3c25.9,14.1,53.6,25.6,82.6,34.4c0.2,2.1,0.5,4.1,1,6
	c-24.9,22.2-53.1,43.9-84.7,65.4c-25.8-10.9-49.5-26.8-69.9-47.2C99.6,409.9,98.4,408.7,97.2,407.5z M256,475.4
	c-15.9,0-31.6-1.7-46.8-5c24.1-17.3,46.1-34.8,66.2-52.5c5.2,2.6,11,4.1,17.2,4.1c14.2,0,26.6-7.8,33.2-19.3
	c24.5,3.5,49.5,5.3,74.9,5.3c4.6,0,9.1-0.1,13.7-0.2c-1.1,1.1-2.1,2.2-3.2,3.3C369.7,452.6,314.6,475.4,256,475.4z"/>
</svg>
