<?xml version="1.0" encoding="utf-8"?>
<!-- Generator: Adobe Illustrator 26.0.1, SVG Export Plug-In . SVG Version: 6.00 Build 0)  -->
<svg version="1.1" id="Layer_1" xmlns="http://www.w3.org/2000/svg" xmlns:xlink="http://www.w3.org/1999/xlink" x="0px" y="0px"
	 viewBox="0 0 512 512" style="enable-background:new 0 0 512 512;" xml:space="preserve">
<path d="M504,58v134c0,13.3-10.7,24-24,24H345.9c-21.4,0-32.1-25.9-17-41l41.8-41.7l4.4-4.4l0,0l6.2-6.6
	C347.4,90.5,302.9,73,256.2,73c-40.6,0-80.6,13.9-112.7,39c-30.1,23.5-52.2,56.2-62.8,92.7c-0.7,2.6-3.1,4.3-5.7,4.3H35.6
	c-3.9,0-6.7-3.6-5.9-7.4C54.5,97.5,148.1,23,256.4,23c60.1,0,117.1,22.8,160.4,64.2l6.4-6.4l4.1-4.1L463,41
	C478.1,25.9,504,36.6,504,58z M151.8,378.7l41.8-41.7c15.1-15.1,4.4-41-17-41H42.5c-13.3,0-24,10.7-24,24v134
	c0,21.4,25.9,32.1,41,17l35.7-35.7l4.1-4.1l0,0l6.4-6.4l41.7-41.7L151.8,378.7z M486.9,303h-39.3c-2.7,0-5,1.7-5.7,4.3
	c-10.6,36.3-32.7,69.1-62.8,92.7c-32.1,25.2-72.2,39-112.8,39c-46.7,0-91.1-17.5-125.1-49.3l6.2-6.6l-41.7,41.7
	c43.5,41.4,100.4,64.2,160.4,64.2c108.3,0,201.9-74.5,226.6-178.6C493.6,306.6,490.8,303,486.9,303z"/>
</svg>
