<?xml version="1.0" encoding="utf-8"?>
<!-- Generator: Adobe Illustrator 26.0.1, SVG Export Plug-In . SVG Version: 6.00 Build 0)  -->
<svg version="1.1" id="Layer_1" xmlns="http://www.w3.org/2000/svg" xmlns:xlink="http://www.w3.org/1999/xlink" x="0px" y="0px"
	 viewBox="0 0 410 512" style="enable-background:new 0 0 410 512;" xml:space="preserve">
<path d="M222.4,454.8V273.4h181.4c0.8,0,1.5-0.7,1.5-1.5v-32c0-0.8-0.7-1.5-1.5-1.5l-181.3,0.1V57.1c0-0.8-0.7-1.5-1.5-1.5h-32
	c-0.8,0-1.5,0.7-1.5,1.5v181.4L6,238.4c-0.8,0-1.5,0.7-1.5,1.5V272c0,0.8,0.7,1.5,1.5,1.5l181.5-0.1l-0.1,181.5
	c0,0.8,0.7,1.5,1.5,1.5l32-0.1C221.7,456.3,222.4,455.6,222.4,454.8z"/>
</svg>
