<?xml version="1.0" encoding="utf-8"?>
<!-- Generator: Adobe Illustrator 26.5.0, SVG Export Plug-In . SVG Version: 6.00 Build 0)  -->
<svg version="1.1" id="Layer_1" xmlns="http://www.w3.org/2000/svg" xmlns:xlink="http://www.w3.org/1999/xlink" x="0px" y="0px"
	 viewBox="0 0 512 512" style="enable-background:new 0 0 512 512;" xml:space="preserve">
<style type="text/css">
	.st0{fill-rule:evenodd;clip-rule:evenodd;}
</style>
<path class="st0" d="M457.4,7.5c10-10,26.4-10,36.3,0l10.7,10.7c10,10,10,26.4,0,36.3L383.2,175.6h48.1c14.3,0,25.8,11.3,25.8,25.6
	v15.1c0,14.3-11.5,25.6-25.8,25.6H295.2c-14.3,0-25.8-11.3-25.8-25.6V80.4c0-14.3,11.5-25.6,25.8-25.6h15.1
	c14.3,0,25.8,11.3,25.8,25.6v48.1L457.4,7.5z M54.6,504.5c-10,10-26.4,10-36.3,0L7.5,493.8c-10-10-10-26.4,0-36.3l121.3-121.1H80.7
	c-14.3,0-25.8-11.3-25.8-25.6v-15.1c0-14.3,11.5-25.6,25.8-25.6h136.2c14.3,0,25.8,11.3,25.8,25.6v135.6c0,14.3-11.5,25.6-25.8,25.6
	h-15.1c-14.3,0-25.8-11.3-25.8-25.6v-48.1L54.6,504.3L54.6,504.5z"/>
</svg>
