<?xml version="1.0" encoding="utf-8"?>
<!-- Generator: Adobe Illustrator 26.0.1, SVG Export Plug-In . SVG Version: 6.00 Build 0)  -->
<svg version="1.1" id="Layer_1" xmlns="http://www.w3.org/2000/svg" xmlns:xlink="http://www.w3.org/1999/xlink" x="0px" y="0px"
	 viewBox="0 0 574 512" style="enable-background:new 0 0 574 512;" xml:space="preserve">
<path d="M119.6,42.9l80,72l0,0h-63.9h-96l0,0L119.6,42.9 M534.9,375.8L534.9,375.8l-79.9,72l-80-72l0,0h63.3h32.8H534.9 M119.6,10.8
	c-7.6,0-15.3,2.8-21.4,8.2l-80,72c-21.7,19.6-7.9,55.8,21.4,55.8h96l0,0h64c29.2,0,43.2-36.2,21.4-55.8l-80-72
	C134.9,13.6,127.3,10.8,119.6,10.8L119.6,10.8z M135.6,146.9h-31.9c0.8,21.1,3.4,72.9,10.8,109.3c7.2,35.3,31.3,63.2,61.3,71.1
	c6,1.6,12.1,2.4,18.2,2.4c26.3,0,53.2-14.5,77.2-42.2c7.3-8.5,18.5-21.4,29.3-34c9.9-11.6,20.2-23.5,27-31.3
	c11.7-13.5,23.7-22.8,35.5-27.5c6-2.4,11.9-3.6,17.6-3.6c3.4,0,6.7,0.4,10,1.3c18.4,4.8,33.4,23.1,38.2,46.6
	c7.1,34.4,9,85.6,9.5,104.8H375c-29.3,0-43.1,36.2-21.4,55.8l80,72c6.1,5.5,13.8,8.2,21.4,8.2c7.7,0,15.3-2.8,21.4-8.2l80-72
	c21.8-19.6,7.8-55.8-21.4-55.8h-64h-0.6c-0.5-19.4-2.5-73.5-10.2-111.3c-7.2-35.3-31.3-63.2-61.4-71.1c-6-1.6-12.1-2.4-18.2-2.4
	c-26.3,0-53.2,14.6-77.2,42.2c-6.9,7.9-16.7,19.3-27.1,31.5c-10.7,12.5-21.9,25.5-29.1,33.9c-11.8,13.4-23.8,22.7-35.7,27.4
	c-6,2.4-11.9,3.6-17.6,3.6c-3.4,0-6.7-0.4-10-1.3c-18.4-4.8-33.3-23.1-38.1-46.6C139.1,216.7,136.5,167.9,135.6,146.9L135.6,146.9z"
	/>
</svg>
