<?xml version="1.0" encoding="utf-8"?>
<!-- Generator: Adobe Illustrator 25.4.1, SVG Export Plug-In . SVG Version: 6.00 Build 0)  -->
<svg version="1.1" id="Layer_1" xmlns="http://www.w3.org/2000/svg" xmlns:xlink="http://www.w3.org/1999/xlink" x="0px" y="0px"
	 viewBox="0 0 512 512" style="enable-background:new 0 0 512 512;" xml:space="preserve">
<path d="M256,8C119,8,8,119,8,256s111,248,248,248s248-111,248-248S393,8,256,8z M256,472c-118.7,0-216-96.1-216-216
	c0-118.7,96.1-216,216-216c118.7,0,216,96.1,216,216C472,374.7,375.9,472,256,472z M350.8,186.7L281.5,256l69.3,69.3
	c4.7,4.7,4.7,12.3,0,17l-8.5,8.5c-4.7,4.7-12.3,4.7-17,0L256,281.5l-69.3,69.3c-4.7,4.7-12.3,4.7-17,0l-8.5-8.5
	c-4.7-4.7-4.7-12.3,0-17l69.3-69.3l-69.3-69.3c-4.7-4.7-4.7-12.3,0-17l8.5-8.5c4.7-4.7,12.3-4.7,17,0l69.3,69.3l69.3-69.3
	c4.7-4.7,12.3-4.7,17,0l8.5,8.5C355.4,174.4,355.4,182,350.8,186.7L350.8,186.7z"/>
</svg>
