<?xml version="1.0" encoding="utf-8"?>
<!-- Generator: Adobe Illustrator 26.5.0, SVG Export Plug-In . SVG Version: 6.00 Build 0)  -->
<svg version="1.1" id="Layer_2_00000163052335215800428820000006506706137929934765_"
	 xmlns="http://www.w3.org/2000/svg" xmlns:xlink="http://www.w3.org/1999/xlink" x="0px" y="0px" viewBox="0 0 512 512"
	 style="enable-background:new 0 0 512 512;" xml:space="preserve">
<path d="M278.6,221l12.3,12.3c1.5,1.5,3.5,2.3,5.5,2.3s4-0.8,5.5-2.3L478.3,57.1v122.1c0,4.3,3.5,7.7,7.7,7.7h17.5
	c4.3,0,7.7-3.5,7.7-7.7V8.6c0-2.8-1.4-5.3-3.8-6.8c-1.3-0.6-2.7-1-3.9-1H332.6c-4.3,0-7.7,3.5-7.7,7.7v17.4c0,4.3,3.5,7.7,7.7,7.7
	h122.1L278.6,210c-1.5,1.5-2.3,3.5-2.3,5.5C276.2,217.6,277.1,219.5,278.6,221z M33.7,332.4v122.3l176.2-176.2
	c1.5-1.5,3.5-2.3,5.5-2.3c2.1,0,4,0.8,5.5,2.3l12.3,12.2c1.5,1.5,2.3,3.5,2.3,5.5s-0.8,4-2.3,5.5L57,478.4h122.3
	c4.3,0,7.7,3.5,7.7,7.7v17.4c0,4.3-3.5,7.7-7.7,7.7H8.6c-2.3,0-4.7-1.2-6.2-3.1c-1-1.4-1.6-3.2-1.6-4.9v-171c0-4.3,3.5-7.7,7.7-7.7
	h17.4C30.2,324.6,33.7,328.1,33.7,332.4z"/>
</svg>
