<?xml version="1.0" encoding="utf-8"?>
<!-- Generator: Adobe Illustrator 26.0.0, SVG Export Plug-In . SVG Version: 6.00 Build 0)  -->
<svg version="1.1" id="Layer_1" xmlns="http://www.w3.org/2000/svg" xmlns:xlink="http://www.w3.org/1999/xlink" x="0px" y="0px"
	 viewBox="0 0 512 512" style="enable-background:new 0 0 512 512;" xml:space="preserve">
<path d="M256.5,33.9c29.8,0,58.7,5.9,86,17.5c26.4,11.2,50.1,27.3,70.6,47.7c20.4,20.4,36.5,44.2,47.7,70.6
	c11.6,27.3,17.5,56.2,17.5,86s-5.9,58.7-17.5,86c-11.2,26.4-27.3,50.1-47.7,70.5c-20.4,20.4-44.2,36.5-70.6,47.7
	c-27.3,11.6-56.3,17.5-86,17.5c-29.8,0-58.7-5.9-86-17.5c-26.4-11.2-50.1-27.3-70.6-47.7S63.4,368,52.2,341.6
	c-11.6-27.3-17.5-56.2-17.5-86s5.9-58.7,17.5-86c11.2-26.4,27.3-50.1,47.7-70.6c20.4-20.4,44.2-36.5,70.6-47.7
	C197.8,39.8,226.7,33.9,256.5,33.9 M256.5,1.9C116.9,1.9,2.7,116.1,2.7,255.6c0,139.6,114.2,253.8,253.8,253.8
	s253.8-114.1,253.8-253.7S396.1,1.9,256.5,1.9L256.5,1.9z M256.5,217.6c19,0,38.1,15.9,38.1,38.1s-15.9,38.1-38.1,38.1
	s-38.1-15.9-38.1-38.1C221.6,233.4,237.5,217.6,256.5,217.6z M351.7,255.6c0-19,15.9-38.1,38.1-38.1c19,0,38.1,15.9,38.1,38.1
	s-15.9,38.1-38.1,38.1C367.5,290.5,351.7,274.7,351.7,255.6z M91.6,255.6c0-19,15.9-38.1,38.1-38.1c19,0,38.1,15.9,38.1,38.1
	s-15.9,38.1-38.1,38.1C107.4,290.5,91.6,274.7,91.6,255.6z"/>
</svg>
