<?xml version="1.0" encoding="utf-8"?>
<!-- Generator: Adobe Illustrator 25.4.1, SVG Export Plug-In . SVG Version: 6.00 Build 0)  -->
<svg version="1.1" id="Layer_1" xmlns="http://www.w3.org/2000/svg" xmlns:xlink="http://www.w3.org/1999/xlink" x="0px" y="0px"
	 viewBox="0 0 512 512" style="enable-background:new 0 0 512 512;" xml:space="preserve">
<path d="M256,504c137,0,248-111,248-248S393,8,256,8S8,119,8,256S119,504,256,504z M40,256c0-118.7,96.1-216,216-216
	c118.7,0,216,96.1,216,216c0,118.7-96.1,216-216,216C137.3,472,40,375.9,40,256z M128,288h64v104c0,13.2,10.8,24,24,24h80
	c13.2,0,24-10.8,24-24V288h64c28.4,0,42.8-34.5,22.6-54.6l-128-128c-12.5-12.5-32.8-12.5-45.3,0l-128,128
	C85.3,253.5,99.5,288,128,288z M256,128l128,128h-96v128h-64V256h-96L256,128z"/>
</svg>
