<?xml version="1.0" encoding="utf-8"?>
<!-- Generator: Adobe Illustrator 25.4.1, SVG Export Plug-In . SVG Version: 6.00 Build 0)  -->
<svg version="1.1" id="Layer_1" xmlns="http://www.w3.org/2000/svg" xmlns:xlink="http://www.w3.org/1999/xlink" x="0px" y="0px"
	 viewBox="0 0 512 512" style="enable-background:new 0 0 512 512;" xml:space="preserve">
<path d="M384,250v12c0,6.6-5.4,12-12,12h-98v98c0,6.6-5.4,12-12,12h-12c-6.6,0-12-5.4-12-12v-98h-98c-6.6,0-12-5.4-12-12v-12
	c0-6.6,5.4-12,12-12h98v-98c0-6.6,5.4-12,12-12h12c6.6,0,12,5.4,12,12v98h98C378.6,238,384,243.4,384,250z M504,256
	c0,137-111,248-248,248S8,393,8,256S119,8,256,8S504,119,504,256z M472,256c0-119.9-97.3-216-216-216C136.1,40,40,137.3,40,256
	c0,119.9,97.3,216,216,216C375.9,472,472,374.7,472,256z"/>
</svg>
