<?xml version="1.0" encoding="utf-8"?>
<!-- Generator: Adobe Illustrator 25.4.1, SVG Export Plug-In . SVG Version: 6.00 Build 0)  -->
<svg version="1.1" id="Layer_1" xmlns="http://www.w3.org/2000/svg" xmlns:xlink="http://www.w3.org/1999/xlink" x="0px" y="0px"
	 viewBox="0 0 512 512" style="enable-background:new 0 0 512 512;" xml:space="preserve">
<path d="M256,8C119,8,8,119,8,256s111,248,248,248s248-111,248-248S393,8,256,8z M256,472c-118.7,0-216-96.1-216-216
	c0-118.7,96.1-216,216-216c118.7,0,216,96.1,216,216C472,374.7,375.9,472,256,472z M397.6,197l-180.5,179c-4.7,4.7-12.3,4.6-17-0.1
	l-85.9-86.6c-4.7-4.7-4.6-12.3,0.1-17l8.5-8.5c4.7-4.7,12.3-4.6,17,0.1l69,69.5l163.4-162.1c4.7-4.7,12.3-4.6,17,0.1l8.5,8.5
	C402.4,184.8,402.3,192.4,397.6,197L397.6,197z"/>
</svg>
