<?xml version="1.0" encoding="utf-8"?>
<!-- Generator: Adobe Illustrator 25.4.1, SVG Export Plug-In . SVG Version: 6.00 Build 0)  -->
<svg version="1.1" id="Layer_1" xmlns="http://www.w3.org/2000/svg" xmlns:xlink="http://www.w3.org/1999/xlink" x="0px" y="0px"
	 viewBox="0 0 512 512" style="enable-background:new 0 0 512 512;" xml:space="preserve">
<path d="M54,327.7c-13.9-20.5-22-45.2-22-71.7c0-70.6,57.4-128,128-128h160v64c0,29.2,36.2,43.2,55.8,21.4l72-80
	c11-12.2,11-30.6,0-42.8l-72-80C356.2-11.1,320,2.7,320,32v64H160C71.8,96,0,167.8,0,256c0,33.9,10.6,65.4,28.7,91.3
	c4.4,6.3,13.6,6.9,18.8,1.2l5.5-6.1C56.6,338.3,57.1,332.2,54,327.7z M352,32l72,80l-72,80V32z M483.3,164.7
	c-4.4-6.3-13.6-6.9-18.8-1.2l-5.5,6.1c-3.7,4.1-4.1,10.1-1.1,14.7c13.9,20.5,22,45.2,22,71.7c0,70.6-57.4,128-128,128H192v-64
	c0-29.2-36.2-43.2-55.8-21.4l-72,80c-11,12.2-11,30.6,0,42.8l72,80c19.6,21.7,55.8,7.9,55.8-21.4v-64h160c88.2,0,160-71.8,160-160
	C512,222.1,501.4,190.6,483.3,164.7L483.3,164.7z M160,480l-72-80l72-80V480z"/>
</svg>
