<?xml version="1.0" encoding="utf-8"?>
<!-- Generator: Adobe Illustrator 26.0.1, SVG Export Plug-In . SVG Version: 6.00 Build 0)  -->
<svg version="1.1" id="Layer_1" xmlns="http://www.w3.org/2000/svg" xmlns:xlink="http://www.w3.org/1999/xlink" x="0px" y="0px"
	 viewBox="0 0 448 512" style="enable-background:new 0 0 448 512;" xml:space="preserve">
<path d="M432,32H312l-9.4-18.7C298.5,5.1,290.2,0,281.1,0H166.8c-9.1,0-17.4,5.1-21.4,13.3L136,32H16C7.2,32,0,39.2,0,48v32
	c0,8.8,7.2,16,16,16h416c8.8,0,16-7.2,16-16V48C448,39.2,440.8,32,432,32z M389.8,128c-2.1,0-3.8,1.6-4,3.6L356,465.4
	c-0.7,8.3-7.6,14.6-15.9,14.6H107.9c-8.3,0-15.2-6.3-15.9-14.6L62.2,131.6c-0.2-2.1-1.9-3.6-4-3.6H34.1c-2.3,0-4.2,2-4,4.4l30,335.9
	c2.2,24.7,23,43.7,47.8,43.7h232.2c24.8,0,45.6-19,47.8-43.7l30-335.9c0.2-2.3-1.6-4.4-4-4.4C413.9,128,389.8,128,389.8,128z"/>
</svg>
