<?xml version="1.0" encoding="utf-8"?>
<!-- Generator: Adobe Illustrator 26.0.1, SVG Export Plug-In . SVG Version: 6.00 Build 0)  -->
<svg version="1.1" id="Layer_1" xmlns="http://www.w3.org/2000/svg" xmlns:xlink="http://www.w3.org/1999/xlink" x="0px" y="0px"
	 viewBox="0 0 417.9 512" style="enable-background:new 0 0 417.9 512;" xml:space="preserve">
<path d="M413,97.3c0,6.6-5.4,12-12,12H17.3c-6.6,0-12-5.4-12-12v-8c0-6.6,5.4-12,12-12H401c6.6,0,12,5.4,12,12V97.3z M413,420.7
	c0,6.6-5.4,12-12,12H17.3c-6.6,0-12-5.4-12-12v-8c0-6.6,5.4-12,12-12H401c6.6,0,12,5.4,12,12V420.7z M413,259c0,6.6-5.4,12-12,12
	H17.3c-6.6,0-12-5.4-12-12v-8c0-6.6,5.4-12,12-12H401c6.6,0,12,5.4,12,12V259z"/>
</svg>
