<?xml version="1.0" encoding="utf-8"?>
<!-- Generator: Adobe Illustrator 25.4.1, SVG Export Plug-In . SVG Version: 6.00 Build 0)  -->
<svg version="1.1" id="Layer_1" xmlns="http://www.w3.org/2000/svg" xmlns:xlink="http://www.w3.org/1999/xlink" x="0px" y="0px"
	 viewBox="0 0 448 512" style="enable-background:new 0 0 448 512;" xml:space="preserve">
<path d="M433.9,129.9l-83.9-83.9c-9-9-21.2-14.1-33.9-14.1H48C21.5,32,0,53.5,0,80v352c0,26.5,21.5,48,48,48h352
	c26.5,0,48-21.5,48-48V163.9C448,151.2,442.9,138.9,433.9,129.9L433.9,129.9z M288,64v96H96V64H288z M416,432c0,8.8-7.2,16-16,16H48
	c-8.8,0-16-7.2-16-16V80c0-8.8,7.2-16,16-16h16v104c0,13.3,10.7,24,24,24h208c13.3,0,24-10.7,24-24V64.5c2.8,0.7,5.4,2.1,7.4,4.2
	l83.9,83.9c3,3,4.7,7.1,4.7,11.3V432z M224,232c-48.5,0-88,39.5-88,88s39.5,88,88,88s88-39.5,88-88S272.5,232,224,232z M224,376
	c-30.9,0-56-25.1-56-56s25.1-56,56-56s56,25.1,56,56S254.9,376,224,376z"/>
</svg>
