<?xml version="1.0" encoding="utf-8"?>
<!-- Generator: Adobe Illustrator 26.0.1, SVG Export Plug-In . SVG Version: 6.00 Build 0)  -->
<svg version="1.1" id="Layer_1" xmlns="http://www.w3.org/2000/svg" xmlns:xlink="http://www.w3.org/1999/xlink" x="0px" y="0px"
	 viewBox="0 0 320 512" style="enable-background:new 0 0 320 512;" xml:space="preserve">
<path d="M29.6,409c0.4,0.4,0.8,0.4,1.1,0.4c0.2,0,0.7-0.1,1.1-0.4L160,280.7L288.3,409c0.4,0.4,0.8,0.4,1.1,0.4
	c0.2,0,0.7-0.1,1.1-0.4l22.6-22.6c0.4-0.4,0.4-0.8,0.4-1.1c0-0.2-0.1-0.7-0.4-1.1L184.7,256L313,127.7c0.4-0.4,0.4-0.8,0.4-1.1
	c0-0.2-0.1-0.7-0.4-1.1L290.4,103c-0.4-0.4-0.8-0.4-1.1-0.4c-0.2,0-0.7,0.1-1.1,0.4L160,231.3L31.7,102.9c-0.6-0.6-1.5-0.6-2.1,0
	L6.9,125.6c-0.6,0.6-0.6,1.5,0,2.1L135.3,256L6.9,384.3c-0.6,0.6-0.6,1.5,0,2.1L29.6,409z"/>
</svg>
