<?xml version="1.0" encoding="utf-8"?>
<!-- Generator: Adobe Illustrator 26.0.0, SVG Export Plug-In . SVG Version: 6.00 Build 0)  -->
<svg version="1.1" id="Layer_1" xmlns="http://www.w3.org/2000/svg" xmlns:xlink="http://www.w3.org/1999/xlink" x="0px" y="0px"
	 viewBox="0 0 512 512" style="enable-background:new 0 0 512 512;" xml:space="preserve">
<path d="M505.5,30.6c0-15.8-13-26.3-26.4-26.3c-6.5,0-13,2.4-18.4,7.8l-53,53.2C364.8,30.8,310.6,10.8,253,10.8
	c-65.9,0-127.9,25.7-174.5,72.3C33.8,127.8,8.3,186.6,6.3,249.4c-0.1,4.5,3.5,8.2,8,8.2h16c4.3,0,7.8-3.4,8-7.7
	c1.9-54.5,24-105.5,62.8-144.3c40.6-40.6,94.5-62.9,151.9-62.9c49,0,95.1,16.6,131.9,45.3l-56.5,56.7c-16.5,16.5-4.8,44.8,18.6,44.8
	h0l132.4-0.2c14.5,0,26.2-11.8,26.2-26.3L505.5,30.6z M443.1,157.3l-82.2,0.1l47.8-47.9l22.6-22.7l42.2-42.4l0.2,102.4l0,10.4
	L443.1,157.3z M6.5,481.4c0,15.8,13,26.3,26.4,26.3c6.5,0,13-2.4,18.4-7.8l53-53.2c42.9,34.4,97.1,54.5,154.7,54.5
	c65.9,0,127.9-25.7,174.5-72.3c44.7-44.7,70.1-103.5,72.2-166.4c0.1-4.5-3.5-8.2-8-8.2h-16c-4.3,0-7.8,3.4-8,7.7
	c-1.9,54.5-24,105.5-62.8,144.3c-40.6,40.6-94.5,62.9-151.9,62.9c-48.9,0-95-16.6-131.9-45.3l56.5-56.7
	c16.5-16.5,4.8-44.8-18.6-44.8h0l-132.4,0.2C18,322.7,6.3,334.5,6.3,349L6.5,481.4z M68.9,354.7l82.2-0.1l-47.8,47.9l-22.6,22.7
	l-42.2,42.4l-0.2-102.4l0-10.4L68.9,354.7z"/>
</svg>
