<?xml version="1.0" encoding="utf-8"?>
<!-- Generator: Adobe Illustrator 25.4.1, SVG Export Plug-In . SVG Version: 6.00 Build 0)  -->
<svg version="1.1" id="Layer_1" xmlns="http://www.w3.org/2000/svg" xmlns:xlink="http://www.w3.org/1999/xlink" x="0px" y="0px"
	 viewBox="0 0 512 512" style="enable-background:new 0 0 512 512;" xml:space="preserve">
<path d="M207.9,137.2c-4.7-4.7-4.7-12.3,0-17L290,38.1c50.8-50.8,133-50.8,183.8,0c50.8,50.8,50.8,133,0,183.8l-82.2,82.2
	c-4.7,4.7-12.3,4.7-17,0l-8.5-8.5c-4.7-4.7-4.7-12.3,0-17l82.2-82.2c36.7-36.7,36.7-96.2,0-132.9c-36.7-36.7-96.2-36.7-132.9,0
	l-82.2,82.2c-4.7,4.7-12.3,4.7-17,0L207.9,137.2L207.9,137.2z M196.5,448.5c-36.7,36.6-96.3,36.7-132.9,0
	c-36.7-36.7-36.7-96.2,0-132.9l82.2-82.2c4.7-4.7,4.7-12.3,0-17l-8.5-8.5c-4.7-4.7-12.3-4.7-17,0l-82.2,82.2
	c-50.8,50.8-50.8,133,0,183.8c50.7,50.7,133.2,50.7,183.8,0l82.2-82.2c4.7-4.7,4.7-12.3,0-17l-8.5-8.5c-4.7-4.7-12.3-4.7-17,0
	L196.5,448.5L196.5,448.5z M12,3.5L3.5,12c-4.7,4.7-4.7,12.3,0,17L483,508.5c4.7,4.7,12.3,4.7,17,0l8.5-8.5c4.7-4.7,4.7-12.3,0-17
	L29,3.5C24.3-1.2,16.7-1.2,12,3.5z"/>
</svg>
