<?xml version="1.0" encoding="utf-8"?>
<!-- Generator: Adobe Illustrator 25.4.1, SVG Export Plug-In . SVG Version: 6.00 Build 0)  -->
<svg version="1.1" id="Layer_1" xmlns="http://www.w3.org/2000/svg" xmlns:xlink="http://www.w3.org/1999/xlink" x="0px" y="0px"
	 viewBox="0 0 512 512" style="enable-background:new 0 0 512 512;" xml:space="preserve">
<path d="M504,384H192v-40c0-13.3-10.7-24-24-24h-48c-13.3,0-24,10.7-24,24v40H8c-4.4,0-8,3.6-8,8v16c0,4.4,3.6,8,8,8h88v40
	c0,13.3,10.7,24,24,24h48c13.3,0,24-10.7,24-24v-40h312c4.4,0,8-3.6,8-8v-16C512,387.6,508.4,384,504,384z M160,448h-32v-96h32V448z
	 M504,96H256V56c0-13.3-10.7-24-24-24h-48c-13.3,0-24,10.7-24,24v40H8c-4.4,0-8,3.6-8,8v16c0,4.4,3.6,8,8,8h152v40
	c0,13.3,10.7,24,24,24h48c13.3,0,24-10.7,24-24v-40h248c4.4,0,8-3.6,8-8v-16C512,99.6,508.4,96,504,96z M224,160h-32V64h32V160z
	 M504,240h-88v-40c0-13.3-10.7-24-24-24h-48c-13.3,0-24,10.7-24,24v40H8c-4.4,0-8,3.6-8,8v16c0,4.4,3.6,8,8,8h312v40
	c0,13.3,10.7,24,24,24h48c13.3,0,24-10.7,24-24v-40h88c4.4,0,8-3.6,8-8v-16C512,243.6,508.4,240,504,240z M384,304h-32v-96h32V304z"
	/>
</svg>
