<?xml version="1.0" encoding="utf-8"?>
<!-- Generator: Adobe Illustrator 25.4.1, SVG Export Plug-In . SVG Version: 6.00 Build 0)  -->
<svg version="1.1" id="Layer_1" xmlns="http://www.w3.org/2000/svg" xmlns:xlink="http://www.w3.org/1999/xlink" x="0px" y="0px"
	 viewBox="0 0 640 512" style="enable-background:new 0 0 640 512;" xml:space="preserve">
<path d="M320,480c-17.7,0-32-14.4-32-32h-32c0,35.3,28.7,64,64,64s64-28.7,64-64h-32C352,465.6,337.7,480,320,480z M320,64
	c70.8,0,128,54.5,128,121.9c0,63.2,9.4,101.6,25,129.5l70.7,55.7c0.7-13.4-4.2-26.6-14.4-36.3c-28-26.6-49.3-54.5-49.3-148.9
	c0-79.6-63.4-144.5-144-152.3V16c0-8.8-7.2-16-16-16s-16,7.2-16,16v17.6c-43.9,4.2-84.2,26.2-111.5,60.9l24.7,19.4
	C240.4,83.8,277.7,64,320,64z M637,485.2L23,1.8C19.6-1,14.5-0.5,11.8,3l-10,12.5C-1,19-0.4,24,3,26.7l614,483.5
	c3.4,2.8,8.5,2.2,11.2-1.2l10-12.5C641,493,640.5,488,637,485.2z M144,384c-14.2,0-21.3-16.5-11.3-26c31.2-29.7,53.9-63,58.3-142.4
	L159.8,191c-0.8,90-21.8,117.7-49.2,143.8c-14,13.3-18.4,33.4-11.2,51.2c7.3,18.2,24.8,30,44.6,30h301.6L405,384H144z"/>
</svg>
