<?xml version="1.0" encoding="utf-8"?>
<!-- Generator: Adobe Illustrator 26.0.1, SVG Export Plug-In . SVG Version: 6.00 Build 0)  -->
<svg version="1.1" id="Layer_1" xmlns="http://www.w3.org/2000/svg" xmlns:xlink="http://www.w3.org/1999/xlink" x="0px" y="0px"
	 viewBox="0 0 448 512" style="enable-background:new 0 0 448 512;" xml:space="preserve">
<path d="M231.5,475.5l7.1-7.1c4.7-4.7,4.7-12.3,0-17L60.1,273H436c6.6,0,12-5.4,12-12v-10c0-6.6-5.4-12-12-12H60.1L238.6,60.5
	c4.7-4.7,4.7-12.3,0-17l-7.1-7.1c-4.7-4.7-12.3-4.7-17,0L3.5,247.5c-4.7,4.7-4.7,12.3,0,17l211.1,211.1
	C219.3,480.2,226.8,480.2,231.5,475.5z"/>
</svg>
