<?xml version="1.0" encoding="utf-8"?>
<!-- Generator: Adobe Illustrator 26.0.1, SVG Export Plug-In . SVG Version: 6.00 Build 0)  -->
<svg version="1.1" id="Layer_1" xmlns="http://www.w3.org/2000/svg" xmlns:xlink="http://www.w3.org/1999/xlink" x="0px" y="0px"
	 viewBox="0 0 550 512" style="enable-background:new 0 0 550 512;" xml:space="preserve">
<path d="M540.4,380.4l-80,80c-9.4,9.4-24.6,9.4-33.9,0l-80-80c-14.8-14.9-4.9-41,17.5-41h47.6h8.2c-1.4-23.3-4.7-66.4-11.4-99
	c-4.2-20.4-16.7-36.2-32-40.2c-16.4-4.4-36,5.3-55.3,27.1l-56.3,65.5c-25.7,29.2-54.5,44.7-83.4,44.7c-7.1,0-13.9-0.9-20.5-2.6
	c-17-4.5-32.3-14.6-44.3-29.2c-11-13.3-18.7-29.9-22.4-47.9c-7.4-36.1-10-94.8-10.9-117.3H27.2c-22.3,0-32.5-26-17.5-41l80-80
	c9.4-9.4,24.6-9.4,33.9,0l80,80c14.8,14.8,4.9,41-17.5,41h-55c1.1,25.2,3.7,77.2,9.9,107.6c4.2,20.4,16.7,36.2,32,40.2
	c16.4,4.4,36-5.3,55.3-27l56.3-65.5c43.2-49.2,83.6-47.4,103.8-42c17,4.5,32.3,14.6,44.3,29.2c11,13.3,18.7,29.9,22.4,47.9
	c8.7,42.3,12,98.1,12.5,108.5h55.1C545.1,339.5,555.3,365.5,540.4,380.4z"/>
</svg>
