<?xml version="1.0" encoding="utf-8"?>
<!-- Generator: Adobe Illustrator 26.0.1, SVG Export Plug-In . SVG Version: 6.00 Build 0)  -->
<svg version="1.1" id="Layer_1" xmlns="http://www.w3.org/2000/svg" xmlns:xlink="http://www.w3.org/1999/xlink" x="0px" y="0px"
	 viewBox="0 0 512 512" style="enable-background:new 0 0 512 512;" xml:space="preserve">
<path d="M255.1,507.2c-67.2,0-130.4-26.2-177.9-73.7S3.5,322.9,3.5,255.7c0-67.2,26.2-130.4,73.7-177.9S187.9,4.1,255.1,4.1
	c67.2,0,130.4,26.2,177.9,73.7s73.7,110.7,73.7,177.9c0,67.2-26.2,130.4-73.7,177.9S322.3,507.2,255.1,507.2z M255.1,36.1
	c-58.6,0-113.8,22.8-155.2,64.3S35.5,197,35.5,255.7c0,58.6,22.8,113.8,64.3,155.2s96.6,64.3,155.2,64.3
	c58.6,0,113.8-22.8,155.2-64.3s64.3-96.6,64.3-155.2c0-58.6-22.8-113.8-64.3-155.2S313.7,36.1,255.1,36.1z M173.6,124.2
	c-2.3,0-4.6,0.6-6.7,1.8c-4.2,2.4-6.7,6.8-6.7,11.6v235c0,4.8,2.6,9.2,6.7,11.6c2.1,1.2,4.4,1.8,6.7,1.8c2.3,0,4.6-0.6,6.7-1.8
	l203-117.5c4.1-2.4,6.7-6.8,6.7-11.6s-2.6-9.2-6.7-11.6l-203-117.5C178.2,124.8,175.9,124.2,173.6,124.2L173.6,124.2z"/>
</svg>
