<?xml version="1.0" encoding="utf-8"?>
<!-- Generator: Adobe Illustrator 26.5.0, SVG Export Plug-In . SVG Version: 6.00 Build 0)  -->
<svg version="1.1" id="Layer_2" xmlns="http://www.w3.org/2000/svg" xmlns:xlink="http://www.w3.org/1999/xlink" x="0px" y="0px"
	 viewBox="0 0 512 512" style="enable-background:new 0 0 512 512;" xml:space="preserve">
<g>
	<path d="M235.5,455V284c0-1.7-0.6-3.5-1.6-4.9c-1.5-1.9-3.9-3.1-6.2-3.1H57c-4.3,0-7.7,3.5-7.7,7.7v17.4c0,4.3,3.5,7.7,7.7,7.7
		h122.3L3.1,485.6c-1.5,1.5-2.3,3.5-2.3,5.5s0.8,4,2.3,5.5l12.3,12.3c1.5,1.5,3.5,2.3,5.5,2.3c2.1,0,4-0.8,5.5-2.3l176.2-176.2V455
		c0,4.3,3.5,7.7,7.7,7.7h17.4C232,462.8,235.5,459.3,235.5,455z"/>
	<path d="M508.9,15.4L496.6,3.1c-1.5-1.5-3.5-2.3-5.5-2.3s-4,0.8-5.5,2.3L309.2,179.3l0-122.1c0-4.3-3.5-7.7-7.7-7.7H284
		c-4.3,0-7.7,3.5-7.7,7.7l0,170.6c0,2.8,1.4,5.3,3.8,6.8c1.3,0.6,2.7,1,3.9,1l170.9,0c4.3,0,7.7-3.5,7.7-7.7v-17.4
		c0-4.3-3.5-7.7-7.7-7.7l-122.1,0L508.9,26.4c1.5-1.5,2.3-3.5,2.3-5.5C511.3,18.8,510.4,16.9,508.9,15.4z"/>
	<path d="M202.6,455V332.7L26.4,508.9c-1.5,1.5-3.5,2.3-5.5,2.3c-2.1,0-4-0.8-5.5-2.3L3.1,496.7c-1.5-1.5-2.3-3.5-2.3-5.5
		s0.8-4,2.3-5.5l176.2-176.7H57c-4.3,0-7.7-3.5-7.7-7.7v-17.4c0-4.3,3.5-7.7,7.7-7.7h170.7c2.3,0,4.7,1.2,6.2,3.1
		c1,1.4,1.6,3.2,1.6,4.9v171c0,4.3-3.5,7.7-7.7,7.7h-17.4C206.1,462.8,202.6,459.3,202.6,455z"/>
	<path d="M332.7,202.6l122.1,0c4.3,0,7.7,3.5,7.7,7.7v17.4c0,4.3-3.5,7.7-7.7,7.7l-170.9,0c-1.2,0-2.6-0.3-3.9-1
		c-2.4-1.4-3.8-3.9-3.8-6.8l0-170.6c0-4.3,3.5-7.7,7.7-7.7h17.4c4.3,0,7.7,3.5,7.7,7.7l0,122.1L485.6,3.1c1.5-1.5,3.5-2.3,5.5-2.3
		s4,0.8,5.5,2.3l12.3,12.3c1.5,1.5,2.3,3.5,2.3,5.5c0,2.1-0.8,4-2.3,5.5L332.7,202.6z"/>
</g>
</svg>
