<?xml version="1.0" encoding="utf-8"?>
<!-- Generator: Adobe Illustrator 25.4.1, SVG Export Plug-In . SVG Version: 6.00 Build 0)  -->
<svg version="1.1" id="Layer_1" xmlns="http://www.w3.org/2000/svg" xmlns:xlink="http://www.w3.org/1999/xlink" x="0px" y="0px"
	 viewBox="0 0 512 512" style="enable-background:new 0 0 512 512;" xml:space="preserve">
<style type="text/css">
	.st0{fill-rule:evenodd;clip-rule:evenodd;}
</style>
<path class="st0" d="M2.7,255.6C2.7,116.1,116.9,1.9,256.5,1.9s253.8,114.2,253.8,253.8S396.1,509.4,256.5,509.4
	S2.7,395.2,2.7,255.6z M256.5,217.6c19,0,38.1,15.9,38.1,38.1s-15.9,38.1-38.1,38.1s-38.1-15.9-38.1-38.1
	C221.6,233.4,237.5,217.6,256.5,217.6z M351.7,255.6c0-19,15.9-38.1,38.1-38.1c19,0,38.1,15.9,38.1,38.1s-15.9,38.1-38.1,38.1
	C367.5,290.5,351.7,274.7,351.7,255.6z M91.6,255.6c0-19,15.9-38.1,38.1-38.1c19,0,38.1,15.9,38.1,38.1s-15.9,38.1-38.1,38.1
	C107.4,290.5,91.6,274.7,91.6,255.6z"/>
</svg>
