<?xml version="1.0" encoding="utf-8"?>
<!-- Generator: Adobe Illustrator 25.4.1, SVG Export Plug-In . SVG Version: 6.00 Build 0)  -->
<svg version="1.1" id="Layer_1" xmlns="http://www.w3.org/2000/svg" xmlns:xlink="http://www.w3.org/1999/xlink" x="0px" y="0px"
	 viewBox="0 0 384 512" style="enable-background:new 0 0 384 512;" xml:space="preserve">
<path d="M35.5,184l148-148.5c4.7-4.7,12.3-4.7,17,0l148,148.5c4.7,4.7,4.7,12.3,0,17l-7.1,7.1c-4.7,4.7-12.3,4.7-17,0L209,92.1V404
	c0,6.6-5.4,12-12,12h-10c-6.6,0-12-5.4-12-12V92.1L59.6,208c-4.7,4.7-12.3,4.7-17,0l-7.1-7.1C30.8,196.3,30.8,188.7,35.5,184z
	 M384,468v-8c0-6.6-5.4-12-12-12H12c-6.6,0-12,5.4-12,12v8c0,6.6,5.4,12,12,12h360C378.6,480,384,474.6,384,468z"/>
</svg>
