<?xml version="1.0" encoding="utf-8"?>
<!-- Generator: Adobe Illustrator 26.0.1, SVG Export Plug-In . SVG Version: 6.00 Build 0)  -->
<svg version="1.1" id="Layer_1" xmlns="http://www.w3.org/2000/svg" xmlns:xlink="http://www.w3.org/1999/xlink" x="0px" y="0px"
	 viewBox="0 0 192 512" style="enable-background:new 0 0 192 512;" xml:space="preserve">
<path d="M96,384c26.5,0,48,21.5,48,48s-21.5,48-48,48s-48-21.5-48-48S69.5,384,96,384 M96,352c-44.1,0-80,35.9-80,80s35.9,80,80,80
	s80-35.9,80-80S140.1,352,96,352L96,352z M134.4,32l-12.8,256H70.4L57.6,32H134.4 M142.8,0H49.2c-13.7,0-24.7,11.5-24,25.2l13.6,272
	C39.5,310,50,320,62.8,320h66.3c12.8,0,23.3-10,24-22.8l13.6-272C167.4,11.5,156.5,0,142.8,0L142.8,0z"/>
</svg>
