<?xml version="1.0" encoding="utf-8"?>
<!-- Generator: Adobe Illustrator 26.0.1, SVG Export Plug-In . SVG Version: 6.00 Build 0)  -->
<svg version="1.1" id="Layer_1" xmlns="http://www.w3.org/2000/svg" xmlns:xlink="http://www.w3.org/1999/xlink" x="0px" y="0px"
	 viewBox="0 0 512 512" style="enable-background:new 0 0 512 512;" xml:space="preserve">
<style type="text/css">
	.st0{display:none;}
	.st1{display:inline;}
	.st2{display:inline;fill:#FFFFFF;}
</style>
<path d="M80,208.5c-26.5,0-48,21.5-48,48s21.5,48,48,48s48-21.5,48-48S106.5,208.5,80,208.5z M256,208.5c-26.5,0-48,21.5-48,48
	s21.5,48,48,48s48-21.5,48-48S282.5,208.5,256,208.5z M432,208.5c-26.5,0-48,21.5-48,48s21.5,48,48,48s48-21.5,48-48
	S458.5,208.5,432,208.5z M256,208.5c-26.5,0-48,21.5-48,48s21.5,48,48,48s48-21.5,48-48S282.5,208.5,256,208.5z"/>
<g class="st0">
	<path class="st1" d="M80,316.5c-33.1,0-60-26.9-60-60s26.9-60,60-60s60,26.9,60,60S113.1,316.5,80,316.5z"/>
	<path class="st2" d="M80,328.5c-39.7,0-72-32.3-72-72s32.3-72,72-72s72,32.3,72,72S119.7,328.5,80,328.5z M80,208.5
		c-26.5,0-48,21.5-48,48s21.5,48,48,48s48-21.5,48-48S106.5,208.5,80,208.5z"/>
</g>
</svg>
