<?xml version="1.0" encoding="utf-8"?>
<!-- Generator: Adobe Illustrator 25.4.1, SVG Export Plug-In . SVG Version: 6.00 Build 0)  -->
<svg version="1.1" id="Layer_1" xmlns="http://www.w3.org/2000/svg" xmlns:xlink="http://www.w3.org/1999/xlink" x="0px" y="0px"
	 viewBox="0 0 512 512" style="enable-background:new 0 0 512 512;" xml:space="preserve">
<path d="M301.1,394.7l-79.2,79.2c-50.8,50.8-133,50.8-183.8,0c-50.8-50.8-50.8-133,0-183.8l79.2-79.2c1.2-1.2,2.3-2.3,3.5-3.4
	c7.6-7,19.8-2,20.2,8.3c0.2,4.8,0.6,9.6,1.2,14.4c0.5,3.7-0.7,7.4-3.4,10.1c-16.5,16.5-75.1,75.1-75.3,75.3
	c-36.7,36.8-36.7,96.2,0,132.9c36.8,36.7,96.2,36.7,132.9,0l79.2-79.2l0.4-0.4c36.3-36.7,36.1-96.1-0.4-132.6
	c-8.2-8.2-17.6-14.6-27.6-19.1c-4.6-2.1-7.4-6.7-7.1-11.7c0.3-5.2,1.3-10.3,2.8-15.3c2.1-6.6,9.5-10,15.9-7.3
	c15.1,6.3,29.2,15.6,41.4,27.9C351.8,261.5,351.8,344,301.1,394.7L301.1,394.7z M210.9,301.1c12.2,12.2,26.4,21.5,41.4,27.9
	c6.4,2.7,13.8-0.7,15.9-7.3c1.6-4.9,2.5-10.1,2.8-15.3c0.3-5-2.6-9.6-7.1-11.7c-10-4.5-19.4-10.9-27.6-19.1
	c-36.5-36.5-36.7-95.9-0.4-132.6l0.4-0.4l79.2-79.2c36.8-36.7,96.2-36.7,132.9,0c36.7,36.8,36.7,96.2,0,132.9
	c-0.2,0.2-58.8,58.8-75.3,75.3c-2.7,2.6-3.9,6.4-3.4,10.1c0.6,4.8,1,9.6,1.2,14.4c0.4,10.3,12.7,15.3,20.2,8.3
	c1.2-1.1,2.4-2.2,3.5-3.4l79.2-79.2c50.8-50.8,50.8-133.1,0-183.8c-50.8-50.8-133.1-50.8-183.8,0l-79.2,79.2
	C160.2,168,160.2,250.5,210.9,301.1L210.9,301.1z"/>
</svg>
