<?xml version="1.0" encoding="utf-8"?>
<!-- Generator: Adobe Illustrator 25.4.1, SVG Export Plug-In . SVG Version: 6.00 Build 0)  -->
<svg version="1.1" id="Layer_1" xmlns="http://www.w3.org/2000/svg" xmlns:xlink="http://www.w3.org/1999/xlink" x="0px" y="0px"
	 viewBox="0 0 576 512" style="enable-background:new 0 0 576 512;" xml:space="preserve">
<path d="M11.1,251.6l176,184c24.7,25.8,68.9,8.6,68.9-27.6v-87.8c154.4,1.8,219.1,16.7,181.2,151.1c-8.3,29.5,25.4,52.2,49.7,34.5
	c33.3-24.3,89.1-79.6,89.1-174.6c0-171.1-154.5-201-320-203V40c0-36.3-44.2-53.5-68.9-27.6l-176,184
	C-3.7,211.8-3.7,236.2,11.1,251.6L11.1,251.6z M34.2,218.5l176-184c4.9-5.2,13.8-1.7,13.8,5.5v120c157.1,0,320,11.2,320,171.2
	c0,74.4-40,122.2-76,148.5c51.3-182-72.6-191.7-244-191.7v120c0,7.3-8.8,10.7-13.8,5.5l-176-184C31.2,226.4,31.2,221.6,34.2,218.5z"
	/>
</svg>
