<?xml version="1.0" encoding="utf-8"?>
<!-- Generator: Adobe Illustrator 25.4.1, SVG Export Plug-In . SVG Version: 6.00 Build 0)  -->
<svg version="1.1" id="Layer_1" xmlns="http://www.w3.org/2000/svg" xmlns:xlink="http://www.w3.org/1999/xlink" x="0px" y="0px"
	 viewBox="0 0 512 512" style="enable-background:new 0 0 512 512;" xml:space="preserve">
<path d="M464,32H48C21.5,32,0,53.5,0,80v64c0,8.8,7.2,16,16,16h16v272c0,26.5,21.5,48,48,48h352c26.5,0,48-21.5,48-48V160h16
	c8.8,0,16-7.2,16-16V80C512,53.5,490.5,32,464,32z M448,432c0,8.8-7.2,16-16,16H80c-8.8,0-16-7.2-16-16V160h384V432z M480,128H32V80
	c0-8.8,7.2-16,16-16h416c8.8,0,16,7.2,16,16V128z M204,256h104c6.6,0,12-5.4,12-12v-8c0-6.6-5.4-12-12-12H204c-6.6,0-12,5.4-12,12v8
	C192,250.6,197.4,256,204,256z"/>
</svg>
