<?xml version="1.0" encoding="utf-8"?>
<!-- Generator: Adobe Illustrator 26.0.1, SVG Export Plug-In . SVG Version: 6.00 Build 0)  -->
<svg version="1.1" id="Layer_1" xmlns="http://www.w3.org/2000/svg" xmlns:xlink="http://www.w3.org/1999/xlink" x="0px" y="0px"
	 viewBox="0 0 352 512" style="enable-background:new 0 0 352 512;" xml:space="preserve">
<path d="M280.7,418.2c9.7,9.7,25.6,9.7,35.3,0l22.2-22.2c9.7-9.7,9.7-25.6,0-35.3L233.5,256l104.7-104.7c9.7-9.7,9.7-25.6,0-35.3
	L316,93.8c-4.7-4.7-11-7.3-17.7-7.3s-12.9,2.6-17.7,7.3L176,198.5L71.3,93.8c-4.7-4.7-11-7.3-17.7-7.3S40.7,89.1,36,93.8L13.8,116
	c-4.7,4.7-7.3,11-7.3,17.7s2.6,12.9,7.3,17.7L118.5,256L13.8,360.7c-4.7,4.7-7.3,11-7.3,17.7s2.6,12.9,7.3,17.7L36,418.2
	c9.7,9.7,25.6,9.7,35.3,0L176,313.5L280.7,418.2z"/>
</svg>
