<?xml version="1.0" encoding="utf-8"?>
<!-- Generator: Adobe Illustrator 26.0.1, SVG Export Plug-In . SVG Version: 6.00 Build 0)  -->
<svg version="1.1" id="Layer_1" xmlns="http://www.w3.org/2000/svg" xmlns:xlink="http://www.w3.org/1999/xlink" x="0px" y="0px"
	 viewBox="0 0 512 512" style="enable-background:new 0 0 512 512;" xml:space="preserve">
<path d="M148.7,176.4c-2.4-2.4-5.6-3.7-9-3.7l0,0c-3.4,0-6.5,1.3-8.9,3.7L96.9,210c-2.4,2.4-3.7,5.6-3.7,9s1.3,6.6,3.7,9
	l135.6,136.7c4.9,5,13,5,17.9,0.1L508.3,109c5-4.9,5-13,0.1-17.9L474.6,57c-4.9-5-13-5-17.9-0.1L241.8,270.2L148.7,176.4z
	 M470.6,311.6v129.3c0,27.8-22.6,50.4-50.4,50.4H50.5c-27.8,0-50.4-22.6-50.4-50.4V71.1c0-27.8,22.6-50.4,50.4-50.4H333
	c5.2,0,9.4,4.2,9.4,9.4v31.6c0,5.2-4.2,9.4-9.4,9.4H62.5c-6.6,0-12,5.4-12,12v345.7c0,6.6,5.4,12,12,12h345.7c6.6,0,12-5.4,12-12
	V311.6c0-5.2,4.2-9.4,9.4-9.4h31.6C466.4,302.2,470.6,306.4,470.6,311.6 M470.6,311.6v129.3c0,27.8-22.6,50.4-50.4,50.4H50.5
	c-27.8,0-50.4-22.6-50.4-50.4V71.1c0-27.8,22.6-50.4,50.4-50.4H333c5.2,0,9.4,4.2,9.4,9.4v31.6c0,5.2-4.2,9.4-9.4,9.4H62.5
	c-6.6,0-12,5.4-12,12v345.7c0,6.6,5.4,12,12,12h345.7c6.6,0,12-5.4,12-12V311.6c0-5.2,4.2-9.4,9.4-9.4h31.6
	C466.4,302.2,470.6,306.4,470.6,311.6"/>
</svg>
