<?xml version="1.0" encoding="utf-8"?>
<!-- Generator: Adobe Illustrator 26.0.1, SVG Export Plug-In . SVG Version: 6.00 Build 0)  -->
<svg version="1.1" id="Layer_1" xmlns="http://www.w3.org/2000/svg" xmlns:xlink="http://www.w3.org/1999/xlink" x="0px" y="0px"
	 viewBox="0 0 448 512" style="enable-background:new 0 0 448 512;" xml:space="preserve">
<path d="M4.5,263.5l7.1,7.1c4.7,4.7,12.3,4.7,17,0L207,92.1V468c0,6.6,5.4,12,12,12h10c6.6,0,12-5.4,12-12V92.1l178.5,178.5
	c4.7,4.7,12.3,4.7,17,0l7.1-7.1c4.7-4.7,4.7-12.3,0-17l-211.1-211c-4.7-4.7-12.3-4.7-17,0L4.5,246.6C-0.2,251.3-0.2,258.9,4.5,263.5
	L4.5,263.5z"/>
</svg>
