<?xml version="1.0" encoding="utf-8"?>
<!-- Generator: Adobe Illustrator 25.4.1, SVG Export Plug-In . SVG Version: 6.00 Build 0)  -->
<svg version="1.1" id="Layer_1" xmlns="http://www.w3.org/2000/svg" xmlns:xlink="http://www.w3.org/1999/xlink" x="0px" y="0px"
	 viewBox="0 0 512 512" style="enable-background:new 0 0 512 512;" xml:space="preserve">
<path d="M464,0H144c-26.5,0-48,21.5-48,48v48H48c-26.5,0-48,21.5-48,48v320c0,26.5,21.5,48,48,48h320c26.5,0,48-21.5,48-48v-48h48
	c26.5,0,48-21.5,48-48V48C512,21.5,490.5,0,464,0z M384,464c0,8.8-7.2,16-16,16H48c-8.8,0-16-7.2-16-16V144c0-8.8,7.2-16,16-16h48
	v240c0,26.5,21.5,48,48,48h240V464z M480,368c0,8.8-7.2,16-16,16H144c-8.8,0-16-7.2-16-16V48c0-8.8,7.2-16,16-16h320
	c8.8,0,16,7.2,16,16V368z"/>
</svg>
