<?xml version="1.0" encoding="utf-8"?>
<!-- Generator: Adobe Illustrator 26.0.1, SVG Export Plug-In . SVG Version: 6.00 Build 0)  -->
<svg version="1.1" id="Layer_1" xmlns="http://www.w3.org/2000/svg" xmlns:xlink="http://www.w3.org/1999/xlink" x="0px" y="0px"
	 viewBox="0 0 512 512" style="enable-background:new 0 0 512 512;" xml:space="preserve">
<path d="M322,351.1l145,142.3c4.7,4.7,12.3,4.7,17,0l9.9-9.9c4.6-4.7,4.6-12.3-0.1-17l-145-142.3l-10.7-9.4
	c59.7-71.8,56-178.8-11.4-246.2l0,0c-34.5-34.5-80.4-53.5-129.3-53.5s-94.8,19-129.3,53.5C33.7,103.1,14.7,149,14.7,197.9
	s19,94.8,53.5,129.3c35.6,35.7,82.5,53.5,129.3,53.5c40.4,0,80.7-13.2,113.9-39.7L322,351.1z M90.8,304.5
	c-28.4-28.4-44.1-66.3-44.1-106.7s15.7-78.2,44.1-106.7C119.2,62.7,157.1,47,197.5,47s78.2,15.7,106.7,44.1l0,0
	c58.8,58.8,58.8,154.5,0,213.3C245.3,363.3,149.6,363.3,90.8,304.5z"/>
</svg>
