<?xml version="1.0" encoding="utf-8"?>
<!-- Generator: Adobe Illustrator 26.5.0, SVG Export Plug-In . SVG Version: 6.00 Build 0)  -->
<svg version="1.1" id="Layer_1" xmlns="http://www.w3.org/2000/svg" xmlns:xlink="http://www.w3.org/1999/xlink" x="0px" y="0px"
	 viewBox="0 0 512 512" style="enable-background:new 0 0 512 512;" xml:space="preserve">
<style type="text/css">
	.st0{fill-rule:evenodd;clip-rule:evenodd;}
</style>
<path class="st0" d="M324,234.4c-10,10-26.4,10-36.4,0l-10.8-10.8c-10-10-10-26.4,0-36.4L398.3,66.3h-48.2
	c-14.3,0-25.9-11.3-25.9-25.6V25.6c0-14.3,11.5-25.6,25.9-25.6h136.3c14.3,0,25.9,11.3,25.9,25.6v135.7c0,14.3-11.5,25.6-25.9,25.6
	h-15.1c-14.3,0-25.9-11.3-25.9-25.6v-48.2L324,234.4z M187.7,277.4c10-10,26.4-10,36.4,0l10.8,10.8c10,10,10,26.4,0,36.4
	L113.5,445.7h48.2c14.3,0,25.9,11.3,25.9,25.6v15.1c0,14.3-11.5,25.6-25.9,25.6h-136c-14.3,0-25.9-11.3-25.9-25.6V350.6
	c0-14.3,11.5-25.6,25.9-25.6h15.1c14.3,0,25.9,11.3,25.9,25.6v48.2L188,277.6L187.7,277.4z"/>
</svg>
