<?xml version="1.0" encoding="utf-8"?>
<!-- Generator: Adobe Illustrator 26.0.0, SVG Export Plug-In . SVG Version: 6.00 Build 0)  -->
<svg version="1.1" id="Layer_1" xmlns="http://www.w3.org/2000/svg" xmlns:xlink="http://www.w3.org/1999/xlink" x="0px" y="0px"
	 viewBox="0 0 384 512" style="enable-background:new 0 0 384 512;" xml:space="preserve">
<path d="M360,480H24c-13.3,0-24-10.7-24-24v-24c0-13.3,10.7-24,24-24h336c13.3,0,24,10.7,24,24v24C384,469.3,373.3,480,360,480z
	 M294.6,189.5L229,255.1V46c0-13.3-10.7-24-24-24h-24c-13.3,0-24,10.7-24,24v209.1l-65.6-65.6c-9.4-9.4-24.6-9.4-33.9,0l-17,17
	c-9.4,9.4-9.4,24.6,0,33.9L176,375.9c9.4,9.4,24.6,9.4,33.9,0l135.6-135.5c9.4-9.4,9.4-24.6,0-33.9l-17-17
	C319.1,180.1,303.9,180.1,294.6,189.5z"/>
</svg>
