<?xml version="1.0" encoding="utf-8"?>
<!-- Generator: Adobe Illustrator 25.4.1, SVG Export Plug-In . SVG Version: 6.00 Build 0)  -->
<svg version="1.1" id="Layer_1" xmlns="http://www.w3.org/2000/svg" xmlns:xlink="http://www.w3.org/1999/xlink" x="0px" y="0px"
	 viewBox="0 0 512 512" style="enable-background:new 0 0 512 512;" xml:space="preserve">
<path d="M493.2,56.3l-37.5-37.5C443.2,6.2,426.9,0,410.5,0s-32.8,6.2-45.3,18.7L12.9,371.1L0.2,485.3C-1.5,499.7,9.9,512,24,512
	c0.9,0,1.8,0,2.7-0.1l114.1-12.6l352.5-352.5C518.2,121.8,518.2,81.3,493.2,56.3L493.2,56.3z M126.1,468.7l-93,10.3l10.4-93.2
	l263.9-263.9l82.8,82.8L126.1,468.7z M470.6,124.1l-57.9,57.9l-82.8-82.8l57.9-57.9c6-6,14.1-9.4,22.6-9.4c8.5,0,16.6,3.3,22.6,9.4
	l37.5,37.5C483.1,91.4,483.1,111.7,470.6,124.1L470.6,124.1z"/>
</svg>
