<?xml version="1.0" encoding="utf-8"?>
<!-- Generator: Adobe Illustrator 25.4.1, SVG Export Plug-In . SVG Version: 6.00 Build 0)  -->
<svg version="1.1" id="Layer_1" xmlns="http://www.w3.org/2000/svg" xmlns:xlink="http://www.w3.org/1999/xlink" x="0px" y="0px"
	 viewBox="0 0 417.9 512" style="enable-background:new 0 0 417.9 512;" xml:space="preserve">
<path d="M17.4,141.1h382.1c8.3,0,13.8-5.5,13.8-13.8v-36c0-8.3-8.3-13.8-13.8-13.8H17.4c-8.3,0-13.8,8.3-13.8,13.8v36
	C3.5,132.8,9.1,141.1,17.4,141.1z M17.4,287.8h382.1c8.3,0,13.8-5.5,13.8-13.8v-36c0-8.3-8.3-13.8-13.8-13.8H17.4
	c-8.3,0-13.8,8.3-13.8,13.8v36C3.5,279.5,9.1,287.8,17.4,287.8z M17.4,434.6h382.1c8.3,0,13.8-5.5,13.8-13.8v-36
	c0-8.3-8.3-13.8-13.8-13.8H17.4c-8.3,0-13.8,8.3-13.8,13.8v36C3.5,426.3,9.1,434.6,17.4,434.6z"/>
</svg>
