<?xml version="1.0" encoding="utf-8"?>
<!-- Generator: Adobe Illustrator 26.0.1, SVG Export Plug-In . SVG Version: 6.00 Build 0)  -->
<svg version="1.1" id="Layer_1" xmlns="http://www.w3.org/2000/svg" xmlns:xlink="http://www.w3.org/1999/xlink" x="0px" y="0px"
	 viewBox="0 0 512 512" style="enable-background:new 0 0 512 512;" xml:space="preserve">
<path d="M447.2,256H287.9v-95.6h159.4L447.2,256L447.2,256z M447.2,415.4H287.9v-95.6h159.4L447.2,415.4L447.2,415.4z M224.1,256
	H64.7v-95.6h159.4L224.1,256L224.1,256z M224.1,415.4H64.7v-95.6h159.4L224.1,415.4L224.1,415.4z M463.2,32.9H48.8
	C22.4,32.9,1,54.3,1,80.7v350.6c0,26.4,21.4,47.8,47.8,47.8h414.4c26.4,0,47.8-21.4,47.8-47.8V80.7C511,54.3,489.6,32.9,463.2,32.9"
	/>
</svg>
