<?xml version="1.0" encoding="utf-8"?>
<!-- Generator: Adobe Illustrator 25.4.1, SVG Export Plug-In . SVG Version: 6.00 Build 0)  -->
<svg version="1.1" id="Layer_1" xmlns="http://www.w3.org/2000/svg" xmlns:xlink="http://www.w3.org/1999/xlink" x="0px" y="0px"
	 viewBox="0 0 512 512" style="enable-background:new 0 0 512 512;" xml:space="preserve">
<path d="M224,160c-17.7,0-32-14.3-32-32s14.3-32,32-32s32,14.3,32,32S241.7,160,224,160z M352,128c0-17.7-14.3-32-32-32
	s-32,14.3-32,32s14.3,32,32,32S352,145.7,352,128z M448,128c0-17.7-14.3-32-32-32s-32,14.3-32,32s14.3,32,32,32S448,145.7,448,128z
	 M512,80v352c0,26.5-21.5,48-48,48H48c-26.5,0-48-21.5-48-48V80c0-26.5,21.5-48,48-48h416C490.5,32,512,53.5,512,80z M480,224H32
	v208c0,8.8,7.2,16,16,16h416c8.8,0,16-7.2,16-16V224z M480,192V80c0-8.8-7.2-16-16-16H48c-8.8,0-16,7.2-16,16v112H480z"/>
</svg>
