<?xml version="1.0" encoding="utf-8"?>
<!-- Generator: Adobe Illustrator 25.4.1, SVG Export Plug-In . SVG Version: 6.00 Build 0)  -->
<svg version="1.1" id="Layer_1" xmlns="http://www.w3.org/2000/svg" xmlns:xlink="http://www.w3.org/1999/xlink" x="0px" y="0px"
	 viewBox="0 0 512 512" style="enable-background:new 0 0 512 512;" xml:space="preserve">
<path d="M0,80v352c0,26.5,21.5,48,48,48h416c26.5,0,48-21.5,48-48V80c0-26.5-21.5-48-48-48H48C21.5,32,0,53.5,0,80z M240,64v176H32
	V80c0-8.8,7.2-16,16-16H240z M32,432V272h208v176H48C39.2,448,32,440.8,32,432z M272,448V272h208v160c0,8.8-7.2,16-16,16H272z
	 M480,240H272V64h192c8.8,0,16,7.2,16,16V240z"/>
</svg>
