<?xml version="1.0" encoding="utf-8"?>
<!-- Generator: Adobe Illustrator 26.0.1, SVG Export Plug-In . SVG Version: 6.00 Build 0)  -->
<svg version="1.1" id="Layer_1" xmlns="http://www.w3.org/2000/svg" xmlns:xlink="http://www.w3.org/1999/xlink" x="0px" y="0px"
	 viewBox="0 0 448 512" style="enable-background:new 0 0 448 512;" xml:space="preserve">
<path d="M436.5,272.2c0,13.8-11.2,25-25,25H263.4v148.2c0,13.8-11.2,25-25,25H207c-13.8,0-25-11.2-25-25V297.3H33.9
	c-13.8,0-25-11.2-25-25v-31.4c0-13.8,11.2-25,25-25h147.9V67.8c0-13.8,11.2-25,25-25h31.4c13.8,0,25,11.2,25,25v148.1l148.3-0.1
	c13.8,0,25,11.2,25,25V272.2z"/>
</svg>
