<?xml version="1.0" encoding="utf-8"?>
<!-- Generator: Adobe Illustrator 26.0.0, SVG Export Plug-In . SVG Version: 6.00 Build 0)  -->
<svg version="1.1" id="Layer_1" xmlns="http://www.w3.org/2000/svg" xmlns:xlink="http://www.w3.org/1999/xlink" x="0px" y="0px"
	 viewBox="0 0 384 512" style="enable-background:new 0 0 384 512;" xml:space="preserve">
<path d="M347.5,272l-148,148.5c-4.7,4.7-12.3,4.7-17,0L34.5,272c-4.7-4.7-4.7-12.3,0-17l7.1-7.1c4.7-4.7,12.3-4.7,17,0l115.4,116V52
	c0-6.6,5.4-12,12-12h10c6.6,0,12,5.4,12,12v311.9L323.4,248c4.7-4.7,12.3-4.7,17,0l7.1,7.1C352.2,259.7,352.2,267.3,347.5,272z
	 M384,468v-8c0-6.6-5.4-12-12-12H12c-6.6,0-12,5.4-12,12v8c0,6.6,5.4,12,12,12h360C378.6,480,384,474.6,384,468z"/>
</svg>
