<?xml version="1.0" encoding="utf-8"?>
<!-- Generator: Adobe Illustrator 26.0.1, SVG Export Plug-In . SVG Version: 6.00 Build 0)  -->
<svg version="1.1" id="Layer_1" xmlns="http://www.w3.org/2000/svg" xmlns:xlink="http://www.w3.org/1999/xlink" x="0px" y="0px"
	 viewBox="0 0 512 512" style="enable-background:new 0 0 512 512;" xml:space="preserve">
<path d="M346.5,405.7l96.2,99.3c9.4,9.4,24.6,9.4,33.9,0l28.3-28.3c9.4-9.4,9.4-24.6,0.1-34L405.3,343l-22.6-22.1
	C403.8,288.4,416,249.7,416,208C416,93.1,322.9,0,208,0S0,93.1,0,208s93.1,208,208,208c42.3,0,81.5-12.6,114.3-34.2L346.5,405.7z
	 M208,336c-70.7,0-128-57.2-128-128c0-70.7,57.2-128,128-128c70.7,0,128,57.2,128,128C336,278.7,278.8,336,208,336z"/>
</svg>
