<?xml version="1.0" encoding="utf-8"?>
<!-- Generator: Adobe Illustrator 26.0.1, SVG Export Plug-In . SVG Version: 6.00 Build 0)  -->
<svg version="1.1" id="Layer_1" xmlns="http://www.w3.org/2000/svg" xmlns:xlink="http://www.w3.org/1999/xlink" x="0px" y="0px"
	 viewBox="0 0 512 512" style="enable-background:new 0 0 512 512;" xml:space="preserve">
<path d="M66.1,300.6c2.9,6,1.6,13.4-3.2,18.1c-4.9,4.8-8.8,8.7-11.9,11.8c-3.7,3.6-8.7,5.3-13.9,4.5c-5-0.8-9.2-3.7-11.5-8.2
	c-11.8-22.4-17.8-46.6-17.6-72c0.3-40.4,16.5-78.4,45.6-106.8c29-28.4,67.4-44,108-44H328v-8V48.6v0c0,0,0,0,0,0
	c0-0.5,0-0.9,0.1-1.4c1-21.3,26.3-30.8,40.9-16.1l80,80c9.4,9.3,9.4,24.5,0,33.9l-80,80c-14.6,14.5-39.9,5.3-41-16.1
	c0-0.4,0-0.9,0-1.4V160v-8H161.1C103.7,152,56.5,198.2,56,254.9C55.8,270.7,59.2,286.1,66.1,300.6z M486.4,185.3L486.4,185.3
	c-2.4-4.5-6.6-7.5-11.6-8.2c-5.1-0.7-10,0.9-13.6,4.6l-0.1,0.1c-3.3,3.2-7.2,7.1-11.8,11.7c-4.8,4.8-6.1,12.1-3.2,18.2
	c6.7,14.3,10.2,30,10,45.6c-0.5,56.7-47.7,102.9-105.1,102.9H200v-8v-48c0-21.3-25.9-32.1-41-17l-80,80c-4.6,4.5-6.9,10.4-7,16.3
	c0,0.2,0,0.4,0,0.5c0,0,0,0,0,0c0,0.5,0,1,0.1,1.4c0,0,0,0.1,0,0.1c0.4,5.6,2.7,11.1,7,15.4l80,80c14.8,14.8,41,5,41-17.5V416v-8
	h150.4c84,0,152.9-67.6,153.6-150.8C504.2,232.1,498.1,207.2,486.4,185.3z"/>
</svg>
