<?xml version="1.0" encoding="utf-8"?>
<!-- Generator: Adobe Illustrator 28.3.0, SVG Export Plug-In . SVG Version: 6.00 Build 0)  -->
<svg version="1.1" id="Layer_1" xmlns="http://www.w3.org/2000/svg" xmlns:xlink="http://www.w3.org/1999/xlink" x="0px" y="0px"
	 viewBox="0 0 512 512" style="enable-background:new 0 0 512 512;" xml:space="preserve">
<path d="M459,6.1H256.5H53c-14.9,0-27,12.1-27,27V255c0,164.7,159.1,221.1,219.4,248.4c7.1,3.2,15.1,3.2,22.2,0
	C327.8,476.1,486,419.8,486,255V33.1C486,18.2,473.9,6.1,459,6.1z M256.5,164h18.4v5.8c0,3.4,1,6.4,3,9.1s5.3,4,10,4
	c3.1,0,5.5-0.5,7.3-1.3c1.7-0.9,3.1-2.2,4-3.9c1-1.7,1.5-3.7,1.7-6s0.3-5,0.3-7.8c0-3.4-0.1-6.1-0.4-8.3c-0.2-2.2-0.7-3.9-1.4-5.2
	c-0.8-1.3-2-2.4-3.3-3.2c-1.4-0.8-3.2-1.7-5.5-2.7l-13.1-5.4c-7.9-3.2-13.2-7.5-15.9-12.9c-2.7-5.3-4.1-12-4.1-20.1
	c0-4.8,0.7-9.4,2-13.7c1.3-4.3,3.3-8,5.9-11.2c2.5-3.1,5.7-5.6,9.6-7.5c3.9-1.9,8.5-2.8,13.9-2.8c4.6,0,8.7,0.8,12.5,2.5
	c3.8,1.7,7,3.9,9.8,6.7c5.5,5.8,8.3,12.4,8.3,19.8v9h-18.4v-4.1c0-4.2-1-7.8-3-10.9c-2-3.1-5.3-4.6-10-4.6c-2.5,0-4.6,0.5-6.1,1.4
	c-1.6,1-2.8,2.2-3.8,3.6c-1,1.6-1.6,3.3-2,5.3c-0.4,2-0.5,4-0.5,6.2c0,2.5,0.1,4.6,0.3,6.3c0.2,1.7,0.6,3.2,1.3,4.5
	c0.7,1.3,1.8,2.5,3.2,3.4c1.4,1,3.3,1.9,5.7,2.9l14,5.6c4.1,1.6,7.4,3.4,9.9,5.5c2.5,2.1,4.5,4.5,5.9,7.3c1.3,2.9,2.2,6.2,2.7,9.8
	c0.5,3.7,0.7,7.8,0.7,12.5c0,5.4-0.5,10.4-1.6,15c-1.1,4.6-2.8,8.5-5.2,11.8c-2.5,3.4-5.8,6-9.9,7.9c-4.1,1.9-9.1,2.9-14.9,2.9
	c-4.4,0-8.6-0.8-12.4-2.3c-3.8-1.6-7.1-3.7-9.9-6.5c-2.8-2.8-5-6-6.6-9.6c-1.6-3.7-2.4-7.7-2.4-12V164z M216.8,72h18.4v128.2h-18.4
	V72z M146.7,123.1v77h-18.4V72H146l27.7,77.2h0.4V72h18.4v128.2h-17.3l-28.1-77H146.7z M373.5,298L244.8,426.6
	c-1.8,1.8-4.2,2.8-6.8,2.8c-2.6,0-5-1-6.8-2.8l-72.7-72.7c-1.8-1.8-2.9-4.3-2.9-6.9c0-2.6,1-5,2.9-6.9l15.8-15.8
	c3.8-3.8,9.9-3.8,13.7,0l49,49c0.6,0.6,1.5,0.6,2.1,0L344,268.5c3.8-3.8,9.9-3.8,13.7,0l15.8,15.8
	C377.4,288.2,377.4,294.2,373.5,298z M392.1,89.3h-21.2v110.9h-18.4V89.3h-21.2V72h60.8V89.3z"/>
</svg>
