<?xml version="1.0" encoding="UTF-8"?>
<svg id="Layer_1" xmlns="http://www.w3.org/2000/svg" version="1.1" viewBox="0 0 512 512">
  <!-- Generator: Adobe Illustrator 29.8.1, SVG Export Plug-In . SVG Version: 2.1.1 Build 2)  -->
  <path d="M459,6.1c14.9,0,27,12.1,27,27v221.9c0,164.7-158.2,221.1-218.4,248.4-7.1,3.2-15.1,3.2-22.2,0-60.3-27.3-219.4-83.7-219.4-248.4V33.1c0-14.9,12.1-27,27-27h406ZM88,195v-73.7h.3l22.8,73.7h14v-122.7h-14.9v73.9h-.3l-22.5-73.9h-14.3v122.7h14.9ZM150,195l4.4-26.4h20.3l4.4,26.4h14.9l-23.2-122.7h-12.4l-23.2,122.7h14.9ZM157,152.1l7.3-44.4h.3l7.3,44.4h-14.9ZM224.9,195c9.7,0,16.8-2.9,21.2-8.6,4.4-5.7,6.6-14,6.6-24.8v-6.9c0-6.5-.8-11.7-2.5-15.5-1.7-3.8-4.2-6.7-7.7-8.6,3.4-2.3,5.9-5.1,7.6-8.3.9-1.7,1.5-3.7,2-6,.4-2.3.7-5.1.7-8.4v-4.5c0-4-.5-7.9-1.4-11.6-.9-3.7-2.5-7-4.6-9.9-2.1-2.9-4.9-5.2-8.2-6.9-3.4-1.7-7.4-2.6-12.2-2.6h-21.8v122.7h20.3ZM225.6,88.9c5,0,8.4,1.4,10.3,4.1,1.9,2.8,2.8,6.9,2.8,12.4s-.9,9.9-2.6,12.8c-1.7,2.9-5,4.4-10,4.4h-6.7v-33.8h6.1ZM226.1,138.1c2.7,0,4.9.4,6.6,1.1,1.7.7,3,1.9,3.9,3.5.9,1.6,1.5,3.6,1.8,5.9.3,2.3.4,5,.4,8.1s0,5.7-.3,8.3c-.2,2.5-.7,4.7-1.6,6.5-.9,1.8-2.2,3.3-3.9,4.3-1.7,1-4.1,1.6-7.1,1.6h-6.4v-39.3h6.6ZM314.5,195v-17.6h-29.5v-36h25.7v-16.5h-25.7v-36h29.5v-16.5h-44.4v122.7h44.4ZM342.4,195v-52.4h8.9l13.9,52.4h15.8l-16.1-56c4.8-3.1,8.1-7.2,10-12.2,1.9-5.1,2.8-11.2,2.8-18.4,0-24-8.8-36-26.3-36h-23.9v122.7h14.9ZM350.2,88.9c5.2,0,8.7,1.6,10.5,4.8.9,1.7,1.5,3.8,1.8,6.1.3,2.4.4,5.1.4,8.2s-.1,5.8-.4,8.2c-.3,2.4-.8,4.3-1.6,5.9-.9,1.6-2.1,2.8-3.6,3.7-1.6.9-3.6,1.3-6.3,1.3h-8.5v-38.2h7.7ZM441.3,99c0-7.1-2.2-13.4-6.7-19-2.2-2.6-4.9-4.8-8-6.4-3.1-1.6-6.4-2.4-10.1-2.4s-8.2.9-11.3,2.7c-3.2,1.8-5.8,4.2-7.8,7.1-2.1,3-3.7,6.5-4.8,10.7-1.1,4.1-1.6,8.5-1.6,13.1,0,7.7,1.1,14.1,3.3,19.2,2.2,5.1,6.5,9.2,12.9,12.3l10.7,5.2c1.8.9,3.3,1.8,4.5,2.6,1.1.8,2,1.8,2.7,3.1.6,1.3,1,2.9,1.2,5,.2,2.1.3,4.7.3,7.9s0,5.3-.2,7.5c-.1,2.2-.6,4.2-1.4,5.8-.8,1.6-1.9,2.8-3.3,3.7-1.4.9-3.4,1.3-5.9,1.3-3.8,0-6.5-1.3-8.1-3.9-1.6-2.6-2.4-5.5-2.4-8.7v-5.5h-14.9v6.5c0,4.1.7,8,2,11.5,1.3,3.5,3.1,6.6,5.3,9.2,2.2,2.6,4.9,4.7,8,6.2,3.1,1.5,6.5,2.2,10.1,2.2s8.8-.9,12.1-2.8c3.3-1.8,6-4.4,8-7.6,1.9-3.1,3.4-6.9,4.2-11.3.9-4.4,1.3-9.2,1.3-14.4s-.2-8.5-.6-12c-.4-3.5-1.1-6.6-2.2-9.4-1.2-2.6-2.8-5-4.8-7-2-2-4.7-3.8-8-5.3l-11.4-5.3c-1.9-.9-3.5-1.8-4.6-2.8-1.1-.9-2-2-2.6-3.3-.6-1.3-.9-2.7-1.1-4.3-.1-1.6-.2-3.6-.2-6s.1-4,.4-5.9c.3-1.9.8-3.6,1.6-5.1.8-1.4,1.8-2.5,3.1-3.4,1.3-.9,2.9-1.4,5-1.4,3.8,0,6.5,1.5,8.1,4.4,1.6,2.9,2.4,6.4,2.4,10.4v4h14.9v-8.6ZM238.7,305.8c-1.1,4.4-5.7,7.1-10.1,5.8l-69.1-19.9,51.8,49.9c3.3,3.2,3.3,8.5,0,11.6l-51.8,49.9,69.1-19.9c4.4-1.3,9,1.4,10.1,5.8l17.3,69.8,17.3-69.8c1.1-4.4,5.7-7.1,10.1-5.8l69.1,19.9-51.8-49.9c-3.3-3.2-3.3-8.5,0-11.6l51.8-49.9-69.1,19.9c-4.4,1.3-9-1.4-10.1-5.8l-17.3-69.8-17.3,69.8Z"/>
</svg>