<?xml version="1.0" encoding="utf-8"?>
<!-- Generator: Adobe Illustrator 28.3.0, SVG Export Plug-In . SVG Version: 6.00 Build 0)  -->
<svg version="1.1" id="Layer_1" xmlns="http://www.w3.org/2000/svg" xmlns:xlink="http://www.w3.org/1999/xlink" x="0px" y="0px"
	 viewBox="0 0 512 512" style="enable-background:new 0 0 512 512;" xml:space="preserve">
<g>
	<path d="M237.5,209.9c-0.9,1.2-1.4,2.7-1.4,4.6v20.1c0,1.6,0.5,3,1.4,4c0.9,1.1,2.1,1.6,3.5,1.6c1.9,0,3.1-0.6,3.8-1.8s1-2.7,1-4.3
		v-19c0-2.1-0.4-3.8-1.2-5.1c-0.8-1.3-2-1.9-3.7-1.9C239.6,208.1,238.4,208.7,237.5,209.9z"/>
	<path d="M459,6.1H256.5H53c-14.9,0-27,12.1-27,27v221.9c0,164.7,159.1,221.1,219.4,248.4c7.1,3.2,15.1,3.2,22.2,0
		C327.8,476.1,486,419.7,486,255.1V33.1C486,18.2,473.9,6.1,459,6.1z M340.2,63.9l13.2-10.2h13.2v96.8h-13.2V68.3l-13.2,10.2V63.9z
		 M357.5,177.4V250h-9.9v-72.6H357.5z M322,177.4h9.9V250H322V177.4z M261.6,75.1c0-3.2,0.5-6.1,1.5-8.8c1-2.7,2.5-5.1,4.4-7.1
		c1.9-2,4.2-3.6,6.8-4.7c2.6-1.1,5.5-1.7,8.7-1.7c6.2,0,11.2,2.1,15.1,6.4c1.9,2.1,3.4,4.6,4.5,7.4c1.1,2.9,1.6,6,1.6,9.3v5.4h-13.2
		v-4.6c0-2.7-0.7-5.1-2.2-7.1c-1.5-2-3.4-3-5.9-3c-3.3,0-5.4,1.1-6.5,3.2c-1.1,2.1-1.6,4.8-1.6,8.1v49.5c0,2.8,0.6,5.2,1.7,7.1
		c1.2,1.9,3.3,2.9,6.3,2.9c0.9,0,1.8-0.2,2.8-0.5c1-0.3,1.9-0.8,2.8-1.6c0.8-0.7,1.4-1.7,1.9-3c0.5-1.3,0.8-2.9,0.8-4.8v-4.8h13.2v6
		c0,3-0.5,5.8-1.6,8.5c-1.1,2.7-2.6,5.1-4.5,7.1c-1.9,2.1-4.1,3.7-6.7,5c-2.5,1.2-5.3,1.8-8.2,1.8c-2.5,0-5-0.4-7.6-1.1
		s-4.9-2-7-3.8c-2.1-1.8-3.8-4.1-5.1-7c-1.3-2.9-2-6.5-2-10.9V75.1z M280.1,238.9c0.9,0.9,2,1.3,3.5,1.3c1.9,0,3.1-0.6,3.7-1.7
		c0.6-1.2,1-2.3,1.1-3.5h9.9c0,4.6-1.3,8.2-4,11c-1.3,1.4-2.8,2.5-4.7,3.4c-1.8,0.8-3.8,1.2-6.1,1.2c-3.1,0-5.7-0.7-7.9-2
		c-2.2-1.4-3.8-3.2-5-5.4c-0.7-1.4-1.2-2.9-1.5-4.7c-0.3-1.8-0.4-3.7-0.4-5.8v-17c0-2.1,0.1-4,0.4-5.8c0.3-1.8,0.7-3.3,1.5-4.7
		c1.2-2.2,2.8-4,5-5.4c2.2-1.4,4.8-2,7.9-2c2.3,0,4.3,0.4,6.2,1.2c1.8,0.8,3.4,1.9,4.7,3.4c2.6,3.1,3.9,6.9,3.9,11.5v14.3h-19.6v7
		C278.8,236.8,279.2,238,280.1,238.9z M254.2,202.6c0.6,1.2,1,2.6,1.3,4.3c0.3,1.7,0.4,4,0.4,6.8v19.7c0,3.8-0.1,6.6-0.3,8.3
		c-0.4,3.4-1.9,6-4.5,7.7c-1.3,0.9-3.2,1.3-5.6,1.3c-1.9,0-3.7-0.5-5.2-1.4c-1.5-0.9-2.8-2.2-3.9-3.9h-0.2V271h-9.9v-72.6h9.9v4.7
		c1.2-1.5,2.5-2.8,3.8-3.8c1.3-1,3.2-1.5,5.6-1.5C249.6,197.7,252.5,199.4,254.2,202.6z M197.5,76.5c0-3.9,0.6-7.3,1.9-10.3
		c1.3-3,3-5.5,5.2-7.5c2.1-1.9,4.4-3.4,7-4.4c2.6-1,5.3-1.5,7.9-1.5c2.7,0,5.3,0.5,7.9,1.5c2.6,1,5,2.4,7.2,4.4c2.1,2,3.7,4.5,5,7.5
		c1.3,3,1.9,6.4,1.9,10.3v51.1c0,4.1-0.6,7.6-1.9,10.5c-1.3,2.9-3,5.3-5,7.2c-2.2,2-4.5,3.5-7.2,4.5c-2.6,1-5.3,1.5-7.9,1.5
		c-2.7,0-5.3-0.5-7.9-1.5c-2.6-1-5-2.5-7-4.5c-2.2-1.9-3.9-4.3-5.2-7.2c-1.3-2.9-1.9-6.4-1.9-10.5V76.5z M192.6,198.3l6.8,32.2h0.2
		l6.7-32.2h10.2L202.3,259c-0.5,2.3-1.2,4.2-2.2,5.7c-0.9,1.5-2,2.7-3.2,3.7c-1.2,1-2.5,1.6-3.9,2c-1.4,0.4-2.8,0.6-4.3,0.6h-2.7
		v-9.8h2.2c1,0,1.8-0.1,2.5-0.4c0.7-0.3,1.4-0.9,1.9-1.8c0.5-1,1-2.3,1.5-4c0.5-1.7,1-4.1,1.6-7.2l-13.5-49.4H192.6z M140.7,144.6
		c-2-2.1-3.6-4.5-4.7-7.3c-1.2-2.8-1.7-5.8-1.7-9v-5.2h13.2v4.4c0,2.5,0.7,4.8,2.1,6.9s3.8,3.1,7.2,3.1c2.2,0,4-0.3,5.2-1
		c1.2-0.7,2.2-1.7,2.9-2.9c0.7-1.3,1.1-2.8,1.2-4.6c0.1-1.8,0.2-3.7,0.2-5.9c0-2.5-0.1-4.6-0.3-6.3c-0.2-1.6-0.5-2.9-1-3.9
		c-0.6-1-1.4-1.8-2.4-2.4c-1-0.6-2.3-1.3-3.9-2l-9.4-4.1c-5.7-2.4-9.5-5.7-11.4-9.7c-1.9-4-2.9-9.1-2.9-15.2c0-3.6,0.5-7.1,1.4-10.3
		c0.9-3.3,2.4-6.1,4.3-8.4c1.8-2.4,4.1-4.2,6.9-5.6c2.8-1.4,6.1-2.1,10-2.1c3.3,0,6.3,0.6,9,1.9c2.7,1.3,5.1,2.9,7,5
		c4,4.4,5.9,9.3,5.9,15v6.8h-13.2v-3.1c0-3.2-0.7-5.9-2.1-8.2c-1.4-2.3-3.8-3.5-7.2-3.5c-1.8,0-3.3,0.4-4.4,1.1
		c-1.1,0.7-2,1.6-2.7,2.7c-0.7,1.2-1.2,2.5-1.4,4c-0.3,1.5-0.4,3.1-0.4,4.7c0,1.9,0.1,3.5,0.2,4.8c0.1,1.3,0.5,2.4,1,3.4
		c0.5,1,1.3,1.9,2.3,2.6c1,0.7,2.3,1.5,4.1,2.2l10.1,4.2c2.9,1.2,5.3,2.6,7.1,4.1c1.8,1.6,3.2,3.4,4.3,5.5c0.9,2.2,1.6,4.6,1.9,7.4
		c0.3,2.8,0.5,5.9,0.5,9.5c0,4.1-0.4,7.9-1.2,11.4c-0.8,3.5-2,6.5-3.7,8.9c-1.8,2.5-4.2,4.5-7.1,6c-2.9,1.4-6.5,2.2-10.7,2.2
		c-3.2,0-6.2-0.6-8.9-1.8C145,148.4,142.7,146.7,140.7,144.6z M149.3,177.4h32.8v9.8h-11.4V250h-9.9v-62.8h-11.4V177.4z M373.5,298
		L244.8,426.6c-1.8,1.8-4.2,2.8-6.8,2.8c-2.6,0-5-1-6.8-2.8l-72.7-72.7c-1.8-1.8-2.9-4.3-2.9-6.9c0-2.6,1-5,2.9-6.9l15.8-15.8
		c3.8-3.8,9.9-3.8,13.7,0l49,49c0.6,0.6,1.5,0.6,2.1,0L344,268.5c3.8-3.8,9.9-3.8,13.7,0l15.8,15.8
		C377.4,288.2,377.4,294.2,373.5,298z"/>
	<path d="M219.6,137.4c2.4,0,4.5-0.8,6.3-2.4c1.8-1.6,2.6-4.1,2.6-7.4V76.5c0-3.4-0.9-5.8-2.6-7.4c-1.8-1.6-3.9-2.4-6.3-2.4
		c-2.4,0-4.5,0.8-6.3,2.4c-1.8,1.6-2.6,4.1-2.6,7.4v51.1c0,3.4,0.9,5.8,2.6,7.4C215.1,136.6,217.2,137.4,219.6,137.4z"/>
	<path d="M288.5,214c0-2-0.4-3.5-1.3-4.4c-0.9-1-2.1-1.5-3.5-1.5s-2.7,0.5-3.5,1.5c-0.9,1-1.3,2.5-1.3,4.4v5.9h9.7V214z"/>
</g>
</svg>
