<?xml version="1.0" encoding="utf-8"?>
<!-- Generator: Adobe Illustrator 28.3.0, SVG Export Plug-In . SVG Version: 6.00 Build 0)  -->
<svg version="1.1" id="Layer_1" xmlns="http://www.w3.org/2000/svg" xmlns:xlink="http://www.w3.org/1999/xlink" x="0px" y="0px"
	 viewBox="0 0 512 512" style="enable-background:new 0 0 512 512;" xml:space="preserve">
<g>
	<path d="M135.2,145.3c-1.8,0-3.3,0.7-4.4,2.1c-1.1,1.4-1.6,3.4-1.6,6.2v8.2h12v-8.2c0-2.7-0.5-4.8-1.6-6.2
		C138.5,146,137.1,145.3,135.2,145.3z"/>
	<path d="M243.8,146.6c1.3-0.7,2.3-1.7,3-3c0.6-1.3,1.1-2.9,1.3-4.9c0.2-1.9,0.4-4.2,0.4-6.7s-0.1-4.8-0.4-6.7
		c-0.2-1.9-0.7-3.6-1.4-5c-1.5-2.6-4.4-4-8.6-4h-6.4v31.4h7C240.8,147.7,242.5,147.3,243.8,146.6z"/>
	<path d="M429.9,121.2c-0.6-1.6-1.6-2.8-2.9-3.7s-3.1-1.3-5.5-1.3h-6.4v34.3h5.9c2.5,0,4.4-0.4,5.8-1.3c1.4-0.8,2.4-2,3-3.5
		c0.6-1.4,1-3.2,1.1-5.2c0.1-2.1,0.2-4.4,0.2-6.9c0-2.4,0-4.6-0.1-6.7C430.9,124.7,430.6,122.8,429.9,121.2z"/>
	<path d="M185.5,189.9c1.8,0,3.3-0.8,4.4-2.5c1.1-1.7,1.7-3.8,1.7-6.4v-27.9c0-2.3-0.6-4.1-1.7-5.6c-1.2-1.5-2.6-2.2-4.4-2.2
		c-2.3,0-3.9,0.8-4.7,2.5s-1.3,3.7-1.3,5.9v26.3c0,2.9,0.5,5.3,1.4,7.1C181.9,189,183.4,189.9,185.5,189.9z"/>
	<polygon points="296.5,131.7 296.3,131.7 290.3,168.2 302.5,168.2 	"/>
	<path d="M459,6.1H256.5H53c-14.9,0-27,12.1-27,27V255c0,164.7,159.1,221.1,219.4,248.4c7.1,3.2,15.1,3.2,22.2,0
		C327.8,476.1,486,419.8,486,255V33.1C486,18.2,473.9,6.1,459,6.1z M291.3,102.6h10.2l19.1,100.8h-12.2l-3.6-21.7h-16.7l-3.6,21.7
		h-12.2L291.3,102.6z M219.5,102.6h19.7c14.4,0,21.6,9.9,21.6,29.6c0,5.9-0.8,11-2.3,15.2c-1.6,4.2-4.3,7.5-8.2,10.1l13.2,46h-13
		l-11.4-43h-7.3v43h-12.2V102.6z M167.3,154.8c0-5.2,0.1-9,0.4-11.5c0.5-4.7,2.4-8.3,5.6-10.6c1.5-1.2,3.8-1.8,6.8-1.8
		c2.4,0,4.5,0.6,6.4,1.9c1.9,1.3,3.5,3.1,4.9,5.5h0.2v-35.5h12.2v100.8h-12.2V197c-0.8,1-1.6,2-2.3,2.9c-0.7,0.9-1.5,1.7-2.4,2.3
		c-0.9,0.7-1.9,1.2-3,1.6c-1.1,0.4-2.4,0.6-4,0.6c-5.1,0-8.7-2.3-10.7-6.8c-0.7-1.6-1.2-3.6-1.6-5.9c-0.3-2.4-0.5-5.5-0.5-9.5V154.8
		z M108.2,116.2H84v30.6h21.1v13.6H84v43H71.7V102.6h36.5V116.2z M153.5,173h-24.2v9.8c0,2.3,0.5,4,1.6,5.2c1.1,1.2,2.5,1.8,4.4,1.8
		c2.3,0,3.9-0.8,4.6-2.4c0.8-1.6,1.2-3.2,1.4-4.8h12.2c0,6.3-1.6,11.4-4.9,15.3c-1.6,2-3.5,3.5-5.8,4.7c-2.2,1.1-4.8,1.7-7.6,1.7
		c-3.8,0-7.1-0.9-9.8-2.8c-2.7-1.9-4.7-4.4-6.2-7.5c-0.9-1.9-1.5-4.1-1.8-6.5c-0.3-2.5-0.5-5.1-0.5-8.1v-23.6c0-2.9,0.2-5.6,0.5-8.1
		c0.3-2.5,0.9-4.6,1.8-6.5c1.4-3.1,3.5-5.6,6.2-7.5c2.7-1.9,5.9-2.8,9.8-2.8c2.8,0,5.3,0.6,7.6,1.7c2.3,1.1,4.2,2.7,5.8,4.7
		c3.2,4.2,4.8,9.6,4.8,16V173z M373.5,298L244.8,426.6c-1.8,1.8-4.2,2.8-6.8,2.8c-2.6,0-5-1-6.8-2.8l-72.7-72.7
		c-1.8-1.8-2.9-4.3-2.9-6.9c0-2.6,1-5,2.9-6.9l15.8-15.8c3.8-3.8,9.9-3.8,13.7,0l49,49c0.6,0.6,1.5,0.6,2.1,0L344,268.5
		c3.8-3.8,9.9-3.8,13.7,0l15.8,15.8C377.4,288.2,377.4,294.2,373.5,298z M386.6,203.5h-12.2v-61.3h-0.2L362,185.5h-6.1l-12-43.3
		h-0.2v61.3h-12.2V102.6h11.8l15.7,53.4h0.2l15.6-53.4h11.9V203.5z M442,144.8c-0.4,3.1-1.4,6-2.8,8.8c-1.7,3.3-3.9,5.9-6.7,7.7
		c-2.8,1.8-6.5,2.8-11,2.8h-6.2v39.4h-12.2V102.6h18.4c3.4,0,6.3,0.5,8.9,1.6c2.6,1,4.9,2.9,7,5.5c2.1,2.6,3.5,5.7,4.3,9.3
		c0.8,3.5,1.2,8.3,1.2,14.4C442.7,137.9,442.4,141.7,442,144.8z"/>
</g>
</svg>
