<?xml version="1.0" encoding="utf-8"?>
<!-- Generator: Adobe Illustrator 28.3.0, SVG Export Plug-In . SVG Version: 6.00 Build 0)  -->
<svg version="1.1" id="Layer_1" xmlns="http://www.w3.org/2000/svg" xmlns:xlink="http://www.w3.org/1999/xlink" x="0px" y="0px"
	 viewBox="0 0 512 512" style="enable-background:new 0 0 512 512;" xml:space="preserve">
<g>
	<path d="M247,131.2c2-1.1,3.5-2.6,4.5-4.5c1-1.8,1.5-4,1.7-6.7c0.2-2.6,0.3-5.6,0.3-8.8c0-3-0.1-5.9-0.2-8.6
		c-0.1-2.7-0.7-5.1-1.6-7.1c-1-2-2.4-3.6-4.3-4.7c-1.9-1.1-4.7-1.6-8.3-1.6h-9.5v43.6h8.8C242.1,132.9,245,132.3,247,131.2z"/>
	<polygon points="400.4,108.9 391.4,155.4 409.7,155.4 400.7,108.9 	"/>
	<path d="M459,6.1H256.5H53c-14.9,0-27,12.1-27,27V255c0,164.7,159.1,221.1,219.4,248.4c7.1,3.2,15.1,3.2,22.2,0
		C327.8,476.1,486,419.8,486,255V33.1C486,18.2,473.9,6.1,459,6.1z M305.3,72h15.3l28.6,128.2h-18.4l-5.4-27.5h-25l-5.4,27.5h-18.4
		L305.3,72z M211.2,72h27.5c5,0,9.5,0.7,13.3,2c3.8,1.3,7.3,3.7,10.4,7c3.1,3.4,5.3,7.3,6.5,11.8c1.2,4.5,1.8,10.6,1.8,18.3
		c0,5.8-0.3,10.6-1,14.6c-0.7,4-2.1,7.7-4.2,11.2c-2.5,4.2-5.9,7.5-10.1,9.8c-4.2,2.3-9.7,3.5-16.6,3.5h-9.4v50h-18.4V72z M167.8,72
		h18.4v128.2h-18.4V72z M142.8,200.2h-18.4v-57.1h-22.7v57.1H83.4V72h18.4v54.9h22.7V72h18.4V200.2z M373.5,298L244.8,426.6
		c-1.8,1.8-4.2,2.8-6.8,2.8c-2.6,0-5-1-6.8-2.8l-72.7-72.7c-1.8-1.8-2.9-4.3-2.9-6.9c0-2.6,1-5,2.9-6.9l15.8-15.8
		c3.8-3.8,9.9-3.8,13.7,0l49,49c0.6,0.6,1.5,0.6,2.1,0L344,268.5c3.8-3.8,9.9-3.8,13.7,0l15.8,15.8
		C377.4,288.2,377.4,294.2,373.5,298z M418.5,200.2l-5.4-27.5h-25l-5.4,27.5h-18.4L393,72h15.3l28.6,128.2H418.5z"/>
	<polygon points="313.1,108.9 312.7,108.9 303.7,155.4 322.1,155.4 	"/>
</g>
</svg>
