<?xml version="1.0" encoding="utf-8"?>
<!-- Generator: Adobe Illustrator 28.3.0, SVG Export Plug-In . SVG Version: 6.00 Build 0)  -->
<svg version="1.1" id="Layer_1" xmlns="http://www.w3.org/2000/svg" xmlns:xlink="http://www.w3.org/1999/xlink" x="0px" y="0px"
	 viewBox="0 0 512 512" style="enable-background:new 0 0 512 512;" xml:space="preserve">
<g>
	<path d="M358.4,89.3h-8v93.6h8c4.9,0,8.4-1.3,10.4-3.9c2.1-2.6,3.1-6.6,3.1-12.2v-61.7c0-5-1-8.9-2.9-11.7
		C367.1,90.7,363.6,89.3,358.4,89.3z"/>
	<path d="M459,6.2H256.5H53c-14.9,0-27,12.1-27,27V255c0,164.7,159.1,221.1,219.4,248.4c7.1,3.2,15.1,3.2,22.2,0
		C327.8,476.2,486,419.8,486,255V33.2C486,18.2,473.9,6.2,459,6.2z M262.8,72h52v17.3h-34.5v37.6h30.1v17.3h-30.1v37.6h34.5v18.4
		h-52V72z M192.7,72h52v17.3h-34.5v37.6h30.1v17.3h-30.1v37.6h34.5v18.4h-52V72z M174.6,200.2h-52V72h17.4v109.8h34.5V200.2z
		 M255,418.1c-24.6,0-41.3-0.3-51.8-0.6L320.1,305l-30.4,0.6L187.4,405c-3-34.2-2-130,103.5-130c33.6,0,69.6-13.9,69.6-13.9
		S375.7,416.3,255,418.1z M389.4,165.1c0,12-2.8,20.9-8.3,26.5c-5.5,5.7-13.5,8.5-23.9,8.5h-24.3V72h25.8c10,0,17.6,2.9,22.8,8.6
		c5.2,5.8,7.8,13.9,7.8,24.5V165.1z"/>
</g>
</svg>
