<?xml version="1.0" encoding="utf-8"?>
<!-- Generator: Adobe Illustrator 28.3.0, SVG Export Plug-In . SVG Version: 6.00 Build 0)  -->
<svg version="1.1" id="Layer_1" xmlns="http://www.w3.org/2000/svg" xmlns:xlink="http://www.w3.org/1999/xlink" x="0px" y="0px"
	 viewBox="0 0 512 512" style="enable-background:new 0 0 512 512;" xml:space="preserve">
<g>
	<path d="M333.7,179.7c2.5,2.1,5.4,3.2,8.7,3.2c3.4,0,6.3-1,8.7-3.2c2.5-2.1,3.7-5.4,3.7-9.8v-67.7c0-4.4-1.2-7.7-3.7-9.8
		c-2.5-2.1-5.4-3.1-8.7-3.1c-3.4,0-6.3,1.1-8.7,3.1c-2.5,2.1-3.7,5.4-3.7,9.8v67.7C330,174.4,331.2,177.6,333.7,179.7z"/>
	<path d="M459,6.1H256.5H53c-14.9,0-27,12.1-27,27V255c0,164.7,159.1,221.1,219.4,248.4c7.1,3.2,15.1,3.2,22.2,0
		C327.8,476.1,486,419.8,486,255V33.1C486,18.2,473.9,6.1,459,6.1z M311.6,102.3c0-5.2,0.9-9.7,2.7-13.7c1.8-4,4.2-7.3,7.2-9.9
		c2.9-2.5,6.1-4.4,9.8-5.8c3.7-1.3,7.3-2,11.1-2c3.7,0,7.4,0.7,11.1,2c3.7,1.3,7,3.2,10,5.8c2.9,2.6,5.2,5.9,7,9.9
		c1.8,4,2.7,8.5,2.7,13.7v67.7c0,5.4-0.9,10-2.7,13.9c-1.8,3.8-4.1,7-7,9.5c-3,2.6-6.3,4.6-10,5.9c-3.7,1.3-7.4,2-11.1,2
		c-3.7,0-7.4-0.7-11.1-2c-3.7-1.3-6.9-3.3-9.8-5.9c-3-2.5-5.4-5.7-7.2-9.5c-1.8-3.8-2.7-8.5-2.7-13.9V102.3z M204.5,164h18.4v5.8
		c0,3.4,1,6.4,3,9.1c2,2.7,5.3,4,10,4c3.1,0,5.5-0.5,7.3-1.3c1.7-0.9,3.1-2.2,4-3.9c1-1.7,1.5-3.7,1.7-6s0.3-5,0.3-7.8
		c0-3.4-0.1-6.1-0.4-8.3c-0.2-2.2-0.7-3.9-1.4-5.2c-0.8-1.3-2-2.4-3.3-3.2c-1.4-0.8-3.2-1.7-5.5-2.7l-13.1-5.4
		c-7.9-3.2-13.2-7.5-15.9-12.9c-2.7-5.3-4-12-4-20.1c0-4.8,0.7-9.4,2-13.7c1.3-4.3,3.3-8,5.9-11.2c2.5-3.1,5.7-5.6,9.6-7.5
		c3.9-1.9,8.5-2.8,14-2.8c4.6,0,8.7,0.8,12.5,2.5c3.8,1.7,7,3.9,9.8,6.7c5.5,5.8,8.3,12.4,8.3,19.8v9h-18.4v-4.1c0-4.2-1-7.8-3-10.9
		c-2-3.1-5.3-4.6-10-4.6c-2.5,0-4.6,0.5-6.1,1.4c-1.6,1-2.8,2.2-3.8,3.6c-1,1.6-1.6,3.3-2,5.3c-0.4,2-0.5,4-0.5,6.2
		c0,2.5,0.1,4.6,0.3,6.3c0.2,1.7,0.6,3.2,1.3,4.5c0.7,1.3,1.8,2.5,3.2,3.4c1.4,1,3.3,1.9,5.7,2.9l14,5.6c4.1,1.6,7.4,3.4,9.9,5.5
		c2.5,2.1,4.5,4.5,5.9,7.3c1.3,2.9,2.2,6.2,2.7,9.8c0.5,3.7,0.7,7.8,0.7,12.5c0,5.4-0.5,10.4-1.6,15c-1.1,4.6-2.8,8.5-5.2,11.8
		c-2.5,3.4-5.8,6-9.9,7.9c-4.1,1.9-9.1,2.9-14.9,2.9c-4.4,0-8.6-0.8-12.4-2.3c-3.8-1.6-7.1-3.7-9.9-6.5c-2.8-2.8-5-6-6.6-9.6
		c-1.6-3.7-2.4-7.7-2.4-12V164z M140.4,72h18.4v128.2h-18.4V72z M373.5,298L244.8,426.6c-1.8,1.8-4.2,2.8-6.8,2.8
		c-2.6,0-5-1-6.8-2.8l-72.7-72.7c-1.8-1.8-2.9-4.3-2.9-6.9c0-2.6,1-5,2.9-6.9l15.8-15.8c3.8-3.8,9.9-3.8,13.7,0l49,49
		c0.6,0.6,1.5,0.6,2.1,0L344,268.5c3.8-3.8,9.9-3.8,13.7,0l15.8,15.8C377.4,288.2,377.4,294.2,373.5,298z"/>
</g>
</svg>
