<?xml version="1.0" encoding="utf-8"?>
<!-- Generator: Adobe Illustrator 28.3.0, SVG Export Plug-In . SVG Version: 6.00 Build 0)  -->
<svg version="1.1" id="Layer_1" xmlns="http://www.w3.org/2000/svg" xmlns:xlink="http://www.w3.org/1999/xlink" x="0px" y="0px"
	 viewBox="0 0 512 512" style="enable-background:new 0 0 512 512;" xml:space="preserve">
<g>
	<path d="M304.4,137.4c2.4,0,4.5-0.8,6.3-2.4c1.8-1.6,2.6-4.1,2.6-7.4V76.5c0-3.4-0.9-5.8-2.6-7.4c-1.8-1.6-3.9-2.4-6.3-2.4
		c-2.4,0-4.5,0.8-6.3,2.4c-1.8,1.6-2.6,4.1-2.6,7.4v51.1c0,3.4,0.9,5.8,2.6,7.4C299.9,136.6,302,137.4,304.4,137.4z"/>
	<path d="M256,187.2c-1.4,0-2.6,0.5-3.5,1.5c-0.9,1-1.4,2.2-1.4,3.7v42.6c0,1.5,0.5,2.7,1.4,3.7c0.9,1,2.1,1.5,3.5,1.5
		c1.4,0,2.6-0.5,3.5-1.5c0.9-1,1.4-2.2,1.4-3.7v-42.6c0-1.5-0.5-2.7-1.4-3.7C258.6,187.7,257.4,187.2,256,187.2z"/>
	<path d="M297.9,187.2c-1.4,0-2.6,0.5-3.5,1.5c-0.9,1-1.4,2.2-1.4,3.7v42.6c0,1.5,0.5,2.7,1.4,3.7c0.9,1,2.1,1.5,3.5,1.5
		c1.4,0,2.6-0.5,3.5-1.5c0.9-1,1.4-2.2,1.4-3.7v-42.6c0-1.5-0.5-2.7-1.4-3.7C300.5,187.7,299.3,187.2,297.9,187.2z"/>
	<path d="M459,6.1H256.5H53c-14.9,0-27,12.1-27,27v221.9c0,164.7,159.1,221.1,219.4,248.4c7.1,3.2,15.1,3.2,22.2,0
		C327.8,476.1,486,419.7,486,255.1V33.1C486,18.2,473.9,6.1,459,6.1z M326.8,185.1l9.9-7.7h9.9V250h-9.9v-61.6l-9.9,7.7V185.1z
		 M282.4,76.5c0-3.9,0.6-7.3,1.9-10.3c1.3-3,3-5.5,5.2-7.5c2.1-1.9,4.4-3.4,7-4.4c2.6-1,5.3-1.5,7.9-1.5c2.7,0,5.3,0.5,7.9,1.5
		c2.6,1,5,2.4,7.2,4.4c2.1,2,3.7,4.5,5,7.5c1.3,3,1.9,6.4,1.9,10.3v51.1c0,4.1-0.6,7.6-1.9,10.5c-1.3,2.9-3,5.3-5,7.2
		c-2.2,2-4.5,3.5-7.2,4.5c-2.6,1-5.3,1.5-7.9,1.5c-2.7,0-5.3-0.5-7.9-1.5c-2.6-1-5-2.5-7-4.5c-2.2-1.9-3.9-4.3-5.2-7.2
		c-1.3-2.9-1.9-6.4-1.9-10.5V76.5z M312.6,192.4v42.6c0,2.4-0.4,4.6-1.2,6.5c-0.8,1.9-1.9,3.5-3.2,4.9s-2.9,2.4-4.7,3.1
		c-1.8,0.7-3.6,1.1-5.6,1.1c-1.9,0-3.8-0.4-5.6-1.1c-1.8-0.7-3.3-1.8-4.7-3.1s-2.4-3-3.2-4.9c-0.8-1.9-1.2-4.1-1.2-6.5v-42.6
		c0-2.4,0.4-4.6,1.2-6.5c0.8-1.9,1.9-3.5,3.2-4.9c1.4-1.4,2.9-2.4,4.7-3.1c1.8-0.7,3.6-1.1,5.6-1.1c1.9,0,3.8,0.4,5.6,1.1
		c1.8,0.7,3.3,1.8,4.7,3.1c1.4,1.4,2.4,3,3.2,4.9C312.2,187.8,312.6,190,312.6,192.4z M269.5,185.9c0.8,1.9,1.2,4.1,1.2,6.5v42.6
		c0,2.4-0.4,4.6-1.2,6.5c-0.8,1.9-1.9,3.5-3.2,4.9s-2.9,2.4-4.7,3.1c-1.8,0.7-3.6,1.1-5.6,1.1c-1.9,0-3.8-0.4-5.6-1.1
		c-1.8-0.7-3.3-1.8-4.7-3.1s-2.4-3-3.2-4.9c-0.8-1.9-1.2-4.1-1.2-6.5v-42.6c0-2.4,0.4-4.6,1.2-6.5c0.8-1.9,1.9-3.5,3.2-4.9
		c1.4-1.4,2.9-2.4,4.7-3.1c1.8-0.7,3.6-1.1,5.6-1.1c1.9,0,3.8,0.4,5.6,1.1c1.8,0.7,3.3,1.8,4.7,3.1
		C267.6,182.4,268.7,184,269.5,185.9z M219,123.1h13.2v4.4c0,2.5,0.7,4.8,2.1,6.9s3.8,3.1,7.2,3.1c2.2,0,4-0.3,5.2-1
		c1.2-0.7,2.2-1.7,2.9-2.9c0.7-1.3,1.1-2.8,1.2-4.6c0.1-1.8,0.2-3.7,0.2-5.9c0-2.5-0.1-4.6-0.3-6.3c-0.2-1.6-0.5-2.9-1-3.9
		c-0.6-1-1.4-1.8-2.4-2.4c-1-0.6-2.3-1.3-3.9-2l-9.4-4.1c-5.7-2.4-9.5-5.7-11.4-9.7c-1.9-4-2.9-9.1-2.9-15.2c0-3.6,0.5-7.1,1.4-10.3
		c0.9-3.3,2.4-6.1,4.3-8.4c1.8-2.4,4.1-4.2,6.9-5.6c2.8-1.4,6.1-2.1,10-2.1c3.3,0,6.3,0.6,9,1.9c2.7,1.3,5.1,2.9,7,5
		c4,4.4,5.9,9.3,5.9,15v6.8h-13.2v-3.1c0-3.2-0.7-5.9-2.1-8.2c-1.4-2.3-3.8-3.5-7.2-3.5c-1.8,0-3.3,0.4-4.4,1.1
		c-1.1,0.7-2,1.6-2.7,2.7c-0.7,1.2-1.2,2.5-1.4,4c-0.3,1.5-0.4,3.1-0.4,4.7c0,1.9,0.1,3.5,0.2,4.8c0.1,1.3,0.5,2.4,1,3.4
		c0.5,1,1.3,1.9,2.3,2.6c1,0.7,2.3,1.5,4.1,2.2l10.1,4.2c2.9,1.2,5.3,2.6,7.1,4.1c1.8,1.6,3.2,3.4,4.3,5.5c0.9,2.2,1.6,4.6,1.9,7.4
		c0.3,2.8,0.5,5.9,0.5,9.5c0,4.1-0.4,7.9-1.2,11.4c-0.8,3.5-2,6.5-3.7,8.9c-1.8,2.5-4.2,4.5-7.1,6c-2.9,1.4-6.5,2.2-10.7,2.2
		c-3.2,0-6.2-0.6-8.9-1.8c-2.8-1.2-5.1-2.8-7.1-4.9c-2-2.1-3.6-4.5-4.7-7.3c-1.2-2.8-1.7-5.8-1.7-9V123.1z M208.1,187.2v8.4h-8.7
		v-18.2h29.5v10.4L212.1,250h-10.5l17.3-62.8H208.1z M186.6,53.7h13.2v96.8h-13.2V53.7z M157.6,240.3l17.8-35.4
		c0.9-1.8,1.4-3.3,1.6-4.6c0.1-1.3,0.2-3,0.2-4.9c0-0.9,0-1.8,0-2.8c0-1-0.2-1.9-0.5-2.6c-0.3-0.7-0.8-1.4-1.5-1.9
		c-0.6-0.5-1.6-0.8-2.8-0.8c-1.5,0-2.7,0.4-3.5,1.3c-0.9,0.9-1.3,2.2-1.3,3.9v5.9h-9.9v-5.7c0-2.2,0.4-4.2,1.2-6.1
		c0.8-1.9,1.8-3.6,3.2-5c1.3-1.4,2.8-2.6,4.7-3.4c1.8-0.8,3.7-1.3,5.8-1.3c2.6,0,4.8,0.5,6.6,1.5c1.8,1,3.4,2.3,4.6,4
		c1.2,1.7,2,3.6,2.6,5.8c0.5,2.2,0.8,4.5,0.8,6.9c0,1.8,0,3.2-0.1,4.4c-0.1,1.2-0.2,2.3-0.4,3.4c-0.2,1.1-0.5,2.2-1,3.3
		c-0.5,1.1-1.1,2.4-1.8,4l-14.5,29.5H187V250h-29.5V240.3z M373.5,298L244.8,426.6c-1.8,1.8-4.2,2.8-6.8,2.8c-2.6,0-5-1-6.8-2.8
		l-72.7-72.7c-1.8-1.8-2.9-4.3-2.9-6.9c0-2.6,1-5,2.9-6.9l15.8-15.8c3.8-3.8,9.9-3.8,13.7,0l49,49c0.6,0.6,1.5,0.6,2.1,0L344,268.5
		c3.8-3.8,9.9-3.8,13.7,0l15.8,15.8C377.4,288.2,377.4,294.2,373.5,298z"/>
</g>
</svg>
