<?xml version="1.0" encoding="utf-8"?>
<!-- Generator: Adobe Illustrator 28.3.0, SVG Export Plug-In . SVG Version: 6.00 Build 0)  -->
<svg version="1.1" id="Layer_1" xmlns="http://www.w3.org/2000/svg" xmlns:xlink="http://www.w3.org/1999/xlink" x="0px" y="0px"
	 viewBox="0 0 512 512" style="enable-background:new 0 0 512 512;" xml:space="preserve">
<g>
	<polygon points="163.8,79.9 157.7,112.9 170.1,112.9 164,79.9 	"/>
	<path d="M381.5,65.9c-1.8,0-3.2,0.6-4.4,1.9c-1.1,1.2-1.7,2.8-1.7,4.7V126c0,1.9,0.6,3.4,1.7,4.7c1.1,1.2,2.6,1.9,4.4,1.9
		c1.8,0,3.2-0.6,4.4-1.9c1.1-1.2,1.7-2.8,1.7-4.7V72.5c0-1.9-0.6-3.4-1.7-4.7C384.8,66.6,383.3,65.9,381.5,65.9z"/>
	<path d="M228.3,232.9c0,2.5,0.7,4.4,2,5.6c1.3,1.2,2.9,1.8,4.7,1.8c1.8,0,3.4-0.6,4.7-1.8c1.3-1.2,2-3,2-5.6v-38.4
		c0-2.5-0.7-4.4-2-5.6c-1.3-1.2-2.9-1.8-4.7-1.8c-1.8,0-3.4,0.6-4.7,1.8c-1.3,1.2-2,3-2,5.6V232.9z"/>
	<path d="M459,6.1H256.5H53c-14.9,0-27,12.1-27,27v221.9c0,164.7,159.1,221.1,219.4,248.4c7.1,3.2,15.1,3.2,22.2,0
		C327.8,476.1,486,419.7,486,255.1V33.1C486,18.2,473.9,6.1,459,6.1z M312.4,118.9l17.9-65.3h13.1l-18.6,65.3H337v-26h12.4v26h6
		v12.3h-6v13.6H337v-13.6h-24.7V118.9z M311.9,185.1l9.9-7.7h9.9V250h-9.9v-61.6l-9.9,7.7V185.1z M267.7,118.7h12.4v6.8
		c0,2,0.5,3.7,1.6,5.1c1.1,1.3,2.6,2,4.4,2c1.9,0,3.3-0.7,4.4-2c1.1-1.3,1.6-3.1,1.6-5.3v-13.1c0-3.6-0.6-5.9-1.9-7
		c-0.7-0.7-1.7-1.1-3-1.3c-1.3-0.2-2.9-0.3-4.9-0.3V92.1c3.7,0,6.3-0.5,7.7-1.4c1.4-0.9,2.1-3.1,2.1-6.5V72.3c0-1.9-0.5-3.4-1.6-4.6
		c-1.1-1.2-2.6-1.8-4.4-1.8c-2.2,0-3.8,0.7-4.7,2.2c-0.9,1.5-1.4,2.9-1.4,4.2v7.4h-12.4v-7.6c0-2.6,0.5-5.2,1.5-7.6
		c1-2.4,2.3-4.4,4-6.1c1.7-1.7,3.7-3.1,6-4.1c2.3-1,4.7-1.5,7.3-1.5c3.4,0,6.2,0.7,8.5,2.1c2.2,1.4,3.9,2.8,5,4.3
		c0.8,1,1.5,2,2.1,3.1c0.6,1,1.1,2.3,1.5,3.7c0.7,2.8,1.1,7,1.1,12.5c0,3.2-0.1,5.7-0.2,7.7c-0.1,2-0.4,3.6-0.9,4.9
		c-0.6,1.4-1.4,2.5-2.4,3.5c-1,0.9-2.4,2-4.2,3.1c1.9,1.3,3.4,2.5,4.4,3.6c1,1.1,1.8,2.4,2.2,3.8c0.5,1.5,0.8,3.3,0.9,5.4
		c0.1,2.1,0.1,4.8,0.1,8c0,3-0.1,5.5-0.2,7.4c-0.1,2-0.3,3.6-0.5,4.9c-0.2,1.4-0.6,2.5-1,3.5c-0.4,0.9-0.9,1.9-1.6,2.9
		c-1.5,2.4-3.5,4.4-5.9,6c-2.4,1.6-5.5,2.4-9.4,2.4c-1.9,0-4-0.3-6.2-1c-2.2-0.7-4.2-1.8-6-3.3c-1.8-1.5-3.3-3.5-4.4-6
		c-1.2-2.5-1.8-5.5-1.8-9.1V118.7z M265.6,193.5c0-2.4,0.4-4.6,1.2-6.6c0.8-2,1.9-3.8,3.3-5.3c1.4-1.5,3.1-2.7,5.1-3.5
		c2-0.8,4.2-1.3,6.5-1.3c4.7,0,8.4,1.6,11.3,4.8c1.4,1.6,2.5,3.4,3.3,5.6c0.8,2.1,1.2,4.5,1.2,7v4.1h-9.9v-3.5c0-2-0.5-3.8-1.6-5.3
		c-1.1-1.5-2.6-2.2-4.5-2.2c-2.5,0-4.1,0.8-4.9,2.4c-0.8,1.6-1.2,3.6-1.2,6.1v37.1c0,2.1,0.4,3.9,1.3,5.3c0.9,1.4,2.4,2.1,4.7,2.1
		c0.6,0,1.3-0.1,2.1-0.4c0.7-0.2,1.4-0.6,2.1-1.2c0.6-0.5,1.1-1.3,1.5-2.2c0.4-1,0.6-2.1,0.6-3.6v-3.6h9.9v4.5
		c0,2.2-0.4,4.4-1.2,6.4c-0.8,2-1.9,3.8-3.3,5.4c-1.4,1.6-3.1,2.8-5,3.7c-1.9,0.9-4,1.4-6.2,1.4c-1.9,0-3.8-0.3-5.7-0.8
		s-3.7-1.5-5.2-2.9c-1.5-1.4-2.8-3.1-3.8-5.3c-1-2.1-1.5-4.9-1.5-8.2V193.5z M241,177.9c2,0.8,3.8,1.8,5.4,3.3
		c1.5,1.5,2.8,3.4,3.8,5.6c1,2.2,1.5,4.8,1.5,7.8v38.4c0,3.1-0.5,5.7-1.5,7.9c-1,2.2-2.2,4-3.8,5.4c-1.6,1.5-3.4,2.6-5.4,3.4
		s-4,1.1-6,1.1c-2,0-4-0.4-6-1.1c-2-0.7-3.7-1.9-5.3-3.4c-1.6-1.4-2.9-3.2-3.9-5.4c-1-2.2-1.5-4.8-1.5-7.9v-38.4
		c0-2.9,0.5-5.5,1.5-7.8c1-2.2,2.3-4.1,3.9-5.6c1.6-1.4,3.3-2.5,5.3-3.3c2-0.7,4-1.1,6-1.1C237,176.8,239,177.2,241,177.9z
		 M197,53.7h37v12.3h-24.6v26.8h21.4V105h-21.4v26.8h24.6v13.1h-37V53.7z M196.1,178.2c2,1,3.8,2.2,5.3,3.8c3,3.3,4.5,7,4.5,11.2
		v5.1H196V196c0-2.4-0.5-4.4-1.6-6.2c-1.1-1.7-2.9-2.6-5.4-2.6c-1.4,0-2.5,0.3-3.3,0.8c-0.8,0.5-1.5,1.2-2,2c-0.5,0.9-0.9,1.9-1.1,3
		s-0.3,2.3-0.3,3.5c0,1.4,0,2.6,0.1,3.6c0.1,1,0.3,1.8,0.7,2.5c0.4,0.7,1,1.4,1.7,1.9c0.7,0.5,1.8,1.1,3.1,1.6l7.6,3.2
		c2.2,0.9,4,1.9,5.3,3.1c1.4,1.2,2.4,2.6,3.2,4.1c0.7,1.6,1.2,3.5,1.5,5.6c0.3,2.1,0.4,4.4,0.4,7.1c0,3.1-0.3,5.9-0.9,8.5
		c-0.6,2.6-1.5,4.8-2.8,6.7c-1.4,1.9-3.1,3.4-5.3,4.5c-2.2,1.1-4.9,1.6-8,1.6c-2.4,0-4.6-0.4-6.7-1.3c-2.1-0.9-3.8-2.1-5.3-3.7
		s-2.7-3.4-3.5-5.5s-1.3-4.3-1.3-6.8v-3.9h9.9v3.3c0,1.9,0.5,3.6,1.6,5.2c1.1,1.5,2.9,2.3,5.4,2.3c1.7,0,3-0.3,3.9-0.8
		c0.9-0.5,1.7-1.2,2.2-2.2c0.5-1,0.8-2.1,0.9-3.4c0.1-1.3,0.1-2.8,0.1-4.4c0-1.9-0.1-3.5-0.2-4.7c-0.1-1.2-0.4-2.2-0.8-3
		c-0.5-0.7-1.1-1.4-1.8-1.8c-0.7-0.5-1.7-1-3-1.5l-7.1-3.1c-4.3-1.8-7.1-4.3-8.6-7.3c-1.5-3-2.2-6.8-2.2-11.4c0-2.7,0.4-5.3,1.1-7.8
		c0.7-2.4,1.8-4.6,3.2-6.3c1.4-1.8,3.1-3.2,5.2-4.2c2.1-1.1,4.6-1.6,7.5-1.6C191.8,176.8,194.1,177.3,196.1,178.2z M78.8,144.8H66.4
		V53.7h12.4V144.8z M133.4,79.9H121v-2.9c0-3-0.7-5.6-2-7.7c-1.3-2.2-3.6-3.3-6.7-3.3c-1.7,0-3.1,0.3-4.1,1
		c-1.1,0.7-1.9,1.5-2.6,2.6c-0.6,1.1-1.1,2.4-1.3,3.8s-0.4,2.9-0.4,4.4c0,1.8,0.1,3.3,0.2,4.5c0.1,1.2,0.4,2.3,0.9,3.2
		c0.5,0.9,1.2,1.8,2.1,2.4c0.9,0.7,2.2,1.4,3.8,2l9.5,4c2.8,1.1,5,2.4,6.7,3.9c1.7,1.5,3,3.2,4,5.2c0.9,2,1.5,4.4,1.8,7
		c0.3,2.6,0.5,5.6,0.5,8.9c0,3.8-0.4,7.4-1.1,10.7c-0.7,3.3-1.9,6.1-3.5,8.4c-1.7,2.4-3.9,4.3-6.7,5.6c-2.8,1.4-6.1,2-10.1,2
		c-3,0-5.8-0.6-8.4-1.7c-2.6-1.1-4.8-2.6-6.7-4.6c-1.9-2-3.3-4.2-4.4-6.8c-1.1-2.6-1.6-5.4-1.6-8.5v-4.9h12.4v4.1
		c0,2.4,0.7,4.5,2,6.5c1.3,1.9,3.6,2.9,6.7,2.9c2.1,0,3.7-0.3,4.9-1c1.2-0.6,2.1-1.6,2.7-2.8c0.6-1.2,1-2.6,1.2-4.3
		c0.1-1.7,0.2-3.5,0.2-5.6c0-2.4-0.1-4.4-0.2-5.9c-0.2-1.5-0.5-2.8-1-3.7c-0.6-0.9-1.3-1.7-2.2-2.3c-0.9-0.6-2.2-1.2-3.7-1.9
		l-8.9-3.8c-5.4-2.3-8.9-5.4-10.8-9.2c-1.8-3.8-2.7-8.6-2.7-14.3c0-3.4,0.4-6.7,1.3-9.7c0.9-3.1,2.2-5.7,4-7.9
		c1.7-2.2,3.9-4,6.5-5.3c2.6-1.3,5.8-2,9.4-2c3.1,0,5.9,0.6,8.5,1.8c2.6,1.2,4.8,2.8,6.6,4.7c3.7,4.1,5.6,8.8,5.6,14.1V79.9z
		 M151.8,144.8h-12.4l19.3-91.1h10.3l19.3,91.1H176l-3.6-19.6h-16.9L151.8,144.8z M373.5,298L244.8,426.6c-1.8,1.8-4.2,2.8-6.8,2.8
		c-2.6,0-5-1-6.8-2.8l-72.7-72.7c-1.8-1.8-2.9-4.3-2.9-6.9c0-2.6,1-5,2.9-6.9l15.8-15.8c3.8-3.8,9.9-3.8,13.7,0l49,49
		c0.6,0.6,1.5,0.6,2.1,0L344,268.5c3.8-3.8,9.9-3.8,13.7,0l15.8,15.8C377.4,288.2,377.4,294.2,373.5,298z M400,126
		c0,3.1-0.5,5.8-1.5,8.2c-1,2.4-2.4,4.4-4.1,6.1c-1.7,1.7-3.7,3-5.9,3.9c-2.2,0.9-4.6,1.3-7,1.3c-2.4,0-4.8-0.4-7-1.3
		c-2.2-0.9-4.2-2.2-5.9-3.9c-1.7-1.7-3.1-3.8-4.1-6.1c-1-2.4-1.5-5.1-1.5-8.2V72.5c0-3.1,0.5-5.8,1.5-8.2c1-2.4,2.4-4.4,4.1-6.1
		c1.7-1.7,3.7-3,5.9-3.9c2.2-0.9,4.6-1.3,7-1.3c2.4,0,4.8,0.4,7,1.3c2.2,0.9,4.2,2.2,5.9,3.9c1.7,1.7,3.1,3.8,4.1,6.1
		c1,2.4,1.5,5.1,1.5,8.2V126z M447.7,131.7v13.1h-37v-12.3l22.4-44.4c1.1-2.2,1.8-4.2,1.9-5.8c0.2-1.7,0.2-3.7,0.2-6.2
		c0-1.1,0-2.3-0.1-3.5c0-1.2-0.3-2.3-0.7-3.3c-0.4-0.9-1-1.7-1.8-2.4c-0.8-0.6-2-1-3.5-1c-1.9,0-3.3,0.6-4.4,1.7
		c-1.1,1.1-1.6,2.7-1.6,4.9v7.4h-12.4v-7.2c0-2.7,0.5-5.3,1.5-7.7c1-2.4,2.3-4.5,4-6.3c1.6-1.8,3.6-3.2,5.8-4.3
		c2.3-1.1,4.7-1.6,7.3-1.6c3.2,0,6,0.6,8.3,1.9c2.3,1.2,4.2,2.9,5.8,5.1c1.5,2.1,2.5,4.6,3.2,7.3c0.7,2.7,1,5.6,1,8.7
		c0,2.2,0,4.1-0.1,5.6c-0.1,1.5-0.2,2.9-0.5,4.3c-0.2,1.4-0.7,2.7-1.2,4.1c-0.6,1.4-1.3,3-2.3,5l-18.2,37H447.7z"/>
</g>
</svg>
