<?xml version="1.0" encoding="utf-8"?>
<!-- Generator: Adobe Illustrator 28.3.0, SVG Export Plug-In . SVG Version: 6.00 Build 0)  -->
<svg version="1.1" id="Layer_1" xmlns="http://www.w3.org/2000/svg" xmlns:xlink="http://www.w3.org/1999/xlink" x="0px" y="0px"
	 viewBox="0 0 512 512" style="enable-background:new 0 0 512 512;" xml:space="preserve">
<g>
	<polygon points="209.4,108.9 209,108.9 200,155.4 218.4,155.4 	"/>
	<path d="M459,6.1H256.5H53c-14.9,0-27,12.1-27,27V255c0,164.7,159.1,221.1,219.4,248.4c7.1,3.2,15.1,3.2,22.2,0
		C327.8,476.1,486,419.8,486,255V33.1C486,18.2,473.9,6.1,459,6.1z M271.5,100.5c0-4.2,0.7-8.1,2.2-11.7c1.4-3.6,3.5-6.7,6.1-9.4
		c2.6-2.6,5.8-4.7,9.4-6.2c3.7-1.5,7.7-2.2,12.2-2.2c8.6,0,15.7,2.8,21.1,8.5c2.6,2.8,4.7,6,6.2,9.8c1.5,3.8,2.2,7.9,2.2,12.3v7.2
		h-18.4v-6.1c0-3.6-1-6.7-3.1-9.4c-2-2.6-4.8-4-8.3-4c-4.6,0-7.6,1.4-9.1,4.2c-1.5,2.8-2.2,6.4-2.2,10.7v65.5c0,3.7,0.8,6.8,2.4,9.4
		c1.6,2.5,4.5,3.8,8.7,3.8c1.2,0,2.5-0.2,3.9-0.6c1.4-0.4,2.7-1.1,3.9-2.1c1.1-1,2-2.3,2.7-4c0.7-1.7,1.1-3.8,1.1-6.3v-6.3h18.4v7.9
		c0,4-0.8,7.7-2.2,11.2c-1.5,3.5-3.6,6.7-6.2,9.5c-2.6,2.8-5.7,4.9-9.3,6.6c-3.5,1.6-7.4,2.4-11.4,2.4c-3.5,0-7-0.5-10.6-1.4
		s-6.8-2.6-9.7-5c-2.9-2.4-5.2-5.5-7.1-9.3c-1.9-3.8-2.8-8.6-2.8-14.5V100.5z M201.6,72h15.3l28.6,128.2h-18.4l-5.4-27.5h-25
		l-5.4,27.5H173L201.6,72z M124.1,200.2h-18.4V72h54.7v17.3h-36.4v38.9h31.7v17.3h-31.7V200.2z M373.5,298L244.8,426.6
		c-1.8,1.8-4.2,2.8-6.8,2.8c-2.6,0-5-1-6.8-2.8l-72.7-72.7c-1.8-1.8-2.9-4.3-2.9-6.9c0-2.6,1-5,2.9-6.9l15.8-15.8
		c3.8-3.8,9.9-3.8,13.7,0l49,49c0.6,0.6,1.5,0.6,2.1,0L344,268.5c3.8-3.8,9.9-3.8,13.7,0l15.8,15.8
		C377.4,288.2,377.4,294.2,373.5,298z M415.5,89.3h-21.2v110.9h-18.4V89.3h-21.2V72h60.8V89.3z"/>
</g>
</svg>
