<?xml version="1.0" encoding="utf-8"?>
<!-- Generator: Adobe Illustrator 28.3.0, SVG Export Plug-In . SVG Version: 6.00 Build 0)  -->
<svg version="1.1" id="Layer_1" xmlns="http://www.w3.org/2000/svg" xmlns:xlink="http://www.w3.org/1999/xlink" x="0px" y="0px"
	 viewBox="0 0 512 512" style="enable-background:new 0 0 512 512;" xml:space="preserve">
<g>
	<path d="M405.7,89.3c-2.5,0-4.6,0.9-6.2,2.6c-1.6,1.7-2.4,3.9-2.4,6.6v75.2c0,2.6,0.8,4.8,2.4,6.6c1.6,1.7,3.6,2.6,6.2,2.6
		c2.5,0,4.6-0.9,6.2-2.6c1.6-1.7,2.4-3.9,2.4-6.6V98.5c0-2.6-0.8-4.8-2.4-6.6C410.3,90.2,408.2,89.3,405.7,89.3z"/>
	<polygon points="185.6,108.9 185.3,108.9 176.7,155.4 194.2,155.4 	"/>
	<path d="M459,6.1H256.5H53c-14.9,0-27,12.1-27,27V255c0,164.7,159.1,221.1,219.4,248.4c7.1,3.2,15.1,3.2,22.2,0
		C327.8,476.1,486,419.8,486,255V33.1C486,18.2,473.9,6.1,459,6.1z M309.3,72h52v18.4l-29.6,109.8h-18.5l30.6-110.9h-19.2v14.8
		h-15.4V72z M232,164h17.4v5.8c0,3.4,0.9,6.4,2.8,9.1c1.9,2.7,5,4,9.5,4c3,0,5.3-0.5,6.9-1.3c1.7-0.9,2.9-2.2,3.8-3.9
		c0.9-1.7,1.5-3.7,1.6-6s0.3-5,0.3-7.8c0-3.4-0.1-6.1-0.3-8.3c-0.2-2.2-0.7-3.9-1.4-5.2c-0.8-1.3-1.9-2.4-3.2-3.2
		c-1.3-0.8-3.1-1.7-5.2-2.7l-12.5-5.4c-7.5-3.2-12.6-7.5-15.1-12.9c-2.6-5.3-3.8-12-3.8-20.1c0-4.8,0.6-9.4,1.9-13.7
		c1.3-4.3,3.1-8,5.6-11.2c2.4-3.1,5.4-5.6,9.1-7.5c3.7-1.9,8.1-2.8,13.3-2.8c4.3,0,8.3,0.8,11.9,2.5c3.6,1.7,6.7,3.9,9.3,6.7
		c5.2,5.8,7.9,12.4,7.9,19.8v9h-17.4v-4.1c0-4.2-0.9-7.8-2.8-10.9c-1.9-3.1-5-4.6-9.5-4.6c-2.4,0-4.3,0.5-5.8,1.4
		c-1.5,1-2.7,2.2-3.6,3.6c-0.9,1.6-1.5,3.3-1.9,5.3c-0.3,2-0.5,4-0.5,6.2c0,2.5,0.1,4.6,0.3,6.3c0.2,1.7,0.6,3.2,1.3,4.5
		c0.7,1.3,1.7,2.5,3,3.4c1.3,1,3.1,1.9,5.4,2.9l13.3,5.6c3.9,1.6,7,3.4,9.4,5.5c2.4,2.1,4.3,4.5,5.6,7.3c1.3,2.9,2.1,6.2,2.6,9.8
		c0.5,3.7,0.7,7.8,0.7,12.5c0,5.4-0.5,10.4-1.5,15c-1,4.6-2.7,8.5-5,11.8c-2.4,3.4-5.5,6-9.4,7.9c-3.9,1.9-8.6,2.9-14.2,2.9
		c-4.2,0-8.2-0.8-11.8-2.3c-3.6-1.6-6.8-3.7-9.4-6.5c-2.6-2.8-4.7-6-6.2-9.6c-1.5-3.7-2.3-7.7-2.3-12V164z M139.1,108.9h-17.4v-4.1
		c0-4.2-0.9-7.8-2.8-10.9c-1.9-3.1-5-4.6-9.5-4.6c-2.4,0-4.3,0.5-5.8,1.4c-1.5,1-2.7,2.2-3.6,3.6c-0.9,1.6-1.5,3.3-1.9,5.3
		c-0.3,2-0.5,4-0.5,6.2c0,2.5,0.1,4.6,0.3,6.3c0.2,1.7,0.6,3.2,1.3,4.5c0.7,1.3,1.7,2.5,3,3.4c1.3,1,3.1,1.9,5.4,2.9l13.3,5.6
		c3.9,1.6,7,3.4,9.4,5.5c2.4,2.1,4.3,4.5,5.6,7.3c1.3,2.9,2.1,6.2,2.6,9.8c0.5,3.7,0.7,7.8,0.7,12.5c0,5.4-0.5,10.4-1.5,15
		c-1,4.6-2.7,8.5-5,11.8c-2.4,3.4-5.5,6-9.4,7.9c-3.9,1.9-8.6,2.9-14.2,2.9c-4.2,0-8.2-0.8-11.8-2.3c-3.6-1.6-6.8-3.7-9.4-6.5
		c-2.6-2.8-4.7-6-6.2-9.6c-1.5-3.7-2.3-7.7-2.3-12V164h17.4v5.8c0,3.4,0.9,6.4,2.8,9.1c1.9,2.7,5,4,9.5,4c3,0,5.3-0.5,6.9-1.3
		c1.7-0.9,2.9-2.2,3.8-3.9c0.9-1.7,1.5-3.7,1.6-6s0.3-5,0.3-7.8c0-3.4-0.1-6.1-0.3-8.3c-0.2-2.2-0.7-3.9-1.4-5.2
		c-0.8-1.3-1.9-2.4-3.2-3.2c-1.3-0.8-3.1-1.7-5.2-2.7L99.1,139c-7.5-3.2-12.6-7.5-15.1-12.9c-2.6-5.3-3.8-12-3.8-20.1
		c0-4.8,0.6-9.4,1.9-13.7c1.3-4.3,3.1-8,5.6-11.2c2.4-3.1,5.4-5.6,9.1-7.5c3.7-1.9,8.1-2.8,13.3-2.8c4.3,0,8.3,0.8,11.9,2.5
		c3.6,1.7,6.7,3.9,9.3,6.7c5.2,5.8,7.9,12.4,7.9,19.8V108.9z M178.3,72h14.5L220,200.2h-17.4l-5.1-27.5h-23.8l-5.1,27.5h-17.4
		L178.3,72z M373.5,298L244.8,426.6c-1.8,1.8-4.2,2.8-6.8,2.8c-2.6,0-5-1-6.8-2.8l-72.7-72.7c-1.8-1.8-2.9-4.3-2.9-6.9
		c0-2.6,1-5,2.9-6.9l15.8-15.8c3.8-3.8,9.9-3.8,13.7,0l49,49c0.6,0.6,1.5,0.6,2.1,0L344,268.5c3.8-3.8,9.9-3.8,13.7,0l15.8,15.8
		C377.4,288.2,377.4,294.2,373.5,298z M431.7,173.7c0,4.3-0.7,8.2-2.1,11.5c-1.4,3.4-3.3,6.2-5.7,8.6c-2.4,2.4-5.2,4.2-8.3,5.5
		c-3.1,1.3-6.4,1.9-9.8,1.9s-6.7-0.6-9.8-1.9c-3.1-1.3-5.9-3.1-8.3-5.5c-2.4-2.4-4.3-5.3-5.7-8.6c-1.4-3.4-2.1-7.2-2.1-11.5V98.5
		c0-4.3,0.7-8.2,2.1-11.5c1.4-3.4,3.3-6.2,5.7-8.6c2.4-2.4,5.2-4.2,8.3-5.5c3.1-1.3,6.4-1.9,9.8-1.9s6.7,0.6,9.8,1.9
		c3.1,1.3,5.9,3.1,8.3,5.5c2.4,2.4,4.3,5.3,5.7,8.6c1.4,3.4,2.1,7.2,2.1,11.5V173.7z"/>
</g>
</svg>
