<?xml version="1.0" encoding="utf-8"?>
<!-- Generator: Adobe Illustrator 28.3.0, SVG Export Plug-In . SVG Version: 6.00 Build 0)  -->
<svg version="1.1" id="Layer_1" xmlns="http://www.w3.org/2000/svg" xmlns:xlink="http://www.w3.org/1999/xlink" x="0px" y="0px"
	 viewBox="0 0 512 512" style="enable-background:new 0 0 512 512;" xml:space="preserve">
<g>
	<path d="M102.8,94.9c-0.8-2-1.9-3.4-3.5-4.5c-1.6-1-3.8-1.6-6.7-1.6h-7.7v41.7H92c3,0,5.4-0.5,7-1.6c1.7-1,2.9-2.5,3.6-4.3
		c0.8-1.7,1.2-3.8,1.4-6.4c0.1-2.5,0.2-5.3,0.2-8.4c0-2.9-0.1-5.6-0.1-8.2C104,99.1,103.6,96.8,102.8,94.9z"/>
	<path d="M306,174.7c1.8-2.5,2.6-6.3,2.6-11.6V104c0-4.8-0.8-8.6-2.5-11.2c-1.7-2.6-4.7-4-9.1-4h-6.9v89.6h6.9
		C301.3,178.4,304.3,177.2,306,174.7z"/>
	<path d="M459,6.1H256.5H53c-14.9,0-27,12.1-27,27V255c0,164.7,159.1,221.1,219.4,248.4c7.1,3.2,15.1,3.2,22.2,0
		C327.8,476.1,486,419.8,486,255V33.1C486,18.2,473.9,6.1,459,6.1z M275.3,72.3h22c8.6,0,15.1,2.8,19.5,8.3
		c4.4,5.5,6.6,13.3,6.6,23.4v57.4c0,11.5-2.4,20-7.1,25.4c-4.7,5.5-11.5,8.2-20.4,8.2h-20.7V72.3z M218,138.5h43.9V156H218V138.5z
		 M189.2,72.3h14.9V195h-14.9V72.3z M117.4,123.7c-0.5,3.8-1.7,7.4-3.4,10.7c-2,4-4.8,7.1-8.2,9.4c-3.4,2.2-7.9,3.4-13.4,3.4h-7.6
		V195H69.9V72.3h22.3c4.1,0,7.7,0.6,10.8,1.9c3.1,1.3,5.9,3.5,8.5,6.7c2.5,3.2,4.3,7,5.3,11.3c1,4.3,1.5,10.1,1.5,17.5
		C118.3,115.2,118,119.9,117.4,123.7z M144.4,194.6c-2.9-0.9-5.5-2.5-7.9-4.8c-2.3-2.3-4.3-5.3-5.8-8.9c-1.5-3.6-2.3-8.2-2.3-13.9
		V99.5c0-4,0.6-7.8,1.8-11.2s2.8-6.4,5-9c2.1-2.5,4.7-4.5,7.7-5.9c3-1.4,6.3-2.2,9.9-2.2c7,0,12.7,2.7,17.1,8.1
		c2.1,2.6,3.8,5.8,5,9.4s1.8,7.6,1.8,11.8v6.9h-14.9v-5.9c0-3.4-0.8-6.4-2.5-9c-1.7-2.5-3.9-3.8-6.7-3.8c-3.7,0-6.2,1.4-7.4,4
		c-1.2,2.7-1.8,6.1-1.8,10.3v62.7c0,3.6,0.7,6.5,2,9s3.7,3.6,7.1,3.6c1,0,2-0.2,3.1-0.6c1.1-0.4,2.2-1.1,3.1-2
		c0.9-0.9,1.6-2.2,2.2-3.8c0.6-1.6,0.9-3.6,0.9-6v-6h14.9v7.6c0,3.8-0.6,7.4-1.8,10.8c-1.2,3.4-2.9,6.4-5,9
		c-2.1,2.6-4.6,4.7-7.5,6.3c-2.9,1.5-6,2.3-9.3,2.3C150.2,196,147.3,195.5,144.4,194.6z M373.5,298L244.8,426.6
		c-1.8,1.8-4.2,2.8-6.8,2.8c-2.6,0-5-1-6.8-2.8l-72.7-72.7c-1.8-1.8-2.9-4.3-2.9-6.9c0-2.6,1-5,2.9-6.9l15.8-15.8
		c3.8-3.8,9.9-3.8,13.7,0l49,49c0.6,0.6,1.5,0.6,2.1,0L344,268.5c3.8-3.8,9.9-3.8,13.7,0l15.8,15.8
		C377.4,288.2,377.4,294.2,373.5,298z M385.7,107.6h-14.9v-4c0-4-0.8-7.5-2.4-10.4c-1.6-2.9-4.3-4.4-8.1-4.4c-2,0-3.7,0.5-5,1.4
		c-1.3,0.9-2.3,2.1-3.1,3.4c-0.8,1.5-1.3,3.2-1.6,5.1c-0.3,1.9-0.4,3.9-0.4,5.9c0,2.4,0.1,4.4,0.2,6c0.1,1.6,0.5,3,1.1,4.3
		c0.6,1.3,1.4,2.4,2.6,3.3c1.1,0.9,2.7,1.8,4.6,2.8l11.4,5.3c3.3,1.5,6,3.2,8,5.3c2,2,3.7,4.3,4.8,7c1.1,2.8,1.8,5.9,2.2,9.4
		c0.4,3.5,0.6,7.5,0.6,12c0,5.2-0.4,10-1.3,14.4c-0.9,4.4-2.3,8.2-4.2,11.3c-2,3.2-4.7,5.7-8,7.6c-3.3,1.8-7.3,2.8-12.1,2.8
		c-3.6,0-7-0.7-10.1-2.2c-3.1-1.5-5.8-3.6-8-6.2c-2.2-2.6-4-5.7-5.3-9.2c-1.3-3.5-2-7.3-2-11.5v-6.5h14.9v5.5c0,3.2,0.8,6.1,2.4,8.7
		c1.6,2.6,4.3,3.9,8.1,3.9c2.5,0,4.5-0.4,5.9-1.3c1.4-0.9,2.5-2.1,3.3-3.7c0.8-1.6,1.2-3.5,1.4-5.8s0.2-4.7,0.2-7.5
		c0-3.2-0.1-5.9-0.3-7.9c-0.2-2.1-0.6-3.7-1.2-5c-0.7-1.3-1.6-2.3-2.7-3.1c-1.1-0.8-2.6-1.7-4.5-2.6l-10.7-5.2
		c-6.4-3.1-10.7-7.2-12.9-12.3c-2.2-5.1-3.3-11.5-3.3-19.2c0-4.6,0.5-9,1.6-13.1c1.1-4.1,2.7-7.7,4.8-10.7c2-3,4.6-5.4,7.8-7.2
		c3.2-1.8,6.9-2.7,11.3-2.7c3.7,0,7.1,0.8,10.1,2.4c3.1,1.6,5.7,3.7,8,6.4c4.5,5.5,6.7,11.8,6.7,19V107.6z M445,107.6h-14.9v-4
		c0-4-0.8-7.5-2.4-10.4c-1.6-2.9-4.3-4.4-8.1-4.4c-2,0-3.7,0.5-5,1.4c-1.3,0.9-2.3,2.1-3.1,3.4c-0.8,1.5-1.3,3.2-1.6,5.1
		c-0.3,1.9-0.4,3.9-0.4,5.9c0,2.4,0.1,4.4,0.2,6c0.1,1.6,0.5,3,1.1,4.3c0.6,1.3,1.4,2.4,2.6,3.3c1.1,0.9,2.7,1.8,4.6,2.8l11.4,5.3
		c3.3,1.5,6,3.2,8,5.3c2,2,3.6,4.3,4.8,7c1.1,2.8,1.8,5.9,2.2,9.4c0.4,3.5,0.6,7.5,0.6,12c0,5.2-0.4,10-1.3,14.4
		c-0.9,4.4-2.3,8.2-4.2,11.3c-2,3.2-4.7,5.7-8,7.6c-3.3,1.8-7.4,2.8-12.1,2.8c-3.6,0-7-0.7-10.1-2.2c-3.1-1.5-5.8-3.6-8-6.2
		c-2.2-2.6-4-5.7-5.3-9.2c-1.3-3.5-2-7.3-2-11.5v-6.5h14.9v5.5c0,3.2,0.8,6.1,2.4,8.7c1.6,2.6,4.3,3.9,8.1,3.9
		c2.5,0,4.5-0.4,5.9-1.3c1.4-0.9,2.5-2.1,3.3-3.7c0.8-1.6,1.2-3.5,1.4-5.8s0.2-4.7,0.2-7.5c0-3.2-0.1-5.9-0.3-7.9
		c-0.2-2.1-0.6-3.7-1.2-5c-0.7-1.3-1.6-2.3-2.7-3.1c-1.1-0.8-2.6-1.7-4.5-2.6l-10.7-5.2c-6.4-3.1-10.7-7.2-12.9-12.3
		c-2.2-5.1-3.3-11.5-3.3-19.2c0-4.6,0.5-9,1.6-13.1c1.1-4.1,2.7-7.7,4.8-10.7c2-3,4.6-5.4,7.8-7.2c3.2-1.8,6.9-2.7,11.3-2.7
		c3.7,0,7.1,0.8,10.1,2.4c3.1,1.6,5.7,3.7,8,6.4c4.5,5.5,6.7,11.8,6.7,19V107.6z"/>
</g>
</svg>
