<?xml version="1.0" encoding="utf-8"?>
<!-- Generator: Adobe Illustrator 28.3.0, SVG Export Plug-In . SVG Version: 6.00 Build 0)  -->
<svg version="1.1" id="Layer_1" xmlns="http://www.w3.org/2000/svg" xmlns:xlink="http://www.w3.org/1999/xlink" x="0px" y="0px"
	 viewBox="0 0 512 512" style="enable-background:new 0 0 512 512;" xml:space="preserve">
<g>
	<path d="M109.8,89.3c-3,0-5.6,1.1-7.9,3.1c-2.2,2.1-3.3,5.4-3.3,9.8v67.7c0,4.4,1.1,7.7,3.3,9.8c2.2,2.1,4.8,3.2,7.9,3.2
		c3,0,5.6-1,7.9-3.2c2.2-2.1,3.3-5.4,3.3-9.8v-67.7c0-4.4-1.1-7.7-3.3-9.8C115.4,90.3,112.8,89.3,109.8,89.3z"/>
	<path d="M459,6.1H256.5H53c-14.9,0-27,12.1-27,27V255c0,164.7,159.1,221.1,219.4,248.4c7.1,3.2,15.1,3.2,22.2,0
		C327.8,476.1,486,419.8,486,255V33.1C486,18.2,473.9,6.1,459,6.1z M324.6,72h13.8l25.8,128.2h-16.5l-4.9-27.5h-22.5l-4.9,27.5
		h-16.5L324.6,72z M230.8,164h16.5v5.8c0,3.4,0.9,6.4,2.7,9.1s4.8,4,9,4c2.8,0,5-0.5,6.6-1.3c1.6-0.9,2.8-2.2,3.6-3.9
		c0.9-1.7,1.4-3.7,1.5-6c0.2-2.3,0.2-5,0.2-7.8c0-3.4-0.1-6.1-0.3-8.3c-0.2-2.2-0.6-3.9-1.3-5.2c-0.8-1.3-1.8-2.4-3-3.2
		c-1.2-0.8-2.9-1.7-4.9-2.7l-11.8-5.4c-7.1-3.2-11.9-7.5-14.3-12.9c-2.4-5.3-3.6-12-3.6-20.1c0-4.8,0.6-9.4,1.8-13.7
		c1.2-4.3,3-8,5.3-11.2c2.3-3.1,5.2-5.6,8.7-7.5c3.5-1.9,7.7-2.8,12.6-2.8c4.1,0,7.9,0.8,11.3,2.5c3.4,1.7,6.3,3.9,8.8,6.7
		c5,5.8,7.5,12.4,7.5,19.8v9H271v-4.1c0-4.2-0.9-7.8-2.7-10.9c-1.8-3.1-4.8-4.6-9-4.6c-2.3,0-4.1,0.5-5.5,1.4
		c-1.4,1-2.5,2.2-3.4,3.6c-0.9,1.6-1.5,3.3-1.8,5.3c-0.3,2-0.5,4-0.5,6.2c0,2.5,0.1,4.6,0.2,6.3c0.2,1.7,0.6,3.2,1.2,4.5
		c0.6,1.3,1.6,2.5,2.8,3.4c1.2,1,2.9,1.9,5.1,2.9l12.6,5.6c3.7,1.6,6.6,3.4,8.9,5.5c2.3,2.1,4,4.5,5.3,7.3c1.2,2.9,2,6.2,2.4,9.8
		c0.4,3.7,0.6,7.8,0.6,12.5c0,5.4-0.5,10.4-1.5,15c-1,4.6-2.5,8.5-4.7,11.8c-2.3,3.4-5.2,6-8.9,7.9c-3.7,1.9-8.2,2.9-13.4,2.9
		c-4,0-7.7-0.8-11.2-2.3c-3.5-1.6-6.4-3.7-8.9-6.5c-2.5-2.8-4.5-6-5.9-9.6c-1.5-3.7-2.2-7.7-2.2-12V164z M158.6,72h16.5v54.9h20.4
		V72H212v128.2h-16.5v-57.1h-20.4v57.1h-16.5V72z M137.5,169.9c0,5.4-0.8,10-2.4,13.9c-1.6,3.8-3.7,7-6.3,9.5
		c-2.7,2.6-5.7,4.6-9,5.9c-3.3,1.3-6.6,2-10,2c-3.3,0-6.7-0.7-10-2c-3.3-1.3-6.2-3.3-8.8-5.9c-2.7-2.5-4.9-5.7-6.5-9.5
		c-1.6-3.8-2.4-8.5-2.4-13.9v-67.7c0-5.2,0.8-9.7,2.4-13.7s3.8-7.3,6.5-9.9c2.6-2.5,5.5-4.4,8.8-5.8c3.3-1.3,6.6-2,10-2
		c3.3,0,6.7,0.7,10,2c3.3,1.3,6.3,3.2,9,5.8c2.6,2.6,4.7,5.9,6.3,9.9s2.4,8.5,2.4,13.7V169.9z M373.5,298L244.8,426.6
		c-1.8,1.8-4.2,2.8-6.8,2.8c-2.6,0-5-1-6.8-2.8l-72.7-72.7c-1.8-1.8-2.9-4.3-2.9-6.9c0-2.6,1-5,2.9-6.9l15.8-15.8
		c3.8-3.8,9.9-3.8,13.7,0l49,49c0.6,0.6,1.5,0.6,2.1,0L344,268.5c3.8-3.8,9.9-3.8,13.7,0l15.8,15.8
		C377.4,288.2,377.4,294.2,373.5,298z M432.2,108.9h-16.5v-4.1c0-4.2-0.9-7.8-2.7-10.9c-1.8-3.1-4.8-4.6-9-4.6
		c-2.3,0-4.1,0.5-5.5,1.4c-1.4,1-2.5,2.2-3.4,3.6c-0.9,1.6-1.5,3.3-1.8,5.3c-0.3,2-0.5,4-0.5,6.2c0,2.5,0.1,4.6,0.2,6.3
		c0.2,1.7,0.6,3.2,1.2,4.5c0.6,1.3,1.6,2.5,2.8,3.4c1.2,1,2.9,1.9,5.1,2.9l12.6,5.6c3.7,1.6,6.6,3.4,8.9,5.5c2.3,2.1,4,4.5,5.3,7.3
		c1.2,2.9,2,6.2,2.4,9.8c0.4,3.7,0.6,7.8,0.6,12.5c0,5.4-0.5,10.4-1.5,15c-1,4.6-2.5,8.5-4.7,11.8c-2.3,3.4-5.2,6-8.9,7.9
		c-3.7,1.9-8.2,2.9-13.4,2.9c-4,0-7.7-0.8-11.2-2.3c-3.5-1.6-6.4-3.7-8.9-6.5c-2.5-2.8-4.5-6-5.9-9.6c-1.5-3.7-2.2-7.7-2.2-12V164
		H392v5.8c0,3.4,0.9,6.4,2.7,9.1s4.8,4,9,4c2.8,0,5-0.5,6.6-1.3c1.6-0.9,2.8-2.2,3.6-3.9c0.9-1.7,1.4-3.7,1.5-6
		c0.2-2.3,0.2-5,0.2-7.8c0-3.4-0.1-6.1-0.3-8.3c-0.2-2.2-0.6-3.9-1.3-5.2c-0.8-1.3-1.8-2.4-3-3.2c-1.2-0.8-2.9-1.7-4.9-2.7
		l-11.8-5.4c-7.1-3.2-11.9-7.5-14.3-12.9c-2.4-5.3-3.6-12-3.6-20.1c0-4.8,0.6-9.4,1.8-13.7c1.2-4.3,3-8,5.3-11.2
		c2.3-3.1,5.2-5.6,8.7-7.5c3.5-1.9,7.7-2.8,12.6-2.8c4.1,0,7.9,0.8,11.3,2.5c3.4,1.7,6.3,3.9,8.8,6.7c5,5.8,7.5,12.4,7.5,19.8V108.9
		z"/>
	<polygon points="331.6,108.9 331.2,108.9 323.1,155.4 339.7,155.4 	"/>
</g>
</svg>
