<?xml version="1.0" encoding="utf-8"?>
<!-- Generator: Adobe Illustrator 26.0.0, SVG Export Plug-In . SVG Version: 6.00 Build 0)  -->
<svg version="1.1" id="Layer_1" xmlns="http://www.w3.org/2000/svg" xmlns:xlink="http://www.w3.org/1999/xlink" x="0px" y="0px"
	 viewBox="0 0 640 512" style="enable-background:new 0 0 640 512;" xml:space="preserve">
<path d="M456.6,5.7C380.3,5.9,319,68.7,319,145v82.7H38.2c-19.9,0-36,16-36,35.6v213.9c0,19.7,16.2,35.6,36,35.6h374.7
	c19.9,0,36-16,36-35.6V263.4c0-19.7-16.2-35.6-36-35.6H351v-82.9C351,86.4,397.9,38,456.4,37.7C515.1,37.3,563,85,563,143.7v77.6
	c0,4.4,3.6,8,8,8h16c4.4,0,8-3.6,8-8v-77.6C595,67.5,532.9,5.5,456.6,5.7z M415.1,263.4v213.9c0,1-1.1,1.9-2.3,1.9H38.2
	c-1.2,0-2.3-0.9-2.3-1.9V263.4c0-0.9,0.9-1.9,2.3-1.9h374.7C414.2,261.4,415.1,262.4,415.1,263.4z"/>
</svg>
