<?xml version="1.0" encoding="utf-8"?>
<!-- Generator: Adobe Illustrator 26.0.1, SVG Export Plug-In . SVG Version: 6.00 Build 0)  -->
<svg version="1.1" id="Layer_1" xmlns="http://www.w3.org/2000/svg" xmlns:xlink="http://www.w3.org/1999/xlink" x="0px" y="0px"
	 viewBox="0 0 512 512" style="enable-background:new 0 0 512 512;" xml:space="preserve">
<path id="Layer_1_00000158733839545571087060000005775265931704984731_" d="M257.3,247.4c-12.4,0-22.5,10-22.5,22.5
	c1,67.6-7.6,132.9-25.9,198c-2.5,9.1,2,28.6,21.6,28.6c9.8,0,18.8-6.5,21.6-16.4c12.6-44.9,29-117.4,27.6-210.2
	C279.8,257.5,269.7,247.4,257.3,247.4L257.3,247.4z M326.1,402.8c-1.2,0-2.4-0.1-3.6-0.3c-11.7-2-19.6-13.1-17.6-24.8
	c7-41.7,7-59.5,6-109.7v-0.3c-0.4-28.9-25-52.8-54.9-53.4c-15.3,0-29,5.5-38.7,15.3c-9.2,9.4-14.2,21.9-14,35.2
	c0.4,24-0.6,48.4-2.9,72.4c-1.1,11.8-11.6,20.5-23.4,19.4c-11.8-1.1-20.5-11.6-19.4-23.4c2.1-22.5,3-45.3,2.7-67.7
	c-0.4-24.9,9-48.4,26.4-66c17.9-18.2,42.6-28.2,69.5-28.2h0.4c52.9,0.9,96.6,43.8,97.3,95.7v0.1c1,49.8,1.1,71.8-6.6,117.6
	C345.5,395.4,336.4,402.8,326.1,402.8z M152.8,152.8c-9.6-8.3-23.8-6.8-31.6,3.5c-24,31.6-36.9,71.3-36.3,112.1
	c0.6,37.6,4.1,83.7-3.6,120.5c-2.2,13.1,5.9,25.6,18.2,27.9c18.8,3.5,25.4-14.8,26.1-19.4c8.8-38.8,5-89.1,4.3-129.7
	c-0.5-29.9,8.6-58,26.2-81.1C163.9,176.3,162.4,161.1,152.8,152.8L152.8,152.8z M255.3,94c-14.4-0.4-28.9,1.3-42.9,4.7
	c-12.1,2.9-19.6,15-16.7,27.1c2.9,12.1,15,19.5,27.1,16.7c10.4-2.4,21.1-3.6,31.8-3.5c70.6,1,128.9,57.6,130.1,126
	c1.3,22.9,1.7,44.5-0.9,63.5c-1.4,12.4,7.5,23.5,19.8,24.9c15.6,1.9,23.9-11.1,24.9-19.8c3.7-22,2.5-39,1.3-69.3
	C428.2,171.9,350,95.4,255.3,94L255.3,94z M191.6,405.8c0.8-11.8-7.6-22.3-19.4-23.4c-11.8-1.1-22.9,7.5-23.4,19.4
	c-0.9,21.7-12,47.7-16.3,57.3c-1,2.2-0.2,4.8,1.9,6c9.8,5.8,20.1,11,30.7,15.4c2.3,0.9,4.9,0,6-2.2
	C176.2,468.3,189.4,439.8,191.6,405.8z M489.5,207.7c-2.7-12.1-14.5-19.9-26.8-17.1c-12.1,2.7-19.8,14.7-17.1,26.8
	c4.4,20,4.7,56.6,4.5,79.3c-0.1,12.5,9.8,22.6,22.3,22.7h0.2c12.4,0,22.4-9.9,22.5-22.3C497.3,275.3,498.2,232.9,489.5,207.7
	L489.5,207.7z M312.5,437.2c-12.4-1.4-23.5,7.4-24.9,19.8c-1.2,10.9-3.2,19.9-5.9,29.4c-1.5,5.1,2.8,10.2,8.1,9.6
	c11.4-1.5,22.6-3.7,33.5-6.7c2.7-0.7,4.8-2.9,5.3-5.6c1.4-6.6,2.6-13.7,3.5-21.3C333.7,449.8,325,438.6,312.5,437.2z M424.7,418.5
	c0.7-12.4-8.5-23-21.1-23.8c-12.4-0.7-23,8.7-23.8,21.2c-0.8,14-2.9,25.4-6.3,38c-1.7,6.5,5.3,11.8,11.1,8.3
	c13-7.8,25.2-16.6,36.4-26.5c1.4-1.2,2.2-2.9,2.5-4.8C424.1,426.9,424.4,422.8,424.7,418.5L424.7,418.5z M48,350.8
	c-9,0-17.3-5.7-20.4-14.6c-8.4-25-12.7-51.1-12.7-77.6c0-64.6,25.1-125.3,70.8-171s106.4-70.8,171-70.8c87.5,0,168.5,47.5,211.3,124
	c5.8,10.4,2.1,23.5-8.3,29.3s-23.5,2.1-29.3-8.3c-35.2-62.9-101.8-102-173.7-102c-53.1,0-103,20.7-140.6,58.2
	c-37.5,37.5-58.2,87.5-58.2,140.6c0,21.8,3.5,43.3,10.5,63.8c3.8,11.2-2.2,23.4-13.5,27.2C52.6,350.4,50.3,350.8,48,350.8z"/>
</svg>
