<?xml version="1.0" encoding="utf-8"?>
<!-- Generator: Adobe Illustrator 26.0.1, SVG Export Plug-In . SVG Version: 6.00 Build 0)  -->
<svg version="1.1" id="Layer_1" xmlns="http://www.w3.org/2000/svg" xmlns:xlink="http://www.w3.org/1999/xlink" x="0px" y="0px"
	 viewBox="0 0 512 554.1" style="enable-background:new 0 0 512 554.1;" xml:space="preserve">
<path d="M330.9,434.9c-4.9-5-7.7-11.6-7.9-18.6l-3.3-103.5L282,307c-7.3-1.1-14-5.2-18.4-11.2l-25.5-35l-68,9.5
	c-14.9,2.1-28.8-7.9-31.4-22.8l-15.6-86.7L48.6,107c-8.5,7.9-13.6,19.2-13.6,31.3v140.1c0,65.2,25.6,120.7,75.7,165
	c40.4,35.5,87.5,55.7,118.6,69.2c3.3,1.4,6.4,2.8,9.4,4c6.7,2.9,13.8,4.3,20.9,4.3c7.1,0,14.3-1.4,21-4.3c3-1.3,6.1-2.7,9.3-4
	c21.1-9.1,49.5-21.3,78.2-39.3L330.9,434.9z M456,97.9c-0.1,0-0.1,0-0.2-0.1L277.4,35.5c-11.3-3.9-23.9-3.9-35.2,0L100.3,85.1
	l57.5,41.5c5.9,4.3,9.9,10.6,11.2,17.7l13.6,75.7l60.8-8.5c10.3-1.4,20.4,2.9,26.5,11.2l27.7,38l45.8,7c13.3,2,23.3,13.3,23.8,26.8
	l3.6,112.4l36.6,37.5c0.4-0.4,0.9-0.8,1.3-1.2c50.2-44.2,75.7-99.7,75.7-165V190c0.1-1,0.2-2.1,0.2-3.1v-48.7
	C484.5,120.3,473.1,104,456,97.9z"/>
</svg>
