<?xml version="1.0" encoding="utf-8"?>
<!-- Generator: Adobe Illustrator 26.0.0, SVG Export Plug-In . SVG Version: 6.00 Build 0)  -->
<svg version="1.1" id="Layer_1" xmlns="http://www.w3.org/2000/svg" xmlns:xlink="http://www.w3.org/1999/xlink" x="0px" y="0px"
	 viewBox="0 0 512 512" style="enable-background:new 0 0 512 512;" xml:space="preserve">
<path d="M255.8,39c2.6,0,5.1,0.4,7.3,1.2L443,103c0.7,0.3,1.5,0.6,2.3,0.8c4.2,1.8,7.1,6.1,7.1,10.7v49c0,0.1,0,0.3,0,0.4l-0.2,1.6
	v1.6V257c0,28.4-5.5,54.8-16.4,78.6c-10.9,23.9-27.7,45.8-49.7,65.2c-37.2,32.8-82.2,52.2-112,65l0,0c-2.6,1.1-5.1,2.2-7.5,3.2
	l-2.1,0.9h-0.1h-0.1c-2.5,1.1-5.4,1.7-8.5,1.7s-5.8-0.5-8.4-1.7l-0.3-0.1l-0.3-0.1c-1.2-0.5-2.5-1.1-3.7-1.6
	c-1.8-0.8-3.7-1.6-5.8-2.5l-0.6-0.3c-29.6-12.8-74.4-32.2-111.3-64.7c-22-19.4-38.7-41.4-49.7-65.2c-10.9-23.8-16.5-50.2-16.5-78.5
	V114.5c0-4.9,3.1-9.3,7.8-10.9l181.5-63.4C250.7,39.4,253.2,39,255.8,39 M255.8,7c-6.1,0-12.1,1-17.9,3L56.4,73.4
	C38.9,79.5,27.2,96,27.2,114.5V257c0,66.3,26,122.8,77,167.8c41.1,36.1,89,56.7,120.6,70.4c3.4,1.4,6.5,2.8,9.6,4.1
	c6.8,3,14,4.4,21.3,4.4s14.6-1.4,21.4-4.4c3-1.3,6.2-2.7,9.5-4.1c31.6-13.6,79.5-34.2,120.6-70.4c51.1-45,77-101.4,77-167.8v-89.8
	c0.1-1,0.2-2.1,0.2-3.1v-49.5c0-18.3-11.6-34.9-29-41.1c-0.1,0-0.1,0-0.2-0.1L273.7,10C268,8,261.9,7,255.8,7L255.8,7z M371.9,155.2
	L223.1,304.1l-73-73c-4.7-4.7-12.3-4.7-17,0l-11.3,11.3c-4.7,4.7-4.7,12.3,0,17l92.8,92.7c4.7,4.7,12.3,4.7,17,0l168.7-168.7
	c4.7-4.7,4.7-12.3,0-17L389,155.2C384.2,150.5,376.6,150.5,371.9,155.2L371.9,155.2z"/>
</svg>
