<?xml version="1.0" encoding="utf-8"?>
<!-- Generator: Adobe Illustrator 25.4.1, SVG Export Plug-In . SVG Version: 6.00 Build 0)  -->
<svg version="1.1" id="Layer_1" xmlns="http://www.w3.org/2000/svg" xmlns:xlink="http://www.w3.org/1999/xlink" x="0px" y="0px"
	 viewBox="0 0 512 512" style="enable-background:new 0 0 512 512;" xml:space="preserve">
<path d="M459.7,70.4c-0.1,0-0.1,0-0.2-0.1L275.1,5.8c-11.9-4.2-25.1-4.2-37,0c0,0,0,0,0,0L53.5,70.3C35.3,76.6,23.1,93.7,23.1,113
	v144.9c0,67.7,26.4,125.4,78.6,171.3c41.9,36.9,90.6,57.9,122.8,71.7c3.4,1.5,6.6,2.9,9.7,4.2c7,3,14.5,4.6,22,4.6
	c7.5,0,15.1-1.5,22.2-4.6c3-1.3,6.2-2.7,9.7-4.2c32.2-13.9,81-34.8,122.9-71.7c52.2-45.9,78.6-103.5,78.6-171.2v-91.3
	c0.1-1,0.2-2.1,0.2-3.2v-50.4C489.9,94,477.8,76.8,459.7,70.4z M441.9,160.3c-0.1,1-0.2,2.1-0.2,3.2v94.3
	c0,124.7-112.2,172.9-172.5,198.9c-3.4,1.5-6.6,2.8-9.5,4.1l-0.1-409.5L441.9,115V160.3z"/>
</svg>
