<?xml version="1.0" encoding="utf-8"?>
<!-- Generator: Adobe Illustrator 25.4.1, SVG Export Plug-In . SVG Version: 6.00 Build 0)  -->
<svg version="1.1" id="Layer_1" xmlns="http://www.w3.org/2000/svg" xmlns:xlink="http://www.w3.org/1999/xlink" x="0px" y="0px"
	 viewBox="0 0 512 512" style="enable-background:new 0 0 512 512;" xml:space="preserve">
<path d="M336,32c79.5,0,144,64.5,144,144s-64.5,144-144,144c-19,0-37.1-3.7-53.7-10.3L240,352h-48v64h-64v64H32v-80l170.3-170.3
	C195.7,213.1,192,195,192,176C192,96.5,256.5,32,336,32 M336,0c-97.2,0-176,78.8-176,176c0,15.3,1.9,30.4,5.8,44.9L7,379.7
	c-4.5,4.5-7,10.6-7,17V488c0,13.3,10.7,24,24,24h112c13.3,0,24-10.7,24-24v-40h40c13.3,0,24-10.7,24-24v-40h19.3
	c6.4,0,12.5-2.5,17-7l30.8-30.8c14.6,3.9,29.6,5.8,44.9,5.8c97.2,0,176-78.8,176-176C512,78.8,433.2,0,336,0z M384,108
	c11,0,20,9,20,20s-9,20-20,20s-20-9-20-20S373,108,384,108 M384,80c-26.5,0-48,21.5-48,48s21.5,48,48,48s48-21.5,48-48
	S410.5,80,384,80z"/>
</svg>
