<?xml version="1.0" encoding="utf-8"?>
<!-- Generator: Adobe Illustrator 25.4.1, SVG Export Plug-In . SVG Version: 6.00 Build 0)  -->
<svg version="1.1" id="Layer_1" xmlns="http://www.w3.org/2000/svg" xmlns:xlink="http://www.w3.org/1999/xlink" x="0px" y="0px"
	 viewBox="0 0 512 512" style="enable-background:new 0 0 512 512;" xml:space="preserve">
<path d="M256.5,6.4H53c-14.9,0-27,12.1-27,27v221.9C26,420,185.1,476.4,245.4,503.7c7.1,3.2,15.1,3.2,22.2,0
	C327.8,476.4,486,420,486,255.3V33.4c0-14.9-12.1-27-27-27L256.5,6.4z M223.6,336.3l-94.1-94.1c-5.7-5.7-5.7-14.8,0-20.5l20.5-20.5
	c5.7-5.7,14.8-5.7,20.5,0l63.4,63.4l135.8-135.8c5.7-5.7,14.8-5.7,20.5,0l20.5,20.5c5.7,5.7,5.7,14.8,0,20.5L244,336.3
	C238.4,341.9,229.2,341.9,223.6,336.3L223.6,336.3z"/>
</svg>
