<?xml version="1.0" encoding="utf-8"?>
<!-- Generator: Adobe Illustrator 26.0.0, SVG Export Plug-In . SVG Version: 6.00 Build 0)  -->
<svg version="1.1" id="Layer_1" xmlns="http://www.w3.org/2000/svg" xmlns:xlink="http://www.w3.org/1999/xlink" x="0px" y="0px"
	 viewBox="0 0 448 512" style="enable-background:new 0 0 448 512;" xml:space="preserve">
<path d="M400,224h-16h-6.5h-16v-63.9c0-83.8-61.7-152-137.5-152c-75.8,0-137.5,68.2-137.5,152V224h-16H64H48c-26.5,0-48,21.5-48,48
	v192c0,26.5,21.5,48,48,48h352c26.5,0,48-21.5,48-48V272C448,245.5,426.5,224,400,224z M224,40.1c58.2,0,105.5,53.8,105.5,120V224
	h-211v-63.9C118.5,93.9,165.8,40.1,224,40.1z M416,464c0,8.8-7.2,16-16,16H48c-8.8,0-16-7.2-16-16V272c0-8.8,7.2-16,16-16h352
	c8.8,0,16,7.2,16,16V464z"/>
</svg>
