<?xml version="1.0" encoding="utf-8"?>
<!-- Generator: Adobe Illustrator 25.4.1, SVG Export Plug-In . SVG Version: 6.00 Build 0)  -->
<svg version="1.1" id="Layer_1" xmlns="http://www.w3.org/2000/svg" xmlns:xlink="http://www.w3.org/1999/xlink" x="0px" y="0px"
	 viewBox="0 0 512 512" style="enable-background:new 0 0 512 512;" xml:space="preserve">
<path d="M256.3,501.5c-6.4,0-12.9-1.3-18.9-3.9c-3.1-1.3-6.3-2.7-9.7-4.2C196,479.7,148,459,107,423
	c-50.3-44.3-75.9-99.9-75.9-165.2V112.9c0-15.8,10.1-29.9,25-35.1l184.5-64.5c0,0,0,0,0,0c10.2-3.6,21.5-3.6,31.8,0l184.4,64.5
	c0,0,0.1,0,0.1,0c14.9,5.3,24.8,19.5,24.8,35.2v50.3c0,0.9-0.1,1.7-0.2,2.6v91.8c0,65.3-25.5,120.9-75.9,165.2
	c-41,36-89,56.7-120.7,70.4c-3.5,1.5-6.7,2.9-9.7,4.2C269.2,500.2,262.8,501.5,256.3,501.5z M251.2,43.5L66.7,108
	c-2.1,0.7-3.5,2.7-3.5,4.9v144.9c0,30.2,6.3,58,18.9,82.9c10.7,21.2,26.2,40.8,46.1,58.4c37.1,32.7,82.3,52.1,112.2,65
	c3.5,1.5,6.8,2.9,9.9,4.3c3.8,1.7,8.3,1.7,12.2,0c3-1.3,6.3-2.8,9.9-4.3c29.9-12.9,75.1-32.3,112.3-65
	c19.9-17.5,35.5-37.2,46.2-58.4c12.5-24.8,18.9-52.7,18.9-82.8v-94.3c0-0.9,0.1-1.7,0.2-2.6V113c0-2.2-1.5-4.2-3.6-5L261.9,43.5
	C258.4,42.3,254.7,42.3,251.2,43.5L251.2,43.5z M257.5,75.9l-1-0.3L95.2,132v125.8c0,25.1,5.2,48.1,15.4,68.4
	c8.8,17.5,21.9,33.9,38.7,48.7c33.3,29.3,75.7,47.6,103.7,59.6c0,0,2.3,1,3.3,1.4c0.4-0.2,0.9-0.4,1.3-0.5L257.5,75.9z"/>
</svg>
