<?xml version="1.0" encoding="utf-8"?>
<!-- Generator: Adobe Illustrator 26.0.0, SVG Export Plug-In . SVG Version: 6.00 Build 0)  -->
<svg version="1.1" id="Layer_1" xmlns="http://www.w3.org/2000/svg" xmlns:xlink="http://www.w3.org/1999/xlink" x="0px" y="0px"
	 viewBox="0 0 512 512" style="enable-background:new 0 0 512 512;" xml:space="preserve">
<path d="M455.4,73.5c-0.1,0-0.1,0-0.2-0.1L273.7,10c-11.5-4-24.3-4-35.8,0l0,0L56.4,73.4C38.9,79.5,27.2,96,27.2,114.5V257
	c0,66.3,26,122.8,77,167.8c41.1,36.1,89,56.7,120.6,70.4c3.4,1.4,6.5,2.8,9.6,4.1c6.8,3,14,4.4,21.3,4.4s14.6-1.4,21.4-4.4
	c3-1.3,6.2-2.7,9.5-4.1c31.6-13.6,79.5-34.2,120.6-70.4c51.1-45,77-101.4,77-167.8v-89.8c0.1-1,0.2-2.1,0.2-3.1v-49.5
	C484.4,96.3,472.8,79.7,455.4,73.5z M412,185.8l-177,177c-6,6-15.8,6-21.7,0L113.2,262.7c-6-6-6-15.8,0-21.7l21.7-21.7
	c6-6,15.8-6,21.7,0l67.5,67.5l144.4-144.4c6-6,15.8-6,21.7,0l21.7,21.7C418.1,170,418.1,179.7,412,185.8z"/>
</svg>
