<?xml version="1.0" encoding="utf-8"?>
<!-- Generator: Adobe Illustrator 26.0.1, SVG Export Plug-In . SVG Version: 6.00 Build 0)  -->
<svg version="1.1" id="Layer_1" xmlns="http://www.w3.org/2000/svg" xmlns:xlink="http://www.w3.org/1999/xlink" x="0px" y="0px"
	 viewBox="0 0 512 512" style="enable-background:new 0 0 512 512;" xml:space="preserve">
<path d="M213.9,265.4h28.6l-14.2-36.1L213.9,265.4z M499,184.9c5,0,9-4,9-9v-30c0-5-4-9-9-9h-49V111c0-21.8-17.7-39.5-39.5-39.5
	h-25.9V13c0-5-4-9-9-9h-30c-5,0-9,4-9,9v58.5h-47.1V13c0-5-4-9-9-9h-30c-5,0-9,4-9,9v58.5h-47.1V13c0-5-4-9-9-9h-30c-5,0-9,4-9,9
	v58.5h-25.9C98.7,71.5,81,89.2,81,111v25.9H13c-5,0-9,4-9,9v30c0,5,4,9,9,9h68V232H13c-5,0-9,4-9,9v30c0,5,4,9,9,9h68v47.1H13
	c-5,0-9,4-9,9v30c0,5,4,9,9,9h68v25.8c0,21.8,17.7,39.5,39.5,39.5h25.9V499c0,5,4,9,9,9h30c5,0,9-4,9-9v-58.6h47.1V499c0,5,4,9,9,9
	h30c5,0,9-4,9-9v-58.5h47.1V499c0,5,4,9,9,9h30c5,0,9-4,9-9v-58.6h25.9c21.8,0,39.5-17.7,39.5-39.5v-25.8h49c5,0,9-4,9-9v-30
	c0-5-4-9-9-9h-49V280h49c5,0,9-4,9-9v-30c0-5-4-9-9-9h-49v-47.1H499z M262,315.9l-9.1-23h-49.4l-9.1,23h-37l54.2-128.6h34.1
	L300,315.9H262z M345.7,315.9h-34.5v-98.7h34.5V315.9z M346.5,208.3h-35.9v-25.5h35.9V208.3z"/>
</svg>
