<?xml version="1.0" encoding="UTF-8"?>
<svg id="Layer_1" xmlns="http://www.w3.org/2000/svg" viewBox="0 0 512 512">
  <path d="M304.09,115.85c-3.3-2.2-5.49-5.49-5.49-8.79,0-2.2,2.2-5.49,5.49-7.69l65.91-27.46,26.36-64.81c2.2-3.3,5.49-5.49,8.79-5.49,2.2,0,5.49,2.2,7.69,5.49l27.46,64.81,64.81,27.46c3.3,2.2,5.49,5.49,5.49,7.69,0,3.3-2.2,6.59-5.49,8.79l-64.81,26.36-27.46,65.91c-2.2,3.3-5.49,5.49-7.69,5.49-3.3,0-6.59-2.2-8.79-5.49l-26.36-65.91-65.91-26.36ZM406.73,308.95c0,6.3-4.2,12.6-9.45,14.7l-118.69,59.87-58.82,118.69c-3.15,5.25-9.45,8.4-14.71,8.4-6.3,0-12.6-3.15-15.75-8.4l-58.82-118.69-118.69-59.87c-5.25-2.1-9.45-8.4-9.45-14.7,0-5.25,4.2-12.61,9.45-14.71l118.69-59.87,58.82-117.64c6.3-11.55,24.16-11.55,30.46,0l58.82,117.64,118.69,59.87c5.25,2.1,8.4,9.45,9.45,14.71Z"/>
</svg>