<?xml version="1.0" encoding="UTF-8"?>
<svg id="Layer_1" xmlns="http://www.w3.org/2000/svg" viewBox="0 0 512 512">
  <path d="M404.86,47.24l14.26,33.64,3.63,8.57,8.57,3.63,33.65,14.26-33.34,13.56-8.88,3.61-3.69,8.85-14.2,34.08-13.51-33.78-3.66-9.15-9.15-3.66-33.78-13.51,34.08-14.2,8.85-3.69,3.61-8.88,13.56-33.34M405.14,1.61c-3.3,0-6.59,2.2-8.79,5.49l-26.36,64.81-65.91,27.46c-3.3,2.2-5.49,5.49-5.49,7.69,0,3.3,2.2,6.59,5.49,8.79l65.91,26.36,26.36,65.91c2.2,3.3,5.49,5.49,8.79,5.49,2.2,0,5.49-2.2,7.69-5.49l27.46-65.91,64.81-26.36c3.3-2.2,5.49-5.49,5.49-8.79,0-2.2-2.2-5.49-5.49-7.69l-64.81-27.46-27.46-64.81c-2.2-3.3-5.49-5.49-7.69-5.49h0ZM204.54,157.84l45.43,90.85,4.74,9.48,9.47,4.78,91.2,46-91.2,46-9.52,4.8-4.74,9.56-45.38,91.56-45.38-91.56-4.74-9.56-9.52-4.8-91.2-46,91.2-46,9.47-4.78,4.74-9.48,45.43-90.85M204.54,108.07c-6.04,0-12.08,2.89-15.23,8.67l-58.82,117.64-118.69,59.87c-5.25,2.1-9.45,9.45-9.45,14.71,0,6.3,4.2,12.6,9.45,14.7l118.69,59.87,58.82,118.69c3.15,5.25,9.45,8.4,15.75,8.4,5.25,0,11.55-3.15,14.71-8.4l58.82-118.69,118.69-59.87c5.25-2.1,9.45-8.4,9.45-14.7-1.05-5.25-4.2-12.61-9.45-14.71l-118.69-59.87-58.82-117.64c-3.15-5.78-9.19-8.67-15.23-8.67h0Z"/>
</svg>