<?xml version="1.0" encoding="utf-8"?>
<!-- Generator: Adobe Illustrator 26.0.1, SVG Export Plug-In . SVG Version: 6.00 Build 0)  -->
<svg version="1.1" id="Layer_1" xmlns="http://www.w3.org/2000/svg" xmlns:xlink="http://www.w3.org/1999/xlink" x="0px" y="0px"
	 viewBox="0 0 512 512" style="enable-background:new 0 0 512 512;" xml:space="preserve">
<style type="text/css">
	.st0{fill:#000001;}
</style>
<path class="st0" d="M130.7,343.6h65.2c5,0,9-4,9-9V281c0-5-4-9-9-9h-65.2c-5,0-9,4-9,9v53.6C121.7,339.5,125.8,343.6,130.7,343.6z
	 M255.7,482.5h237.1c9.9,0,18-8.1,18-18V287.6c0-9.9-8.1-18-18-18H255.7c-9.9,0-18,8.1-18,18v176.9
	C237.7,474.4,245.8,482.5,255.7,482.5z M317.4,237.6h110.1c5,0,9-4,9-9v-92.4c0-5-4-9-9-9H317.4c-5,0-9,4-9,9v92.4
	C308.4,233.6,312.4,237.6,317.4,237.6z M19.2,237.6h237.1c9.9,0,18-8.1,18-18V42.8c0-9.9-8.1-18-18-18H19.2c-9.9,0-18,8.1-18,18
	v176.9C1.2,229.6,9.2,237.6,19.2,237.6z"/>
</svg>
