<?xml version="1.0" encoding="utf-8"?>
<!-- Generator: Adobe Illustrator 26.0.0, SVG Export Plug-In . SVG Version: 6.00 Build 0)  -->
<svg version="1.1" id="Layer_1" xmlns="http://www.w3.org/2000/svg" xmlns:xlink="http://www.w3.org/1999/xlink" x="0px" y="0px"
	 viewBox="0 0 512 512" style="enable-background:new 0 0 512 512;" xml:space="preserve">
<style type="text/css">
	.st0{fill-rule:evenodd;clip-rule:evenodd;}
</style>
<path class="st0" d="M180.5,200.4l130.7,127.7c-17.1,17.7-74.3,138.3-81,168.2l-21.8-12.5c-6.2-3.1-12.5-9.3-21.8-12.5l21.8-62.3
	l-40.5,49.8c-9.3-6.2-18.7-12.5-24.9-18.7c-9.3-6.2-15.6-12.5-24.9-21.8l46.7-74.7l-68.5,52.9c-6.2-9.3-15.6-15.6-21.8-24.9
	c-6.2-9.3-12.5-18.7-21.8-24.9l68.5-68.5l-87.1,40.6c-3.1-6.2-9.3-12.5-12.5-21.8c-6.2,0-12.4-6.2-15.5-15.6
	C24.5,282.1,158.7,217.2,180.5,200.4z M495.7,18.1c-9.3-9.4-24.5-9.5-33.9-0.2L306,172c-31.3-17.8-71.3-15-99.9,8.7l125.6,122.7
	c22.2-28.1,25-66.7,8.1-97.3L495.5,52.1C504.9,42.7,505,27.5,495.7,18.1z M52.8,197.3c17.1,0,31-13.9,31-31s-13.9-31-31-31
	c-17.1,0-31,13.9-31,31S35.7,197.3,52.8,197.3z M342.3,393.6c-17.1,0-31,13.9-31,31c0,17.1,13.9,31,31,31c17.1,0,31-13.9,31-31
	C373.3,407.5,359.4,393.6,342.3,393.6z M429.5,251.9c-17.1,0-31,13.9-31,31c0,17.1,13.9,31,31,31c17.1,0,31-13.9,31-31
	C460.5,265.8,446.6,251.9,429.5,251.9z"/>
</svg>
