<?xml version="1.0" encoding="utf-8"?>
<!-- Generator: Adobe Illustrator 26.0.0, SVG Export Plug-In . SVG Version: 6.00 Build 0)  -->
<svg version="1.1" id="Layer_1" xmlns="http://www.w3.org/2000/svg" xmlns:xlink="http://www.w3.org/1999/xlink" x="0px" y="0px"
	 viewBox="0 0 512 512" style="enable-background:new 0 0 512 512;" xml:space="preserve">
<style type="text/css">
	.st0{fill-rule:evenodd;clip-rule:evenodd;}
</style>
<path class="st0" d="M170.2,209.3c-19,11.1-133.9,63.8-142.6,67.2l-15.6,5.4l6.1,15.5c1.8,4.5,7.2,14.2,15.5,19.6
	c1.1,2.1,2.1,3.6,3.2,5c0.5,0.7,0.7,0.9,1.1,1.7l5.8,11.6L84,324.5l-25.8,23.5l13.1,11.8c2.9,2.6,3.2,3.3,4.5,6.1
	c1,2.2,2.4,5.3,5,9.1c3.2,4.8,5.3,7.3,7.1,9.3c1.4,1.6,2.5,2.9,4.5,6l8.4,12.7l29.6-17.4l-15.7,32.4l8.2,8.3c6,6.1,6.9,7,11.5,9.9
	c0.6,0.4,1.4,0.9,2.3,1.5c0.5,0.6,0.9,1,1.2,1.3c2.6,3,4,3.9,8.9,7.2l10.7,7.3l27.2-22.4l-4.3,34.9l49.9,33l5-22.7
	c4.9-22.2,53-118,65.2-136.7l7.2-10.9L180.8,203.1L170.2,209.3z M216.2,436.3l4.1-33.7c1.5-7.4-1.7-15.1-8.2-19.2
	c-7-4.4-15.8-3.6-21.9,1.8l-33.5,27.6l-0.8-0.6c-0.8-0.6-1.5-1-2.2-1.4l25.9-53.2c3.8-6.9,2.5-15.6-3.3-21.1
	c-5.9-5.6-14.8-6.4-21.6-2.1l-44.9,26.4c-0.6-0.8-1.4-1.8-2.2-3.2c-1.2-1.9-1.9-3.2-2.7-5c-0.4-0.9-0.8-1.7-1.2-2.5l45.6-41.6
	c8.3-7.4,7.8-16.4,4.8-21.9c-3-5.5-10.3-10.9-21.1-7.9l-72.7,19.1L60,297c31.7-14.3,88.8-40.8,115.3-54.3l91.7,90.8
	C253.9,356.8,230.7,402.7,216.2,436.3z M491.6,22.1c-14.9-14.9-39.1-15-54-0.3L302.1,155.9c-8.6-3.2-17.6-5.1-26.9-5.6
	c-22.4-1.1-44.1,6.4-61.3,20.9l-13.3,11.3l129.5,128.9l11.1-14.3c19.3-25,23.8-57.6,14-86.1L491.4,76.1
	C506.3,61.2,506.4,37,491.6,22.1z M324.8,261l-75-74.6c7.5-3,15.6-4.5,23.8-4.1c14.3,0.7,27.8,6.8,37.9,17.3
	C327.6,216,332.2,240.1,324.8,261z M468.8,53.4L338.8,182c-1.4-1.6-2.8-3.2-4.3-4.8c-1.4-1.5-2.9-2.8-4.4-4.2L460.1,44.6
	c2.5-2.4,6.3-2.4,8.8,0.1C471.3,47.1,471.3,51,468.8,53.4z M21.8,166.3c0-17.1,13.9-31,31-31c17.1,0,31,13.9,31,31s-13.9,31-31,31
	C35.7,197.3,21.8,183.4,21.8,166.3z M373.3,424.6c0,17.1-13.9,31-31,31c-17.1,0-31-13.9-31-31c0-17.1,13.9-31,31-31
	C359.4,393.6,373.3,407.5,373.3,424.6z M460.5,282.9c0,17.1-13.9,31-31,31c-17.1,0-31-13.9-31-31c0-17.1,13.9-31,31-31
	C446.6,251.9,460.5,265.8,460.5,282.9z"/>
</svg>
