<?xml version="1.0" encoding="utf-8"?>
<!-- Generator: Adobe Illustrator 25.4.1, SVG Export Plug-In . SVG Version: 6.00 Build 0)  -->
<svg version="1.1" id="Layer_1" xmlns="http://www.w3.org/2000/svg" xmlns:xlink="http://www.w3.org/1999/xlink" x="0px" y="0px"
	 viewBox="0 0 512 512" style="enable-background:new 0 0 512 512;" xml:space="preserve">
<path d="M482.7,299.3l-32.6-18.8c2-16.2,2.1-32.7,0-48.9l32.6-18.8c9.6-5.5,14.2-16.9,11-27.5c-11.2-37.7-31.2-71.7-57.5-99.6
	c-7.6-8.1-19.8-9.8-29.4-4.3l-32.6,18.8c-13-9.9-27.3-18.1-42.3-24.5V38c0-11.1-7.7-20.8-18.5-23.4c-37.6-8.9-77.1-8.9-114.8,0
	c-10.8,2.6-18.5,12.2-18.5,23.4v37.6c-15.1,6.3-29.3,14.6-42.3,24.5l-32.6-18.8c-9.6-5.6-21.8-3.8-29.4,4.3
	c-26.4,27.9-46.3,61.8-57.5,99.6c-3.1,10.6,1.5,22,11,27.5l32.6,18.8c-2,16.2-2.1,32.7,0,48.9l-32.6,18.8
	c-9.6,5.5-14.2,16.9-11,27.5c11.2,37.7,31.2,71.7,57.5,99.6c7.6,8.1,19.8,9.8,29.4,4.3l32.6-18.8c13,9.9,27.3,18.1,42.3,24.5v37.6
	c0,11.1,7.7,20.8,18.5,23.4c37.6,8.9,77.1,8.9,114.8,0c10.8-2.6,18.5-12.2,18.5-23.4v-37.6c15.1-6.3,29.3-14.6,42.3-24.5l32.6,18.8
	c9.6,5.6,21.8,3.8,29.4-4.3c26.4-27.9,46.3-61.8,57.5-99.6C496.9,316.2,492.3,304.8,482.7,299.3L482.7,299.3z M417.2,399.7
	L370.9,373c-27,23.1-36.6,28.9-71,41.1v53.5c-28.9,6-58.8,6-87.7,0v-53.5c-33.6-11.9-43.4-17.4-71-41.1l-46.3,26.7
	c-19.7-22.1-34.7-48-43.9-76L97.2,297c-6.5-35.4-6.5-46.6,0-82.1l-46.3-26.7c9.2-28,24.2-53.9,43.9-76l46.3,26.8
	c27.4-23.4,37.1-29.1,71-41.1V44.5c28.9-6,58.8-6,87.7,0v53.5c34,12,43.7,17.6,71,41.1l46.3-26.8c19.7,22.1,34.7,48,43.9,76
	L414.8,215c6.5,35.4,6.5,46.6,0,82.1l46.3,26.7C451.9,351.7,436.9,377.6,417.2,399.7L417.2,399.7z M256,160c-52.9,0-96,43.1-96,96
	s43.1,96,96,96s96-43.1,96-96S308.9,160,256,160z M256,320c-35.3,0-64-28.7-64-64s28.7-64,64-64s64,28.7,64,64S291.3,320,256,320z"
	/>
</svg>
