<?xml version="1.0" encoding="utf-8"?>
<!-- Generator: Adobe Illustrator 26.0.1, SVG Export Plug-In . SVG Version: 6.00 Build 0)  -->
<svg version="1.1" id="Layer_1" xmlns="http://www.w3.org/2000/svg" xmlns:xlink="http://www.w3.org/1999/xlink" x="0px" y="0px"
	 viewBox="0 0 512 512" style="enable-background:new 0 0 512 512;" xml:space="preserve">
<path d="M430.2,303.3l-9.8-24.6L403,235.1c-15-37.4-50.6-61.6-90.9-61.6H201c-40.3,0-76,24.2-90.9,61.6l-17.4,43.6l-9.8,24.6
	c-21.1,8-36.2,28.3-36.2,52.2v42c0,14.1,5.4,26.8,14,36.7v47.3c0,15.4,12.5,28,28,28h28c15.4,0,28-12.5,28-28v-28h223.9v28
	c0,15.4,12.5,28,28,28h28c15.4,0,28-12.5,28-28v-47.3c8.6-9.8,14-22.6,14-36.7v-42C466.4,331.6,451.3,311.3,430.2,303.3z M162,255.9
	c6.4-15.9,21.8-26.4,39-26.4h111c17.2,0,32.6,10.4,39,26.4l17.4,43.6H144.6L162,255.9z M116.6,397.3c-16.8,0-28-11.1-28-27.9
	c0-16.7,11.2-27.9,28-27.9c16.8,0,42,25.1,42,41.8C158.6,400.1,133.4,397.3,116.6,397.3z M396.4,397.3c-16.8,0-42,2.8-42-13.9
	s25.2-41.8,42-41.8s28,11.1,28,27.9C424.4,386.1,413.2,397.3,396.4,397.3z M411.9,64c-87.5-80.9-223.4-80.8-310.8,0
	c-3.3,3.1-3.4,8.2-0.2,11.4l16.9,16.8c3,3,7.9,3.1,11.1,0.2c72-66,183.3-66,255.3,0c3.2,2.9,8.1,2.8,11.1-0.2l16.9-16.8
	C415.3,72.2,415.2,67,411.9,64 M356.5,120c-56.9-50.3-143.2-50.2-200,0c-3.4,3-3.5,8.2-0.3,11.4l17,16.8c3,2.9,7.7,3.1,10.9,0.4
	c41.4-35.8,103.5-35.7,144.8,0c3.2,2.7,7.9,2.5,10.9-0.4l17-16.8C360,128.2,359.9,123,356.5,120"/>
</svg>
