<?xml version="1.0" encoding="utf-8"?>
<!-- Generator: Adobe Illustrator 25.4.1, SVG Export Plug-In . SVG Version: 6.00 Build 0)  -->
<svg version="1.1" id="Layer_1" xmlns="http://www.w3.org/2000/svg" xmlns:xlink="http://www.w3.org/1999/xlink" x="0px" y="0px"
	 viewBox="0 0 640 512" style="enable-background:new 0 0 640 512;" xml:space="preserve">
<path d="M536,480H104c-4.4,0-8,3.6-8,8v16c0,4.4,3.6,8,8,8h432c4.4,0,8-3.6,8-8v-16C544,483.6,540.4,480,536,480z M584,160
	c-30.9,0-56,25.1-56,56c0,7.6,1.5,14.8,4.3,21.4L476,271.2c-5.2,3.1-10.8,4.6-16.4,4.6c-11.1,0-21.9-5.8-27.8-16.1l-74.4-130.2
	c11.3-10.3,18.6-25,18.6-41.5c0-30.9-25.1-56-56-56s-56,25.1-56,56c0,16.5,7.3,31.2,18.6,41.4l-74.4,130.2
	c-5.9,10.4-16.7,16.1-27.8,16.1c-5.6,0-11.3-1.5-16.4-4.6l-56.3-33.8c2.7-6.6,4.3-13.8,4.3-21.4c0-30.9-25.1-56-56-56S0,185.1,0,216
	s25.1,56,56,56c2,0,3.9-0.4,5.8-0.6L128,448h384l66.2-176.6c1.9,0.2,3.8,0.6,5.8,0.6c30.9,0,56-25.1,56-56S614.9,160,584,160z
	 M320,64c13.2,0,24,10.8,24,24s-10.8,24-24,24s-24-10.8-24-24S306.8,64,320,64z M56,240c-13.2,0-24-10.8-24-24s10.8-24,24-24
	s24,10.8,24,24S69.2,240,56,240z M489.8,416H150.2l-56-149.4l53.4,32c10,6,21.3,9.1,32.9,9.1c22.9,0,44.2-12.4,55.6-32.3l75.6-132.3
	c2.8,0.4,5.5,0.8,8.4,0.8s5.6-0.4,8.4-0.8L404,275.5c11.4,19.9,32.7,32.2,55.6,32.2c11.6,0,22.9-3.2,32.9-9.1l53.4-32L489.8,416z
	 M584,240c-13.2,0-24-10.8-24-24s10.8-24,24-24s24,10.8,24,24S597.2,240,584,240z"/>
</svg>
