<?xml version="1.0" encoding="utf-8"?>
<!-- Generator: Adobe Illustrator 25.4.1, SVG Export Plug-In . SVG Version: 6.00 Build 0)  -->
<svg version="1.1" id="Layer_1" xmlns="http://www.w3.org/2000/svg" xmlns:xlink="http://www.w3.org/1999/xlink" x="0px" y="0px"
	 viewBox="0 0 512 512" style="enable-background:new 0 0 512 512;" xml:space="preserve">
<path d="M239.1,6.3l-208,78c-18.7,7-31.1,25-31.1,45v225.1c0,18.2,10.3,34.8,26.5,42.9l208,104c13.5,6.8,29.4,6.8,42.9,0l208-104
	c16.3-8.1,26.5-24.8,26.5-42.9V129.3c0-20-12.4-37.9-31.1-44.9l-208-78C262,2.2,250,2.2,239.1,6.3z M256,34.2l224,84v0.3l-224,97.1
	L32,118.5v-0.3C32,118.2,256,34.2,256,34.2z M32,153.4l208,90.1v224.7l-208-104V153.4z M272,468.2V243.5l208-90.1v210.9L272,468.2
	L272,468.2z"/>
</svg>
