<?xml version="1.0" encoding="utf-8"?>
<!-- Generator: Adobe Illustrator 25.4.1, SVG Export Plug-In . SVG Version: 6.00 Build 0)  -->
<svg version="1.1" id="Layer_1" xmlns="http://www.w3.org/2000/svg" xmlns:xlink="http://www.w3.org/1999/xlink" x="0px" y="0px"
	 viewBox="0 0 640 512" style="enable-background:new 0 0 640 512;" xml:space="preserve">
<path d="M637,485.2L23,1.8C19.6-1,14.5-0.4,11.8,3l-10,12.5C-1,19-0.4,24,3,26.8l614,483.5c3.4,2.8,8.5,2.2,11.2-1.2c0,0,0,0,0,0
	l10-12.5C641,493,640.4,488,637,485.2z M320,96c70.7,0.1,127.9,57.3,128,128c0,21.6-5.9,41.7-15.4,59.6l25.5,20
	c13.6-23.5,21.9-50.4,21.9-79.6c0-36.8-12.9-70.3-33.8-97.3C502.1,154.9,547.6,200.2,576,256c-17,33-40,62.6-67.8,87.2l25.3,19.9
	c28.5-26.3,52.9-57.3,70.9-92.5c4.6-9.2,4.6-20,0-29.2C550.3,135.6,442.9,64,320,64c-44.9,0-89.3,9.7-130.1,28.4l45.8,36
	C258.2,108.5,287.6,96,320,96z M380.9,242.8c10.9-33.1-7.2-68.8-40.3-79.7c-6.6-2.2-13.6-3.2-20.5-3.1c-1,0-1.9,0.2-2.9,0.3
	c3.9,10.4,3.8,21.9-0.2,32.2L380.9,242.8z M163.2,193.7c-2.1,10-3.2,20.1-3.2,30.3c-0.3,88,70.8,159.7,158.8,160
	c23.3,0.1,46.3-4.9,67.5-14.7L356.7,346c-11.7,3.5-23.9,6-36.7,6c-70.7-0.1-127.9-57.3-128-128c0-2.4,0.6-4.7,0.7-7.1L163.2,193.7z
	 M320,416c-107.4,0-205.5-61.3-256-160c17.4-34,41.1-62.7,68.3-86.7l-25.9-20.4c-28.5,26.3-52.9,57.2-70.9,92.5
	c-4.6,9.2-4.6,20,0,29.2C89.7,376.4,197.1,448,320,448c44.9,0,89.3-9.7,130.1-28.4l-29.2-23C389.1,408.8,355.1,416,320,416z"/>
</svg>
