<?xml version="1.0" encoding="utf-8"?>
<!-- Generator: Adobe Illustrator 25.4.1, SVG Export Plug-In . SVG Version: 6.00 Build 0)  -->
<svg version="1.1" id="Layer_1" xmlns="http://www.w3.org/2000/svg" xmlns:xlink="http://www.w3.org/1999/xlink" x="0px" y="0px"
	 viewBox="0 0 576 512" style="enable-background:new 0 0 576 512;" xml:space="preserve">
<path d="M288,288c35.3,0,64-28.7,64-64s-28.7-64-64-64c-1,0-1.9,0.2-2.9,0.3c9,24.7-3.8,51.9-28.4,60.9c-10.5,3.8-22,3.8-32.4,0
	c0,1-0.3,1.9-0.3,2.9C224,259.3,252.7,288,288,288z M572.5,241.4C518.3,135.6,410.9,64,288,64S57.7,135.6,3.5,241.4
	c-4.6,9.2-4.6,20,0,29.2C57.7,376.4,165.1,448,288,448s230.3-71.6,284.5-177.4C577.2,261.4,577.2,250.6,572.5,241.4z M288,96
	c70.7,0,128,57.3,128,128s-57.3,128-128,128s-128-57.3-128-128C160.1,153.3,217.3,96.1,288,96z M288,416
	c-107.4,0-205.5-61.3-256-160c28.4-55.8,73.9-101.1,129.8-129.3c-20.9,27-33.8,60.5-33.8,97.3c0,88.4,71.6,160,160,160
	s160-71.6,160-160c0-36.8-12.9-70.3-33.8-97.3C470.1,154.9,515.6,200.2,544,256C493.5,354.7,395.4,416,288,416z"/>
</svg>
