<?xml version="1.0" encoding="utf-8"?>
<!-- Generator: Adobe Illustrator 25.4.1, SVG Export Plug-In . SVG Version: 6.00 Build 0)  -->
<svg version="1.1" id="Layer_1" xmlns="http://www.w3.org/2000/svg" xmlns:xlink="http://www.w3.org/1999/xlink" x="0px" y="0px"
	 viewBox="0 0 352 512" style="enable-background:new 0 0 352 512;" xml:space="preserve">
<path d="M176,0C73.1,0-0.1,83.5,0,176.2c0.1,44.3,16.5,84.7,43.6,115.5C69.2,321,93.8,368.7,96,384l0.1,75.2c0,3.1,0.9,6.2,2.7,8.8
	l24.5,36.8c3,4.5,8,7.1,13.3,7.1h78.9c5.4,0,10.4-2.7,13.3-7.1l24.5-36.8c1.7-2.6,2.7-5.7,2.7-8.8L256,384
	c2.3-15.7,27-63.2,52.4-92.2C335.5,260.9,352,220.4,352,176C352,78.8,273.2,0,176,0z M223.9,454.3L206.9,480h-61.7l-17.1-25.7l0-6.3
	h95.9L223.9,454.3L223.9,454.3z M224,416h-96l-0.1-32H224L224,416z M284.4,270.7c-14,16-36.3,48.1-50.6,81.3H118.2
	c-14.3-33.2-36.6-65.4-50.6-81.3C44.5,244.3,32.1,210.9,32,176C31.9,99,92.4,32,176,32c79.4,0,144,64.6,144,144
	C320,210.9,307.4,244.5,284.4,270.7z M176,64c-61.8,0-112,50.2-112,112c0,8.8,7.2,16,16,16s16-7.2,16-16c0-44.1,35.9-80,80-80
	c8.8,0,16-7.2,16-16S184.8,64,176,64z"/>
</svg>
