<?xml version="1.0" encoding="utf-8"?>
<!-- Generator: Adobe Illustrator 25.4.1, SVG Export Plug-In . SVG Version: 6.00 Build 0)  -->
<svg version="1.1" id="Layer_1" xmlns="http://www.w3.org/2000/svg" xmlns:xlink="http://www.w3.org/1999/xlink" x="0px" y="0px"
	 viewBox="0 0 433 512" style="enable-background:new 0 0 433 512;" xml:space="preserve">
<path d="M409.5,80.2v12.7c0,6.1-4.9,11-11,11H34.5c-6.1,0-11-4.9-11-11V80.2c0-25.3,30.4-45.8,67.9-45.8c3.9,0,7.7,0.2,11.3,0.7
	c4.5,0.5,8.9-1.8,10.9-5.8C122.1,13,139,1.8,158.6,1.8c10.7,0,20.5,3.3,28.7,8.9c3.3,2.3,7.5,2.6,11,0.8c4.5-2.1,9.2-4.1,14.3-5.7
	C246.9-5.4,279.4,0,285.4,18c0.1,0.3,0.2,0.6,0.3,1c1.4,5,6.2,8.1,11.3,7.7c2.5-0.2,5.1-0.3,7.8-0.3c10.4,0,20.4,1.5,29.3,4.2
	c4.6,1.4,9.7-0.5,12.2-4.6c2.1-3.4,4.9-5.9,8.3-7.3c15-6.3,36.4,10.7,47.9,38c3.4,8,5.5,16.1,6.4,23.6H409.5z M318.8,370.1
	c38.9,0,70.4,31.5,70.4,70.4s-31.5,70.4-70.4,70.4s-70.4-31.5-70.4-70.4S279.9,370.1,318.8,370.1z M114.3,370.1
	c38.9,0,70.4,31.5,70.4,70.4s-31.5,70.4-70.4,70.4s-70.4-31.5-70.4-70.4S75.4,370.1,114.3,370.1z M415.5,135.9h-199h-199
	c-9.6,0-17.5,7.8-17.5,17.5v89.7c0,3.3,1,6.6,2.7,9.4l26.4,39.3l0,0l25.2,37.5c0.2,0.3,3.3,4.7,8.1,11.6c3.2,4.6,9.2,6.4,14.4,4.3
	c11.6-4.6,24.2-7.1,37.4-7.1c33.4,0,63.1,16,81.8,40.8c2.3,3,5.9,4.8,9.7,4.8h21.6c3.8,0,7.4-1.8,9.7-4.8
	c18.7-24.8,48.4-40.8,81.8-40.8c13.9,0,27.2,2.8,39.4,7.9c5.4,2.3,11.7,0.2,14.9-4.8l30.8-49.3h0l26.4-39.3c1.8-2.8,2.7-6.1,2.7-9.4
	v-89.7C433,143.8,425.2,135.9,415.5,135.9z"/>
</svg>
