<?xml version="1.0" encoding="utf-8"?>
<!-- Generator: Adobe Illustrator 25.4.1, SVG Export Plug-In . SVG Version: 6.00 Build 0)  -->
<svg version="1.1" id="Layer_1" xmlns="http://www.w3.org/2000/svg" xmlns:xlink="http://www.w3.org/1999/xlink" x="0px" y="0px"
	 viewBox="0 0 512 512" style="enable-background:new 0 0 512 512;" xml:space="preserve">
<path d="M121.8,0.7C61.6,0.7,12.9,49.4,12.9,109.5s48.7,108.9,108.9,108.9s108.9-48.7,108.9-108.9S181.9,0.7,121.8,0.7z
	 M389.5,294.3c-60.1,0-108.9,48.7-108.9,108.9S329.4,512,389.5,512s108.9-48.7,108.9-108.9S449.6,294.3,389.5,294.3z M507.7,171.7
	L416.8,16.2c-8.9-15.1-28.3-20.1-43.4-11.1c-4.6,2.7-8.4,6.5-11.1,11.1l-90.9,155.5c-12.1,20.7,3,46.7,27.3,46.7h181.8
	C504.7,218.4,519.9,192.5,507.7,171.7z M240,465.3L149,309.8c-8.9-15.1-28.3-20.1-43.4-11.1c-4.6,2.7-8.4,6.5-11.1,11.1L3.5,465.3
	c-12.1,20.7,3,46.7,27.3,46.7h181.8C236.9,512,252.1,486.1,240,465.3z"/>
</svg>
