<?xml version="1.0" encoding="utf-8"?>
<!-- Generator: Adobe Illustrator 26.0.1, SVG Export Plug-In . SVG Version: 6.00 Build 0)  -->
<svg version="1.1" id="Layer_1" xmlns="http://www.w3.org/2000/svg" xmlns:xlink="http://www.w3.org/1999/xlink" x="0px" y="0px"
	 viewBox="0 0 640 512" style="enable-background:new 0 0 640 512;" xml:space="preserve">
<path d="M80.6,405.3c6.3,6.8,15.1,10.7,24.3,10.7l130.5-0.2c10.3,0,20.5-2.5,29.6-7.1L556,261c26.7-13.6,50.7-32.9,67-58.3
	c18.3-28.5,20.3-49.1,13.1-63.7s-24.7-25.3-58.2-27.4c-29.8-1.9-59.5,5.9-86.3,19.5l-98.5,50L174.4,99c-5.4-3.6-12.2-4-18-1.1
	l-65.8,33.4c-10.7,5.4-13.2,19.7-5.2,28.5l156.2,98.1l-103.2,52.4l-72.3-36.5c-5.1-2.5-11-2.5-16.1,0L9.9,294.2
	c-10.4,5.3-13.2,19.1-5.6,28.1C4.3,322.3,80.5,405.3,80.6,405.3z"/>
</svg>
