<?xml version="1.0" encoding="utf-8"?>
<!-- Generator: Adobe Illustrator 26.0.1, SVG Export Plug-In . SVG Version: 6.00 Build 0)  -->
<svg version="1.1" id="Layer_1" xmlns="http://www.w3.org/2000/svg" xmlns:xlink="http://www.w3.org/1999/xlink" x="0px" y="0px"
	 viewBox="0 0 576 512" style="enable-background:new 0 0 576 512;" xml:space="preserve">
<path d="M519.3,288.7c-41.5,0-59.5,31.6-82.1,31.6c-27.9,0-23-111-10.9-156.8c2.1-8-5.6-15.1-13.4-12.3
	c-49.1,17.6-177.4,32.8-177.4-10.4c0-35.8,36.3-46.2,36.3-86C272,19.2,243.9,0,210.5,0c-34.7,0-66.4,18.9-66.4,56.3
	c0,41.4,31.7,59.3,31.7,81.8c0,45.1-123.8,39-163.7,31.2C5.9,168.1,0,172.9,0,179.4v312.3c0,4.9,3.4,9.1,8.2,10.1
	c35.1,7,170.4,30.3,170.4-30.4c0-22.5-40-40.1-40-81.5c0-37.5,29.2-56.3,63.6-56.3c33.7,0,61.8,19.2,61.8,54.7
	c0,39.7-36.3,50.2-36.3,86c0,56.4,111.6,30.3,168.9,26.2c6.3-0.4,10.7-6.4,9.3-12.5c-6.9-30.4-6.9-108.1,28.8-108.1
	c36,0,46.4,36.2,86.3,36.2c35.6,0,54.9-28,54.9-61.6C575.9,320.2,556.9,288.7,519.3,288.7z"/>
</svg>
