<?xml version="1.0" encoding="utf-8"?>
<!-- Generator: Adobe Illustrator 25.4.1, SVG Export Plug-In . SVG Version: 6.00 Build 0)  -->
<svg version="1.1" id="Layer_1" xmlns="http://www.w3.org/2000/svg" xmlns:xlink="http://www.w3.org/1999/xlink" x="0px" y="0px"
	 viewBox="0 0 512 512" style="enable-background:new 0 0 512 512;" xml:space="preserve">
<path d="M505.1,19.3c-1.2-5.6-6.7-11.1-12.3-12.3c-32.6-7-58.2-7-83.6-7C305.4,0,243,55.1,196.2,128H94.8
	c-16.3,0-35.5,11.9-42.9,26.5L2.5,253.3c-1.5,3.4-2.4,7-2.5,10.7c0,13.3,10.7,24,24,24h92.6L106,309.4c-9.3,18.9,4.3,34.8,6.2,36.6
	l53.8,53.7c1.9,1.9,17.8,15.5,36.6,6.1l21.4-10.6V488c0.1,13.2,10.8,23.9,24,24c3.7-0.1,7.3-1,10.6-2.5l98.7-49.4
	c14.6-7.3,26.5-26.5,26.5-42.9V315.7C456.6,268.9,512,206.2,512,103C512.1,77.5,512.1,52,505.1,19.3z M36.9,256l43.6-87.2
	c2.5-4.8,8.8-8.8,14.3-8.8H180c-13.9,28.1-31.7,64-47.6,96H36.9z M351.8,417.2c0,5.4-4,11.8-8.9,14.3L256,475v-95.5
	c32-15.8,67.8-33.6,95.9-47.5V417.2z M366.5,288.9c-39.5,19.8-135.9,67.4-177.9,88.2l-53.8-53.5c20.9-42.2,68.5-138.6,88.2-178.2
	C273.2,67,330.7,32,409.2,32c21.5,0,42,0,66.6,4.3c4.3,24.9,4.2,45.2,4.2,66.7C480,181.1,445,238.5,366.5,288.9L366.5,288.9z
	 M368,88c-30.9,0-56,25.1-56,56c0,30.9,25.1,56,56,56c30.9,0,56-25.1,56-56c0,0,0,0,0,0C424,113.1,398.9,88,368,88z M368,168
	c-13.3,0-24-10.7-24-24s10.7-24,24-24c13.3,0,24,10.7,24,24c0,0,0,0,0,0C392,157.3,381.2,168,368,168z"/>
</svg>
