<?xml version="1.0" encoding="utf-8"?>
<!-- Generator: Adobe Illustrator 25.4.1, SVG Export Plug-In . SVG Version: 6.00 Build 0)  -->
<svg version="1.1" id="Layer_1" xmlns="http://www.w3.org/2000/svg" xmlns:xlink="http://www.w3.org/1999/xlink" x="0px" y="0px"
	 viewBox="0 0 512 512" style="enable-background:new 0 0 512 512;" xml:space="preserve">
<path d="M488,0H376c-21.4,0-32.1,25.9-17,41l44.7,44.7L290.3,199c-3.1,3.1-3.1,8.2,0,11.3l11.4,11.4c3.1,3.1,8.2,3.1,11.3,0
	l113.4-113.4l44.6,44.6c4.9,4.9,10.9,7.1,16.8,7.1c12.3,0,24.2-9.6,24.2-24.1v-112C512,10.7,501.3,0,488,0z M480,116.7L395.3,32H480
	V116.7z"/>
<path d="M403.6,426.3L358.9,471c-4.9,4.9-7.1,10.9-7.1,16.8c0,12.3,9.6,24.2,24.1,24.2h112c13.3,0,24-10.7,24-24V376
	c0-21.4-25.9-32.1-41-17l-44.7,44.7L312.9,290.2c-3.1-3.1-8.2-3.1-11.3,0l-11.3,11.3c-3.1,3.1-3.1,8.2,0,11.3L403.6,426.3
	L403.6,426.3z M479.9,395.2v84.7h-84.7L479.9,395.2z"/>
<path d="M24,511.9h112c21.4,0,32.1-25.9,17-41l-44.7-44.7l113.4-113.3c3.1-3.1,3.1-8.2,0-11.3l-11.3-11.3c-3.1-3.1-8.2-3.1-11.3,0
	L85.7,403.7L41,359c-4.9-4.9-10.9-7.1-16.8-7.1C11.9,351.9,0,361.5,0,376v111.9C0,501.2,10.7,511.9,24,511.9z M32,395.2l84.7,84.7
	H32V395.2z"/>
<path d="M41.1,152.9l44.7-44.7l113.3,113.5c3.1,3.1,8.2,3.1,11.3,0l11.4-11.4c3.1-3.1,3.1-8.2,0-11.3L108.4,85.6L153,41
	c4.9-4.9,7.1-10.9,7.1-16.8C160.1,11.9,150.5,0,136,0H24C10.7,0,0,10.7,0,24v112C0.1,157.3,26,168,41.1,152.9z M32.1,32h84.7
	l-84.7,84.7V32z"/>
</svg>
