<?xml version="1.0" encoding="utf-8"?>
<!-- Generator: Adobe Illustrator 26.0.1, SVG Export Plug-In . SVG Version: 6.00 Build 0)  -->
<svg version="1.1" id="Layer_1" xmlns="http://www.w3.org/2000/svg" xmlns:xlink="http://www.w3.org/1999/xlink" x="0px" y="0px"
	 viewBox="0 0 512 512" style="enable-background:new 0 0 512 512;" xml:space="preserve">
<path d="M219.4,328L113.9,433.7l6.3,6.3l32.9,31c15.1,15.2,4.4,41-17,41h-112c-13.3,0-24-10.8-24-24v-112c0-21.4,25.8-32.1,40.9-17
	l31.1,33l6.4,6.4l105.6-105.6c2.7-2.7,7.2-2.7,9.9,0l25.4,25.4C222.1,320.8,222.1,325.3,219.4,328z M488-0.1H376
	c-21.4,0-32.1,25.9-17,41l33,31l6.4,6.4L292.7,184.1c-2.7,2.7-2.7,7.2,0,9.9l25.4,25.4c1.3,1.3,3.1,2,4.9,2s3.6-0.7,4.9-2
	l105.7-105.7l6.3,6.3l31.1,33c15.1,15.1,40.9,4.4,40.9-17v-112C512,10.6,501.2-0.1,488-0.1z M471,359.1l-31,32.9l-6.3,6.3L328,292.6
	c-1.3-1.3-3.1-2-4.9-2s-3.6,0.7-4.9,2l0,0L292.7,318c-1.3,1.3-2,3-2,4.9c0,1.9,0.7,3.6,2,4.9l105.6,105.8l-6.4,6.4l-33,31.1
	c-15.1,15.1-4.4,40.9,17,40.9h112c13.3,0,24-10.7,24-24v-112C512,354.7,486.1,344,471,359.1z M219.3,184L113.7,78.3l6.3-6.3l33-31.1
	c15.1-15.1,4.4-40.9-17-40.9H24c-13.3,0-24,10.7-24,24v112c0,21.4,25.9,32.1,41,16.9l31-32.9l6.4-6.4l105.7,105.7
	c2.7,2.7,7.2,2.7,9.9,0l25.4-25.4c1.3-1.3,2-3.1,2-4.9S220.6,185.3,219.3,184z M466,37"/>
</svg>
