<?xml version="1.0" encoding="utf-8"?>
<!-- Generator: Adobe Illustrator 25.4.1, SVG Export Plug-In . SVG Version: 6.00 Build 0)  -->
<svg version="1.1" id="Layer_1" xmlns="http://www.w3.org/2000/svg" xmlns:xlink="http://www.w3.org/1999/xlink" x="0px" y="0px"
	 viewBox="0 0 576 512" style="enable-background:new 0 0 576 512;" xml:space="preserve">
<path d="M528.1,171.5L382,150.2L316.7,17.8c-11.7-23.6-45.6-23.9-57.4,0L194,150.2L47.9,171.5c-26.2,3.8-36.7,36.1-17.7,54.6
	l105.7,103l-25,145.5c-4.5,26.3,23.2,46,46.4,33.7L288,439.6l130.7,68.7c23.2,12.2,50.9-7.4,46.4-33.7l-25-145.5l105.7-103
	C564.8,207.6,554.3,175.3,528.1,171.5L528.1,171.5z M405.8,317.9l27.8,162L288,403.5L142.5,480l27.8-162L52.5,203.1l162.7-23.6
	L288,32l72.8,147.5l162.7,23.6L405.8,317.9L405.8,317.9z"/>
</svg>
