<?xml version="1.0" encoding="UTF-8"?>
<svg xmlns="http://www.w3.org/2000/svg" version="1.1" viewBox="0 0 512 512">
  <defs>
    <style>
      .cls-1 {
        fill: #6cbe45;
      }

      .cls-2 {
        display: none;
      }
    </style>
  </defs>
  <!-- Generator: Adobe Illustrator 28.6.0, SVG Export Plug-In . SVG Version: 1.2.0 Build 709)  -->
  <g>
    <g id="Layer_2">
      <path d="M466,482.8l-56.4-86.8h3.2c21.4,0,38.7-17.3,38.7-38.7V89.1C451.5,40.1,411.8.4,362.9.4h-214C99.9.4,60.2,40.1,60.2,89.1v268.2c0,21.4,17.3,38.7,38.7,38.7h3.5l-56.4,86.8c-5.4,8.3-3,19.5,5.3,24.9,3,2,6.4,2.9,9.8,2.9,5.9,0,11.7-2.9,15.1-8.2l30.8-47.5h297.7c0,0,.1,0,.2,0l30.9,47.5c3.4,5.3,9.2,8.2,15.1,8.2s6.8-.9,9.8-2.9c8.3-5.4,10.7-16.6,5.3-24.9ZM130.4,419l14.9-22.9h221.4l14.9,22.9h-251.2ZM381.9,219.5h-251.8c-13,0-23.5-10.5-23.5-23.5v-78.9c0-13,10.5-23.5,23.5-23.5h251.8c13,0,23.5,10.5,23.5,23.5v78.9c0,13-10.5,23.5-23.5,23.5ZM310.2,68h-109.7c-7.4,0-13.5-6-13.5-13.5v-4.4c0-7.4,6-13.5,13.5-13.5h109.7c7.4,0,13.5,6,13.5,13.5v4.4c0,7.4-6,13.5-13.5,13.5ZM372.8,329.7c-16.8,0-30.4-13.6-30.4-30.4s13.6-30.4,30.4-30.4,30.4,13.6,30.4,30.4-13.6,30.4-30.4,30.4ZM139.5,329.7c-16.8,0-30.4-13.6-30.4-30.4s13.6-30.4,30.4-30.4,30.4,13.6,30.4,30.4-13.6,30.4-30.4,30.4Z"/>
    </g>
    <g id="Layer_3" class="cls-2">
      <path class="cls-1" d="M408.9,395.7l58.5,93.8c2.6,6.6-.6,13.3-5.8,17.3-24.4,18.9-41.8-37.8-54.5-50.9s-3.8-3-6.7-2.9H109.2c-2.3.1-3.4,1.6-4.9,2.9-10.9,9.7-25.8,51.2-39.6,54.3-13.7,3-26.5-10.4-19.5-23.4l57.2-88.3c.6-4.1-.4-2.3-2.9-2.8-21.8-3.9-34.8-9.7-39.2-33.6V78.8C66.3,37.9,97.1,7.1,137.9,1.2c75.5,4.9,159.2-6.5,233.7,0,40.9,3.6,74,37.5,79.4,77.6v283.4c-2.8,21.1-21.2,34.6-42.1,33.5ZM195.8,28.4c-16,4.4-14.1,29.5,1.6,32,33.9,5.4,81.2-3.7,116.6,0,16.3-2.6,17.7-29.5,0-32.3l-118.2.3ZM402.5,211.2c3.9-3.9,5.8-12.1,6.4-17.6,2-19.9,2-62.4,0-82.3-1.1-10.9-4-19.5-15.2-23.1l-271.1-.9c-15.4,2.1-18.9,11.9-20.1,25.8-1.7,20.1-2,60.6,0,80.5,1.6,15.9,8,22.6,23.8,24,81.9,7.7,175.5-5.9,258.7,0,5.4,0,13.7-2.6,17.5-6.5ZM126.9,269.7c-36,6.7-27.8,67.5,14.4,60.4,36.4-6.2,32.7-69.1-14.4-60.4ZM398.6,322.3c15-15,10.3-45.5-11.2-51.7-26.1-7.6-47.4,12.2-40.5,38.6,5.7,21.8,36.1,28.7,51.7,13.1ZM132.2,420.6h247l2-3.9-12.6-20-223.1-1c-6.3,1.2-10.9,16.1-15.4,21l2,3.9Z"/>
    </g>
  </g>
</svg>