<?xml version="1.0" encoding="utf-8"?>
<!-- Generator: Adobe Illustrator 26.0.1, SVG Export Plug-In . SVG Version: 6.00 Build 0)  -->
<svg version="1.1" id="Layer_1" xmlns="http://www.w3.org/2000/svg" xmlns:xlink="http://www.w3.org/1999/xlink" x="0px" y="0px"
	 viewBox="0 0 512 512" style="enable-background:new 0 0 512 512;" xml:space="preserve">
<path d="M256.3,443.6c-59.4,0-109.3-50-109.3-109.3c0-6.3,6.3-15.6,15.6-15.6c6.2,0,15.6,6.3,15.6,15.6c0,43.7,34.4,78.1,78.1,78.1
	c6.3,0,15.6,6.3,15.6,15.6C271.9,437.4,262.5,443.6,256.3,443.6 M256.2,512c-49.1,0-94.8-19.2-128.7-53.9
	c-33.6-34.5-52.2-80.6-52.2-130c0-59.9,27.9-99.1,60.1-144.4c27.7-38.9,59-83,78.3-150.3c4.3-19.9,20.7-33.3,41.1-33.5
	C276-0.4,294,13.2,298.8,33c20.6,66.8,51.5,111.3,78.8,150.5c32,46,59.6,85.8,59.6,144.5c0,49-18.9,95.2-53.3,130
	C349.5,492.9,304.2,512,256.2,512z M255.3,31.8c0,0-0.1,0-0.1,0c-5.7,0.1-9.1,2.9-10.2,8.5l-0.1,0.6l-0.2,0.6
	c-20.8,72.9-54,119.5-83.2,160.6c-30.3,42.6-54.2,76.2-54.2,125.9c0,40.9,15.3,79.1,43.1,107.6c27.9,28.6,65.4,44.3,105.8,44.3
	c39.4,0,76.6-15.8,104.8-44.4c28.4-28.8,44.1-67,44.1-107.5c0-48.7-23.7-82.9-53.9-126.3c-28.7-41.3-61.2-88.1-83.2-160l-0.3-1.2
	C266.1,33.7,259.3,31.8,255.3,31.8z"/>
</svg>
