<?xml version="1.0" encoding="utf-8"?>
<!-- Generator: Adobe Illustrator 25.4.1, SVG Export Plug-In . SVG Version: 6.00 Build 0)  -->
<svg version="1.1" id="Layer_1" xmlns="http://www.w3.org/2000/svg" xmlns:xlink="http://www.w3.org/1999/xlink" x="0px" y="0px"
	 viewBox="0 0 512 512" style="enable-background:new 0 0 512 512;" xml:space="preserve">
<path d="M256.3,443.6c-59.4,0-109.3-50-109.3-109.3c0-6.3,6.3-15.6,15.6-15.6c6.2,0,15.6,6.3,15.6,15.6c0,43.7,34.4,78.1,78.1,78.1
	c6.3,0,15.6,6.3,15.6,15.6C271.9,437.4,262.5,443.6,256.3,443.6 M284.4,28.2c-6.3-28.1-50-31.2-56.2,0
	c-43.7,153.1-143.7,193.7-143.7,303c0,96.8,75,174.9,171.8,174.9c93.7,0,171.8-78.1,171.8-174.9C428.1,225,331.3,181.2,284.4,28.2"
	/>
</svg>
