<?xml version="1.0" encoding="utf-8"?>
<!-- Generator: Adobe Illustrator 26.0.1, SVG Export Plug-In . SVG Version: 6.00 Build 0)  -->
<svg version="1.1" id="Layer_1" xmlns="http://www.w3.org/2000/svg" xmlns:xlink="http://www.w3.org/1999/xlink" x="0px" y="0px"
	 viewBox="0 0 458.7 512" style="enable-background:new 0 0 458.7 512;" xml:space="preserve">
<style type="text/css">
	.st0{display:none;}
	.st1{display:inline;fill:#FFFFFF;stroke:#FFFFFF;stroke-width:0.25;stroke-miterlimit:10;}
	.st2{display:inline;fill:none;stroke:#000000;stroke-miterlimit:10;}
	.st3{fill:#ED1C24;}
</style>
<g id="full_pieces" class="st0">
	<path class="st1" d="M120.8,420.2H76.9c-3.1,0-5.7-2.5-5.7-5.7V254.4c0-3.1,2.5-5.7,5.7-5.7h43.9c3.1,0,5.7,2.5,5.7,5.7v160.1
		C126.5,417.6,123.9,420.2,120.8,420.2z"/>
	<path class="st1" d="M207.9,448H164c-3.1,0-5.7-2.5-5.7-5.7v-219c0-3.1,2.5-5.7,5.7-5.7h43.9c3.1,0,5.7,2.5,5.7,5.7v219
		C213.6,445.5,211.1,448,207.9,448z"/>
	<path class="st1" d="M295.1,448.9h-43.9c-3.1,0-5.7-2.5-5.7-5.7V146.5c0-3.1,2.5-5.7,5.7-5.7h43.9c3.1,0,5.7,2.5,5.7,5.7v296.7
		C300.7,446.4,298.2,448.9,295.1,448.9z"/>
	<path class="st1" d="M382.2,398.1h-43.9c-3.1,0-5.7-2.5-5.7-5.7V177.3c0-3.1,2.5-5.7,5.7-5.7h43.9c3.1,0,5.7,2.5,5.7,5.7v215.1
		C387.9,395.5,385.3,398.1,382.2,398.1z"/>
</g>
<g id="crop" class="st0">
	<path class="st2" d="M379.6,160.3L237.4,78.2c-5-2.9-11.1-2.9-16,0L79.1,160.3c-5,2.9-8,8.1-8,13.9v164.3c0,5.7,3,11,8,13.9
		l142.3,82.2c2.5,1.4,5.2,2.1,8,2.1s5.5-0.7,8-2.1l142.3-82.3c5-2.9,8-8.1,8-13.9V174.2C387.6,168.5,384.5,163.2,379.6,160.3z"/>
</g>
<g>
	<path class="st3" d="M283,281.1l-34.5-25.3v-85.6c0-5.3-4.3-9.5-9.5-9.5h-19c-5.3,0-9.5,4.3-9.5,9.5v92.5c0,7.2,3.3,14.1,8.9,18.6
		l39.8,29.6c0,0,0,0,0,0c4.1,3.3,10.1,2.6,13.4-1.5l11.9-14.9c0,0,0,0,0,0C287.7,290.4,287.1,284.4,283,281.1z"/>
	<path class="st3" d="M432.3,111.9L252.2,6.7c-14.1-8.2-31.4-8.2-45.5-0.1L26.5,111.8C12.5,119.8,4,134.6,4,150.7v210.4
		c0,16,8.6,30.9,22.4,38.9l180.3,105.2c14,8.1,31.4,8.1,45.4,0L432.5,400c13.9-8,22.4-22.8,22.4-38.9V150.8
		C454.8,134.8,446.2,119.9,432.3,111.9z M229.5,403.4C148,403.4,82,337.3,82,255.9s66-147.5,147.5-147.5S377,174.4,377,255.9
		S310.9,403.4,229.5,403.4z"/>
</g>
</svg>
