<?xml version="1.0" encoding="UTF-8"?><svg id="Layer_1" xmlns="http://www.w3.org/2000/svg" viewBox="0 0 512 512"><defs><style>.cls-1{fill:#ed1c24;}</style></defs><path class="cls-1" d="M458.9,111.9938L278.7,6.7938c-14.1-8.2-31.4-8.2-45.5-.1L53,111.8938c-13.9,8-22.4,22.8-22.4,38.9v210.4c0,16,8.6,30.9,22.4,38.9l180.3,105.2c14,8.0999,31.4,8.0999,45.4,0l180.3-105.2c13.9-8,22.4-22.8,22.4-38.9V150.8938c0-16-8.6-30.9-22.5-38.9Zm-86.2427,144.0062c0,7.0701-.5892,14.1403-1.7676,21.2104l25.9238,15.3187c1.571,.7856,2.6512,1.9639,3.2405,3.535,.5891,1.5712,.6873,3.1423,.2946,4.7134-3.535,10.998-8.1503,21.3086-13.8457,30.9319-5.6954,9.6232-12.2745,18.5591-19.7374,26.8076-1.1785,1.1783-2.5531,1.8657-4.1243,2.0621s-3.1423-.0982-4.7134-.8838l-25.9238-14.7294c-5.499,4.7134-11.3909,8.8377-17.6754,12.3727-6.2845,3.5351-12.7655,6.481-19.4429,8.8376v30.0481c0,1.5712-.491,3.0441-1.4729,4.4188-.9821,1.3748-2.455,2.2585-4.4188,2.6513-10.6052,2.3568-21.5051,3.5351-32.6995,3.5351s-22.2905-1.1783-33.2886-3.5351c-1.9639-.3928-3.4368-1.2766-4.4187-2.6513-.9821-1.3747-1.473-2.8477-1.473-4.4188v-30.0481c-6.6774-2.3567-13.1583-5.3026-19.4429-8.8376-6.2845-3.535-12.1764-7.6593-17.6754-12.3727l-25.9238,14.7294c-1.571,.7856-3.1422,1.0802-4.7134,.8838-1.571-.1964-2.9458-.8838-4.1243-2.0621-7.4629-8.2485-14.042-17.1843-19.7374-26.8076-5.6954-9.6233-10.3106-19.9339-13.8457-30.9319-.3928-1.5711-.2946-3.1423,.2946-4.7134,.5892-1.5711,1.6693-2.7495,3.2405-3.535l25.9238-15.3187c-1.1782-7.0701-1.7675-14.1403-1.7675-21.2104s.5892-14.1403,1.7675-21.2104l-25.9238-15.3187c-1.5712-.7856-2.6513-1.9639-3.2405-3.535-.5892-1.5712-.6874-3.1423-.2946-4.7134,3.5351-10.998,8.1503-21.3086,13.8457-30.9319,5.6954-9.6232,12.2745-18.5591,19.7374-26.8076,1.1785-1.1783,2.5532-1.8657,4.1243-2.0621,1.5712-.1964,3.1423,.0982,4.7134,.8838l25.9238,14.7294c5.499-4.7134,11.3909-8.8377,17.6754-12.3727,6.2845-3.5351,12.7655-6.481,19.4429-8.8376v-30.0481c0-1.5712,.491-3.0441,1.473-4.4188,.9819-1.3748,2.4548-2.2585,4.4187-2.6513,10.6052-2.3568,21.5051-3.5351,32.6995-3.5351s22.2905,1.1783,33.2886,3.5351c1.9639,.3928,3.4368,1.2766,4.4188,2.6513,.9819,1.3747,1.4729,2.8477,1.4729,4.4188v30.0481c6.6774,2.3567,13.1583,5.3026,19.4429,8.8376,6.2845,3.535,12.1764,7.6593,17.6754,12.3727l25.9238-14.7294c1.571-.7856,3.1422-1.0802,4.7134-.8838s2.9458,.8838,4.1243,2.0621c7.4629,8.2485,14.042,17.1843,19.7374,26.8076,5.6954,9.6233,10.3107,19.9339,13.8457,30.9319,.3927,1.5711,.2946,3.1423-.2946,4.7134-.5892,1.5711-1.6694,2.7495-3.2405,3.535l-25.9238,15.3187c1.1783,7.0701,1.7676,14.1403,1.7676,21.2104Zm-82.1904-34.4669c9.6233,9.6232,14.4348,21.1122,14.4348,34.4669s-4.8115,24.7455-14.4348,34.1723c-9.6233,9.4269-21.1122,14.1403-34.4669,14.1403s-24.8436-4.7134-34.4669-14.1403c-9.6233-9.4268-14.4348-20.8176-14.4348-34.1723s4.8115-24.8437,14.4348-34.4669,21.1123-14.4349,34.4669-14.4349,24.8436,4.8116,34.4669,14.4349Z"/></svg>