<?xml version="1.0" encoding="UTF-8"?>
<svg id="Layer_1" data-name="Layer 1" xmlns="http://www.w3.org/2000/svg" viewBox="0 0 458.7 512">
  <defs>
    <style>
      .cls-1 {
        stroke-width: 0px;
      }
    </style>
  </defs>
  <path class="cls-1" d="m452.17,203.9h-40v-53.45l-46.29-26.73,20-34.64,56.29,32.5c6.19,3.57,10,10.17,10,17.32v65ZM295.64,36.99L239.35,4.49c-6.19-3.57-13.81-3.57-20,0l-56.29,32.5,20,34.64,46.29-26.73,46.29,26.73,20-34.64ZM46.53,150.45l46.29-26.73-20-34.64-56.29,32.5c-6.19,3.57-10,10.17-10,17.32v65h40v-53.45Zm46.29,237.82l-46.29-26.73v-53.45H6.53v65c0,7.15,3.81,13.75,10,17.32l56.29,32.5,20-34.64Zm146.52,119.24l56.29-32.5-20-34.64-46.29,26.73-46.29-26.73-20,34.64,56.29,32.5c3.09,1.79,6.55,2.68,10,2.68s6.91-.89,10-2.68Zm202.82-117.1c6.19-3.57,10-10.17,10-17.32v-65h-40v53.45l-46.29,26.73,20,34.64,56.29-32.5Zm-348.09-115.45c0,16.91,5.92,31.28,17.75,43.12,11.84,11.84,26.21,17.75,43.12,17.75h155.56c14.93,0,27.69-5.28,38.26-15.85,10.57-10.57,15.85-23.32,15.85-38.26,0-12.96-4.16-24.45-12.47-34.45-8.32-10-18.53-16.13-30.65-18.39.85-2.25,1.48-4.65,1.9-7.19s.63-5.07.63-7.61c0-11.27-3.95-20.85-11.84-28.75-7.89-7.89-17.48-11.84-28.75-11.84-4.23,0-8.24.63-12.05,1.9-3.8,1.27-7.26,2.89-10.36,4.86-5.92-10.15-14.1-18.32-24.52-24.52-10.43-6.2-21.84-9.3-34.24-9.3-18.6,0-34.52,6.62-47.77,19.87s-19.87,29.17-19.87,47.77v3.38c-11.84,4.23-21.56,11.56-29.17,21.98-7.61,10.43-11.41,22.27-11.41,35.51Z"/>
</svg>