<?xml version="1.0" encoding="utf-8"?>
<!-- Generator: Adobe Illustrator 26.0.1, SVG Export Plug-In . SVG Version: 6.00 Build 0)  -->
<svg version="1.1" id="Layer_5" xmlns="http://www.w3.org/2000/svg" xmlns:xlink="http://www.w3.org/1999/xlink" x="0px" y="0px"
	 viewBox="0 0 458.7 512" style="enable-background:new 0 0 458.7 512;" xml:space="preserve">
<style type="text/css">
	.st0{fill:#ED1C24;}
</style>
<path class="st0" d="M214.9,200.4l38.3,38.3c-0.1,0-0.2,0-0.3,0l-38-38V200.4z M454.8,150.8v210.3c0,16.1-8.5,30.9-22.4,38.9
	L252.1,505.2c-14,8.1-31.4,8.1-45.4,0L26.4,400C12.6,392,4,377.1,4,361.1V150.7c0-16.1,8.5-30.9,22.4-38.9L206.6,6.6
	c14.1-8.1,31.4-8.1,45.5,0.1l180.2,105.2C446.2,119.9,454.8,134.8,454.8,150.8z M236,477.5l180.4-105.3c4-2.3,6.4-6.5,6.4-11.2
	V150.8c0-4.6-2.5-8.9-6.5-11.2L236,34.4c-2.1-1.2-4.4-1.8-6.7-1.8c-2.3,0-4.6,0.6-6.7,1.8L42.4,139.5c-4,2.3-6.4,6.5-6.4,11.2v210.4
	c0,4.5,2.5,8.9,6.5,11.3l180.2,105.2c2,1.1,4.3,1.8,6.6,1.8C231.7,479.3,234,478.7,236,477.5z M356.9,347.6c0-5.2-1.9-9.7-5.7-13.5
	l-60.7-60.7c-5.9-6.2-13-9.9-21.3-11.2c-8.3-1.2-15.9,0.1-22.8,3.9l-55.5-55.5v-32.2l-66.4-49.8l-33.2,33.2l49.8,66.4h32.2
	l55.5,55.5c-3.5,6.9-4.7,14.5-3.6,22.8c1,8.3,4.7,15.4,10.9,21.3l60.7,60.7c3.8,3.8,8.4,5.7,13.7,5.7c5.4,0,9.8-1.9,13.2-5.7
	l27.5-27.5C355,357.3,356.9,352.8,356.9,347.6z M360.1,179.6c-0.7-2.4-2.2-3.9-4.4-4.4c-2.3-0.5-4.2,0.1-6,1.8l-38.9,38.4l-35.3-5.7
	l-5.7-35.3l38.4-38.4c1.7-1.7,2.3-3.8,1.8-6.2c-0.5-2.4-2-4-4.4-4.7c-12.4-2.8-25-2.6-37.6,0.5c-12.6,3.1-23.8,9.5-33.5,19.2
	c-7.3,7.6-12.7,16.1-16.3,25.4c-1.4,3.6-2.5,7.2-3.3,10.9v19.2l38.3,38.3c3.3-0.6,6.7-0.9,10.1-0.9c3.1,0,6.2,0.2,9.4,0.7
	c13.6,2,25.4,8.1,35,18.1l9.3,9.3c4-1.8,9.2-4.5,12.5-6.6c3.8-2.4,7.4-5.4,10.9-8.8c9.7-9.7,16.2-20.8,19.4-33.5
	C363.1,204.6,363.2,192,360.1,179.6z M206,326.3l-52.8,52.4c-6.6,6.6-14.4,9.9-23.6,9.9c-9.2,0-16.9-3.3-23.1-9.9
	c-6.6-6.2-9.9-13.9-9.9-23.1c0-9.2,3.3-17,9.9-23.6l68.1-68.5l27.1,27.1c-1,6.1-1.1,12.5-0.3,19C202.1,315.5,203.7,321.1,206,326.3z
	 M142.3,355.4c0-3.5-1.2-6.4-3.6-8.8c-2.4-2.4-5.4-3.6-8.8-3.6c-3.5,0-6.4,1.2-8.8,3.6c-2.4,2.4-3.6,5.4-3.6,8.8
	c0,3.5,1.2,6.4,3.6,8.8c2.4,2.4,5.4,3.6,8.8,3.6c3.5,0,6.4-1.2,8.8-3.6C141.1,361.8,142.3,358.8,142.3,355.4z"/>
</svg>
