<?xml version="1.0" encoding="utf-8"?>
<!-- Generator: Adobe Illustrator 26.5.0, SVG Export Plug-In . SVG Version: 6.00 Build 0)  -->
<svg version="1.1" id="Icon_lines" xmlns="http://www.w3.org/2000/svg" xmlns:xlink="http://www.w3.org/1999/xlink" x="0px" y="0px"
	 viewBox="0 0 512 512" style="enable-background:new 0 0 512 512;" xml:space="preserve">
<style type="text/css">
	.st0{fill:#ED1C24;}
</style>
<path class="st0" d="M458.9,112L278.7,6.8c-14.1-8.2-31.4-8.2-45.5-0.1L53,111.9c-13.9,8-22.4,22.8-22.4,38.9v210.4
	c0,16,8.6,30.9,22.4,38.9l180.3,105.2c14,8.1,31.4,8.1,45.4,0L459,400.1c13.9-8,22.4-22.8,22.4-38.9V150.9
	C481.4,134.9,472.8,120,458.9,112z M449.4,361.1c0,4.7-2.4,8.9-6.4,11.2L262.6,477.6c-2,1.2-4.4,1.9-6.7,1.9s-4.6-0.7-6.6-1.8
	L69.1,372.5c-4-2.4-6.5-6.8-6.5-11.3V150.8c0-4.7,2.4-8.9,6.4-11.2L249.2,34.5c2.1-1.2,4.4-1.8,6.7-1.8c2.3,0,4.6,0.6,6.7,1.8
	l180.3,105.2c4,2.3,6.5,6.6,6.5,11.2L449.4,361.1L449.4,361.1z M388.4,215.9c-3.9,0-7.6,0.6-11.2,1.6l-83-83
	c1.2-3.8,1.9-7.9,1.9-12.1c0-22.1-18-40.1-40.1-40.1s-40.1,18-40.1,40.1c0,4.2,0.7,8.3,1.9,12.1l-83,83c-3.6-1-7.3-1.6-11.2-1.6
	c-22.1,0-40.1,18-40.1,40.1c0,22.1,18,40.1,40.1,40.1c3.8,0,7.5-0.5,11-1.6l83.1,83.1c-1.2,3.8-1.8,7.8-1.8,12
	c0,22.1,18,40.1,40.1,40.1s40.1-18,40.1-40.1c0-4.2-0.6-8.2-1.8-12l83.1-83.1c3.5,1,7.2,1.6,11,1.6c22.1,0,40.1-18,40.1-40.1
	C428.5,233.9,410.5,215.9,388.4,215.9z M292.8,240c-4-9.3-11.5-16.7-20.8-20.8v-60c0.4-0.2,0.8-0.3,1.1-0.5l79.4,79.4
	c-0.3,0.6-0.6,1.3-0.9,1.9H292.8z M240,159.2v60c-9.3,4-16.7,11.5-20.8,20.8h-58.9c-0.3-0.6-0.6-1.3-0.9-1.9l79.4-79.4
	C239.2,158.9,239.6,159,240,159.2z M160.4,272h58.9c4,9.3,11.5,16.7,20.8,20.8v60c-0.4,0.2-0.8,0.4-1.3,0.6L159.4,274
	C159.7,273.4,160.1,272.7,160.4,272z M272,352.8v-60c9.3-4,16.7-11.5,20.8-20.8h58.9c0.3,0.7,0.6,1.4,1,2l-79.3,79.3
	C272.8,353.2,272.4,353,272,352.8z"/>
</svg>
