<?xml version="1.0" encoding="utf-8"?>
<!-- Generator: Adobe Illustrator 26.0.1, SVG Export Plug-In . SVG Version: 6.00 Build 0)  -->
<svg version="1.1" id="Layer_1" xmlns="http://www.w3.org/2000/svg" xmlns:xlink="http://www.w3.org/1999/xlink" x="0px" y="0px"
	 viewBox="0 0 512 512" style="enable-background:new 0 0 512 512;" xml:space="preserve">
<style type="text/css">
	.st0{fill:#ED1C24;}
</style>
<path class="st0" d="M374.9,194.4l0.2-110.2c0.1-8.4-4.5-16.3-11.8-20.6l-95.7-56c-7.2-4.2-16.3-4.3-23.7-0.2l-96,54.1
	c-7.4,4.2-12.1,12.2-12.1,20.6l-0.1,110.1c-0.1,8.4,4.5,16.3,11.8,20.6l95.7,56c7.2,4.2,16.3,4.3,23.7,0.2l95.9-54
	C370.3,210.8,375,202.9,374.9,194.4z M167.7,187.6L167.8,87l87.7-49.4l87.7,51.3L343,189.5l-87.6,49.4L167.7,187.6z M240.2,317.4
	c0-8.4-4.5-16.3-11.9-20.6l-96.3-56c-7.3-4.2-16.4-4.4-23.7-0.2l-96.2,54.6c-7.4,4.3-12,12.2-12,20.8l0.2,110.6
	c0,8.4,4.5,16.3,11.9,20.6l96.3,56c7.3,4.2,16.4,4.4,23.7,0.2l96.1-54.5c7.4-4.2,12.1-12.2,12.1-20.7L240.2,317.4L240.2,317.4z
	 M511.7,318.9c0-8.4-4.5-16.3-11.9-20.6l-96.3-56c-7.3-4.2-16.4-4.4-23.7-0.2l-96.1,54.4c-7.4,4.2-12.1,12.2-12.1,20.7l0.2,110.5
	c0,8.4,4.5,16.3,11.9,20.6l96.3,56c7.3,4.2,16.4,4.4,23.7,0.2l96.1-54.4c7.4-4.2,12.1-12.2,12.1-20.7L511.7,318.9L511.7,318.9z"/>
</svg>
