<?xml version="1.0" encoding="UTF-8"?>
<svg id="Layer_2" xmlns="http://www.w3.org/2000/svg" version="1.1" viewBox="0 0 640 512">
  <!-- Generator: Adobe Illustrator 30.0.0, SVG Export Plug-In . SVG Version: 2.1.1 Build 123)  -->
  <g>
    <path d="M10.8,228L251.6,94.1l.5-.4.5.2,193.3,78.8c4.2,1.7,8.8-1.4,8.8-5.9v-82c0-2.6-1.5-4.9-3.9-5.9L266.8,1.5c-5.6-2.4-12-1.8-17.1,1.4L4.3,158.6c-1.9,1.2-3,3.2-3,5.4v58.4c0,4.9,5.3,8,9.5,5.6Z"/>
    <path d="M379.9,502.7c-11.5-2.7-21.9-9.1-29.6-18.3,0,0,0,0,0,0-6.1-7.4-11.7-15.3-16.6-23.5-.1-.2-.2-.4-.3-.5l-2.8-4.8c-.1-.2-.3-.5-.4-.7-4.7-8.4-8.7-17.1-11.9-25.9,0,0,0,0,0,0-3.9-10.6-4.4-22.1-1.5-33,.3-.9.5-1.9.8-2.8l-65.2-17c-1.3-.3-2.7-.3-4,.2L5.6,466.7c-2.6,1-4.3,3.4-4.3,6.2v30.1c0,3.7,3,6.7,6.7,6.7h371.9v-7Z"/>
    <path d="M12.1,384.5l238.2-107.1v-.3l.5.2.5-.2v.3l65.6,21.6c.4-1.4.8-2.7,1.3-4,0,0,0,0,0,0,3.2-8.8,7.3-17.5,11.9-25.9.1-.2.3-.5.4-.7l2.8-4.8c.1-.2.2-.4.3-.5,4.9-8.1,10.5-16,16.6-23.5,3.2-3.9,6.9-7.3,11-10.1l-101.1-38.7c-5.6-2.1-11.9-1.8-17.2.9L4.7,313.5C1.8,315,0,317.9,0,321.1v55.6c0,6.2,6.4,10.4,12.1,7.8Z"/>
  </g>
  <path d="M639.2,309.4c1.9,5.1.3,10.8-3.8,14.4l-25.4,23.1c.6,4.9,1,9.9,1,14.9s-.4,10-1,14.9l25.4,23.1c4,3.6,5.6,9.3,3.8,14.4-2.6,7-5.7,13.7-9.3,20.1l-2.8,4.8c-3.9,6.5-8.2,12.6-13,18.3-3.5,4.2-9.2,5.6-14.4,4l-32.7-10.4c-7.9,6-16.5,11.1-25.8,14.9l-7.3,33.5c-1.2,5.3-5.3,9.6-10.7,10.4-8.1,1.3-16.4,2.1-24.9,2.1s-16.8-.7-24.9-2.1c-5.4-.9-9.5-5.1-10.7-10.4l-7.3-33.5c-9.3-3.8-18-8.9-25.8-14.9l-32.6,10.4c-5.2,1.6-10.9.2-14.4-4-4.8-5.7-9.1-11.9-13-18.3l-2.8-4.8c-3.6-6.5-6.7-13.1-9.3-20.1-1.9-5.1-.3-10.8,3.8-14.4l25.4-23.1c-.6-4.9-1-9.9-1-15s.4-10,1-14.9l-25.4-23.1c-4-3.6-5.6-9.3-3.8-14.4,2.6-7,5.7-13.7,9.3-20.1l2.8-4.8c3.9-6.5,8.2-12.6,13-18.3,3.5-4.2,9.2-5.6,14.4-4l32.7,10.4c7.9-6,16.5-11.1,25.8-14.9l7.3-33.5c1.2-5.3,5.3-9.6,10.7-10.4,8.1-1.4,16.4-2.1,24.9-2.1s16.8.7,24.9,2.1c5.4.9,9.5,5.1,10.7,10.4l7.3,33.5c9.3,3.8,18,8.9,25.8,14.9l32.7-10.4c5.2-1.6,10.9-.2,14.4,4,4.8,5.7,9.1,11.9,13,18.3l2.8,4.8c3.6,6.5,6.7,13.1,9.3,20.1h0ZM498.5,408.8c25.9,0,46.9-21,46.9-46.9s-21-46.9-46.9-46.9-46.9,21-46.9,46.9,21,46.9,46.9,46.9Z"/>
</svg>