<?xml version="1.0" encoding="utf-8"?>
<!-- Generator: Adobe Illustrator 27.0.1, SVG Export Plug-In . SVG Version: 6.00 Build 0)  -->
<svg version="1.1" id="Layer_1" xmlns="http://www.w3.org/2000/svg" xmlns:xlink="http://www.w3.org/1999/xlink" x="0px" y="0px"
	 viewBox="0 0 640 512" style="enable-background:new 0 0 640 512;" xml:space="preserve">
<path d="M224,256c70.7,0,128-57.3,128-128S294.7,0,224,0S96,57.3,96,128S153.3,256,224,256z M178.3,304C79.8,304,0,383.8,0,482.3
	C0,498.7,13.3,512,29.7,512h388.6c1.8,0,3.5-0.2,5.3-0.5c-76.3-55.1-99.8-141-103.1-200.2c-16.1-4.8-33.1-7.3-50.7-7.3H178.3z
	 M487.1,225.7l-120,48C358,277.4,352,286.2,352,296c0,63.3,25.9,168.8,134.8,214.2c5.9,2.5,12.6,2.5,18.5,0
	C614.1,464.8,640,359.3,640,296c0-9.8-6-18.6-15.1-22.3l-120-48C499.2,223.4,492.8,223.4,487.1,225.7L487.1,225.7z M591.4,312
	c-3.9,50.7-27.2,116.7-95.4,149.7V273.8L591.4,312z"/>
</svg>
