<?xml version="1.0" encoding="utf-8"?>
<!-- Generator: Adobe Illustrator 26.0.1, SVG Export Plug-In . SVG Version: 6.00 Build 0)  -->
<svg version="1.1" xmlns="http://www.w3.org/2000/svg" xmlns:xlink="http://www.w3.org/1999/xlink" x="0px" y="0px"
	 viewBox="0 0 458.7 512" style="enable-background:new 0 0 458.7 512;" xml:space="preserve">
<style type="text/css">
	.st0{fill:#ED1C24;}
	.st1{display:none;}
	.st2{display:inline;fill:#FFFFFF;stroke:#FFFFFF;stroke-width:15;stroke-miterlimit:10;}
	.st3{display:inline;}
	.st4{fill:none;stroke:#ED1C24;stroke-width:96;stroke-miterlimit:10;}
	.st5{fill:none;stroke:#FFFFFF;stroke-width:32;stroke-linecap:round;stroke-miterlimit:10;}
	.st6{display:inline;fill:#ED1C24;stroke:#FFFFFF;stroke-width:32;stroke-linecap:round;stroke-miterlimit:10;}
	.st7{display:inline;fill:#FFFFFF;}
</style>
<g id="Layer_2">
	<path class="st0" d="M454.8,150.8v210.3c0,16.1-8.5,30.9-22.4,38.9L252.1,505.2c-14,8.1-31.4,8.1-45.4,0L26.4,400
		C12.6,392,4,377.1,4,361.1V150.7c0-16.1,8.5-30.9,22.4-38.9L206.6,6.6c14.1-8.1,31.4-8.1,45.5,0.1l180.2,105.2
		C446.2,119.9,454.8,134.8,454.8,150.8z M236,477.5l180.4-105.3c4-2.3,6.4-6.5,6.4-11.2V150.8c0-4.6-2.5-8.9-6.5-11.2L236,34.4
		c-2.1-1.2-4.4-1.8-6.7-1.8c-2.3,0-4.6,0.6-6.7,1.8L42.4,139.5c-4,2.3-6.4,6.5-6.4,11.2v210.4c0,4.5,2.5,8.9,6.5,11.3l180.2,105.2
		c2,1.1,4.3,1.8,6.6,1.8S234,478.7,236,477.5z M345.6,249.6L320,263.3c-1.1,0.6-1.8,1.6-1.9,2.8c-0.2,2.7-0.6,5.2-1,7.4
		c-9.3,45.2-53.7,74.3-98.8,65c-45.2-9.3-74.3-53.7-65-98.8c9.3-45.2,53.7-74.3,98.8-65c5,1,10.7,3,16.4,5.6c1,0.5,2.2,0.4,3.2-0.1
		l26.7-14.3c2.4-1.3,2.6-4.7,0.3-6.2c-12.1-8-25.7-13.6-40.1-16.6c-30.2-6.2-61.2-0.3-87,16.7c-25.9,17-43.6,43-49.8,73.3
		c-4.5,21.5-2.7,43.4,4.8,63.6l-48.2,25.2c-7.8,4.1-11.2,13.6-7.3,21.5c2.8,5.7,8.5,8.9,14.4,8.9c2.5,0,5-0.6,7.4-1.8l48.9-25.6
		c17,23.3,41.7,39.2,70,45.1c7.9,1.6,15.7,2.4,23.6,2.4c22.4,0,44.3-6.5,63.4-19.1c25.9-17,43.6-43,49.8-73.3
		c1.9-9.1,2.7-18.3,2.4-27.4C350.8,250,348,248.3,345.6,249.6z M387.9,172.6c-4.2-7.8-13.9-10.7-21.7-6.6l-97.7,52.2
		c-6.5-5.7-14.4-9.9-23.5-11.7c-27.7-5.7-54.8,12.1-60.5,39.8c-5.7,27.7,12.1,54.8,39.8,60.5c27.7,5.7,54.8-12.1,60.5-39.8
		c1.5-7.2,1.4-14.4-0.1-21.2l96.6-51.6C389.1,190,392.1,180.3,387.9,172.6z"/>
</g>
<g id="Paths" class="st1">
	<path class="st2" d="M340.9,233c3.4,15,3.5,30.3,0.3,45.5c-12.1,58.5-69.5,96.2-128,84.2s-96.2-69.5-84.2-128
		c12.1-58.5,69.5-96.2,128-84.2c19.9,4.1,38.1,13.6,52.7,27.6l-16.2,8.5c-10.9-8.3-26.4-16.5-40-19.3
		c-49.2-10.2-97.5,21.6-107.7,70.8c-10.2,49.2,21.6,97.5,70.8,107.7s97.5-21.6,107.7-70.8c2.1-10.3,1.9-23.4,0.5-33.7L340.9,233z"/>
	<g class="st3">
		<line class="st0" x1="272.9" y1="234" x2="373.8" y2="180.1"/>
		<line class="st4" x1="272.9" y1="234" x2="373.8" y2="180.1"/>
		<line class="st5" x1="272.9" y1="234" x2="373.8" y2="180.1"/>
	</g>
	<line class="st6" x1="85.4" y1="336.3" x2="139.8" y2="307.8"/>
	<circle class="st7" cx="234.7" cy="256.6" r="51.2"/>
</g>
</svg>
