<?xml version="1.0" encoding="UTF-8"?>
<svg id="Layer_1" data-name="Layer 1" xmlns="http://www.w3.org/2000/svg" viewBox="0 0 458.7 512">
  <defs>
    <style>
      .cls-1 {
        stroke-width: 0px;
      }
    </style>
  </defs>
  <path class="cls-1" d="m452.17,204.89h-40v-53.45l-46.29-26.73,20-34.64,56.29,32.5c6.19,3.57,10,10.17,10,17.32v65ZM229.35,45.89l46.29,26.73,20-34.64L239.35,5.48c-6.19-3.57-13.81-3.57-20,0l-56.29,32.5,20,34.64,46.29-26.73ZM46.53,151.44l46.29-26.73-20-34.64-56.29,32.5c-6.19,3.57-10,10.17-10,17.32v65h40v-53.45Zm46.29,237.82l-46.29-26.73v-53.45H6.53v65c0,7.15,3.81,13.75,10,17.32l56.29,32.5,20-34.64Zm146.53,119.24l56.29-32.5-20-34.64-46.29,26.73-46.29-26.73-20,34.64,56.29,32.5c3.09,1.79,6.55,2.68,10,2.68s6.91-.89,10-2.68Zm202.82-117.1c6.19-3.57,10-10.17,10-17.32v-65h-40v53.45l-46.29,26.73,20,34.64,56.29-32.5Zm-280.47-77.2c-6.64-1.22-12.74-2.77-18-4.64-6.23-2.23-9.58-4.3-11.13-5.44v-21.8c4.15,1.5,8.6,2.83,13.29,3.99,5.03,1.23,10.34,2.26,15.85,3.09v-23.46c-3.57-.62-7.02-1.34-10.31-2.16-7.43-1.83-13.9-4.1-18.83-6.61v-23.28c4.15,1.5,8.61,2.83,13.29,3.99,5.04,1.23,10.34,2.25,15.85,3.09v-23.45c-3.57-.62-7.02-1.34-10.31-2.16-7.43-1.83-13.9-4.1-18.83-6.61v-30.85c1.51-1.12,4.81-3.16,11.12-5.43,13.6-4.83,32.72-7.6,52.51-7.65,1.76-.66,3.59-1.3,5.5-1.93,17.78-5.84,38.93-8.93,62.9-9.23-15.87-7.37-40.2-12-67.96-12-48.92,0-87.24,14.39-87.24,32.76v133.16c0,13.68,21.25,25.15,52.29,30.11v-23.51Zm106.69-49.35c-16.81,0-33.16-1.46-48.61-4.35-12.28-2.28-22.87-5.7-31.58-10.18v31.01c0,4.92,7.73,10.16,21.77,14.76,16.04,5.27,35.7,7.93,58.43,7.93s42.37-2.67,58.43-7.93c14.04-4.61,21.77-9.85,21.77-14.76v-31.01c-8.71,4.48-19.29,7.9-31.58,10.18-15.46,2.89-31.82,4.35-48.61,4.35Zm58.43-76.76c-16.05-5.26-35.71-7.93-58.43-7.93s-42.38,2.67-58.42,7.93c-13.83,4.54-21.77,9.92-21.77,14.76v17.87c0,4.92,7.73,10.16,21.77,14.76,16.04,5.27,35.7,7.93,58.43,7.93s42.37-2.67,58.43-7.93c14.04-4.61,21.77-9.85,21.77-14.76v-17.87c0-4.84-7.93-10.22-21.77-14.76Zm-116.85,168.6c16.04,5.27,35.7,7.93,58.43,7.93s42.38-2.67,58.43-7.93c14.04-4.61,21.77-10.12,21.77-15.54v-30.99c-8.68,4.51-19.24,8.04-31.51,10.54,0,0,0,0,0,0-15.51,3.15-31.89,4.75-48.68,4.75s-33.18-1.6-48.68-4.75c-12.27-2.49-22.83-6.03-31.51-10.54v30.99c0,5.42,7.73,10.93,21.77,15.54Z"/>
</svg>