<?xml version="1.0" encoding="UTF-8"?>
<svg id="Layer_1" data-name="Layer 1" xmlns="http://www.w3.org/2000/svg" viewBox="0 0 458.7 512">
  <defs>
    <style>
      .cls-1 {
        stroke-width: 0px;
      }
    </style>
  </defs>
  <path class="cls-1" d="m452.16,205.06h-44v-52.3l-45.29-26.15,22-38.11,56.29,32.5c6.81,3.93,11,11.19,11,19.05v65ZM296.64,37.57L240.35,5.07c-6.81-3.93-15.19-3.93-22,0l-56.29,32.5,22,38.11,45.29-26.15,45.29,26.15,22-38.11ZM50.54,152.77l45.29-26.15-22-38.11-56.29,32.5c-6.81,3.93-11,11.19-11,19.05v65h44v-52.3Zm45.29,232.62l-45.29-26.15v-52.3H6.54v65c0,7.86,4.19,15.12,11,19.05l56.29,32.5,22-38.11Zm144.52,121.54l56.29-32.5-22-38.11-45.29,26.15-45.29-26.15-22,38.11,56.29,32.5c3.4,1.96,7.2,2.95,11,2.95s7.6-.98,11-2.95Zm200.81-115.94c6.81-3.93,11-11.19,11-19.05v-65h-44v52.3l-45.29,26.15,22,38.11,56.29-32.5Zm-305.61-90.44v38.03c0,8.75,14.26,15.26,26.23,19.18,18.92,6.21,42.09,9.36,68.86,9.36s49.92-3.15,68.86-9.36c11.96-3.93,26.23-10.44,26.23-19.18v-38.03c-10.37,5.62-23.17,10-38.17,13.05h0c-18.13,3.69-37.28,5.56-56.91,5.56s-38.8-1.87-56.92-5.56c-15-3.05-27.8-7.43-38.17-13.05Zm0-73.11v38.04c0,6.24,9.31,12.73,26.23,18.27,18.92,6.21,42.09,9.36,68.86,9.36s49.92-3.15,68.86-9.36c16.91-5.55,26.23-12.04,26.23-18.27v-38.04c-10.4,5.59-23.22,9.83-38.24,12.62-18.08,3.38-37.21,5.09-56.85,5.09s-38.78-1.71-56.85-5.09c-15.01-2.79-27.84-7.02-38.24-12.62Zm95.09-84.56c-26.77,0-49.94,3.15-68.86,9.36-16.91,5.55-26.23,12.04-26.23,18.27v20.97c0,6.24,9.31,12.73,26.23,18.27,18.92,6.21,42.09,9.36,68.86,9.36s49.92-3.15,68.86-9.36c16.91-5.55,26.23-12.04,26.23-18.27v-20.97c0-6.23-9.32-12.72-26.23-18.27-18.94-6.21-42.1-9.36-68.86-9.36Z"/>
</svg>