<?xml version="1.0" encoding="utf-8"?>
<!-- Generator: Adobe Illustrator 26.0.1, SVG Export Plug-In . SVG Version: 6.00 Build 0)  -->
<svg version="1.1" id="Layer_1" xmlns="http://www.w3.org/2000/svg" xmlns:xlink="http://www.w3.org/1999/xlink" x="0px" y="0px"
	 viewBox="0 0 493.9 512" style="enable-background:new 0 0 493.9 512;" xml:space="preserve">
<path d="M431.6,251.9v-103c33.1-7.3,57.9-36.9,57.9-72.1c0-40.7-33.2-73.9-73.9-73.9c-35.7,0-65.5,25.4-72.4,59.1L230.3,72.5
	c-9.7-29.5-37.5-50.9-70.2-50.9c-40.7,0-73.9,33.2-73.9,73.9c0,24.4,11.9,46.2,30.3,59.6l-27.8,65.2c-3.3-0.4-6.6-0.7-10-0.7
	c-40.7,0-73.9,33.2-73.9,73.9s33.2,73.9,73.9,73.9c13.9,0,26.8-3.8,37.9-10.5l40.8,39.8c-7.5,11.5-11.8,25.3-11.8,40
	c0,40.7,33.2,73.9,73.9,73.9s73.9-33.2,73.9-73.9c0-4.3-0.4-8.5-1.1-12.5l77.2-42.5c12.6,10.1,28.7,16.2,46.1,16.2
	c40.7,0,73.9-33.2,73.9-73.9C489.5,288.7,464.7,259.2,431.6,251.9z M415.6,31.8c24.8,0,44.9,20.1,44.9,44.9s-20.1,44.9-44.9,44.9
	s-44.9-20.1-44.9-44.9S390.8,31.8,415.6,31.8z M115.2,95.5c0-24.8,20.1-44.9,44.9-44.9S205,70.7,205,95.5s-20.1,44.9-44.9,44.9
	S115.2,120.3,115.2,95.5z M78.7,338.4c-24.8,0-44.9-20.1-44.9-44.9s20.1-44.9,44.9-44.9s44.9,20.1,44.9,44.9S103.5,338.4,78.7,338.4
	z M118.8,231.5l27-63.5c4.6,0.9,9.4,1.4,14.3,1.4c15.1,0,29.2-4.6,40.9-12.4l147.5,136.2c-1.5,3.2-2.7,6.5-3.7,10l-192.5-16.9
	C150,263.3,137.2,243.4,118.8,231.5z M219.5,481.6c-24.8,0-44.9-20.1-44.9-44.9s20.1-44.9,44.9-44.9s44.9,20.1,44.9,44.9
	S244.3,481.6,219.5,481.6z M280,394.4c-13.3-19.1-35.5-31.6-60.5-31.6c-14.4,0-27.9,4.2-39.3,11.4l-40.3-39.3
	c3.5-5.2,6.4-10.9,8.5-16.9l194.1,17.1c1.1,7.5,3.4,14.7,6.6,21.3L280,394.4z M367.9,267.5L223.2,134c5.4-8.8,9-18.9,10.3-29.6
	L343.8,94c6.5,27.3,28.3,48.7,55.8,54.8v103C387.7,254.4,376.9,259.9,367.9,267.5z M415.6,368.9c-24.8,0-44.9-20.1-44.9-44.9
	s20.1-44.9,44.9-44.9s44.9,20.1,44.9,44.9S440.4,368.9,415.6,368.9z M131.4,95.5c0-15.9,12.8-28.7,28.7-28.7s28.7,12.8,28.7,28.7
	s-12.8,28.7-28.7,28.7S131.4,111.4,131.4,95.5z M386.9,76.7c0-15.9,12.8-28.7,28.7-28.7s28.7,12.8,28.7,28.7s-12.8,28.7-28.7,28.7
	S386.9,92.6,386.9,76.7z M444.3,324c0,15.9-12.8,28.7-28.7,28.7s-28.7-12.8-28.7-28.7s12.8-28.7,28.7-28.7S444.3,308.1,444.3,324z
	 M248.2,436.7c0,15.9-12.8,28.7-28.7,28.7s-28.7-12.8-28.7-28.7s12.8-28.7,28.7-28.7S248.2,420.8,248.2,436.7z M107.3,295.4
	c-1.1,15.8-14.7,27.8-30.5,26.7c-15.8-1-27.8-14.7-26.7-30.5s14.7-27.8,30.5-26.7C96.4,265.9,108.4,279.6,107.3,295.4z"/>
</svg>
