<?xml version="1.0" encoding="utf-8"?>
<!-- Generator: Adobe Illustrator 26.0.1, SVG Export Plug-In . SVG Version: 6.00 Build 0)  -->
<svg version="1.1" id="Layer_1" xmlns="http://www.w3.org/2000/svg" xmlns:xlink="http://www.w3.org/1999/xlink" x="0px" y="0px"
	 viewBox="0 0 640 512" style="enable-background:new 0 0 640 512;" xml:space="preserve">
<style type="text/css">
	.st0{fill:#ED1C24;}
</style>
<path class="st0" d="M500.8,155v156.6l-35.7,12.5V142.5l-107.4-37.4v256.5L321.9,374V92.5l-53.6-18.7l-53.7,18.7V374l-35.7-12.4
	V105.1L71.6,142.5v181.6l-35.8-12.5V155L0,167.5V337l107.3,37.5V167.9l35.8-12.5V387l107.3,37.4V118l17.9-6.3l17.9,6.3v306.4
	L393.5,387V155.4l35.8,12.5v206.6L536.6,337V167.5L500.8,155z M599.9,291.6v-9.3h7c3.5,0,5.8,1.7,5.8,4.6c0,2.8-2,4.6-5.8,4.6
	L599.9,291.6L599.9,291.6z M591.7,308.9h8.2v-10.6h5.2l7.2,10.6h9.8l-8.5-12c4.4-1.5,7.4-5,7.4-10.4c0-7.6-5.7-11.1-13.5-11.1h-15.7
	v33.5H591.7z M605.1,321.6c-16.3,0-28.5-13-28.5-28.7v-0.2c0-15.7,12.4-28.9,28.5-28.9c16.3,0,28.5,13,28.5,28.7v0.2
	C633.6,308.5,621.2,321.6,605.1,321.6 M605.1,325.2c18,0,32.2-14.8,32.2-32.4v-0.2c0-17.6-14.1-32.2-32.2-32.2
	c-18,0-32.2,14.8-32.2,32.4v0.2C572.9,310.5,586.9,325.2,605.1,325.2"/>
</svg>
