<?xml version="1.0" encoding="utf-8"?>
<!-- Generator: Adobe Illustrator 26.0.1, SVG Export Plug-In . SVG Version: 6.00 Build 0)  -->
<svg version="1.1" id="Layer_1" xmlns="http://www.w3.org/2000/svg" xmlns:xlink="http://www.w3.org/1999/xlink" x="0px" y="0px"
	 viewBox="0 0 512 512" style="enable-background:new 0 0 512 512;" xml:space="preserve">
<style type="text/css">
	.st0{fill:#ED1C24;}
</style>
<path class="st0" d="M150.9,254.3V206c22.6,15.5,63.8,22.8,105,22.8v59.8C197.8,288.6,150.9,273.2,150.9,254.3z M255.9,213.4v-90
	c-58.1,0-105,15.4-105,34.3v21.4C150.9,198,197.8,213.4,255.9,213.4z M255.9,303.8c-41.2,0-82.4-7.3-105-22.8v48.3
	c0,18.9,46.9,34.3,105,34.3V303.8z M486.1,113.2v50c0,1-0.1,2-0.2,3V257c0,66.7-26.1,123.5-77.4,168.7
	c-41.4,36.5-89.7,57.3-121.6,71c-3.5,1.5-6.7,2.9-9.7,4.2c-0.1,0-0.1,0-0.2,0.1c-6.7,2.9-13.9,4.3-21.1,4.3s-14.4-1.4-21.1-4.3
	c-0.1,0-0.1,0-0.2-0.1c-3-1.3-6.2-2.7-9.7-4.2c-31.9-13.8-80.2-34.5-121.6-71c-51.4-45.2-77.4-102-77.4-168.7V113.1
	c0-18.4,11.6-34.7,28.9-40.7L238.1,8.3l0,0c11.6-4,23.9-4,35.6,0l183.5,64.1c0,0,0.1,0,0.1,0.1C474.6,78.6,486.1,95,486.1,113.2z
	 M255.9,461.3v-97.7c0,0,0,0,0.1,0c58.1,0,105.1-15.4,105.1-34.3V281c-22.6,15.6-64,22.7-105.1,22.8c0,0,0,0-0.1,0v-15.2
	c0,0,0,0,0.1,0c58.1,0,105.1-15.4,105.1-34.3V206c-22.6,15.5-64,22.7-105.1,22.8l0,0v-15.4l0,0c58.1,0,105.1-15.4,105.1-34.3v-21.4
	c0-18.9-47-34.3-105.1-34.3l0,0V49.3c-1.1,0-2.2,0.2-3.4,0.6L69.9,113.8V257c0,54.3,20.4,98.7,62.5,135.7
	c36.2,31.8,80.5,51,109.9,63.6c3.5,1.5,6.8,2.9,9.9,4.3C253.3,461.1,254.6,461.4,255.9,461.3z"/>
</svg>
