<?xml version="1.0" encoding="UTF-8"?><svg id="Layer_1" xmlns="http://www.w3.org/2000/svg" viewBox="0 0 512 512"><defs><style>.cls-1{fill:#ed1c24;}</style></defs><path class="cls-1" d="M396.8136,292.529c1.5711,.7856,2.6513,1.9639,3.2405,3.5351s.6874,3.1423,.2946,4.7134c-3.5351,10.998-8.1503,21.3086-13.8457,30.9318-5.6954,9.6232-12.2745,18.5591-19.7375,26.8076-1.1784,1.1784-2.5531,1.8657-4.1242,2.0621-1.5711,.1964-3.1423-.0982-4.7134-.8838l-25.9238-14.7295c-5.499,4.7134-11.3908,8.8377-17.6753,12.3727-6.2846,3.5351-12.7655,6.481-19.4429,8.8377v30.0481c0,1.5711-.491,3.0441-1.4729,4.4188-.982,1.3747-2.4549,2.2585-4.4188,2.6513-10.6052,2.3567-21.505,3.5351-32.6994,3.5351s-22.2906-1.1784-33.2886-3.5351c-1.9639-.3928-3.4369-1.2766-4.4188-2.6513-.982-1.3747-1.4729-2.8477-1.4729-4.4188v-30.0481c-6.6774-2.3567-13.1583-5.3026-19.4429-8.8377-6.2846-3.5351-12.1763-7.6593-17.6753-12.3727l-25.9238,14.7295c-1.5711,.7856-3.1423,1.0802-4.7134,.8838-1.5711-.1964-2.9459-.8838-4.1242-2.0621-7.4629-8.2485-14.0421-17.1844-19.7375-26.8076-5.6954-9.6232-10.3106-19.9339-13.8457-30.9318-.3928-1.5711-.2946-3.1423,.2946-4.7134s1.6693-2.7495,3.2405-3.5351l25.9238-15.3186c-1.1784-7.0701-1.7675-14.1403-1.7675-21.2104s.5892-14.1403,1.7675-21.2104l-25.9238-15.3186c-1.5711-.7856-2.6513-1.9639-3.2405-3.5351s-.6874-3.1423-.2946-4.7134c3.5351-10.998,8.1503-21.3086,13.8457-30.9318,5.6954-9.6232,12.2745-18.5591,19.7375-26.8076,1.1784-1.1784,2.5531-1.8657,4.1242-2.0621,1.5711-.1964,3.1423,.0982,4.7134,.8838l25.9238,14.7295c5.499-4.7134,11.3908-8.8377,17.6753-12.3727,6.2846-3.5351,12.7655-6.481,19.4429-8.8377v-30.0481c0-1.5711,.491-3.0441,1.4729-4.4188,.982-1.3747,2.4549-2.2585,4.4188-2.6513,10.6052-2.3567,21.505-3.5351,32.6994-3.5351s22.2906,1.1784,33.2886,3.5351c1.9639,.3928,3.4369,1.2766,4.4188,2.6513,.982,1.3747,1.4729,2.8477,1.4729,4.4188v30.0481c6.6774,2.3567,13.1583,5.3026,19.4429,8.8377,6.2846,3.5351,12.1763,7.6593,17.6753,12.3727l25.9238-14.7295c1.5711-.7856,3.1423-1.0802,4.7134-.8838,1.5711,.1964,2.9459,.8838,4.1242,2.0621,7.4629,8.2485,14.0421,17.1844,19.7375,26.8076,5.6954,9.6232,10.3106,19.9339,13.8457,30.9318,.3928,1.5711,.2946,3.1423-.2946,4.7134s-1.6693,2.7495-3.2405,3.5351l-25.9238,15.3186c1.1784,7.0701,1.7675,14.1403,1.7675,21.2104s-.5892,14.1403-1.7675,21.2104l25.9238,15.3186Zm-106.3466-2.3567c9.6232-9.4268,14.4349-20.8176,14.4349-34.1723s-4.8116-24.8437-14.4349-34.4669c-9.6232-9.6232-21.1122-14.4349-34.4669-14.4349s-24.8437,4.8116-34.4669,14.4349c-9.6232,9.6232-14.4349,21.1122-14.4349,34.4669s4.8116,24.7455,14.4349,34.1723c9.6232,9.4268,21.1122,14.1403,34.4669,14.1403s24.8437-4.7134,34.4669-14.1403ZM458.9,111.9938L278.7,6.7938c-14.1-8.2-31.4-8.2-45.5-.1L53,111.8938c-13.9,8-22.4,22.8-22.4,38.9v210.4c0,16,8.6,30.9,22.4,38.9l180.3,105.2c14,8.1,31.4,8.1,45.4,0l180.3-105.2c13.9-8,22.4-22.8,22.4-38.9V150.8938c0-16-8.6-30.9-22.5-38.9Zm-9.5,249.1c0,4.7-2.4,8.9-6.4,11.2l-180.4,105.3c-2,1.2-4.4,1.9-6.7,1.9s-4.6-.7-6.6-1.8l-180.2-105.2c-4-2.4-6.5-6.8-6.5-11.3V150.7938c0-4.7,2.4-8.9,6.4-11.2L249.2,34.4938c2.1-1.2,4.4-1.8,6.7-1.8s4.6,.6,6.7,1.8l180.3,105.2c4,2.3,6.5,6.6,6.5,11.2v210.2Z"/></svg>