<?xml version="1.0" encoding="utf-8"?>
<!-- Generator: Adobe Illustrator 26.0.1, SVG Export Plug-In . SVG Version: 6.00 Build 0)  -->
<svg version="1.1" id="Layer_5" xmlns="http://www.w3.org/2000/svg" xmlns:xlink="http://www.w3.org/1999/xlink" x="0px" y="0px"
	 viewBox="0 0 458.7 512" style="enable-background:new 0 0 458.7 512;" xml:space="preserve">
<style type="text/css">
	.st0{fill:none;}
	.st1{fill:#ED1C24;}
</style>
<path class="st0" d="M214.9,200.8l38,38c0.1,0,0.2,0,0.3,0l-38.3-38.3V200.8z"/>
<g>
	<path class="st1" d="M129.8,342.9c-3.5,0-6.4,1.2-8.8,3.6c-2.4,2.4-3.6,5.4-3.6,8.8c0,3.5,1.2,6.4,3.6,8.8c2.4,2.4,5.4,3.6,8.8,3.6
		c3.5,0,6.4-1.2,8.8-3.6c2.4-2.4,3.6-5.4,3.6-8.8c0-3.5-1.2-6.4-3.6-8.8C136.2,344.2,133.3,342.9,129.8,342.9z"/>
	<path class="st1" d="M432.3,111.9L252.1,6.7c-14.1-8.2-31.4-8.2-45.5-0.1L26.4,111.8C12.5,119.8,4,134.6,4,150.7v210.4
		c0,16,8.6,30.9,22.4,38.9l180.3,105.2c14,8.1,31.4,8.1,45.4,0L432.4,400c13.9-8,22.4-22.8,22.4-38.9V150.8
		C454.8,134.8,446.2,119.9,432.3,111.9z M153.2,378.7c-6.6,6.6-14.4,9.9-23.6,9.9c-9.2,0-16.9-3.3-23.1-9.9
		c-6.6-6.2-9.9-13.9-9.9-23.1c0-9.2,3.3-17,9.9-23.6l68.1-68.5l27.1,27.1c-1,6.1-1.1,12.5-0.3,19c0.7,5.9,2.3,11.5,4.6,16.7
		L153.2,378.7z M351.2,361.1l-27.5,27.5c-3.5,3.8-7.9,5.7-13.2,5.7c-5.4,0-9.9-1.9-13.7-5.7l-60.7-60.7c-6.2-5.9-9.9-13-10.9-21.3
		c-1-8.3,0.2-15.9,3.6-22.8l-55.5-55.5h-32.2l-49.8-66.4l33.2-33.2l66.4,49.8v32.2l55.5,55.5c6.9-3.8,14.5-5.1,22.8-3.9
		c8.3,1.2,15.4,4.9,21.3,11.2l60.7,60.7c3.8,3.8,5.7,8.3,5.7,13.5C356.9,352.8,355,357.3,351.2,361.1z M359.8,217.2
		c-3.3,12.6-9.8,23.8-19.4,33.5c-3.5,3.5-7.1,6.4-10.9,8.8c-3.3,2.1-8.5,4.8-12.5,6.6l-9.3-9.3c-9.6-10-21.4-16.1-35-18.1
		c-3.2-0.5-6.3-0.7-9.4-0.7c-3.4,0-6.8,0.3-10.1,0.9l-38.3-38.3v-19.2c0.8-3.7,1.9-7.3,3.3-10.9c3.6-9.3,9.1-17.8,16.3-25.4
		c9.7-9.7,20.8-16.1,33.5-19.2c12.6-3.1,25.2-3.3,37.6-0.5c2.4,0.7,3.9,2.3,4.4,4.7c0.5,2.4-0.1,4.5-1.8,6.2l-38.4,38.4l5.7,35.3
		l35.3,5.7l38.9-38.4c1.7-1.7,3.7-2.3,6-1.8c2.2,0.5,3.7,2,4.4,4.4C363.2,192,363.1,204.6,359.8,217.2z"/>
</g>
</svg>
