<?xml version="1.0" encoding="utf-8"?>
<!-- Generator: Adobe Illustrator 26.0.1, SVG Export Plug-In . SVG Version: 6.00 Build 0)  -->
<svg version="1.1" xmlns="http://www.w3.org/2000/svg" xmlns:xlink="http://www.w3.org/1999/xlink" x="0px" y="0px"
	 viewBox="0 0 458.7 512" style="enable-background:new 0 0 458.7 512;" xml:space="preserve">
<style type="text/css">
	.st0{fill:#ED1C24;}
</style>
<g id="Layer_5">
</g>
<g id="Layer_1">
	<path class="st0" d="M454.8,150.8v210.3c0,16.1-8.5,30.9-22.4,38.9L252.1,505.2c-14,8.1-31.4,8.1-45.4,0L26.4,400
		C12.6,392,4,377.1,4,361.1V150.7c0-16.1,8.5-30.9,22.4-38.9L206.6,6.6c14.1-8.1,31.4-8.1,45.5,0.1l180.2,105.2
		C446.2,119.9,454.8,134.8,454.8,150.8z M379,157.7L236.7,75.6c-5-2.9-11.1-2.9-16,0L78.4,157.7c-5,2.9-8,8.1-8,13.9v164.3
		c0,5.7,3,11,8,13.9l142.3,82.2c2.5,1.4,5.2,2.1,8,2.1s5.5-0.7,8-2.1L379,349.7c5-2.9,8-8.1,8-13.9V171.6
		C387,165.9,383.9,160.6,379,157.7z M228.7,107.9l112,64.6l-111,67.2L115,173.5L228.7,107.9z M102.4,203.1l111.5,64.4V391
		l-111.5-64.4V203.1z M245.8,389.7V267.3l109.1-66v125.4L245.8,389.7z"/>
</g>
</svg>
