<?xml version="1.0" encoding="utf-8"?>
<!-- Generator: Adobe Illustrator 26.0.1, SVG Export Plug-In . SVG Version: 6.00 Build 0)  -->
<svg version="1.1" id="Layer_1" xmlns="http://www.w3.org/2000/svg" xmlns:xlink="http://www.w3.org/1999/xlink" x="0px" y="0px"
	 viewBox="0 0 458.7 512" style="enable-background:new 0 0 458.7 512;" xml:space="preserve">
<style type="text/css">
	.st0{display:none;}
	.st1{display:inline;fill:none;}
	.st2{display:inline;fill:#FFFFFF;stroke:#FFFFFF;stroke-width:0.25;stroke-miterlimit:10;}
	.st3{display:inline;fill:none;stroke:#000000;stroke-miterlimit:10;}
	.st4{fill:#ED1C24;}
</style>
<g id="Layer_4">
</g>
<g id="Layer_2_00000168810913303347386790000010400940529852195227_">
</g>
<g id="Layer_3" class="st0">
	<polygon class="st1" points="387.7,164.6 229.4,73.2 71,164.6 71,347.4 229.4,438.8 387.7,347.4 	"/>
</g>
<g id="full_pieces_00000036231335901432198690000003849729600452322494_" class="st0">
	<path class="st2" d="M120.8,420.3H76.9c-3.1,0-5.7-2.5-5.7-5.7V254.5c0-3.1,2.5-5.7,5.7-5.7h43.9c3.1,0,5.7,2.5,5.7,5.7v160.1
		C126.5,417.7,123.9,420.3,120.8,420.3z"/>
	<path class="st2" d="M207.9,448.1H164c-3.1,0-5.7-2.5-5.7-5.7v-219c0-3.1,2.5-5.7,5.7-5.7h43.9c3.1,0,5.7,2.5,5.7,5.7v219
		C213.6,445.6,211.1,448.1,207.9,448.1z"/>
	<path class="st2" d="M295.1,449h-43.9c-3.1,0-5.7-2.5-5.7-5.7V146.6c0-3.1,2.5-5.7,5.7-5.7h43.9c3.1,0,5.7,2.5,5.7,5.7v296.7
		C300.7,446.5,298.2,449,295.1,449z"/>
	<path class="st2" d="M382.2,398.2h-43.9c-3.1,0-5.7-2.5-5.7-5.7V177.4c0-3.1,2.5-5.7,5.7-5.7h43.9c3.1,0,5.7,2.5,5.7,5.7v215.1
		C387.9,395.6,385.2,398.2,382.2,398.2z"/>
</g>
<g id="crop_00000027578958595600305850000008276931184452886708_" class="st0">
	<path class="st3" d="M379.6,160.4L237.4,78.3c-5-2.9-11.1-2.9-16,0L79.1,160.4c-5,2.9-8,8.1-8,13.9v164.3c0,5.7,3,11,8,13.9
		l142.3,82.2c2.5,1.4,5.2,2.1,8,2.1s5.5-0.7,8-2.1l142.3-82.3c5-2.9,8-8.1,8-13.9V174.3C387.6,168.6,384.5,163.3,379.6,160.4z"/>
</g>
<path class="st4" d="M432.2,112L252.1,6.8c-14.1-8.2-31.4-8.2-45.5-0.1L26.4,111.9C12.5,119.9,4,134.7,4,150.8v210.4
	c0,16,8.6,30.9,22.4,38.9l180.3,105.2c14,8.1,31.4,8.1,45.4,0l180.3-105.2c13.9-8,22.4-22.8,22.4-38.9V150.9
	C454.8,134.9,446.2,120,432.2,112z M229.4,479.4c-2.3,0-4.6-0.6-6.6-1.8L42.5,372.5c-4-2.3-6.5-6.7-6.5-11.3V150.8
	c0-4.7,2.4-8.9,6.4-11.2L222.6,34.4c2-1.2,4.3-1.8,6.7-1.8c2.4,0,4.7,0.6,6.7,1.8l180.3,105.3c4,2.3,6.5,6.5,6.5,11.1v210.3
	c0,4.7-2.4,8.9-6.4,11.2L236,477.6C234,478.8,231.7,479.4,229.4,479.4z"/>
<path class="st4" d="M352.4,173.2l-65.6-30c-4.9-2.3-9.1,0.6-9.1,6.4s4.2,12.1,9.1,13.9l65.6,24.4c2.5,1,4.5-1.6,4.5-5.5
	S354.8,174.3,352.4,173.2z M352.4,248.7l-123-4.9c-7.2-0.3-13.3,5.2-13.3,12.3s6.1,12.6,13.3,12.3l123-5c2.5-0.1,4.5-3.4,4.5-7.3
	C356.9,252.2,354.8,248.8,352.4,248.7z M352.4,324.2l-44.5,16.6c-4.1,1.5-7.5,7.2-7.5,12.4c0,5.2,3.4,8,7.5,6.2l44.5-20.4
	c2.5-1.1,4.5-5.2,4.5-9.2C356.9,325.7,354.8,323.3,352.4,324.2z M379.7,331.9c0,6.5-2.8,13.3-6.4,15.4l-144.8,82.3l-111.4-64
	l256.1-64.4c3.6-1,6.4,3.6,6.4,10.1L379.7,331.9L379.7,331.9z M379.7,266.9c0,6.5-2.8,12.2-6.4,12.8l-295,46V186.5l294.9,46
	c3.6,0.6,6.4,6.3,6.4,12.8L379.7,266.9L379.7,266.9z M379.7,200.8c0,6.5-2.8,11.1-6.4,10.1l-255.7-64.4l111.6-63.7l144.1,81.8
	c3.6,2,6.4,8.9,6.4,15.4V200.8z"/>
</svg>
