<?xml version="1.0" encoding="UTF-8"?>
<svg id="Layer_1" data-name="Layer 1" xmlns="http://www.w3.org/2000/svg" viewBox="0 0 458.7 512">
  <defs>
    <style>
      .cls-1 {
        stroke-width: 0px;
      }
    </style>
  </defs>
  <path class="cls-1" d="m229.35,130.81c2.26,0,4.52.49,6.59,1.43l92.59,39.29c10.82,4.57,18.88,15.24,18.83,28.13-.25,48.78-20.31,138.02-105.03,178.59-8.21,3.93-17.75,3.93-25.96,0-84.72-40.57-104.78-129.81-105.03-178.59-.05-12.88,8.01-23.55,18.83-28.13l92.64-39.29c2.02-.93,4.28-1.43,6.54-1.43Zm0,32.85v185.86c67.85-32.85,86.1-105.57,86.54-149.18l-86.54-36.68h0Zm222.82-24.75c0-7.15-3.81-13.75-10-17.32l-56.29-32.5-20,34.64,46.29,26.73v53.45h40v-65ZM229.35,44.9l46.29,26.73,20-34.64L239.35,4.49c-6.19-3.57-13.81-3.57-20,0l-56.29,32.5,20,34.64,46.29-26.73ZM46.53,150.45l46.29-26.73-20-34.64-56.29,32.5c-6.19,3.57-10,10.17-10,17.32v65h40v-53.45Zm46.29,237.82l-46.29-26.73v-53.45H6.53v65c0,7.15,3.81,13.75,10,17.32l56.29,32.5,20-34.64Zm146.53,119.24l56.29-32.5-20-34.64-46.29,26.73-46.29-26.73-20,34.64,56.29,32.5c3.09,1.79,6.55,2.68,10,2.68s6.91-.89,10-2.68Zm202.82-117.1c6.19-3.57,10-10.17,10-17.32v-65h-40v53.45l-46.29,26.73,20,34.64,56.29-32.5Z"/>
</svg>