<?xml version="1.0" encoding="utf-8"?>
<!-- Generator: Adobe Illustrator 25.4.1, SVG Export Plug-In . SVG Version: 6.00 Build 0)  -->
<svg version="1.1" id="Layer_1" xmlns="http://www.w3.org/2000/svg" xmlns:xlink="http://www.w3.org/1999/xlink" x="0px" y="0px"
	 viewBox="0 0 640 624.3" style="enable-background:new 0 0 640 624.3;" xml:space="preserve">
<path d="M576,192c35.3,0,64-28.7,64-64s-28.7-64-64-64s-64,28.7-64,64S540.7,192,576,192z M64,240c-35.3,0-64,28.7-64,64
	s28.7,64,64,64s64-28.7,64-64S99.3,240,64,240z M513.6,202.8l-19.2-25.6l-48,36l19.2,25.6L513.6,202.8z M576,384
	c-14.4,0-27.6,5-38.3,13l-96-57.6c3.8-11.2,6.3-23,6.3-35.5c0-61.9-50.1-112-112-112c-8.4,0-16.6,1.1-24.4,2.9l-40.8-87.4
	C281.4,96,288,80.8,288,64c0-35.3-28.7-64-64-64s-64,28.7-64,64s28.7,64,64,64c1.1,0,2.1-0.3,3.2-0.3l41,87.8
	C241.5,235.9,224,267.8,224,304c0,61.9,50.1,112,112,112c32.1,0,60.8-13.7,81.2-35.3l95.8,57.5c-0.5,3.2-1,6.5-1,9.8
	c0,35.3,28.7,64,64,64s64-28.7,64-64S611.3,384,576,384z M336,352c-26.5,0-48-21.5-48-48s21.5-48,48-48s48,21.5,48,48
	S362.5,352,336,352z M152,320h48v-32h-48V320z M165.6,526.9c-14.3,32.3,0.2,70.1,32.5,84.5c32.3,14.3,70.1-0.2,84.5-32.5
	c14.3-32.3-0.2-70.1-32.5-84.5S180,494.7,165.6,526.9z M274.5,479l19.5-43.9l-29.2-13L245.2,466L274.5,479z"/>
</svg>
