<?xml version="1.0" encoding="utf-8"?>
<!-- Generator: Adobe Illustrator 26.0.1, SVG Export Plug-In . SVG Version: 6.00 Build 0)  -->
<svg version="1.1" id="Layer_1" xmlns="http://www.w3.org/2000/svg" xmlns:xlink="http://www.w3.org/1999/xlink" x="0px" y="0px"
	 viewBox="0 0 640 512" style="enable-background:new 0 0 640 512;" xml:space="preserve">
<style type="text/css">
	.st0{fill:#ED1C24;}
</style>
<path class="st0" d="M161.5,408.6h-53.3C49,408.6,1,360.7,1,301.5c0-46.7,29.9-86.4,71.6-101.1c-0.1-2-0.1-4-0.1-6
	c0-65.8,53.3-119,119-119c29.2,0,56,10.5,76.7,28c-2.1,1.6-4.2,3.2-6.3,4.9c-24.4,20-42.5,46.7-52,76.5
	c-21.3,11.5-39.5,28-53.2,48.2c-16.9,25.1-25.8,54.3-25.8,84.6c0,20.4,4,40.2,11.9,58.8C147.7,387.9,154,398.7,161.5,408.6z
	 M639,329.5c0,59.1-48,107.1-107.1,107.1h-250c-65.8,0-119-53.3-119-119c0-48.8,29.7-92.2,74.2-110.2c12.5-59.6,65.2-104,128.2-104
	c41.7,0,78.6,19.6,102.4,49.3c5.4-1.1,11-1.7,16.7-1.7c44.2,0,80.1,34.3,83.1,77.4C609.8,243.4,639,283.5,639,329.5z M603.3,329.5
	c0-39.4-32-71.4-71.4-71.4c-2.2,0-4.4,0.1-6.5,0.3c4.2-7.1,6.5-15.3,6.5-24.1c0-26.3-21.3-47.6-47.6-47.6
	c-11.8,0-22.6,4.3-30.9,11.5c-14.2-34.7-48.3-59.1-88.1-59.1c-52.6,0-95.2,42.6-95.2,95.2v0.8c-40.4,5.8-71.4,40.5-71.4,82.5
	c0,46,37.3,83.3,83.3,83.3h249.9C571.3,400.9,603.3,368.9,603.3,329.5z M305,299.8v71.3c0,2.4-1.9,4.3-4.3,4.3h-20.2
	c-2.4,0-4.3-1.9-4.3-4.3v-71.3c0-2.4,1.9-4.3,4.3-4.3h20.2C303,295.5,304.9,297.4,305,299.8z M362.4,272.8v98.3
	c0,2.4-1.9,4.3-4.3,4.3h-20.2c-2.4,0-4.3-1.9-4.3-4.3v-98.3c0-2.4,1.9-4.3,4.3-4.3h20.2C360.4,268.6,362.3,270.5,362.4,272.8z
	 M419.8,211.1v160.1c0,2.4-1.9,4.3-4.3,4.3h-20.2c-2.4,0-4.3-1.9-4.3-4.3V211.1c0-2.4,1.9-4.3,4.3-4.3h20.2
	C417.8,206.8,419.8,208.7,419.8,211.1z M477.2,237.7v133.5c0,2.4-1.9,4.3-4.3,4.3h-20.2c-2.4,0-4.3-1.9-4.3-4.3V237.7
	c0-2.4,1.9-4.3,4.3-4.3h20.2C475.2,233.4,477.2,235.3,477.2,237.7z"/>
</svg>
