<?xml version="1.0" encoding="UTF-8"?>
<svg id="Layer_1" data-name="Layer 1" xmlns="http://www.w3.org/2000/svg" viewBox="0 0 458.7 512">
  <defs>
    <style>
      .cls-1 {
        stroke-width: 0px;
      }
    </style>
  </defs>
  <path class="cls-1" d="m452.17,203.9h-40v-53.45l-46.29-26.73,20-34.64,56.29,32.5c6.19,3.57,10,10.17,10,17.32v65ZM295.64,36.99L239.35,4.49c-6.19-3.57-13.81-3.57-20,0l-56.29,32.5,20,34.64,46.29-26.73,46.29,26.73,20-34.64ZM46.53,150.45l46.29-26.73-20-34.64-56.29,32.5c-6.19,3.57-10,10.17-10,17.32v65h40v-53.45Zm46.29,237.83l-46.29-26.73v-53.45H6.53v65c0,7.15,3.81,13.75,10,17.32l56.29,32.5,20-34.64Zm146.52,119.24l56.29-32.5-20-34.64-46.29,26.73-46.29-26.73-20,34.64,56.29,32.5c3.09,1.79,6.55,2.68,10,2.68s6.91-.89,10-2.68Zm202.82-117.1c6.19-3.57,10-10.17,10-17.32v-65h-40v53.45l-46.29,26.73,20,34.64,56.29-32.5Zm-87.86-99.14c8.42,12.18,5.37,28.88-6.81,37.3-8.88,6.14-20.17,6.18-28.89,1.02l-48.32,34.47c2.78,10.6-1.16,22.26-10.69,28.85-12.18,8.42-28.88,5.37-37.3-6.81-3.03-4.38-4.57-9.35-4.74-14.3l-63.76-26.43c-1.07,1.05-2.24,2.02-3.51,2.9-12.18,8.42-28.88,5.37-37.3-6.81-8.42-12.18-5.37-28.88,6.81-37.3.66-.45,1.33-.87,2.01-1.26l-5.89-69.9c-4.89-1.86-9.28-5.17-12.48-9.8-8.42-12.18-5.37-28.88,6.81-37.3,9.07-6.27,20.64-6.18,29.44-.69l61.18-41c-1.1-9.52,2.95-19.31,11.39-25.14,12.18-8.42,28.88-5.37,37.3,6.81,3.54,5.12,5.04,11.04,4.71,16.8l61.86,35c.59-.49,1.2-.96,1.84-1.4,12.18-8.42,28.88-5.37,37.3,6.81,8.42,12.18,5.37,28.88-6.81,37.3-1.74,1.2-3.57,2.16-5.46,2.9l-.51,58.45c4.63,1.9,8.78,5.11,11.83,9.53Zm-47.88,22.44c-.03-.11-.07-.23-.1-.34l-71.89-11.55c-1.2,2.14-2.7,4.14-4.5,5.92l15.01,36.33c4.71.11,9.34,1.46,13.4,3.94l48.07-34.29Zm-154.47-112.63l73.39,8.53c1.9-3.7,4.69-7,8.31-9.57l-9.66-32.33c-4.89-.65-9.59-2.64-13.51-5.86l-58.53,39.22Zm152.58,91.75l-45.67-45.95c-4.45,1.73-9.21,2.2-13.77,1.49l-13.63,22.98c.57.68,1.12,1.39,1.64,2.13,1.84,2.66,3.13,5.53,3.9,8.49l67.54,10.85Zm-151.45-71.48l48.5,42.3c3.93-1.48,8.08-1.99,12.13-1.58l14.17-23.89c-.26-.34-.51-.69-.76-1.04-1.65-2.39-2.86-4.96-3.65-7.6l-70.4-8.18Zm169.38,60.22l.51-58.45c-4.25-1.75-8.09-4.59-11.06-8.47l-36.05,9.7c-.28,3.06-1.09,6.06-2.39,8.85l48.33,48.62c.22-.09.44-.18.66-.26Zm-15.9-86.29l-60.89-34.45c-.73.67-1.5,1.3-2.31,1.9l9.76,32.65c6.51.97,12.65,4.33,17.01,9.81l36.42-9.8s0-.07.01-.11Zm-170.57,37.7l5.67,67.27c3.58.91,6.98,2.55,9.95,4.89l32.65-15.19c-.19-4.35.68-8.71,2.54-12.66l-50.81-44.31Zm25.85,94.07l62.54,25.93c.58-.65,1.2-1.27,1.85-1.86l-14.71-35.58c-6.92.12-13.78-2.44-18.96-7.38l-30.96,14.4c.21,1.5.29,3.01.24,4.51Z"/>
</svg>