<?xml version="1.0" encoding="UTF-8"?>
<svg xmlns="http://www.w3.org/2000/svg" version="1.1" viewBox="0 0 458.7 512">
  <!-- Generator: Adobe Illustrator 28.6.0, SVG Export Plug-In . SVG Version: 1.2.0 Build 709)  -->
  <g>
    <g id="Layer_1">
      <path d="M452.2,203.9h-40v-53.4l-46.3-26.7,20-34.6,56.3,32.5c6.2,3.6,10,10.2,10,17.3v65h0ZM295.6,37L239.4,4.5c-6.2-3.6-13.8-3.6-20,0l-56.3,32.5,20,34.6,46.3-26.7,46.3,26.7,20-34.6h0ZM46.5,150.4l46.3-26.7-20-34.6-56.3,32.5c-6.2,3.6-10,10.2-10,17.3v65h40v-53.4h0ZM92.8,388.3l-46.3-26.7v-53.5H6.5v65c0,7.1,3.8,13.8,10,17.3l56.3,32.5,20-34.6h0ZM239.3,507.5l56.3-32.5-20-34.6-46.3,26.7-46.3-26.7-20,34.6,56.3,32.5c3.1,1.8,6.6,2.7,10,2.7s6.9-.9,10-2.7h0ZM442.2,390.4c6.2-3.6,10-10.2,10-17.3v-65h-40v53.5l-46.3,26.7,20,34.6,56.3-32.5h0ZM333.7,218.9c-10.2,0-18.9,6.1-22.9,14.8l-36.3,2.4c-4.4-12.2-14.1-21.8-26.3-26.1l2.4-39.3c7.9-4.1,13.3-12.4,13.3-21.9,0-13.6-11-24.7-24.7-24.7s-24.7,11-24.7,24.7,4.8,16.8,12,21.2l-2.4,38.7c-8.7,1.9-16.4,6.5-22.2,12.8l-52.5-27.3c-.4-13.3-11.3-23.9-24.6-23.9s-24.7,11-24.7,24.7,11,24.7,24.7,24.7,9.7-1.5,13.6-4.1l52.7,27.4c-.5,2.6-.8,5.3-.8,8.1,0,9.8,3.2,18.8,8.7,26l-19.4,25.5c-1.1-.2-2.3-.3-3.5-.3-13.6,0-24.7,11-24.7,24.7s11,24.7,24.7,24.7,24.7-11,24.7-24.7-.7-6.9-2.1-9.9l19.5-25.6c4.8,1.9,10.1,2.9,15.5,2.9s5.6-.3,8.3-.8l15.7,30.2c-2.7,4-4.3,8.8-4.3,14,0,13.8,11.2,25.1,25.1,25.1s25.1-11.2,25.1-25.1-10.9-24.8-24.5-25l-15.7-30.1c6.3-5.9,10.8-13.7,12.7-22.4l36.6-2.5c4.5,6.8,12.2,11.4,21,11.4,13.8,0,25.1-11.2,25.1-25.1s-11.2-25.1-25.1-25.1h0Z"/>
    </g>
  </g>
</svg>