<?xml version="1.0" encoding="utf-8"?>
<!-- Generator: Adobe Illustrator 26.0.1, SVG Export Plug-In . SVG Version: 6.00 Build 0)  -->
<svg version="1.1" xmlns="http://www.w3.org/2000/svg" xmlns:xlink="http://www.w3.org/1999/xlink" x="0px" y="0px"
	 viewBox="0 0 458.7 512" style="enable-background:new 0 0 458.7 512;" xml:space="preserve">
<style type="text/css">
	.st0{fill:#ED1C24;}
	.st1{display:none;}
	.st2{display:inline;fill:none;stroke:#FFFFFF;stroke-width:32;stroke-miterlimit:10;}
	.st3{display:inline;}
	.st4{fill:#FFFFFF;}
	.st5{display:inline;fill:#ED1C24;stroke:#FFFFFF;stroke-width:32;stroke-miterlimit:10;}
</style>
<g id="Layer_1">
	<g id="Layer_5">
	</g>
	<path class="st0" d="M454.8,150.8v210.3c0,16.1-8.5,30.9-22.4,38.9L252.1,505.2c-14,8.1-31.4,8.1-45.4,0L26.4,400
		C12.6,392,4,377.1,4,361.1V150.7c0-16.1,8.5-30.9,22.4-38.9L206.6,6.6c14.1-8.1,31.4-8.1,45.5,0.1l180.2,105.2
		C446.2,119.9,454.8,134.8,454.8,150.8z M236,477.5l180.4-105.3c4-2.3,6.4-6.5,6.4-11.2V150.8c0-4.6-2.5-8.9-6.5-11.2L236,34.4
		c-2.1-1.2-4.4-1.8-6.7-1.8c-2.3,0-4.6,0.6-6.7,1.8L42.4,139.5c-4,2.3-6.4,6.5-6.4,11.2v210.4c0,4.5,2.5,8.9,6.5,11.3l180.2,105.2
		c2,1.1,4.3,1.8,6.6,1.8C231.7,479.3,234,478.7,236,477.5z M337.5,219c-12-1.6-23.6,1-33.3,6.5l-69.1-67.5c1.2-3.2,2.1-6.5,2.6-10.1
		c3-23.3-13.4-44.7-36.7-47.7c-23.3-3-44.7,13.4-47.7,36.7c-2.1,16.2,5.2,31.5,17.7,40.3l-17.1,74.1c-15.5-0.2-30.5,4.8-42.9,14.3
		c-14.6,11.3-24,27.6-26.4,45.9c-2.4,18.3,2.5,36.5,13.8,51.1c11.3,14.6,27.6,24,45.9,26.4c3,0.4,6.1,0.6,9.1,0.6
		c15.2,0,29.8-5,42-14.4c14.6-11.3,24-27.6,26.4-45.9c0.5-3.6,0.6-7.2,0.6-10.8l62.9-17.1c8.3,13,22,22.3,38.4,24.4
		c29.5,3.8,56.6-17,60.4-46.5S367,222.8,337.5,219z M190,325.2c-1.3,9.8-6.3,18.6-14.2,24.7c-7.9,6.1-17.6,8.7-27.5,7.4
		c-9.8-1.3-18.6-6.3-24.7-14.2c-6.1-7.9-8.7-17.6-7.4-27.5c1.3-9.8,6.3-18.6,14.2-24.7c6.6-5.1,14.4-7.7,22.6-7.7
		c1.6,0,3.2,0.1,4.9,0.3c9.8,1.3,18.6,6.3,24.7,14.2C188.6,305.6,191.2,315.3,190,325.2z M277.1,265.5c-0.2,1.7-0.4,3.4-0.4,5.1
		l-62.7,17c-1.8-3.3-3.8-6.4-6.1-9.4c-6.3-8.2-14.1-14.7-23-19.3l17.2-74.5c3.8-0.6,7.5-1.7,10.9-3.3l69.1,67.6
		C279.6,253.8,277.9,259.5,277.1,265.5z"/>
</g>
<g id="paths" class="st1">
	<line class="st2" x1="193.4" y1="151" x2="154.2" y2="315.5"/>
	<line class="st2" x1="200.7" y1="146.6" x2="327" y2="270.1"/>
	<line class="st2" x1="324.5" y1="274.2" x2="157.6" y2="319.1"/>
	<g class="st3">
		<circle class="st4" cx="195.5" cy="142.3" r="42.6"/>
		
			<ellipse transform="matrix(0.1291 -0.9916 0.9916 0.1291 17.7364 565.0266)" class="st4" cx="330.5" cy="272.4" rx="53.9" ry="53.9"/>
	</g>
	<circle class="st5" cx="153.1" cy="320.4" r="53.2"/>
</g>
</svg>
