<?xml version="1.0" encoding="utf-8"?>
<!-- Generator: Adobe Illustrator 26.0.1, SVG Export Plug-In . SVG Version: 6.00 Build 0)  -->
<svg version="1.1" id="Layer_3" xmlns="http://www.w3.org/2000/svg" xmlns:xlink="http://www.w3.org/1999/xlink" x="0px" y="0px"
	 viewBox="0 0 458.7 512" style="enable-background:new 0 0 458.7 512;" xml:space="preserve">
<style type="text/css">
	.st0{fill:#ED1C24;}
</style>
<path class="st0" d="M432.4,400.1c13.8-8,22.4-22.9,22.4-38.9V150.8c0-16.1-8.5-30.9-22.4-38.9L252.2,6.7
	c-14.1-8.2-31.4-8.2-45.5-0.1L26.4,111.8C12.6,119.8,4,134.7,4,150.7v210.3c0,16.1,8.5,30.9,22.4,38.9l180.2,105.2
	c14,8.1,31.4,8.1,45.4,0L432.4,400.1L432.4,400.1z M370.6,203.4l-138.8-41.6c-2.1-0.6-4.3-0.6-6.5,0.2L88.8,210.3
	c-2,0.7-3.9-0.7-3.9-2.8v-39c0-2.2,1.2-4.2,3.2-5.3l137.7-72.6c2.6-1.3,5.7-1.4,8.2-0.2l137.1,64.7c2.1,1,3.4,3.1,3.4,5.4v40.1
	C374.5,202.5,372.6,204,370.6,203.4z M371,284.7c0,0-137,32.1-138.9,32.5c-2,0.4-3.9,0.3-6.3-0.3c-2-0.4-138.8-37.1-138.8-37.1
	c-1.6-0.4-2.7-2-2.7-3.6V249c0-2.3,1.4-4.2,3.6-4.9L226,199.4c2-0.6,4.1-0.7,6.2-0.1l139.1,38.4c1.6,0.4,2.7,2,2.7,3.6v39.9
	C373.9,282.8,372.7,284.3,371,284.7z M370.7,366.9l-137,55.2c-2.5,1-5.2,0.9-7.5-0.3L88.1,353.7c-2.1-1-3.3-3.1-3.3-5.4v-32.7
	c0-2,1.9-3.4,3.8-2.9L227.2,354c1.8,0.5,3.7,0.5,5.5,0.1l138.1-35.5c1.9-0.5,3.7,0.9,3.7,2.9v40C374.5,363.8,373,366,370.7,366.9z"
	/>
</svg>
