<?xml version="1.0" encoding="utf-8"?>
<!-- Generator: Adobe Illustrator 26.0.1, SVG Export Plug-In . SVG Version: 6.00 Build 0)  -->
<svg version="1.1" id="Layer_5" xmlns="http://www.w3.org/2000/svg" xmlns:xlink="http://www.w3.org/1999/xlink" x="0px" y="0px"
	 viewBox="0 0 458.7 512" style="enable-background:new 0 0 458.7 512;" xml:space="preserve">
<style type="text/css">
	.st0{fill:#ED1C24;}
</style>
<path class="st0" d="M454.8,150.8v210.3c0,16.1-8.5,30.9-22.4,38.9L252.1,505.2c-14,8.1-31.4,8.1-45.4,0L26.4,400
	C12.6,392,4,377.1,4,361.1V150.7c0-16.1,8.5-30.9,22.4-38.9L206.6,6.6c14.1-8.1,31.4-8.1,45.5,0.1l180.2,105.2
	C446.2,119.9,454.8,134.8,454.8,150.8z M236,477.5l180.4-105.3c4-2.3,6.4-6.5,6.4-11.2V150.8c0-4.6-2.5-8.9-6.5-11.2L236,34.4
	c-2.1-1.2-4.4-1.8-6.7-1.8c-2.3,0-4.6,0.6-6.7,1.8L42.4,139.5c-4,2.3-6.4,6.5-6.4,11.2v210.4c0,4.5,2.5,8.9,6.5,11.3l180.2,105.2
	c2,1.1,4.3,1.8,6.6,1.8S234,478.7,236,477.5z M371.2,191.8L371.2,191.8l-48.5-36.2c-5-5-10.9-6-17.6-3.1c-6.6,2.9-10,7.8-10,14.5
	v17.5H91.3c-2.3,0-4.3,0.8-5.9,2.5c-1.7,1.7-2.5,3.6-2.5,5.9v19.2c0,2.3,0.8,4.3,2.4,5.9c1.5,1.7,3.6,2.5,6,2.5h203.8V238
	c0,6.7,3.4,11.6,10,14.5c2.6,1.1,5,1.7,7.4,1.7c3.7,0,7.1-1.4,10.2-4.2l49-36.4v-0.7c2.6-2.8,3.9-6.3,3.9-10.3
	C375.6,198.5,374.1,194.8,371.2,191.8z M372.6,293.7c-1.7-1.6-3.7-2.4-5.9-2.4l-203.8,0.1v-18.6c0-7.1-3.4-11.9-10.1-14.3
	c-6.5-2.3-12.4-0.9-17.5,4l-46.7,35.9l-0.1,0.1c-2.9,2.9-4.4,6.5-4.4,10.8s1.5,7.9,4.4,10.8l46.8,36.6c3.1,2.8,6.5,4.2,10.2,4.2
	c2.3,0,4.8-0.6,7.4-1.7c6.6-2.9,10-7.8,10-14.5v-17.5h203.8c2.3,0,4.3-0.8,5.9-2.5c1.6-1.6,2.5-3.7,2.5-5.9v-19.2
	C375.1,297.3,374.3,295.4,372.6,293.7z"/>
</svg>
