<?xml version="1.0" encoding="UTF-8"?>
<svg id="Layer_3" data-name="Layer 3" xmlns="http://www.w3.org/2000/svg" viewBox="0 0 458.7 512">
  <path d="M452.17,203.9h-40v-53.45l-46.29-26.73,20-34.64,56.29,32.5c6.19,3.57,10,10.17,10,17.32v65ZM295.64,36.99L239.35,4.49c-6.19-3.57-13.81-3.57-20,0l-56.29,32.5,20,34.64,46.29-26.73,46.29,26.73,20-34.64ZM46.53,150.45l46.29-26.73-20-34.64-56.29,32.5c-6.19,3.57-10,10.17-10,17.32v65h40v-53.45ZM92.82,388.28l-46.29-26.73v-53.45H6.53v65c0,7.15,3.81,13.75,10,17.32l56.29,32.5,20-34.64h0ZM239.34,507.52l56.29-32.5-20-34.64-46.29,26.73-46.29-26.73-20,34.64,56.29,32.5c3.09,1.79,6.55,2.68,10,2.68s6.91-.89,10-2.68h0ZM442.16,390.42c6.19-3.57,10-10.17,10-17.32v-65h-40v53.45l-46.29,26.73,20,34.64,56.29-32.5ZM313.29,253.77c18.53,0,33.59,15.07,33.59,33.59v33.59c0,18.53-15.07,33.59-33.59,33.59h-167.97c-18.53,0-33.59-15.07-33.59-33.59v-33.59c0-18.53,15.07-33.59,33.59-33.59h167.97ZM246.1,304.17c0,6.98,5.62,12.6,12.6,12.6s12.6-5.62,12.6-12.6-5.62-12.6-12.6-12.6-12.6,5.62-12.6,12.6ZM300.69,316.76c6.98,0,12.6-5.62,12.6-12.6s-5.62-12.6-12.6-12.6-12.6,5.62-12.6,12.6,5.62,12.6,12.6,12.6ZM308.63,152.26c0-7.18-5.82-13-13-13h-137c-7.18,0-13,5.82-13,13s5.82,13,13,13h137c7.18,0,13-5.82,13-13ZM322.13,222.11c7.18,0,13-5.82,13-13s-5.82-13-13-13h-185.71c-7.18,0-13,5.82-13,13s5.82,13,13,13h185.71Z"/>
</svg>