<?xml version="1.0" encoding="utf-8"?>
<!-- Generator: Adobe Illustrator 26.0.1, SVG Export Plug-In . SVG Version: 6.00 Build 0)  -->
<svg version="1.1" id="Layer_1" xmlns="http://www.w3.org/2000/svg" xmlns:xlink="http://www.w3.org/1999/xlink" x="0px" y="0px"
	 viewBox="0 0 61.9 38.2" style="enable-background:new 0 0 61.9 38.2;" xml:space="preserve">
<style type="text/css">
	.st0{fill:none;}
	.st1{fill:#ED1C24;}
</style>
<g id="Layer_2_00000101807685810073051310000010837513044195014328_">
	<g id="White_Background_Icons">
		<g id="Red">
			<rect x="4.8" y="18.4" class="st0" width="2.4" height="3.2"/>
			<rect x="12.8" y="6.4" class="st0" width="2.4" height="3.2"/>
			<rect x="4.8" y="30.4" class="st0" width="2.4" height="3.2"/>
			<rect x="12.8" y="18.4" class="st0" width="2.4" height="3.2"/>
			<rect x="8.8" y="18.4" class="st0" width="2.4" height="3.2"/>
			<rect x="8.8" y="6.4" class="st0" width="2.4" height="3.2"/>
			<polygon class="st0" points="32.6,18.1 41.5,18.1 43.3,18.1 43.3,9.8 41.5,9.8 32.6,9.8 32.6,9.8 32.6,8.8 32.6,8.8 32.6,1.5 
				23.4,8.8 17,13.9 22.1,18 32.6,26.4 32.6,18.6 32.6,18.6 32.6,18.1 			"/>
			<rect x="4.8" y="6.4" class="st0" width="2.4" height="3.2"/>
			<path d="M44.7,20v-6.9c0,0,0,0.1,0,0.1V20z"/>
			<path d="M34,29.9c0,0.1,0,0.2,0,0.3c0,0,0-0.1,0-0.1v-8.7c0,0,0-0.1,0-0.1c0,0.1,0,0.2,0,0.3V29.9z"/>
			<path class="st1" d="M50.3,36.8h5.2c1.2,0,2.2-1,2.2-2.2c0,0,0,0,0,0v-3.8L56.3,32L50.3,36.8z"/>
			<polygon class="st1" points="46.2,30.9 46.2,38.2 55.5,30.9 61.9,25.8 56.8,21.7 46.2,13.3 46.2,21 46.2,21 46.2,21.6 46.2,21.6 
				37.3,21.6 35.6,21.6 35.6,29.9 37.3,29.9 46.2,29.9 46.2,29.9 46.2,30.9 			"/>
			<path class="st1" d="M55.5,14.8h-5.1l7.2,5.7l0.2,0.2V17C57.8,15.8,56.8,14.8,55.5,14.8z"/>
			<path class="st1" d="M35.4,31.5c-0.7,0-1.3-0.5-1.4-1.2c0-0.1,0-0.2,0-0.3v-8.3c0-0.1,0-0.2,0-0.3c0.1-0.7,0.7-1.2,1.4-1.2h9.2
				v-6.7c0-0.1,0-0.1,0-0.2c0-0.5,0.3-1,0.8-1.2c0.2-0.1,0.4-0.1,0.6-0.1c0.3,0,0.6,0.1,0.9,0.3l0.1,0.1h0.1l0.9,0.7h7.6
				c1.2,0,2.2-1,2.2-2.2c0,0,0,0,0,0V5c0-1.2-1-2.2-2.2-2.2H34.1V1.5c0-0.6-0.3-1.1-0.9-1.3C33.1,0.1,32.8,0,32.6,0
				c-0.3,0-0.7,0.1-0.9,0.3l-3.2,2.5H2.2C1,2.9,0,3.8,0,5v5.7c0,1.2,1,2.2,2.2,2.2c0,0,0,0,0,0h13.7c-0.3,0.3-0.4,0.6-0.4,1
				c0,0.3,0.1,0.7,0.4,0.9H2.2C1,14.8,0,15.7,0,17c0,0,0,0,0,0v5.7c0,1.2,1,2.2,2.2,2.2c0,0,0,0,0,0h26.1l2.4,1.9H2.2
				C1,26.8,0,27.7,0,29c0,0,0,0,0,0v5.7c0,1.2,1,2.2,2.2,2.2c0,0,0,0,0,0h42.4v-5.4H35.4z M7.2,9.6H4.8V6.4h2.4V9.6z M11.2,9.6H8.8
				V6.4h2.4V9.6z M15.2,9.6h-2.4V6.4h2.4V9.6z M7.2,21.6H4.8v-3.2h2.4V21.6z M11.2,21.6H8.8v-3.2h2.4V21.6z M15.2,21.6h-2.4v-3.2
				h2.4V21.6z M7.2,33.6H4.8v-3.2h2.4V33.6z M11.2,33.6H8.8v-3.2h2.4V33.6z M15.2,33.6h-2.4v-3.2h2.4V33.6z M32.6,18.6v7.7L22.1,18
				L17,13.9l6.4-5.1l9.2-7.3v7.3l0,0v0.9h10.6v8.3H32.6L32.6,18.6L32.6,18.6z"/>
		</g>
	</g>
</g>
</svg>
