<?xml version="1.0" encoding="utf-8"?>
<!-- Generator: Adobe Illustrator 26.0.1, SVG Export Plug-In . SVG Version: 6.00 Build 0)  -->
<svg version="1.1" id="Layer_1" xmlns="http://www.w3.org/2000/svg" xmlns:xlink="http://www.w3.org/1999/xlink" x="0px" y="0px"
	 viewBox="0 0 458.7 512" style="enable-background:new 0 0 458.7 512;" xml:space="preserve">
<style type="text/css">
	.st0{fill:#ED1C24;}
</style>
<g id="Layer_5">
</g>
<path class="st0" d="M454.8,150.8v210.3c0,16.1-8.5,30.9-22.4,38.9L252.1,505.2c-14,8.1-31.4,8.1-45.4,0L26.4,400
	C12.6,392,4,377.1,4,361.1V150.7c0-16.1,8.5-30.9,22.4-38.9L206.6,6.6c14.1-8.1,31.4-8.1,45.5,0.1l180.2,105.2
	C446.2,119.9,454.8,134.8,454.8,150.8z M204,94.7L79.7,166.5c-1.7,1-2.7,2.8-2.7,4.7v169.5c0,1.9,1.1,3.8,2.7,4.7L204,417.2
	c3.7,2.1,8.2-0.5,8.2-4.7V99.5C212.2,95.3,207.6,92.6,204,94.7z M309.1,126.2L256,95.6c-3.7-2.1-8.2,0.5-8.2,4.7v311.4
	c0,4.2,4.5,6.8,8.2,4.7l53.1-30.6c1.7-1,2.7-2.8,2.7-4.7V130.9C311.8,128.9,310.7,127.2,309.1,126.2z M339.7,148.6v214.8
	c0,2.1,2.3,3.4,4.1,2.4l36.4-21c0.9-0.5,1.3-1.3,1.3-2.4V169.6c0-1-0.5-1.8-1.3-2.4l-36.4-21C342,145.2,339.7,146.5,339.7,148.6z"/>
</svg>
