<?xml version="1.0" encoding="utf-8"?>
<!-- Generator: Adobe Illustrator 26.0.1, SVG Export Plug-In . SVG Version: 6.00 Build 0)  -->
<svg version="1.1" xmlns="http://www.w3.org/2000/svg" xmlns:xlink="http://www.w3.org/1999/xlink" x="0px" y="0px"
	 viewBox="0 0 458.7 512" style="enable-background:new 0 0 458.7 512;" xml:space="preserve">
<style type="text/css">
	.st0{fill:#ED1C24;}
	.st1{display:none;}
	.st2{display:inline;}
	.st3{fill:none;stroke:#FFFFFF;stroke-width:29.8287;stroke-miterlimit:10;}
	.st4{fill:#ED1C24;stroke:#FFFFFF;stroke-width:29.8287;stroke-miterlimit:10;}
	.st5{fill:#FFFFFF;}
</style>
<g id="Layer_1">
	<g id="Layer_5">
	</g>
	<path class="st0" d="M432.3,111.9L252.1,6.7c-14.1-8.2-31.4-8.2-45.5-0.1L26.4,111.8C12.5,119.8,4,134.6,4,150.7v210.4
		c0,16,8.6,30.9,22.4,38.9l180.3,105.2c14,8.1,31.4,8.1,45.4,0L432.4,400c13.9-8,22.4-22.8,22.4-38.9V150.8
		C454.8,134.8,446.2,119.9,432.3,111.9z M229.4,479.3c-2.3,0-4.6-0.6-6.6-1.8L42.5,372.4c-4-2.3-6.5-6.7-6.5-11.3V150.7
		c0-4.7,2.4-8.9,6.4-11.2L222.6,34.3c2-1.2,4.3-1.8,6.7-1.8c2.4,0,4.7,0.6,6.7,1.8l180.3,105.3c4,2.3,6.5,6.6,6.5,11.2v210.3
		c0,4.7-2.4,8.9-6.4,11.2L236,477.5C234,478.7,231.7,479.3,229.4,479.3z M203.9,380.6h-91.6c-4.7,0-8.5-3.8-8.5-8.5v-91.5h29.8v70.2
		h70.2V380.6z M346,380.6h-91.5v-29.8h70.2v-70.2h29.8v91.5C354.5,376.8,350.7,380.6,346,380.6z M355.2,231.1h-29.8v-70.2h-70.2V131
		h91.5c4.7,0,8.5,3.8,8.5,8.5V231.1z M134.3,231.1h-29.8v-91.5c0-4.7,3.8-8.5,8.5-8.5h91.5v29.8h-70.2V231.1z M139.1,220.9
		 M293.1,194.8l-42.4,59.5l44.3,62.6h-41.1l-24.7-37l-24.9,37H164l44.3-62.1l-42.4-60H207l22.7,34.4l23.2-34.4H293.1z"/>
</g>
<g id="paths" class="st1">
	<g class="st2">
		<g>
			<g>
				<polyline class="st3" points="118.7,280.5 118.7,365.7 203.9,365.7 				"/>
			</g>
			<g>
				<polyline class="st3" points="254.5,365.7 339.6,365.7 339.6,280.5 				"/>
			</g>
		</g>
		<g>
			<g>
				<polyline class="st3" points="340.3,231.1 340.3,145.9 255.1,145.9 				"/>
			</g>
			<g>
				<polyline class="st3" points="204.5,145.9 119.4,145.9 119.4,231.1 				"/>
			</g>
		</g>
		<path class="st4" d="M139.1,220.9"/>
	</g>
	<g class="st2">
		<path class="st5" d="M293.1,194.8l-42.4,59.5l44.3,62.6h-41.1l-24.7-37l-24.9,37H164l44.3-62.1l-42.4-60H207l22.7,34.4l23.2-34.4
			H293.1z"/>
	</g>
</g>
</svg>
