<?xml version="1.0" encoding="UTF-8"?>
<svg id="Layer_2" data-name="Layer 2" xmlns="http://www.w3.org/2000/svg" viewBox="0 0 445.58 504.83">
  <g id="Layer_4" data-name="Layer 4">
    <path d="m445.58,148.52v207.87c0,15.91-8.4,30.54-22.14,38.45l-178.21,103.98c-13.84,8.01-31.04,8.01-44.87,0L22.14,394.84c-13.64-7.91-22.14-22.63-22.14-38.45v-207.97c0-15.91,8.4-30.54,22.14-38.45L200.26,5.99c13.94-8.01,31.04-8.01,44.97.1l178.11,103.98c13.74,7.91,22.24,22.63,22.24,38.45ZM237.45,55.28c-2.8-2.24-6.45-3.05-9.92-2.2l-153.96,88.21c-5.23,1.28-8.91,6.02-8.91,11.47v196.05c0,5.45,3.69,10.19,8.91,11.47l153.96,88.21c.9.22,1.81.33,2.72.33,2.59,0,5.13-.87,7.2-2.53,2.8-2.24,4.43-5.65,4.43-9.27V64.54c0-3.61-1.64-7.03-4.43-9.27Zm-35.71,198.09c-1.1,15.28-10.67,22.39-18.98,17.34-6.48-3.94-10.21-14.39-9.52-24.08.7-9.69,5.78-18.06,12.6-18.85,8.75-1.01,17,10.31,15.9,25.59Zm169.61-95.91l-106.04-61.18v36.47l76.04,43.87c3.87,2.29,6.31,6.47,6.31,10.97v129.53c0,4.58-2.37,8.68-6.31,10.97l-76.04,43.98v36.49l106.04-61.33c4.94-2.87,7.91-8.01,7.91-13.74v-162.3c0-5.63-3.06-10.87-7.91-13.74Z" fill="#ed1c24"/>
  </g>
</svg>