<?xml version="1.0" encoding="utf-8"?>
<!-- Generator: Adobe Illustrator 26.0.1, SVG Export Plug-In . SVG Version: 6.00 Build 0)  -->
<svg version="1.1" id="Layer_1" xmlns="http://www.w3.org/2000/svg" xmlns:xlink="http://www.w3.org/1999/xlink" x="0px" y="0px"
	 viewBox="0 0 521.2 512" style="enable-background:new 0 0 521.2 512;" xml:space="preserve">
<style type="text/css">
	.st0{fill:#ED1C24;}
</style>
<path class="st0" d="M98.7,49.7c37.9,0,68.7,30.7,68.7,68.7S136.6,187,98.7,187S30,156.3,30,118.3S60.8,49.7,98.7,49.7z
	 M199.4,102.7H256v32h-56.6V102.7z M322.1,35.8c45.5-45.5,119.4-45.5,164.9,0s45.5,119.4,0,164.9s-119.4,45.5-164.9,0
	S276.6,81.3,322.1,35.8z M388.3,266.8h32v29.9h-32V266.8z M82.3,219h32v61.7h-32V219z M346.2,353c32.3-32.3,84.7-32.3,117.1,0
	s32.3,84.7,0,117.1s-84.7,32.3-117.1,0S313.9,385.3,346.2,353z M229.5,395.3H290v32h-60.4v-32H229.5z M197.5,411.6
	c0,54.7-44.3,98.8-98.8,98.8S0,466.1,0,411.6s44.3-98.8,98.8-98.8S197.5,356.9,197.5,411.6z M149.5,411.6c0-28-22.8-50.8-50.7-50.8
	c-28,0-50.8,22.8-50.8,50.8s22.8,50.8,50.7,50.8C126.7,462.4,149.5,439.6,149.5,411.6z"/>
</svg>
