<?xml version="1.0" encoding="utf-8"?>
<!-- Generator: Adobe Illustrator 26.0.1, SVG Export Plug-In . SVG Version: 6.00 Build 0)  -->
<svg version="1.1" id="Layer_1" xmlns="http://www.w3.org/2000/svg" xmlns:xlink="http://www.w3.org/1999/xlink" x="0px" y="0px"
	 viewBox="0 0 458.7 512" style="enable-background:new 0 0 458.7 512;" xml:space="preserve">
<style type="text/css">
	.st0{fill:#ED1C24;}
</style>
<g id="Layer_5">
</g>
<path class="st0" d="M454.8,150.8v210.3c0,16.1-8.5,30.9-22.4,38.9L252.1,505.2c-14,8.1-31.4,8.1-45.4,0L26.4,400
	C12.6,392,4,377.1,4,361.1V150.7c0-16.1,8.5-30.9,22.4-38.9L206.6,6.6c14.1-8.1,31.4-8.1,45.5,0.1l180.2,105.2
	C446.2,119.9,454.8,134.8,454.8,150.8z M236,477.5l180.4-105.3c4-2.3,6.4-6.5,6.4-11.2V150.8c0-4.6-2.5-8.9-6.5-11.2L236,34.4
	c-2.1-1.2-4.4-1.8-6.7-1.8c-2.3,0-4.6,0.6-6.7,1.8L42.4,139.5c-4,2.3-6.4,6.5-6.4,11.2v210.4c0,4.5,2.5,8.9,6.5,11.3l180.2,105.2
	c2,1.1,4.3,1.8,6.6,1.8S234,478.7,236,477.5z M368.8,166.4L236.2,89.9c-4.7-2.7-10.3-2.7-14.9,0L88.6,166.4c-4.7,2.7-7.5,7.6-7.5,13
	v153.2c0,5.3,2.8,10.3,7.5,13l132.7,76.6c2.3,1.3,4.8,2,7.5,2s5.1-0.7,7.5-2l132.7-76.7c4.7-2.7,7.5-7.6,7.5-13V179.4
	C376.3,174.1,373.4,169.1,368.8,166.4z M228.7,120l104.4,60.2l-103.5,62.7l-106.9-61.7L228.7,120z M110.9,208.8l104,60V384l-104-60
	C110.9,323.9,110.9,208.8,110.9,208.8z M244.6,382.7V268.6l101.7-61.5V324L244.6,382.7z"/>
</svg>
