<?xml version="1.0" encoding="utf-8"?>
<!-- Generator: Adobe Illustrator 26.0.1, SVG Export Plug-In . SVG Version: 6.00 Build 0)  -->
<svg version="1.1" id="Layer_5" xmlns="http://www.w3.org/2000/svg" xmlns:xlink="http://www.w3.org/1999/xlink" x="0px" y="0px"
	 viewBox="0 0 458.7 512" style="enable-background:new 0 0 458.7 512;" xml:space="preserve">
<style type="text/css">
	.st0{fill:#ED1C24;}
</style>
<path class="st0" d="M454.8,150.8v210.3c0,16.1-8.5,30.9-22.4,38.9L252.1,505.2c-14,8.1-31.4,8.1-45.4,0L26.4,400
	C12.6,392,4,377.1,4,361.1V150.7c0-16.1,8.5-30.9,22.4-38.9L206.6,6.6c14.1-8.1,31.4-8.1,45.5,0.1l180.2,105.2
	C446.2,119.9,454.8,134.8,454.8,150.8z M236,477.5l180.4-105.3c4-2.3,6.4-6.5,6.4-11.2V150.8c0-4.6-2.5-8.9-6.5-11.2L236,34.4
	c-2.1-1.2-4.4-1.8-6.7-1.8c-2.3,0-4.6,0.6-6.7,1.8L42.4,139.5c-4,2.3-6.4,6.5-6.4,11.2v210.4c0,4.5,2.5,8.9,6.5,11.3l180.2,105.2
	c2,1.1,4.3,1.8,6.6,1.8C231.7,479.3,234,478.7,236,477.5z M228.6,95.9c-87.5,0-158.7,71.2-158.7,158.7s71.2,158.7,158.7,158.7
	c11.5,0,22.6-1.2,33.4-3.5c-2.9-4-4.8-8.9-5.3-14.2l-2.4-27.7c-8.7,13.2-18.1,20.1-25.8,20.1c-14.5,0-35.2-24.6-46-70.4h67.4
	l-2.2-25.3h-69.8c-1.6-12.4-2.4-25-2.4-37.7s0.8-25.4,2.4-37.7H279c1.6,12.4,2.4,25,2.4,37.7c0,2.4,0,4.8-0.1,7.1
	c4.2,0.8,8.1,2.5,11.6,5.1l13,9.8c0.5-7.5,0.8-14.8,0.8-22.1c0-12.6-0.8-25.2-2.3-37.7h52.2c3.6,12.2,5.4,24.9,5.4,37.7
	c0,12.8-1.8,25.5-5.4,37.7h-29.9l43.9,33.1c10.7-21.3,16.7-45.4,16.7-70.8C387.3,167.1,316.1,95.9,228.6,95.9z M95.2,254.7
	c0-12.8,1.8-25.5,5.4-37.7h52.2c-1.6,13.1-2.3,25.4-2.3,37.7c0,12.6,0.8,25.2,2.3,37.7h-52.2C97,280.2,95.2,267.5,95.2,254.7z
	 M179.6,378.7c-29.1-11.6-53.6-33.4-68.5-61h45.6C161.8,341.6,169.7,362.5,179.6,378.7z M156.8,191.7h-45.6
	c14.9-27.7,39.4-49.5,68.5-61C169.7,146.9,161.8,167.8,156.8,191.7z M182.6,191.7c10.7-45.8,31.5-70.4,46-70.4s35.2,24.6,46,70.4
	H182.6z M300.4,191.7c-5-23.9-12.9-44.8-22.9-61c29.1,11.6,53.6,33.4,68.5,61H300.4z M361.3,349.4L278,286.7c-2.4-1.8-5.8,0.1-5.5,3
	l8.9,103.8c0.2,2.8,3.7,4.1,5.8,2.1l18.4-17.7c1.6-1.6,4.3-1.2,5.4,0.7l13.7,25.4c0.9,1.6,3,2.2,4.6,1.3l16-8.9
	c1.7-0.9,2.3-3,1.4-4.6L333,366.6c-1.1-2,0-4.4,2.2-5l24.8-6.2C362.8,354.7,363.5,351.1,361.3,349.4z"/>
</svg>
