<?xml version="1.0" encoding="utf-8"?>
<!-- Generator: Adobe Illustrator 26.0.1, SVG Export Plug-In . SVG Version: 6.00 Build 0)  -->
<svg version="1.1" id="Layer_1" xmlns="http://www.w3.org/2000/svg" xmlns:xlink="http://www.w3.org/1999/xlink" x="0px" y="0px"
	 viewBox="0 0 512 512" style="enable-background:new 0 0 512 512;" xml:space="preserve">
<style type="text/css">
	.st0{fill:#ED1C24;}
</style>
<path class="st0" d="M458.5,6.1L256,6H52.5c-14.9,0-27,12.1-27,27v221.9c0,162,154,219.3,216.4,247c9,4,19.2,4,28.2,0
	c62.3-27.8,215.4-85,215.4-247V33.1C485.5,18.2,473.4,6.1,458.5,6.1z M69.5,254.9V50h372v32.3c-17.2-1.1-38.5-2.2-55-2.2
	c-123.8,0-224.1,22.3-224,52.5c0,5.2,3,10.2,8.7,15c12-7.9,30.3-15,54.7-20.9c4.6-1.1,9.3-2.2,14.1-3.2
	c26.7-10.8,70.6-17,122.5-19.7c31.4-1.6,63.4,1.1,79,2.6v25.9c-20.6-0.7-43.6-1.3-55-1.3c-123.8,0-224.1,24.3-224,54.2
	c0,4.7,2.4,9.1,6.9,13.4c12-8.6,30.9-16,56.6-22.2c10.5-2.5,21.7-4.8,33.7-6.8c35.8-9.9,88.3-16.2,147.1-16.2
	c6.2,0,20.4,0.4,34.7,0.8v27.9c-20.8-0.1-43.7,0-55.1,0c-123.6,0-223.9,24.4-223.9,54.4c0,11.3,14.4,21.9,39,30.6V435
	c-23.3-11.9-48.2-26.8-69.9-45.9C89.8,352.3,69.5,308.4,69.5,254.9z M374.1,394c-14.6,12.2-30.4,22.6-46.1,31.5V208.8
	c14.5-1.5,30-2.7,46.1-3.4V394z M263.7,456.7c-2.6,1.1-5.2,2.3-7.7,3.4c-2.6-1.1-5.3-2.3-8-3.5c-2-0.9-4.1-1.8-6.3-2.8V227
	c12.3-4.7,27.9-8.9,46.1-12.3v231.2C279.1,449.9,271,453.5,263.7,456.7z M414.2,349.9V204.8c4.4,0,15.5-0.1,27.3-0.2v50.3
	C441.5,290.6,432.5,322,414.2,349.9z"/>
</svg>
