<?xml version="1.0" encoding="utf-8"?>
<!-- Generator: Adobe Illustrator 26.0.1, SVG Export Plug-In . SVG Version: 6.00 Build 0)  -->
<svg version="1.1" id="Layer_1" xmlns="http://www.w3.org/2000/svg" xmlns:xlink="http://www.w3.org/1999/xlink" x="0px" y="0px"
	 viewBox="0 0 527.4 512" style="enable-background:new 0 0 527.4 512;" xml:space="preserve">
<path d="M269.7,3.1c-45.4,0-89.9,12.2-128.8,35.4c-37.2,22.1-68.3,53.5-90,90.9c-27.6,6.4-47.5,31.2-47.5,59.7
	c0,14.7,5.3,28.8,14.9,40c-0.9,8.6-1.4,17.6-1.4,26.8c0,139.4,113.4,252.8,252.8,252.8s252.8-113.4,252.8-252.8S409.1,3.1,269.7,3.1
	z M64.5,213.5c-13.5,0-24.4-10.9-24.4-24.4s10.9-24.4,24.4-24.4s24.4,10.9,24.4,24.4S78,213.5,64.5,213.5z M352.6,442.9l-1.1,0.5
	l0.6-1c14-26.3,25-59.8,31.7-96.6l0.1-0.5h69.8l-0.4,0.8C432.1,389.1,396.3,423.5,352.6,442.9z M113.5,345.4
	c6.8,24.4,27.9,42.1,53,44.5c5.8,19.1,12.9,36.8,21.2,52.5l0.5,1l-1.2-0.6l0,0c-43.7-19.4-79.5-53.8-100.7-96.9l-0.3-0.6h27.5V345.4
	z M196.1,272.7c-0.3-6.5-0.4-11.7-0.4-16.7c0-12.6,0.6-25.6,1.9-40.8v-0.5H310c6.7,14.5,18.7,25.8,33.6,31.5
	c0.1,3.3,0.1,6.5,0.1,9.7c0,14.7-1,28.3-1.9,40.2l-0.1,1.2H224.6C217.9,286.3,207.9,277.7,196.1,272.7z M365.6,164.7
	c13.5,0,24.4,10.9,24.4,24.4s-10.9,24.4-24.4,24.4s-24.4-10.9-24.4-24.4S352.1,164.7,365.6,164.7z M422.4,166.5
	c-8-20.1-26.1-34.6-47.4-37.9c-6.2-22.1-14-41.9-23.2-59l-0.7-1.3l1.4,0.6c43.7,19.4,79.5,53.8,100.7,96.8l0.4,0.7L422.4,166.5
	L422.4,166.5z M204.6,166.5l0.1-0.5c13-63.3,42.2-114.7,65-114.7c19.1,0,43.6,37.4,58.6,89.3c-8.7,6.7-15.5,15.8-19.6,25.9H204.6z
	 M196.7,329c0,13.5-10.9,24.4-24.4,24.4s-24.4-10.9-24.4-24.4s10.9-24.4,24.4-24.4S196.7,315.5,196.7,329z M187.4,69.6
	c-14.1,26.6-25,60-31.7,96.5l-0.1,0.5h-34.3c-4.2-10.4-11.2-19.6-20.1-26.3c21.6-31.5,51.1-56.1,85.7-71.4l1.1-0.5L187.4,69.6z
	 M65.1,250.2c23.9-0.2,45.1-14,55.1-35.6h29.4v0.4c-1.2,14.9-1.7,27.9-1.7,40.8c0,5,0.1,10.3,0.4,16.9c-11.6,5.1-21.4,13.6-28,24.4
	h-51l-0.1-0.3c-2.7-13.5-4.1-27.3-4.1-40.9C65,254,65,252.1,65.1,250.2z M231.2,345.3h103.7l-0.1,0.6c-6.1,29.1-16.4,58.2-28.3,79.7
	c-12.5,22.6-25.6,35-36.8,35c-18.7,0-42.2-35-57.5-85.4C221.3,367.2,227.9,356.8,231.2,345.3z M390.1,296.8c1.2-15,1.7-28,1.7-40.8
	c0-3.7-0.1-7.6-0.2-11.6c12.9-6.1,23.4-16.7,29.4-29.7h49.3l0.1,0.4c2.7,13.4,4.1,27.2,4.1,40.9c0,13.3-1.4,27.1-4.1,40.9l-0.1,0.3
	H390L390.1,296.8z"/>
</svg>
