<?xml version="1.0" encoding="utf-8"?>
<!-- Generator: Adobe Illustrator 26.0.1, SVG Export Plug-In . SVG Version: 6.00 Build 0)  -->
<svg version="1.1" id="Layer_1" xmlns="http://www.w3.org/2000/svg" xmlns:xlink="http://www.w3.org/1999/xlink" x="0px" y="0px"
	 viewBox="0 0 640 512" style="enable-background:new 0 0 640 512;" xml:space="preserve">
<path d="M393.8,191l75.6,40.8L424.1,252v153.5v28.2v53.2h-59.9v-53.2V175l-97.7,43.5v116.2l52.5,28.4V490h-73.7v-56.3h-0.1V321.8
	l-61,27.2v84.7h-79C47.2,433.7,0,386.8,0,329.2s47.2-104.5,105.2-104.5c0.3,0,0.5,0,0.8,0c-3.8-8.9-5.8-18.5-5.8-28.2
	c0-39.3,32.2-71.3,71.8-71.3c14.9,0,29.3,4.6,41.4,13.1c22.7-48.5,71.3-79.4,125.6-79.4c35,0,67,12.9,91.4,34.3l-36.6,16.3V191z
	 M609.5,258.2V129.7L491.5,66v156l30.3-13.5v278.4h0.2h87.5H640V274.7L609.5,258.2z"/>
</svg>
