<?xml version="1.0" encoding="UTF-8"?>
<svg id="Layer_2" data-name="Layer 2" xmlns="http://www.w3.org/2000/svg" version="1.1" viewBox="0 0 458.7 512">
  <defs>
    <style>
      .cls-1 {
        fill: #000;
        stroke-width: 0px;
      }
    </style>
  </defs>
  <path class="cls-1" d="M452.2,203.9h-40v-53.5l-46.3-26.7,20-34.6,56.3,32.5c6.2,3.6,10,10.2,10,17.3v65ZM229.4,44.9l46.3,26.7,20-34.6L239.4,4.5c-6.2-3.6-13.8-3.6-20,0l-56.3,32.5,20,34.6,46.3-26.7ZM46.5,150.5l46.3-26.7-20-34.6-56.3,32.5c-6.2,3.6-10,10.2-10,17.3v65h40v-53.5ZM92.8,388.3l-46.3-26.7v-53.5H6.5v65c0,7.1,3.8,13.7,10,17.3l56.3,32.5,20-34.6ZM239.4,507.5l56.3-32.5-20-34.6-46.3,26.7-46.3-26.7-20,34.6,56.3,32.5c3.1,1.8,6.5,2.7,10,2.7s6.9-.9,10-2.7ZM442.2,390.4c6.2-3.6,10-10.2,10-17.3v-65h-40v53.5l-46.3,26.7,20,34.6,56.3-32.5ZM303.1,157c-1.4-3.7-3-7.2-4.9-10.5l-1.4-2.5c-2-3.4-4.3-6.6-6.8-9.6-1.8-2.2-4.8-3-7.5-2.1l-17.1,5.4c-4.1-3.2-8.7-5.8-13.5-7.8l-3.8-17.6c-.6-2.8-2.8-5-5.6-5.5-4.2-.7-8.6-1.1-13.1-1.1s-8.8.4-13.1,1.1c-2.8.5-5,2.7-5.6,5.5l-3.8,17.6c-4.9,2-9.4,4.6-13.5,7.8l-17.1-5.4c-2.7-.9-5.7-.1-7.5,2.1-2.5,3-4.8,6.2-6.8,9.6l-1.4,2.5c-1.9,3.4-3.5,6.9-4.9,10.5-1,2.7-.2,5.7,2,7.6l13.3,12.1c-.3,2.6-.5,5.2-.5,7.8s.2,5.3.5,7.8l-13.3,12.1c-2.1,1.9-3,4.9-2,7.6,1.4,3.7,3,7.2,4.9,10.5l1.4,2.5c2,3.4,4.3,6.6,6.8,9.6,1.8,2.2,4.8,3,7.5,2.1l17.1-5.5c4.1,3.2,8.7,5.8,13.5,7.8l3.8,17.6c.6,2.8,2.8,5,5.6,5.5,4.2.7,8.6,1.1,13.1,1.1s8.8-.4,13.1-1.1c2.8-.5,5-2.7,5.6-5.5l3.8-17.6c4.9-2,9.4-4.6,13.5-7.8l17.1,5.4c2.7.9,5.7.1,7.5-2.1,2.5-3,4.8-6.2,6.8-9.6l1.4-2.5c1.9-3.4,3.5-6.9,4.9-10.5,1-2.7.2-5.7-2-7.6l-13.3-12.1c.3-2.6.5-5.2.5-7.8s-.2-5.3-.5-7.8l13.3-12.1c2.1-1.9,3-4.9,2-7.6h0ZM204.8,184.5c0-13.6,11-24.6,24.6-24.6s24.6,11,24.6,24.6-11,24.6-24.6,24.6-24.6-11-24.6-24.6ZM188.7,283.9c-1.7,0-24.3,1-38.5,9.2-23.9,13.8-26.7,44.3-26.7,44.3l-5.8,6.8-6.1,7.2c-2.6,3.1-2.7,8.1.7,10.5l42.4,24.8c4.2,2.7,7.9,2.2,10.6-.8l13.8-15.9h79.7c2,0,3.8-.3,5.6-.8,2-.4,4-1.1,5.9-2.3l.8-.5c.4-.2.7-.5,1.1-.7l58-39.5c3.7-2.4,6-6.1,6.8-10.1,0-.1.1-.3.2-.4l11.3-39.2c2.4-8.2-2.4-16.8-10.6-19.2-8.2-2.4-16.8,2.4-19.2,10.6l-8.1,28.1c-1.7,6.7-6.2,7.9-6.2,7.9l-41,21.9c-2.9,1.4-11.2,1.3-11.2,1.3h-41.6c-.1,0-.2,0-.3,0-3.4-.3-6-3.1-6-6.5v-2.8c0-3.3,2.5-6,5.7-6.5.2,0,.3,0,.6,0h40.2c7.5,0,13.6-6.1,13.6-13.6s-5.6-13.1-12.6-13.6h-62.8Z"/>
</svg>