<?xml version="1.0" encoding="utf-8"?>
<!-- Generator: Adobe Illustrator 26.0.1, SVG Export Plug-In . SVG Version: 6.00 Build 0)  -->
<svg version="1.1" xmlns="http://www.w3.org/2000/svg" xmlns:xlink="http://www.w3.org/1999/xlink" x="0px" y="0px"
	 viewBox="0 0 458.7 512" style="enable-background:new 0 0 458.7 512;" xml:space="preserve">
<style type="text/css">
	.st0{fill:#ED1C24;}
	.st1{display:none;}
	.st2{display:inline;fill:#FFFFFF;stroke:#FFFFFF;stroke-width:0.25;stroke-miterlimit:10;}
	.st3{display:inline;fill:none;stroke:#000000;stroke-miterlimit:10;}
	.st4{display:inline;fill:#231F20;}
</style>
<g id="Layer_1">
	<path class="st0" d="M432.3,111.9L252.1,6.7c-14.1-8.2-31.4-8.2-45.5-0.1L26.4,111.8C12.5,119.8,4,134.6,4,150.7v210.4
		c0,16,8.6,30.9,22.4,38.9l180.3,105.2c14,8.1,31.4,8.1,45.4,0L432.4,400c13.9-8,22.4-22.8,22.4-38.9V150.8
		C454.8,134.8,446.2,119.9,432.3,111.9z M128,375.5l-54.5-31.4v-92.3c0-3.1,2.5-5.6,5.6-5.6h43.2c3.1,0,5.6,2.5,5.6,5.6
		C128,251.8,128,375.5,128,375.5z M213.8,424.9l-54.5-31.4V221.2c0-3.1,2.5-5.6,5.6-5.6h43.2c3.1,0,5.6,2.5,5.6,5.6L213.8,424.9
		L213.8,424.9z M299.6,393.2l-54.5,31.5V145.6c0-3.1,2.5-5.6,5.6-5.6H294c3.1,0,5.6,2.5,5.6,5.6V393.2z M385.5,343.5L331.1,375
		V175.9c0-3.1,2.5-5.6,5.6-5.6h43.2c3.1,0,5.6,2.5,5.6,5.6L385.5,343.5L385.5,343.5z"/>
	<g id="full_pieces" class="st1">
		<path class="st2" d="M120.8,420.2H76.9c-3.1,0-5.7-2.5-5.7-5.7V254.4c0-3.1,2.5-5.7,5.7-5.7h43.9c3.1,0,5.7,2.5,5.7,5.7v160.1
			C126.5,417.6,123.9,420.2,120.8,420.2z"/>
		<path class="st2" d="M207.9,448H164c-3.1,0-5.7-2.5-5.7-5.7v-219c0-3.1,2.5-5.7,5.7-5.7h43.9c3.1,0,5.7,2.5,5.7,5.7v219
			C213.6,445.5,211.1,448,207.9,448z"/>
		<path class="st2" d="M295.1,448.9h-43.9c-3.1,0-5.7-2.5-5.7-5.7V146.5c0-3.1,2.5-5.7,5.7-5.7h43.9c3.1,0,5.7,2.5,5.7,5.7v296.7
			C300.7,446.4,298.2,448.9,295.1,448.9z"/>
		<path class="st2" d="M382.2,398.1h-43.9c-3.1,0-5.7-2.5-5.7-5.7V177.3c0-3.1,2.5-5.7,5.7-5.7h43.9c3.1,0,5.7,2.5,5.7,5.7v215.1
			C387.9,395.5,385.3,398.1,382.2,398.1z"/>
	</g>
	<g id="crop" class="st1">
		<path class="st3" d="M379.6,160.3L237.4,78.2c-5-2.9-11.1-2.9-16,0L79.1,160.3c-5,2.9-8,8.1-8,13.9v164.3c0,5.7,3,11,8,13.9
			l142.3,82.2c2.5,1.4,5.2,2.1,8,2.1s5.5-0.7,8-2.1l142.3-82.3c5-2.9,8-8.1,8-13.9V174.2C387.6,168.5,384.5,163.2,379.6,160.3z"/>
	</g>
</g>
<g id="Layer_3" class="st1">
	<path class="st4" d="M432,399.3c13.8-8,22.4-22.9,22.4-38.9V150c0-16.1-8.5-30.9-22.4-38.9L251.8,5.9c-14.1-8.2-31.4-8.2-45.5-0.1
		L26,111c-13.8,8-22.4,22.9-22.4,38.9v210.3c0,16.1,8.5,30.9,22.4,38.9l180.2,105.2c14,8.1,31.4,8.1,45.4,0L432,399.3L432,399.3z
		 M370.2,202.6L231.4,161c-2.1-0.6-4.3-0.6-6.5,0.2L88.4,209.5c-2,0.7-3.9-0.7-3.9-2.8v-39c0-2.2,1.2-4.2,3.2-5.3l137.7-72.6
		c2.6-1.3,5.7-1.4,8.2-0.2l137.1,64.7c2.1,1,3.4,3.1,3.4,5.4v40.1C374.1,201.7,372.2,203.2,370.2,202.6z M370.6,283.9
		c0,0-137,32.1-138.9,32.5c-2,0.4-3.9,0.3-6.3-0.3c-2-0.4-138.8-37.1-138.8-37.1c-1.6-0.4-2.7-2-2.7-3.6v-27.2
		c0-2.3,1.4-4.2,3.6-4.9l138.1-44.7c2-0.6,4.1-0.7,6.2-0.1l139.1,38.4c1.6,0.4,2.7,2,2.7,3.6v39.9
		C373.5,282,372.3,283.5,370.6,283.9z M370.3,366.1l-137,55.2c-2.5,1-5.2,0.9-7.5-0.3L87.7,352.9c-2.1-1-3.3-3.1-3.3-5.4v-32.7
		c0-2,1.9-3.4,3.8-2.9l138.6,41.3c1.8,0.5,3.7,0.5,5.5,0.1l138.1-35.5c1.9-0.5,3.7,0.9,3.7,2.9v40
		C374.1,363,372.6,365.2,370.3,366.1z"/>
</g>
</svg>
